<svg id="Capa_1" enable-background="new 0 0 512 512" height="512" viewBox="0 0 512 512" width="512" xmlns="http://www.w3.org/2000/svg" xmlns:xlink="http://www.w3.org/1999/xlink"><linearGradient id="SVGID_1_" gradientUnits="userSpaceOnUse" x1="45.274" x2="466.726" y1="256" y2="256"><stop offset=".0485" stop-color="#ffdbed"/><stop offset=".9993" stop-color="#d2deff"/></linearGradient><g><g><g><path d="m97.146 38.232c-135.328 119.538 38.831 235.409 22.243 366.028-7.375 58.072 16.054 113.588 92.705 107.244 93.413-7.732 59.504-97.209 79.066-156.778 33.66-102.501 240.73-78.56 154.895-236.448-54.778-100.758-255.766-162.321-348.909-80.046z" fill="url(#SVGID_1_)"/></g><g><g><g opacity=".1"><path d="m379.868 139.039c-2.762 0-5-2.239-5-5 0-14.928-12.145-27.073-27.073-27.073h-100.055c-20.442 0-37.073-16.631-37.073-37.073v-27.58c0-2.761 2.239-5 5-5s5 2.239 5 5v27.58c0 14.928 12.145 27.073 27.073 27.073h100.055c20.442 0 37.073 16.631 37.073 37.073 0 2.761-2.238 5-5 5z" fill="#2626bc"/></g><path d="m401.653 142.979h-43.57v-22.94c0-5.523 4.477-10 10-10h23.57c5.523 0 10 4.477 10 10z" fill="#6583fe"/><path d="m441.726 160.311h-232.052v-9.707c0-11.046-8.954-20-20-20h-68.016c-11.046 0-20 8.954-20 20v9.707h-31.384c-5.523 0-10 4.477-10 10v264.67c0 5.523 4.477 10 10 10h31.385v9.707c0 11.046 8.954 20 20 20h68.016c11.046 0 20-8.954 20-20v-9.707h232.052c5.523 0 10-4.477 10-10v-264.67c-.001-5.523-4.478-10-10.001-10z" fill="#2626bc" opacity=".1"/><path d="m441.726 420.981h-371.452c-5.523 0-10-4.477-10-10v-264.67c0-5.523 4.477-10 10-10h371.452c5.523 0 10 4.477 10 10v264.67c0 5.522-4.477 10-10 10z" fill="#b7c5ff"/><path d="m209.674 177.745v-51.142c0-11.046-8.954-20-20-20h-68.016c-11.046 0-20 8.954-20 20v51.142c0 5.088 3.802 9.279 8.719 9.909v181.983c-4.916.63-8.719 4.821-8.719 9.909v51.142c0 11.046 8.954 20 20 20h68.016c11.046 0 20-8.954 20-20v-51.142c0-5.088-3.802-9.279-8.719-9.909v-181.983c4.917-.63 8.719-4.821 8.719-9.909z" fill="#02ffb3"/><path d="m415.33 171.006v33.83c0 5.52-4.47 10-10 10h-149.33c-5.52 0-10-4.48-10-10v-33.83c0-5.53 4.48-10 10-10h149.33c5.53 0 10 4.47 10 10z" fill="#02ffb3"/><g fill="#97ffd2"><path d="m248.35 251.676c-.47.35-.74.5-.81.43-.18-.18.12-.32.81-.43z"/><path d="m370.09 161.006-53.82 53.83h-30.14c18.6-18.75 39.67-40.3 52.86-53.83z"/><path d="m415.33 171.006v15.97l-27.85 27.86h-54.34l53.83-53.83h18.36c5.53 0 10 4.47 10 10z"/></g><g><g><g><circle cx="262.083" cy="250.562" fill="#ff7eb8" r="16.083"/></g><g><circle cx="310.083" cy="250.562" fill="#ff7eb8" r="16.083"/></g><g><circle cx="358.083" cy="250.562" fill="#ff7eb8" r="16.083"/></g></g><g><g><circle cx="262.083" cy="292.229" fill="#ff7eb8" r="16.083"/></g><g><circle cx="310.083" cy="292.229" fill="#ff7eb8" r="16.083"/></g><g><circle cx="358.083" cy="292.229" fill="#ff7eb8" r="16.083"/></g></g><g><g><circle cx="262.083" cy="333.896" fill="#ff7eb8" r="16.083"/></g><g><circle cx="310.083" cy="333.896" fill="#ff7eb8" r="16.083"/></g><g><circle cx="358.083" cy="333.896" fill="#ff7eb8" r="16.083"/></g></g><g fill="#6583fe"><path d="m406.673 253.965h-6.514c-4.783 0-8.66-3.877-8.66-8.66 0-4.783 3.877-8.66 8.66-8.66h6.514c4.783 0 8.66 3.877 8.66 8.66 0 4.783-3.877 8.66-8.66 8.66z"/><path d="m406.673 285.525h-6.514c-4.783 0-8.66-3.877-8.66-8.66 0-4.783 3.877-8.66 8.66-8.66h6.514c4.783 0 8.66 3.877 8.66 8.66 0 4.783-3.877 8.66-8.66 8.66z"/><path d="m406.673 317.086h-6.514c-4.783 0-8.66-3.877-8.66-8.66 0-4.783 3.877-8.66 8.66-8.66h6.514c4.783 0 8.66 3.877 8.66 8.66 0 4.782-3.877 8.66-8.66 8.66z"/><path d="m406.673 348.646h-6.514c-4.783 0-8.66-3.877-8.66-8.66 0-4.783 3.877-8.66 8.66-8.66h6.514c4.783 0 8.66 3.877 8.66 8.66 0 4.783-3.877 8.66-8.66 8.66z"/></g></g><g><g><g><path d="m252.996 380.156c-2.762 0-5-2.239-5-5v-.115c0-2.761 2.238-5 5-5s5 2.239 5 5v.115c0 2.761-2.239 5-5 5z" fill="#2626bc"/></g><g><path d="m273.997 380.156c-2.762 0-5-2.239-5-5v-.115c0-2.761 2.238-5 5-5s5 2.239 5 5v.115c0 2.761-2.239 5-5 5z" fill="#2626bc"/></g><g><path d="m294.998 380.156c-2.762 0-5-2.239-5-5v-.115c0-2.761 2.238-5 5-5s5 2.239 5 5v.115c0 2.761-2.239 5-5 5z" fill="#2626bc"/></g><g><path d="m315.999 380.156c-2.762 0-5-2.239-5-5v-.115c0-2.761 2.238-5 5-5s5 2.239 5 5v.115c0 2.761-2.239 5-5 5z" fill="#2626bc"/></g></g><g><g><path d="m252.996 396.146c-2.762 0-5-2.239-5-5v-.115c0-2.761 2.238-5 5-5s5 2.239 5 5v.115c0 2.761-2.239 5-5 5z" fill="#2626bc"/></g><g><path d="m273.997 396.146c-2.762 0-5-2.239-5-5v-.115c0-2.761 2.238-5 5-5s5 2.239 5 5v.115c0 2.761-2.239 5-5 5z" fill="#2626bc"/></g><g><path d="m294.998 396.146c-2.762 0-5-2.239-5-5v-.115c0-2.761 2.238-5 5-5s5 2.239 5 5v.115c0 2.761-2.239 5-5 5z" fill="#2626bc"/></g><g><path d="m315.999 396.146c-2.762 0-5-2.239-5-5v-.115c0-2.761 2.238-5 5-5s5 2.239 5 5v.115c0 2.761-2.239 5-5 5z" fill="#2626bc"/></g></g></g><g><g><g><path d="m347 380.156c-2.762 0-5-2.239-5-5v-.115c0-2.761 2.238-5 5-5s5 2.239 5 5v.115c0 2.761-2.238 5-5 5z" fill="#2626bc"/></g><g><path d="m368.001 380.156c-2.762 0-5-2.239-5-5v-.115c0-2.761 2.238-5 5-5s5 2.239 5 5v.115c0 2.761-2.238 5-5 5z" fill="#2626bc"/></g><g><path d="m389.002 380.156c-2.762 0-5-2.239-5-5v-.115c0-2.761 2.238-5 5-5s5 2.239 5 5v.115c0 2.761-2.238 5-5 5z" fill="#2626bc"/></g><g><path d="m410.003 380.156c-2.762 0-5-2.239-5-5v-.115c0-2.761 2.238-5 5-5s5 2.239 5 5v.115c0 2.761-2.238 5-5 5z" fill="#2626bc"/></g></g><g><g><path d="m347 396.146c-2.762 0-5-2.239-5-5v-.115c0-2.761 2.238-5 5-5s5 2.239 5 5v.115c0 2.761-2.238 5-5 5z" fill="#2626bc"/></g><g><path d="m368.001 396.146c-2.762 0-5-2.239-5-5v-.115c0-2.761 2.238-5 5-5s5 2.239 5 5v.115c0 2.761-2.238 5-5 5z" fill="#2626bc"/></g><g><path d="m389.002 396.146c-2.762 0-5-2.239-5-5v-.115c0-2.761 2.238-5 5-5s5 2.239 5 5v.115c0 2.761-2.238 5-5 5z" fill="#2626bc"/></g><g><path d="m410.003 396.146c-2.762 0-5-2.239-5-5v-.115c0-2.761 2.238-5 5-5s5 2.239 5 5v.115c0 2.761-2.238 5-5 5z" fill="#2626bc"/></g></g></g><path d="m168.333 328.354h-25.333c-5.523 0-10-4.477-10-10v-79.417c0-5.523 4.477-10 10-10h25.333c5.523 0 10 4.477 10 10v79.417c0 5.523-4.477 10-10 10z" fill="#fff"/><path d="m178.333 254.312v-15.375c0-5.523-4.477-10-10-10h-25.333c-5.523 0-10 4.477-10 10v15.375z" fill="#9fb0fe"/></g><path d="m299.998 490.688c-2.762 0-5-2.239-5-5 0-3.309-2.692-6-6.001-6-2.762 0-5-2.239-5-5s2.238-5 5-5c3.309 0 6.001-2.691 6.001-6 0-2.761 2.238-5 5-5s5 2.239 5 5c0 3.309 2.691 6 5.999 6 2.762 0 5 2.239 5 5s-2.238 5-5 5c-3.308 0-5.999 2.691-5.999 6 0 2.761-2.238 5-5 5z" fill="#6583fe"/><path d="m358.083 489c-2.762 0-5-2.239-5-5 0-3.309-2.691-6-6-6-2.762 0-5-2.239-5-5s2.238-5 5-5c3.309 0 6-2.691 6-6 0-2.761 2.238-5 5-5s5 2.239 5 5c0 3.309 2.691 6 6 6 2.762 0 5 2.239 5 5s-2.238 5-5 5c-3.309 0-6 2.691-6 6 0 2.761-2.238 5-5 5z" fill="#ff7eb8"/><path d="m433 69.313c-2.762 0-5-2.239-5-5 0-3.309-2.691-6-6-6-2.762 0-5-2.239-5-5s2.238-5 5-5c3.309 0 6-2.691 6-6 0-2.761 2.238-5 5-5s5 2.239 5 5c0 3.309 2.691 6 6 6 2.762 0 5 2.239 5 5s-2.238 5-5 5c-3.309 0-6 2.691-6 6 0 2.761-2.238 5-5 5z" fill="#01eca5"/><path d="m163.019 76.665c-1.28 0-2.559-.488-3.536-1.464l-11-11c-1.953-1.953-1.953-5.119 0-7.071l11-11c1.953-1.952 5.118-1.952 7.071 0l11 11c1.953 1.953 1.953 5.119 0 7.071l-11 11c-.976.975-2.256 1.464-3.535 1.464zm-3.929-16 3.929 3.929 3.929-3.929-3.929-3.929z" fill="#6583fe"/><path d="m368.001 58.313c-1.279 0-2.56-.488-3.535-1.464l-11-11c-1.953-1.953-1.953-5.119 0-7.071l11-11c1.951-1.952 5.119-1.952 7.07 0l11 11c1.953 1.953 1.953 5.119 0 7.071l-11 11c-.975.975-2.256 1.464-3.535 1.464zm-3.929-16 3.929 3.929 3.929-3.929-3.929-3.929z" fill="#ff7eb8"/></g></g><path d="m96.659 126.604v4.708h-26.385c-8.271 0-15 6.729-15 15v264.668c0 8.271 6.729 15 15 15h26.385v4.707c0 13.785 11.215 25 25 25h68.016c13.785 0 25-11.215 25-25v-4.707h227.052c8.271 0 15-6.729 15-15v-264.669c0-8.271-6.729-15-15-15h-35.073v-11.272c0-8.271-6.729-15-15-15h-7.132c-2.45-18.085-17.981-32.073-36.727-32.073h-100.055c-14.928 0-27.073-12.145-27.073-27.073v-3.58c0-2.761-2.239-5-5-5s-5 2.239-5 5v3.58c0 20.442 16.631 37.073 37.073 37.073h100.055c13.22 0 24.25 9.526 26.603 22.073h-6.315c-8.271 0-15 6.729-15 15v11.272h-109.748c-2.761 0-5 2.239-5 5s2.239 5 5 5h198.392c2.757 0 5 2.243 5 5v264.669c0 2.757-2.243 5-5 5h-227.053v-36.435c0-5.962-3.536-11.216-8.719-13.613v-33.436c0-2.761-2.239-5-5-5s-5 2.239-5 5v37.14c0 2.516 1.869 4.64 4.364 4.959 2.482.318 4.354 2.446 4.354 4.949v51.142c0 8.271-6.729 15-15 15h-68.016c-8.271 0-15-6.729-15-15v-51.142c0-2.503 1.872-4.631 4.354-4.949 2.495-.32 4.364-2.444 4.364-4.959v-181.982c0-2.516-1.869-4.64-4.364-4.959-2.482-.318-4.354-2.446-4.354-4.95v-51.142c0-8.271 6.729-15 15-15h68.016c8.271 0 15 6.729 15 15v51.142c0 2.503-1.872 4.631-4.354 4.95-2.495.32-4.364 2.444-4.364 4.959v111.182c0 2.761 2.239 5 5 5s5-2.239 5-5v-107.478c5.183-2.397 8.719-7.65 8.719-13.613v-51.142c0-13.785-11.215-25-25-25h-68.016c-13.784.001-24.999 11.215-24.999 25.001zm266.424-6.565c0-2.757 2.243-5 5-5h23.57c2.757 0 5 2.243 5 5v11.272h-33.57zm-257.706 245.894c-5.183 2.397-8.719 7.65-8.719 13.613v36.435h-26.384c-2.757 0-5-2.243-5-5v-264.67c0-2.757 2.243-5 5-5h26.385v36.434c0 5.963 3.536 11.216 8.719 13.613v174.575z" fill="#2626bc"/></g></svg>