<svg id="Capa_1" enable-background="new 0 0 512 512" height="512" viewBox="0 0 512 512" width="512" xmlns="http://www.w3.org/2000/svg" xmlns:xlink="http://www.w3.org/1999/xlink"><linearGradient id="SVGID_1_" gradientUnits="userSpaceOnUse" x1="45.274" x2="466.726" y1="256" y2="256"><stop offset=".0485" stop-color="#d2deff"/><stop offset=".9993" stop-color="#dcfdee"/></linearGradient><g><g><g><path d="m97.146 38.232c-135.327 119.538 38.831 235.409 22.243 366.028-7.375 58.072 16.054 113.588 92.705 107.244 93.413-7.732 59.504-97.209 79.066-156.778 33.66-102.501 240.73-78.56 154.895-236.448-54.778-100.758-255.766-162.321-348.909-80.046z" fill="url(#SVGID_1_)"/></g><g><path d="m466.726 122.66c0-27.26-22.099-49.359-49.359-49.359s-49.359 22.099-49.359 49.359c0 2.288.169 4.536.47 6.741-31.043-22.444-67.961-34.558-106.541-34.558-.109 0-.22.001-.329.001-49.149.088-95.342 19.294-130.07 54.08-34.732 34.791-53.861 81.025-53.861 130.186 0 32.992 8.723 63.982 23.973 90.798-11.47 9.038-18.842 23.043-18.842 38.779 0 27.26 22.099 49.359 49.359 49.359 15.708 0 29.692-7.347 38.732-18.782 26.872 15.336 57.952 24.111 91.045 24.111 9.938 0 17.994-8.056 17.994-17.994s-8.056-17.994-17.994-17.994c-29.74 0-57.458-8.808-80.697-23.942-2.433-23.048-20.727-41.362-43.765-43.829-15.059-23.2-23.818-50.849-23.818-80.508 0-81.615 66.396-148.133 148.007-148.279.088 0 .176-.001.263-.001 38.947 0 75.851 15.431 103.936 43.466 28.601 28.55 44.353 66.279 44.353 106.238v26.795c0 17.028-13.854 30.882-30.882 30.882-17.029 0-30.882-13.854-30.882-30.882v-94.521c0-4.772-1.896-9.349-5.271-12.723-21.315-21.316-49.638-32.957-79.806-32.731-30.142.209-58.326 12.234-79.358 33.859-20.315 20.89-31.504 48.554-31.504 77.896s11.189 57.007 31.505 77.896c21.031 21.625 49.215 33.65 79.357 33.859.269.002.533.003.801.003 28.323 0 55.011-10.451 75.715-29.572 11.064 8.109 24.704 12.901 39.443 12.901 36.872 0 66.87-29.997 66.87-66.869v-26.795c0-39.575-12.437-77.354-35.458-108.97 2.165.29 4.37.454 6.614.454 27.26.005 49.359-22.094 49.359-49.354zm-203.093 232.219c-20.436-.142-39.545-8.297-53.808-22.964-28.318-29.117-28.318-76.494-.001-105.611 14.264-14.666 33.374-22.821 53.809-22.964.183-.001.361-.002.543-.002 17.844 0 34.733 6.12 48.296 17.387v86.604c0 9.045 1.806 17.678 5.075 25.554-14.43 14.328-33.585 22.116-53.914 21.996z" fill="#2626bc" opacity=".1"/><g><path d="m261.945 438.699c-101.605 0-184.267-82.661-184.267-184.266 0-49.161 19.128-95.395 53.861-130.186 34.727-34.786 80.92-53.993 130.07-54.08.109 0 .22-.001.329-.001 48.548 0 94.476 19.164 129.359 53.984 35.412 35.349 54.915 82.124 54.915 131.707v26.795c0 36.872-29.998 66.869-66.87 66.869-14.738 0-28.378-4.792-39.443-12.901-20.704 19.12-47.392 29.572-75.715 29.572-.268 0-.532-.001-.801-.003-30.142-.209-58.326-12.234-79.357-33.859-20.316-20.89-31.505-48.554-31.505-77.896s11.189-57.007 31.504-77.896c21.032-21.625 49.216-33.65 79.358-33.859 30.168-.226 58.491 11.415 79.806 32.731 3.375 3.374 5.271 7.951 5.271 12.723v94.521c0 17.028 13.854 30.882 30.882 30.882 17.029 0 30.882-13.854 30.882-30.882v-26.795c0-39.958-15.751-77.688-44.353-106.238-28.085-28.035-64.988-43.466-103.936-43.466-.087 0-.175.001-.263.001-81.611.146-148.007 66.663-148.007 148.279 0 81.761 66.517 148.279 148.279 148.279 9.938 0 17.994 8.056 17.994 17.994 0 9.935-8.056 17.991-17.993 17.991zm2.231-260.037c-.182 0-.361.001-.543.002-20.436.142-39.545 8.297-53.809 22.964-28.317 29.117-28.317 76.494.001 105.611 14.263 14.666 33.373 22.821 53.808 22.964 20.329.12 39.485-7.668 53.914-21.997-3.268-7.876-5.075-16.509-5.075-25.554v-86.604c-13.563-11.266-30.452-17.386-48.296-17.386z" fill="#ff7eb8"/></g><g><path d="m391.294 124.149c-6.581-6.57-13.562-12.585-20.873-18.014-1.573 4.812-2.416 9.953-2.416 15.29 0 27.268 22.107 49.364 49.364 49.364 2.673 0 5.295-.216 7.856-.627-8.751-16.73-20.133-32.246-33.931-46.013z" fill="#ff5ba8"/></g><g><g><g><circle cx="417.367" cy="97.983" fill="#02ffb3" r="49.359"/><path d="m434.449 92.012c0-9.419-7.663-17.082-17.082-17.082s-17.082 7.663-17.082 17.082c0 4.646 1.869 8.858 4.889 11.941-3.019 3.082-4.889 7.296-4.889 11.941 0 2.839 2.302 5.141 5.141 5.141s5.141-2.302 5.141-5.141c0-3.749 3.051-6.8 6.8-6.8s6.8 3.05 6.8 6.8c0 2.839 2.302 5.141 5.141 5.141s5.141-2.302 5.141-5.141c0-4.645-1.869-8.858-4.889-11.941 3.02-3.082 4.889-7.295 4.889-11.941zm-17.082-6.799c3.749 0 6.8 3.05 6.8 6.8s-3.05 6.8-6.8 6.8-6.8-3.05-6.8-6.8 3.051-6.8 6.8-6.8z" fill="#fff"/></g></g><g><g><circle cx="132.168" cy="383.182" fill="#9fb0fe" r="49.359"/><path d="m149.25 377.211c0-9.419-7.663-17.082-17.082-17.082s-17.082 7.663-17.082 17.082c0 4.646 1.869 8.858 4.889 11.941-3.019 3.082-4.889 7.296-4.889 11.941 0 2.839 2.302 5.141 5.141 5.141s5.141-2.302 5.141-5.141c0-3.749 3.05-6.8 6.8-6.8 3.749 0 6.8 3.05 6.8 6.8 0 2.839 2.302 5.141 5.141 5.141s5.141-2.302 5.141-5.141c0-4.645-1.869-8.858-4.889-11.941 3.02-3.082 4.889-7.295 4.889-11.941zm-17.082-6.8c3.749 0 6.8 3.051 6.8 6.8s-3.05 6.8-6.8 6.8c-3.749 0-6.8-3.051-6.8-6.8s3.051-6.8 6.8-6.8z" fill="#fff"/></g></g></g><path d="m338.376 411.56c-2.762 0-5-2.239-5-5 0-3.479-2.831-6.31-6.311-6.31-2.762 0-5-2.239-5-5s2.238-5 5-5c3.479 0 6.311-2.831 6.311-6.311 0-2.761 2.238-5 5-5s5 2.239 5 5c0 3.479 2.83 6.311 6.31 6.311 2.762 0 5 2.239 5 5s-2.238 5-5 5c-3.479 0-6.31 2.831-6.31 6.31 0 2.761-2.238 5-5 5z" fill="#ff7eb8"/><path d="m385.305 449.681c-2.762 0-5-2.239-5-5 0-3.479-2.831-6.311-6.311-6.311-2.762 0-5-2.239-5-5s2.238-5 5-5c3.479 0 6.311-2.831 6.311-6.311 0-2.761 2.238-5 5-5s5 2.239 5 5c0 3.479 2.83 6.311 6.31 6.311 2.762 0 5 2.239 5 5s-2.238 5-5 5c-3.479 0-6.31 2.831-6.31 6.311 0 2.761-2.239 5-5 5z" fill="#6583fe"/><path d="m98.047 100.864c-2.762 0-5-2.239-5-5 0-3.479-2.831-6.31-6.311-6.31-2.762 0-5-2.239-5-5s2.238-5 5-5c3.479 0 6.311-2.831 6.311-6.311 0-2.761 2.238-5 5-5s5 2.239 5 5c0 3.479 2.83 6.311 6.31 6.311 2.762 0 5 2.239 5 5s-2.238 5-5 5c-3.479 0-6.31 2.831-6.31 6.31 0 2.761-2.238 5-5 5z" fill="#ff7eb8"/><path d="m56.584 142.326c-1.326 0-2.598-.527-3.536-1.465l-11.31-11.311c-1.952-1.952-1.952-5.118.001-7.071l11.31-11.31c.938-.938 2.209-1.464 3.535-1.464s2.598.527 3.535 1.464l11.311 11.31c.938.938 1.465 2.209 1.465 3.536s-.526 2.598-1.465 3.536l-11.311 11.311c-.937.937-2.209 1.464-3.535 1.464zm-4.238-16.31 4.238 4.239 4.239-4.239-4.239-4.239z" fill="#6583fe"/><path d="m424.167 417.738c-1.279 0-2.56-.488-3.535-1.464l-11.311-11.311c-.938-.938-1.465-2.209-1.465-3.536s.526-2.598 1.465-3.536l11.311-11.31c1.951-1.952 5.119-1.952 7.07 0l11.311 11.31c.938.938 1.465 2.209 1.465 3.536s-.526 2.598-1.465 3.536l-11.311 11.311c-.975.976-2.256 1.464-3.535 1.464zm-4.239-16.31 4.239 4.239 4.239-4.239-4.239-4.239z" fill="#01eca5"/></g></g><g fill="#2626bc"><path d="m315.667 192.203c-14.602-12.129-32.406-18.541-51.491-18.541l-.578.002c-21.783.151-42.153 8.844-57.358 24.478-30.188 31.04-30.187 81.544.001 112.583 15.204 15.633 35.574 24.327 57.357 24.478.159-.013.331.001.497.001 21.518 0 41.734-8.317 56.976-23.45 1.44-1.43 1.873-3.59 1.095-5.465-3.114-7.501-4.693-15.454-4.693-23.637v-86.604c-.001-1.486-.662-2.895-1.806-3.845zm-51.573 133.001c-.143 0-.289 0-.432-.001-19.084-.134-36.932-7.752-50.254-21.45-26.448-27.195-26.448-71.444-.001-98.639 13.324-13.7 31.174-21.317 50.264-21.45l.505-.002c15.943 0 30.861 5.102 43.296 14.781v84.209c0 8.338 1.413 16.474 4.204 24.235-13.049 11.845-29.807 18.317-47.582 18.317z"/><path d="m471.726 97.983c0-29.974-24.385-54.359-54.358-54.359-28.965 0-52.707 22.773-54.272 51.354-30.252-19.526-65.059-29.812-101.157-29.812h-.338c-50.484.09-97.931 19.818-133.599 55.548-35.676 35.736-55.323 83.225-55.323 133.718 0 31.072 7.733 61.841 22.344 89.114-10.583 9.924-17.214 24.016-17.214 39.634 0 29.974 24.386 54.359 54.359 54.359 28.451 0 51.851-21.975 54.157-49.841 23.012 13.103 48.963 20.01 75.615 20.01 7.168 0 13 5.832 13 13 0 7.163-5.832 12.99-13 12.99-18.818 0-37.35-2.913-55.079-8.657-2.627-.852-5.446.588-6.298 3.215-.851 2.627.589 5.446 3.216 6.297 18.726 6.067 38.294 9.144 58.161 9.144 12.683 0 23-10.313 23-22.99 0-12.682-10.317-23-23-23-26.96 0-53.15-7.558-75.919-21.84-3.242-23.991-22.182-43.059-46.114-46.487-13.889-22.531-21.238-48.388-21.238-74.953 0-78.86 64.153-143.135 143-143.28h.271c37.613 0 73.269 14.919 100.397 42.009 27.652 27.605 42.882 64.078 42.882 102.701v26.79c0 14.27-11.609 25.88-25.88 25.88s-25.88-11.61-25.88-25.88v-32.82c0-2.761-2.238-5-5-5s-5 2.239-5 5v32.82c0 19.784 16.096 35.88 35.88 35.88s35.88-16.096 35.88-35.88v-26.79c0-41.297-16.271-80.284-45.816-109.778-29.017-28.975-67.181-44.932-107.463-44.932h-.279c-84.359.155-152.991 68.916-152.991 153.28 0 26.231 6.7 51.819 19.412 74.562-9.163.685-17.696 3.647-25.04 8.328-13.319-25.45-20.364-54.028-20.364-82.887 0-47.826 18.609-92.806 52.399-126.653 33.784-33.843 78.724-52.528 126.531-52.613h.329c36.61 0 71.821 11.176 101.828 32.32.032.023.069.035.101.057 3.986 22.36 21.679 40.02 44.054 43.959 21.779 30.627 33.29 66.673 33.29 104.354v26.795c0 34.115-27.754 61.869-61.869 61.869-13.218 0-25.835-4.127-36.487-11.934-1.929-1.414-4.59-1.264-6.349.359-19.722 18.214-45.406 28.245-72.322 28.245l-.766-.003c-28.795-.2-55.717-11.687-75.809-32.345-19.403-19.951-30.089-46.377-30.089-74.411 0-28.033 10.686-54.459 30.088-74.41 20.093-20.659 47.016-32.146 75.812-32.345.276-.002.548-.003.823-.003 28.474 0 55.228 11.087 75.41 31.271 2.454 2.453 3.806 5.716 3.806 9.187v28.038c0 2.761 2.238 5 5 5s5-2.239 5-5v-28.038c0-6.143-2.392-11.917-6.735-16.259-22.073-22.075-51.332-34.199-82.476-34.199-.3 0-.601.001-.899.003-31.492.218-60.936 12.781-82.908 35.373-21.229 21.828-32.92 50.73-32.92 81.382s11.691 59.554 32.921 81.382c21.972 22.592 51.415 35.155 82.905 35.374l.837.003c28.093 0 54.963-9.994 76.109-28.224 11.638 7.571 25.054 11.553 39.049 11.553 39.629 0 71.869-32.24 71.869-71.869v-26.795c0-37.123-10.587-72.744-30.691-103.614 28.512-1.635 51.207-25.341 51.207-54.256zm-295.199 285.199c0 24.459-19.899 44.359-44.359 44.359s-44.359-19.899-44.359-44.359 19.899-44.359 44.359-44.359 44.359 19.899 44.359 44.359zm240.84-240.84c-24.46 0-44.359-19.899-44.359-44.359s19.899-44.359 44.359-44.359c24.459 0 44.358 19.899 44.358 44.359s-19.899 44.359-44.358 44.359z"/></g></g></svg>