<svg id="Capa_1" enable-background="new 0 0 512 512" height="512" viewBox="0 0 512 512" width="512" xmlns="http://www.w3.org/2000/svg" xmlns:xlink="http://www.w3.org/1999/xlink"><linearGradient id="SVGID_1_" gradientTransform="matrix(1 0 0 -1 0 517.289)" gradientUnits="userSpaceOnUse" x1="432.823" x2="96.823" y1="520.963" y2="20.963"><stop offset=".008" stop-color="#ffe8dc" stop-opacity="0"/><stop offset=".9977" stop-color="#ffc599"/></linearGradient><path d="m512 325.009c0 77.209-114.615 139.799-256 139.799s-256-62.59-256-139.799c0-12.48 2.999-24.577 8.62-36.089 10.007-20.491 12.502-43.828 7.537-66.086-2.036-9.127-3.179-18.59-3.333-28.294-1.234-77.811 61.961-142.06 139.783-142.06 58.443 0 108.503 35.865 129.385 86.785 11.468 27.964 35.565 48.919 65.155 55.077 96.379 20.057 164.853 70.992 164.853 130.667z" fill="url(#SVGID_1_)"/><g><g><g><g><path d="m413.34 462.984h-314.68c-11.046 0-20-8.954-20-20v-314.68c0-11.046 8.954-20 20-20h314.68c11.046 0 20 8.954 20 20v314.68c0 11.046-8.955 20-20 20z" fill="#00c" opacity=".1"/><path d="m413.34 435.984h-314.68c-11.046 0-20-8.954-20-20v-294.68c0-11.046 8.954-20 20-20h314.68c11.046 0 20 8.954 20 20v294.68c0 11.046-8.955 20-20 20z" fill="#ffab66"/><path d="m433.34 354.644v-253.34c0-11.046-8.954-20-20-20h-314.68c-11.046 0-20 8.954-20 20v253.34z" fill="#ff9d33"/><path d="m433.34 338.352v-237.047c0-11.046-8.954-20-20-20h-314.68c-11.046 0-20 8.954-20 20v237.048h354.68z" fill="#fff"/><g><path d="m413.34 440.984h-314.68c-13.785 0-25-11.215-25-25v-314.68c0-13.785 11.215-25 25-25h143.34c2.761 0 5 2.239 5 5s-2.239 5-5 5h-143.34c-8.271 0-15 6.729-15 15v314.68c0 8.271 6.729 15 15 15h314.68c8.271 0 15-6.729 15-15v-78.673c0-2.761 2.239-5 5-5s5 2.239 5 5v78.673c0 13.785-11.215 25-25 25z" fill="#00c"/></g><g><path d="m433.34 308.311c-2.761 0-5-2.239-5-5v-202.006c0-8.271-6.729-15-15-15h-137.34c-2.761 0-5-2.239-5-5s2.239-5 5-5h137.34c13.785 0 25 11.215 25 25v202.006c0 2.761-2.239 5-5 5z" fill="#00c"/></g></g><g><g><path d="m149.33 130.314v168.66c0 5.16-4.18 9.34-9.33 9.34s-9.33-4.18-9.33-9.34v-168.66c0-5.16 4.18-9.34 9.33-9.34 2.58 0 4.91 1.05 6.6 2.73 1.68 1.7 2.73 4.03 2.73 6.61z" fill="#6c6cff"/><path d="m149.33 198.314v37.87c-2.99.74-6.12 1.13-9.33 1.13s-6.34-.39-9.33-1.13v-37.87z" fill="#4d4dff"/><circle cx="140" cy="198.311" fill="#ffab66" r="24"/></g><g><path d="m226.67 130.314v168.66c0 5.16-4.18 9.34-9.34 9.34-5.15 0-9.33-4.18-9.33-9.34v-168.66c0-5.16 4.18-9.34 9.33-9.34 2.58 0 4.91 1.05 6.61 2.73 1.68 1.7 2.73 4.03 2.73 6.61z" fill="#6c6cff"/><path d="m226.67 228.314v37.87c-3 .74-6.12 1.13-9.34 1.13-3.21 0-6.34-.39-9.33-1.13v-37.87z" fill="#4d4dff"/><circle cx="217.333" cy="228.311" fill="#ffab66" r="24"/></g><g><path d="m304 130.314v168.66c0 5.16-4.18 9.34-9.33 9.34-5.16 0-9.34-4.18-9.34-9.34v-168.66c0-5.16 4.18-9.34 9.34-9.34 2.57 0 4.91 1.05 6.6 2.73 1.69 1.7 2.73 4.03 2.73 6.61z" fill="#6c6cff"/><path d="m304 168.314v37.87c-2.99.74-6.12 1.13-9.33 1.13-3.22 0-6.34-.39-9.34-1.13v-37.87z" fill="#4d4dff"/><circle cx="294.667" cy="168.311" fill="#ffab66" r="24"/></g><g><path d="m381.33 130.314v168.66c0 5.16-4.18 9.34-9.33 9.34s-9.33-4.18-9.33-9.34v-168.66c0-5.16 4.18-9.34 9.33-9.34 2.58 0 4.91 1.05 6.6 2.73 1.68 1.7 2.73 4.03 2.73 6.61z" fill="#6c6cff"/><path d="m381.33 258.314v37.87c-2.99.74-6.12 1.13-9.33 1.13s-6.34-.39-9.33-1.13v-37.87z" fill="#4d4dff"/><circle cx="372" cy="258.311" fill="#ffab66" r="24"/></g></g><g><g><g><path d="m134.497 379.607c-2.835 0-5.133-2.298-5.133-5.133v-3.593c0-2.835 2.298-5.133 5.133-5.133s5.133 2.298 5.133 5.133v3.593c0 2.835-2.298 5.133-5.133 5.133z" fill="#ff6c6c"/></g><g><path d="m157.082 379.607c-2.835 0-5.133-2.298-5.133-5.133v-3.593c0-2.835 2.298-5.133 5.133-5.133s5.133 2.298 5.133 5.133v3.593c0 2.835-2.298 5.133-5.133 5.133z" fill="#ff6c6c"/></g><g><path d="m179.666 379.607c-2.835 0-5.133-2.298-5.133-5.133v-3.593c0-2.835 2.298-5.133 5.133-5.133s5.133 2.298 5.133 5.133v3.593c0 2.835-2.297 5.133-5.133 5.133z" fill="#ff6c6c"/></g></g><g><g><path d="m134.497 405.995c-2.835 0-5.133-2.298-5.133-5.133v-3.593c0-2.835 2.298-5.133 5.133-5.133s5.133 2.298 5.133 5.133v3.593c0 2.834-2.298 5.133-5.133 5.133z" fill="#ff6c6c"/></g><g><path d="m157.082 405.995c-2.835 0-5.133-2.298-5.133-5.133v-3.593c0-2.835 2.298-5.133 5.133-5.133s5.133 2.298 5.133 5.133v3.593c0 2.834-2.298 5.133-5.133 5.133z" fill="#ff6c6c"/></g><g><path d="m179.666 405.995c-2.835 0-5.133-2.298-5.133-5.133v-3.593c0-2.835 2.298-5.133 5.133-5.133s5.133 2.298 5.133 5.133v3.593c0 2.834-2.297 5.133-5.133 5.133z" fill="#ff6c6c"/></g></g></g><g><g><circle cx="337.625" cy="386.128" fill="#8383ff" r="13.451"/><circle cx="379.549" cy="386.128" fill="#ff4d4d" r="13.451"/></g><g><path d="m304.52 391.128h-76.52c-2.762 0-5-2.239-5-5s2.238-5 5-5h76.52c2.762 0 5 2.239 5 5s-2.239 5-5 5z" fill="#fff"/></g></g></g><g><path d="m47.858 303.335c-7.175 0-13.012-5.837-13.012-13.012s5.837-13.012 13.012-13.012 13.012 5.837 13.012 13.012-5.837 13.012-13.012 13.012zm0-16.024c-1.661 0-3.012 1.351-3.012 3.012s1.351 3.012 3.012 3.012 3.012-1.351 3.012-3.012-1.351-3.012-3.012-3.012z" fill="#ff9d33"/></g><g><path d="m39.847 249.338c-7.175 0-13.012-5.837-13.012-13.012s5.837-13.012 13.012-13.012 13.012 5.837 13.012 13.012-5.838 13.012-13.012 13.012zm0-16.024c-1.661 0-3.012 1.351-3.012 3.012s1.351 3.012 3.012 3.012 3.012-1.351 3.012-3.012c-.001-1.661-1.352-3.012-3.012-3.012z" fill="#6c6cff"/></g><g><path d="m362.67 57.191c-1.28 0-2.559-.488-3.536-1.464l-11-11c-1.953-1.953-1.953-5.119 0-7.071l11-11c1.953-1.952 5.118-1.952 7.071 0l11 11c1.953 1.953 1.953 5.119 0 7.071l-11 11c-.976.976-2.255 1.464-3.535 1.464zm-3.929-16 3.929 3.929 3.929-3.929-3.929-3.929z" fill="#ff6c6c"/></g><g><path d="m470.028 173.314c-1.28 0-2.559-.488-3.536-1.464l-11-11c-1.953-1.953-1.953-5.119 0-7.071l11-11c1.953-1.952 5.118-1.952 7.071 0l11 11c1.953 1.953 1.953 5.119 0 7.071l-11 11c-.976.976-2.255 1.464-3.535 1.464zm-3.929-16 3.929 3.929 3.929-3.929-3.929-3.929z" fill="#ff6c6c"/></g><g><path d="m228.335 486.808c-1.28 0-2.559-.488-3.536-1.464l-11-11c-1.953-1.953-1.953-5.119 0-7.071l11-11c1.953-1.952 5.118-1.952 7.071 0l11 11c1.953 1.953 1.953 5.119 0 7.071l-11 11c-.976.976-2.255 1.464-3.535 1.464zm-3.929-16 3.929 3.929 3.929-3.929-3.929-3.929z" fill="#ff9d33"/></g></g></g></svg>