<?xml version="1.0"?>
<svg xmlns="http://www.w3.org/2000/svg" xmlns:xlink="http://www.w3.org/1999/xlink" version="1.1" id="Capa_1" x="0px" y="0px" viewBox="0 0 482.54 482.54" style="enable-background:new 0 0 482.54 482.54;" xml:space="preserve" width="512px" height="512px" class=""><g><g>
	<path style="fill:#031B4E" d="M17.27,32h8v8c0,4.424,3.584,8,8,8s8-3.576,8-8v-8h8c4.416,0,8-3.576,8-8s-3.584-8-8-8h-8V8   c0-4.424-3.584-8-8-8s-8,3.576-8,8v8h-8c-4.416,0-8,3.576-8,8S12.854,32,17.27,32z" data-original="#322153" class="" data-old_color="#322153"/>
	<path style="fill:#031B4E" d="M433.27,304c4.424,0,8-3.576,8-8v-8h8c4.424,0,8-3.576,8-8s-3.576-8-8-8h-8v-8c0-4.424-3.576-8-8-8   s-8,3.576-8,8v8h-8c-4.424,0-8,3.576-8,8s3.576,8,8,8h8v8C425.27,300.424,428.846,304,433.27,304z" data-original="#322153" class="" data-old_color="#322153"/>
</g><g>
	<path style="fill:#FFC252" d="M187.302,330.296c-13.648,3.032-28.056,1.472-40.92-4.512L88.43,441.68   c-3.952,7.904-0.752,17.512,7.152,21.464l35.376,17.688c7.904,3.952,17.512,0.752,21.464-7.152l60.28-120.56   C202.326,347.912,193.51,340.048,187.302,330.296z" data-original="#00F2A9" class="active-path" data-old_color="#00F2A9"/>
	<path style="fill:#FFC252" d="M351.582,480.848l35.376-17.688c7.904-3.952,11.104-13.56,7.152-21.464L336.158,325.8   c-12.864,5.976-27.272,7.536-40.92,4.512c-6.208,9.752-15.032,17.616-25.408,22.832l60.28,120.56   C334.07,481.592,343.678,484.8,351.582,480.848z" data-original="#00F2A9" class="active-path" data-old_color="#00F2A9"/>
	<path style="fill:#FFC252" d="M449.27,48c-13.232,0-24,10.768-24,24s10.768,24,24,24s24-10.768,24-24S462.502,48,449.27,48z    M449.27,80c-4.416,0-8-3.584-8-8s3.584-8,8-8s8,3.584,8,8S453.686,80,449.27,80z" data-original="#00F2A9" class="active-path" data-old_color="#00F2A9"/>
	<path style="fill:#FFC252" d="M25.27,312c0,13.232,10.768,24,24,24s24-10.768,24-24s-10.768-24-24-24S25.27,298.768,25.27,312z    M57.27,312c0,4.416-3.592,8-8,8s-8-3.584-8-8s3.592-8,8-8S57.27,307.584,57.27,312z" data-original="#00F2A9" class="active-path" data-old_color="#00F2A9"/>
</g><g>
	<path style="fill:#031B4E" d="M241.27,96c-39.696,0-72,32.296-72,72s32.304,72,72,72c39.704,0,72-32.296,72-72   S280.974,96,241.27,96z M241.27,224c-30.88,0-56-25.128-56-56s25.12-56,56-56c30.872,0,56,25.128,56,56S272.142,224,241.27,224z" data-original="#322153" class="" data-old_color="#322153"/>
	<path style="fill:#031B4E" d="M409.27,168c0-22.872-10.712-44.032-28.904-57.608c3.256-22.48-4.128-45.008-20.296-61.184   c-16.168-16.168-38.632-23.56-61.184-20.296C285.302,10.712,264.142,0,241.27,0s-44.032,10.712-57.616,28.904   c-22.464-3.256-45,4.136-61.176,20.296c-16.176,16.168-23.56,38.712-20.304,61.184C83.982,123.968,73.27,145.128,73.27,168   s10.712,44.032,28.904,57.608c-3.264,22.48,4.128,45.016,20.304,61.184c3.944,3.936,8.52,7.208,13.376,10.152L81.27,406.112   c-2.864,5.736-3.328,12.24-1.304,18.328c2.024,6.08,6.304,11.008,12.032,13.872L127.374,456c3.384,1.688,7.04,2.544,10.712,2.544   c2.552,0,5.12-0.416,7.608-1.24c6.08-2.032,11.008-6.304,13.88-12.04L216.47,331.48c7.992,2.992,16.296,4.52,24.8,4.52   s16.808-1.536,24.792-4.52l56.896,113.784c2.864,5.736,7.8,10.008,13.872,12.04c2.504,0.832,5.064,1.24,7.616,1.24   c3.672,0,7.328-0.856,10.712-2.544l35.376-17.688c5.736-2.864,10.008-7.8,12.04-13.872c2.024-6.088,1.56-12.592-1.304-18.328   l-54.576-109.16c4.848-2.944,9.432-6.216,13.376-10.152c16.168-16.176,23.552-38.712,20.296-61.184   C398.558,212.032,409.27,190.872,409.27,168z M145.27,438.112c-0.96,1.912-2.6,3.336-4.624,4.016   c-2.032,0.672-4.2,0.512-6.112-0.44L99.158,424c-1.912-0.952-3.336-2.6-4.016-4.624c-0.672-2.032-0.52-4.192,0.44-6.112   l54.664-109.328c0.48,0.16,0.976,0.248,1.448,0.4c1.056,0.336,2.128,0.592,3.2,0.88c2.08,0.552,4.16,1.024,6.272,1.392   c1.12,0.192,2.232,0.368,3.352,0.512c2.208,0.28,4.416,0.432,6.64,0.504c0.992,0.032,1.976,0.112,2.968,0.104   c3.184-0.024,6.376-0.2,9.536-0.64c2.256,3,4.824,5.744,7.528,8.36c0.656,0.632,1.312,1.248,1.984,1.856   c2.784,2.496,5.704,4.848,8.864,6.896c0.048,0.032,0.08,0.072,0.128,0.104L145.27,438.112z M387.398,419.376   c-0.68,2.024-2.104,3.672-4.016,4.624l-35.376,17.688c-1.904,0.952-4.088,1.104-6.112,0.44c-2.024-0.68-3.672-2.104-4.624-4.016   l-56.904-113.808c0.04-0.024,0.064-0.056,0.104-0.08c3.176-2.064,6.12-4.424,8.92-6.936c0.672-0.6,1.312-1.208,1.96-1.832   c2.704-2.616,5.28-5.36,7.536-8.368c3.168,0.448,6.36,0.624,9.552,0.648c0.968,0.008,1.928-0.072,2.896-0.104   c2.256-0.072,4.504-0.232,6.744-0.512c1.096-0.136,2.184-0.312,3.272-0.504c2.136-0.368,4.24-0.848,6.336-1.408   c1.072-0.288,2.136-0.544,3.192-0.88c0.48-0.152,0.968-0.24,1.44-0.4l54.656,109.328   C387.918,415.176,388.07,417.344,387.398,419.376z M367.27,215.216c-2.832,1.816-4.24,5.192-3.512,8.488   c4.176,18.84-1.432,38.2-15,51.776c-4.512,4.512-9.88,8.232-15.952,11.056c-11.184,5.2-23.936,6.6-35.832,3.952   c-3.264-0.712-6.672,0.68-8.488,3.512c-5.384,8.472-13.08,15.376-22.248,19.984c-15.856,7.984-34.064,7.984-49.944,0   c-9.168-4.608-16.856-11.52-22.256-19.984c-0.416-0.656-0.936-1.216-1.504-1.704c-0.176-0.152-0.368-0.264-0.56-0.4   c-0.424-0.312-0.872-0.592-1.344-0.808c-0.224-0.104-0.44-0.184-0.672-0.264c-0.496-0.176-1-0.296-1.52-0.376   c-0.232-0.032-0.456-0.072-0.688-0.088c-0.152-0.008-0.304-0.056-0.456-0.056c-0.576,0-1.16,0.064-1.736,0.184   c-11.92,2.64-24.64,1.24-35.816-3.952c-6.072-2.824-11.448-6.536-15.96-11.048c-13.576-13.576-19.184-32.936-15.008-51.784   c0.728-3.288-0.672-6.672-3.512-8.488C98.99,204.848,89.27,187.2,89.27,168s9.72-36.848,26-47.216   c2.84-1.816,4.24-5.192,3.512-8.488c-4.176-18.84,1.432-38.2,15.008-51.784c13.584-13.576,32.944-19.2,51.776-15   c3.272,0.72,6.672-0.688,8.48-3.512c10.368-16.28,28.024-26,47.224-26c19.2,0,36.848,9.72,47.216,26   c1.808,2.832,5.168,4.224,8.488,3.512c18.832-4.216,38.2,1.432,51.784,15c13.568,13.576,19.176,32.936,15,51.784   c-0.728,3.288,0.68,6.672,3.512,8.488c16.28,10.368,26,28.016,26,47.216S383.55,204.848,367.27,215.216z" data-original="#322153" class="" data-old_color="#322153"/>
</g></g> </svg>
