<svg id="Layer_1" enable-background="new 0 0 512 512" height="512" viewBox="0 0 512 512" width="512" xmlns="http://www.w3.org/2000/svg"><g><path d="m245.002 21.996c-135.311 0-245.002 109.691-245.002 245.002 0 39.539 9.379 76.882 26.013 109.948l109.041 109.041c33.066 16.634 70.41 26.013 109.948 26.013 135.311 0 245.002-109.691 245.002-245.002s-109.691-245.002-245.002-245.002z" fill="#e80054"/><path d="m511.185 9.443c3.053-5.571-3.056-11.681-8.627-8.627l-40.283 22.076 11.511 15.323 15.324 11.511z" fill="#5c82c4"/><path d="m443.168 49.687 19.144 19.144c1.395 1.395 2.343 3.067 2.852 4.838l23.945-23.944-26.834-26.834-23.945 23.945c1.771.508 3.443 1.456 4.838 2.851z" fill="#3c58a0"/><path d="m465.678 46.093c4.672-4.672 11.715-5.518 17.252-2.547l-20.655-20.654-23.945 23.944c1.771.508 3.443 1.457 4.838 2.852l9.457 9.457z" fill="#2a428c"/><path d="m153.801 388.702-66.111 66.11c15.024 12.598 31.58 23.424 49.352 32.162 9.54-14.152 18.589-28.98 27.181-44.562 16.072-29.145 33.956-46.953 47.781-57.475-18.798-12.198-41.1-13.338-58.203 3.765z" fill="#ffdd40"/><path d="m127.047 300.016c-10.523 13.821-28.328 31.697-57.459 47.761-15.582 8.592-30.41 17.641-44.562 27.181 8.739 17.772 19.565 34.328 32.163 49.353l66.111-66.111c15.103-15.104 17.557-37.122 3.747-58.184z" fill="#ffb332"/><path d="m179.491 268.642-14.847 3.055c-13.49 2.776-25.442 10.642-33.117 22.078-1.658 2.47-3.602 5.15-5.821 7.97 3.623 5.643 6.704 12.316 7.939 19.764 2.139 12.905-2.526 26.013-11.775 35.262l-65.99 65.989c10.026 12.159 21.202 23.335 33.361 33.361l65.989-65.989c9.25-9.25 22.357-13.914 35.262-11.775 7.447 1.234 14.12 4.315 19.763 7.938 2.82-2.219 5.5-4.163 7.97-5.821 11.435-7.675 19.301-19.628 22.077-33.117l3.056-14.847c-17.365-17.366-53.729-53.73-63.867-63.868z" fill="#3c58a0"/><path d="m211.846 300.997c-13.688-13.687-26.866-26.866-32.355-32.355l-14.847 3.056c-13.49 2.776-25.442 10.642-33.117 22.078-1.658 2.47-3.602 5.149-5.821 7.97 3.623 5.643 6.704 12.316 7.939 19.764 2.139 12.905-2.526 26.012-11.775 35.262l-65.99 65.988c7.881 9.558 16.482 18.497 25.704 26.759-4.205-14.017 6.106-25.208 6.106-25.208s66.215-67.685 75.048-76.518 16.954-9.621 16.954-9.621l9.154-14.821c2.725-22.225 23.157-20.29 23.157-20.29z" fill="#2a428c"/><path d="m463.266 67.879-19.144-19.144c-4.391-4.391-11.509-4.391-15.9 0l-170.292 170.291c.611.495 1.204 1.023 1.772 1.592l31.681 31.681c.568.568 1.097 1.161 1.592 1.772l170.291-170.292c4.39-4.391 4.39-11.51 0-15.9z" fill="#e1eaf9"/><path d="m322.152 190.44c-9.234-9.236-9.956-21.72-4.578-31.059l-59.644 59.645c.611.495 1.203 1.023 1.772 1.591l31.681 31.681c.568.568 1.097 1.161 1.592 1.772l59.397-59.397c-9.64 5.363-22.034 3.956-30.22-4.233z" fill="#bec8f7"/><g><path d="m184.035 342.515-14.55-14.55c-3.311-3.31-3.311-8.677 0-11.987 3.31-3.31 8.677-3.31 11.987 0l14.55 14.55c3.311 3.31 3.311 8.677 0 11.987-3.309 3.31-8.677 3.31-11.987 0z" fill="#5c82c4"/></g><g><path d="m284.484 291.126 8.805-8.805c8.817-8.817 8.817-23.112 0-31.929l-31.681-31.681c-8.817-8.817-23.112-8.817-31.929 0l-8.805 8.805z" fill="#3c58a0"/></g><path d="m260.009 242.298c6.088-6.088 15.377-6.99 22.438-2.747l-20.839-20.839c-8.817-8.817-23.112-8.817-31.929 0l-8.805 8.805 35.451 35.452c-3.121-6.788-1.907-15.079 3.684-20.671z" fill="#2a428c"/><path d="m240.036 242.865-17.384-17.384c-4.577-4.578-11.999-4.578-16.577 0l-27.538 27.538c-4.577 4.577-4.577 11.999 0 16.577l17.384 17.384z" fill="#3c58a0"/><path d="m286.519 289.348-17.384-17.384-44.114 44.114 17.384 17.384c4.577 4.578 11.999 4.578 16.576 0l27.538-27.538c4.578-4.577 4.578-11.998 0-16.576z" fill="#5c82c4"/><path d="m201.335 258.186h62.387v42.571h-62.387z" fill="#4b6bb2" transform="matrix(.707 -.707 .707 .707 -129.51 246.278)"/><g fill="#ff4155"><path d="m4.352 220.889c42.829 144.024 240.222-85.595 278.056-123.429 25.248-25.248 21.192-53.103 15.049-69.816-16.901-3.687-34.448-5.647-52.455-5.647-119.547-.001-219.078 85.627-240.65 198.892z"/><path d="m412.838 239.498c-36.892 36.001-253.579 217.909-141.08 271.042 122.722-13.331 218.246-117.274 218.246-243.542 0-13.657-1.136-27.047-3.284-40.096-15.914-7.018-46.214-14.404-73.882 12.596z"/></g></g></svg>