<?xml version="1.0"?>
<svg xmlns="http://www.w3.org/2000/svg" xmlns:xlink="http://www.w3.org/1999/xlink" version="1.1" id="Capa_1" x="0px" y="0px" viewBox="0 0 432 432" style="enable-background:new 0 0 432 432;" xml:space="preserve" width="512px" height="512px" class="hovered-paths"><g><path style="fill:#FFC252" d="M408,152c0-61.84-86-112-192-112S24,90.16,24,152c0,17.2,6.64,33.44,18.48,48  c30.8,37.84,96.96,64,173.52,64C322,264,408,213.84,408,152z M372.08,166.48c-9.76,26.8-46.4,48.88-95.36,59.2  c-19.28,4.08-40.32,6.32-62.32,6.32c-74.24,0-136.96-25.28-156.08-59.52c-0.88-1.44-1.68-2.96-2.32-4.48v-0.08  c-1.52-5.36-1.6-10.48-1.6-15.92c0-44.16,72.4-80,160.8-80c22.08,0,43.2,2.24,62.4,6.32c57.2,12.16,97.2,40.56,97.2,73.68  C374.8,156.96,373.92,161.84,372.08,166.48z" data-original="#00F2A9" class="hovered-path active-path" data-old_color="#00F2A9"/><g>
	<path style="fill:#031B4E" d="M16,120v192c0,66.168,89.72,120,200,120s200-53.832,200-120V120C416,53.832,326.28,0,216,0   S16,53.832,16,120z M400,312c0,57.344-82.536,104-184,104S32,369.344,32,312v-48.592c1.352,1.904,2.768,3.8,4.288,5.664   C69.92,310.36,138.784,336,216,336c82.488,0,153.464-30.12,184-72.992V312z M400,216c0,57.344-82.536,104-184,104   c-71.432,0-137.104-23.952-167.304-61.032C37.616,245.376,32,230.912,32,216v-48.592c1.352,1.904,2.768,3.8,4.288,5.664   C69.92,214.36,138.784,240,216,240c82.488,0,153.464-30.12,184-72.992V216z M400,120c0,57.344-82.536,104-184,104   c-71.432,0-137.104-23.952-167.304-61.032C37.616,149.376,32,134.912,32,120c0-57.344,82.536-104,184-104S400,62.656,400,120z" data-original="#322153" class="" data-old_color="#322153"/>
	<path style="fill:#031B4E" d="M48,120c0,6.48,1.344,12.768,3.768,18.816c0.096,0.24,0.216,0.456,0.328,0.688   C68.64,179.152,134.656,208,216,208c94.2,0,168-38.656,168-88s-73.8-88-168-88S48,70.656,48,120z M216,192   c-70.784,0-132-24.36-147.88-55.968C84.264,103.904,146.64,80,216,80c70.488,0,131.632,23.4,147.888,56.024   C348.016,167.64,286.792,192,216,192z M367.248,113.216C339.984,83.48,282.352,64,216,64c-66.376,0-123.984,19.472-151.248,49.208   C72.256,77.224,138.44,48,216,48C293.568,48,359.76,77.224,367.248,113.216z" data-original="#322153" class="" data-old_color="#322153"/>
	<path style="fill:#031B4E" d="M216,288c-115.92,0-152.728-59.432-153.112-60.064c-2.232-3.8-7.128-5.088-10.92-2.84   c-3.816,2.216-5.104,7.12-2.872,10.936C50.712,238.808,90.184,304,216,304c4.424,0,8-3.576,8-8S220.424,288,216,288z" data-original="#322153" class="" data-old_color="#322153"/>
	<path style="fill:#031B4E" d="M369.512,323.312c-48.72,67.456-151.92,60.752-152.928,60.712c-4.336-0.344-8.232,2.992-8.56,7.392   c-0.32,4.408,2.984,8.232,7.384,8.56c0.808,0.064,4.8,0.328,11.12,0.328c29.792,0,111.416-5.944,155.96-67.616   c2.584-3.584,1.784-8.584-1.8-11.168C377.088,318.92,372.104,319.736,369.512,323.312z" data-original="#322153" class="" data-old_color="#322153"/>
</g></g> </svg>
