<?xml version="1.0"?>
<svg xmlns="http://www.w3.org/2000/svg" height="512px" viewBox="0 0 496 496" width="512px" class=""><g><path d="m488 248c0 132.546875-107.453125 240-240 240s-240-107.453125-240-240 107.453125-240 240-240 240 107.453125 240 240zm0 0" fill="#85d3c1" data-original="#85D3C1" class="active-path" style="fill:#B3E0FF" data-old_color="#85d3c1"/><path d="m309.519531 344c-4.480469 22.480469-9.679687 41.921875-13.839843 56-4.398438 15.039062-7.679688 24-7.679688 24h-80s-3.199219-8.800781-7.601562-23.679688c-4.160157-14.082031-9.359376-33.679687-13.917969-56.320312-1.839844-9.121094-3.601563-18.800781-5.121094-28.800781-3.199219-21.359375-5.359375-44.320313-5.359375-67.199219 0-34.640625 11.199219-64.398438 24.71875-87.601562 1.359375-2.398438 2.722656-4.636719 4.160156-6.796876 12 8.957032 26.960938 14.398438 43.121094 14.398438s31.121094-5.441406 43.121094-14.398438c12 18.878907 22.957031 42.71875 27.117187 70.398438 1.121094 7.761719 1.761719 15.761719 1.761719 24 0 22.878906-2.160156 45.839844-5.359375 67.199219-1.519531 10-3.28125 19.679687-5.121094 28.800781zm0 0" fill="#f5f7fa" data-original="#F5F7FA" class=""/><path d="m272 424v24c0 4.398438-3.601562 8-8 8h-32c-4.398438 0-8-3.601562-8-8v-24zm0 0" fill="#ff958a" data-original="#FF958A" class="" style="fill:#CE526F" data-old_color="#ff958a"/><g fill="#f9d48a"><path d="m314.640625 315.199219 77.359375 84.800781v40c-5.761719 4.320312-11.679688 8.320312-17.839844 12.078125l-77.679687-52.078125h-.800781c4.160156-14.078125 9.359374-33.519531 13.839843-56 1.839844-9.121094 3.601563-18.800781 5.121094-28.800781zm0 0" data-original="#F9D48A" class="" style="fill:#FFC252" data-old_color="#F9D48A"/><path d="m186.480469 344c4.558593 22.640625 9.757812 42.238281 13.917969 56.320312l-78.398438 51.839844c-6.238281-3.761718-12.160156-7.839844-18-12.160156v-40l77.359375-84.800781c1.519531 10 3.28125 19.679687 5.121094 28.800781zm0 0" data-original="#F9D48A" class="" style="fill:#FFC252" data-old_color="#F9D48A"/><path d="m264 336v48c0 4.398438-3.601562 8-8 8h-16c-4.398438 0-8-3.601562-8-8v-48c0-4.398438 3.601562-8 8-8h16c4.398438 0 8 3.601562 8 8zm0 0" data-original="#F9D48A" class="" style="fill:#FFC252" data-old_color="#F9D48A"/><path d="m288 240c0 22.089844-17.910156 40-40 40s-40-17.910156-40-40 17.910156-40 40-40 40 17.910156 40 40zm0 0" data-original="#F9D48A" class="" style="fill:#FFC252" data-old_color="#F9D48A"/></g><path d="m279.199219 136.640625c4 5.039063 8 10.71875 11.921875 16.960937-12 8.957032-26.960938 14.398438-43.121094 14.398438s-31.121094-5.441406-43.121094-14.398438c12.5625-19.921874 26.480469-34.480468 34.960938-42.480468 5.039062-4.640625 8.160156-7.121094 8.160156-7.121094s14.960938 11.601562 31.199219 32.640625zm0 0" fill="#ff958a" data-original="#FF958A" class="" style="fill:#CE526F" data-old_color="#ff958a"/><path d="m481.839844 193.601562c-9.28125 18.078126-28.078125 30.398438-49.839844 30.398438h-113.761719c-4.160156-27.679688-15.117187-51.519531-27.117187-70.398438-3.921875-6.242187-7.921875-11.921874-11.921875-16.960937l.800781-.5625c6.800781-8.957031 17.359375-15.039063 29.359375-15.839844 8.878906-19.039062 28.242187-32.238281 50.640625-32.238281 20.398438 0 38.238281 10.878906 48 27.121094l.878906 1.917968c7.042969-3.277343 14.882813-5.039062 23.121094-5.039062 4.640625 0 9.121094.558594 13.359375 1.679688 24.480469 5.921874 42.640625 28 42.640625 54.320312 0 9.28125-2.238281 17.921875-6.160156 25.601562zm0 0" fill="#f5f7fa" data-original="#F5F7FA" class=""/><path d="m200 160h-136c-12.960938 0-24.878906-4.398438-34.320312-11.839844-13.199219-10.160156-21.679688-26.160156-21.679688-44.160156 0-30.960938 25.039062-56 56-56 8.238281 0 16.078125 1.761719 23.121094 5.039062l.878906-1.917968c9.761719-16.242188 27.601562-27.121094 48-27.121094 6.398438 0 12.558594 1.039062 18.238281 3.039062v.082032c22 7.519531 37.761719 28.320312 37.761719 52.878906l.078125.800781c2.5625-.5625 5.203125-.800781 7.921875-.800781 18.640625 0 34.238281 12.71875 38.71875 29.921875l1.121094 1.199219c-8.480469 8-22.398438 22.558594-34.960938 42.480468-1.4375 2.160157-2.800781 4.398438-4.160156 6.796876zm0 0" fill="#f5f7fa" data-original="#F5F7FA" class=""/><path d="m256 320h-16c-8.824219 0-16 7.175781-16 16v48c0 8.824219 7.175781 16 16 16h16c8.824219 0 16-7.175781 16-16v-48c0-8.824219-7.175781-16-16-16zm-16 64v-48h16l.007812 48zm0 0" fill="#232323" data-original="#232323" class="" style="fill:#031B4E" data-old_color="#232323"/><path d="m248 192c-26.472656 0-48 21.527344-48 48s21.527344 48 48 48 48-21.527344 48-48-21.527344-48-48-48zm0 80c-17.648438 0-32-14.351562-32-32s14.351562-32 32-32 32 14.351562 32 32-14.351562 32-32 32zm0 0" fill="#232323" data-original="#232323" class="" style="fill:#031B4E" data-old_color="#232323"/><path d="m496 168c0-28.199219-18.351562-52.144531-43.726562-60.65625-46.371094-67.214844-122.714844-107.34375-204.273438-107.34375-32.632812 0-64.296875 6.28125-94.183594 18.574219-5.664062-1.644531-11.632812-2.574219-17.816406-2.574219-20.742188 0-40.265625 10.359375-52.183594 27.175781-6.25-2.039062-12.894531-3.175781-19.816406-3.175781-35.289062 0-64 28.710938-64 64 0 18.265625 7.726562 34.71875 20.039062 46.390625-13.246093 30.867187-20.039062 63.65625-20.039062 97.609375 0 136.753906 111.257812 248 248 248s248-111.246094 248-248c0-18.023438-2.03125-35.953125-5.863281-53.398438 3.726562-8.113281 5.863281-17.105468 5.863281-26.601562zm-16 0c0 26.472656-21.527344 48-48 48h-107.03125c-6.136719-32.3125-20.6875-58.921875-35.152344-78.726562 5.40625-5.210938 12.421875-8.503907 20.046875-9.015626l4.703125-.3125 2-4.273437c7.898438-16.816406 24.9375-27.671875 43.433594-27.671875 14.878906 0 28.527344 6.679688 37.585938 18.128906-17.761719 11.382813-29.585938 31.253906-29.585938 53.871094h16c0-26.472656 21.527344-48 48-48s48 21.527344 48 48zm-96 267.785156c-3.183594 2.3125-6.441406 4.542969-9.742188 6.695313l-69.097656-46.289063c4.6875-16.449218 10.238282-38.457031 14.703125-63.398437l64.136719 70.3125zm-152-3.785156h32v16h-32zm-18.289062-16c-3.34375-10.054688-10.773438-33.695312-17.367188-64h11.65625v-16h-14.886719c-5.121093-26.886719-9.113281-57.503906-9.113281-88 0-32.703125 10.648438-60.863281 23.550781-83.113281 12.273438 7.257812 26.074219 11.113281 40.449219 11.113281s28.175781-3.855469 40.449219-11.113281c12.902343 22.25 23.550781 50.410156 23.550781 83.113281 0 30.496094-3.992188 61.113281-9.113281 88h-14.886719v16h11.65625c-6.59375 30.304688-14.015625 53.945312-17.367188 64zm-22.671876-19.070312-69.144531 45.65625c-3.359375-2.1875-6.664062-4.449219-9.902343-6.800782v-32.6875l64.136718-70.304687c4.535156 25.3125 10.183594 47.613281 14.910156 64.136719zm56.960938-282.378907c6.769531 6.136719 19.496094 18.777344 31.839844 36.671875-19.558594 11.183594-44.128906 11.183594-63.679688 0 12.34375-17.894531 25.070313-30.535156 31.839844-36.671875zm0-98.550781c71.160156 0 138.0625 32.679688 181.953125 88.105469-6.183594.199219-12.144531 1.238281-17.769531 3.070312-11.917969-16.816406-31.441406-27.175781-52.183594-27.175781-23.152344 0-44.59375 12.742188-55.832031 32.824219-9.105469 1.503906-17.542969 5.574219-24.351563 11.695312-13.894531-16.464843-25.703125-25.894531-26.914062-26.832031l-4.902344-3.824219-4.910156 3.824219c-.074219.054688-.371094.296875-.523438.417969-8.078125-15.722657-24.300781-26.105469-42.566406-26.105469-.183594 0-.367188.023438-.550781.023438-2.25-17.953126-11.945313-33.582032-25.914063-43.75 23.890625-8.105469 48.847656-12.273438 74.464844-12.273438zm-232 88c0-26.472656 21.527344-48 48-48s48 21.527344 48 48h16c0-22.617188-11.824219-42.488281-29.585938-53.871094 9.058594-11.449218 22.707032-18.128906 37.585938-18.128906 24.742188 0 45.167969 18.824219 47.71875 42.902344-18.460938 6.691406-31.71875 24.34375-31.71875 45.097656h16c0-17.648438 14.351562-32 32-32 13.664062 0 25.609375 8.695312 30.078125 21.382812-9.316406 9.21875-22.15625 23.707032-33.765625 42.617188h-132.3125c-26.472656 0-48-21.527344-48-48zm0 144c0-30.511719 5.855469-60.015625 17.289062-87.878906 9.117188 5.015625 19.582032 7.878906 30.710938 7.878906h123.496094c-11.105469 22.257812-19.496094 49.113281-19.496094 80 0 22.070312 1.945312 44.03125 4.878906 64.632812l-76.878906 84.261719v26.144531c-48.960938-42.558593-80-105.222656-80-175.039062zm121.105469 203.726562 58.75-38.796874c2.558593 8.085937 4.328125 12.992187 4.617187 13.796874l1.925782 5.273438h13.601562v16c0 8.824219 7.175781 16 16 16h32c8.824219 0 16-7.175781 16-16v-16h13.601562l1.917969-5.265625c.304688-.832031 2.160157-6.007813 4.832031-14.496094l58.753907 39.363281c-33.007813 18.09375-70.875 28.398438-111.105469 28.398438-40.144531 0-77.929688-10.257812-110.894531-28.273438zm342.894531-203.726562c0 69.816406-31.039062 132.480469-80 175.046875v-26.144531l-76.878906-84.269532c2.933594-20.601562 4.878906-42.5625 4.878906-64.632812 0-5.464844-.289062-10.785156-.777344-16h104.777344c17.679688 0 33.703125-7.207031 45.296875-18.839844 1.734375 11.496094 2.703125 23.144532 2.703125 34.839844zm0 0" fill="#232323" data-original="#232323" class="" style="fill:#031B4E" data-old_color="#232323"/></g> </svg>
