<?xml version="1.0"?>
<svg xmlns="http://www.w3.org/2000/svg" id="Capa_1" enable-background="new 0 0 512 512" height="512px" viewBox="0 0 512 512" width="512px"><g><path d="m376 512h-240c-24.813 0-45-20.187-45-45v-422c0-24.813 20.187-45 45-45h240c24.813 0 45 20.187 45 45v422c0 24.813-20.187 45-45 45zm-240-482c-8.271 0-15 6.729-15 15v422c0 8.271 6.729 15 15 15h240c8.271 0 15-6.729 15-15v-422c0-8.271-6.729-15-15-15z" data-original="#000000" class="active-path" data-old_color="#000000" fill="#FFFFFF"/><path d="m286 90h-60c-8.284 0-15-6.716-15-15s6.716-15 15-15h60c8.284 0 15 6.716 15 15s-6.716 15-15 15z" data-original="#000000" class="active-path" data-old_color="#000000" fill="#FFFFFF"/><circle cx="256" cy="437" r="15" data-original="#000000" class="active-path" data-old_color="#000000" fill="#FFFFFF"/></g> </svg>
