<?xml version="1.0"?>
<svg xmlns="http://www.w3.org/2000/svg" height="512px" viewBox="0 0 496 496" width="512px" class=""><g><path d="m488 248c0 132.546875-107.453125 240-240 240s-240-107.453125-240-240 107.453125-240 240-240 240 107.453125 240 240zm0 0" fill="#85d3c1" data-original="#85D3C1" class="" style="fill:#B3E0FF" data-old_color="#85d3c1"/><path d="m448 328v52.558594c-8.800781 13.363281-19.039062 25.839844-30.320312 37.121094l-1.679688-1.679688v-88h-128v96h-32v-96c0-17.679688 14.320312-32 32-32h128c17.679688 0 32 14.320312 32 32zm0 0" fill="#ff958a" data-original="#FF958A" class="active-path" style="fill:#CE526F" data-old_color="#ff958a"/><path d="m288 424h123.039062c-13.117187 12.238281-27.679687 22.960938-43.359374 32h-95.679688c-17.679688 0-32-14.320312-32-32zm0 0" fill="#ff958a" data-original="#FF958A" class="active-path" style="fill:#CE526F" data-old_color="#ff958a"/><path d="m416 416 1.679688 1.679688c-2.078126 2.160156-4.320313 4.242187-6.558594 6.320312h-123.121094v-96h128zm0 0" fill="#f5f7fa" data-original="#F5F7FA" class=""/><path d="m320 224v-96c0-8.800781 7.199219-16 16-16h109.679688c25.28125 36.558594 40.640624 80.480469 42.082031 128h-79.761719l-56 24v-24h-16c-8.800781 0-16-7.199219-16-16zm0 0" fill="#f9d48a" data-original="#F9D48A" class="" style="fill:#FFC252" data-old_color="#f9d48a"/><path d="m313.921875 296h-25.921875c-17.679688 0-32 14.320312-32 32v64h-200c-9.199219-12.238281-17.199219-25.359375-24-39.28125v-33.277344c0-22.480468 15.601562-42 37.601562-46.882812l34.796876-7.757813 31.601562 71.199219 40-40 40 40 31.601562-71.199219 34.796876 7.757813c13.761718 3.042968 24.960937 11.839844 31.523437 23.441406zm0 0" fill="#f9d48a" data-original="#F9D48A" class="" style="fill:#FFC252" data-old_color="#f9d48a"/><path d="m247.601562 264.800781-31.601562 71.199219-40-40 32-40zm0 0" fill="#ff958a" data-original="#FF958A" class="active-path" style="fill:#CE526F" data-old_color="#ff958a"/><path d="m144 256 32 40-40 40-31.601562-71.199219zm0 0" fill="#ff958a" data-original="#FF958A" class="active-path" style="fill:#CE526F" data-old_color="#ff958a"/><path d="m80 128v-24c0-11.601562 2-22.640625 5.761719-32.878906 13.4375-36.800782 48.71875-63.121094 90.238281-63.121094 9.761719 0 19.121094 1.441406 27.921875 4.160156 15.359375 4.558594 28.957031 12.878906 40 23.917969 17.359375 17.363281 28.078125 41.363281 28.078125 67.921875v24l-.480469 1.28125c-2.320312-.882812-4.878906-1.28125-7.519531-1.28125h-30.320312c-18.800782 0-37.359376-2.800781-55.199219-8.160156-17.839844-5.441406-34.800781-13.441406-50.480469-23.839844-8.640625 8.640625-14.160156 20-15.601562 32.078125l-.398438-.078125h-24c-2.640625 0-5.199219.398438-7.519531 1.28125zm0 0" fill="#f9d48a" data-original="#F9D48A" class="" style="fill:#FFC252" data-old_color="#f9d48a"/><path d="m271.519531 129.28125c-2.320312-.882812-4.878906-1.28125-7.519531-1.28125h-30.320312c-18.800782 0-37.359376-2.800781-55.199219-8.160156-17.839844-5.441406-34.800781-13.441406-50.480469-23.839844-8.640625 8.640625-14.160156 20-15.601562 32.078125l-.398438-.078125h-24c-2.640625 0-5.199219.398438-7.519531 1.28125-3.601563 1.117188-6.800781 3.117188-9.441407 5.757812-4.320312 4.320313-7.039062 10.320313-7.039062 16.960938 0 13.28125 10.71875 24 24 24h24c0 17.679688 7.199219 33.679688 18.71875 45.28125 4 4 8.5625 7.4375 13.519531 10.238281l-.238281.480469v24l32 40 32-40v-24l-.238281-.480469c9.839843-5.597656 18-13.679687 23.597656-23.519531 5.519531-9.359375 8.640625-20.320312 8.640625-32h24c6.640625 0 12.640625-2.71875 16.960938-7.039062 4.320312-4.320313 7.039062-10.320313 7.039062-16.960938 0-10.640625-6.878906-19.601562-16.480469-22.71875zm0 0" fill="#f5f7fa" data-original="#F5F7FA" class=""/><g fill="#232323"><path d="m248 0c-14.785156 0-29.585938 1.34375-44.03125 3.929688-8.914062-2.496094-18.273438-3.929688-27.96875-3.929688-44.089844 0-81.761719 27.625-96.871094 66.433594-50.289062 46.796875-79.128906 112.855468-79.128906 181.566406 0 136.742188 111.246094 248 248 248s248-111.257812 248-248-111.246094-248-248-248zm88 232c-4.414062 0-8-3.59375-8-8v-96c0-4.40625 3.585938-8 8-8h105.367188c21.609374 32.535156 35.199218 70.808594 38.023437 112h-73.023437l-46.367188 19.863281v-19.863281zm-160-216c48.519531 0 88 39.480469 88 88v16h-16v-16h-16v15.992188c-35.558594-.328126-69.953125-10.902344-99.558594-30.648438l-5.464844-3.640625-4.632812 4.640625c-8.296875 8.296875-13.902344 18.527344-16.558594 29.65625h-17.785156v-16c0-48.519531 39.480469-88 88-88zm264 362.078125c-4.929688 7.257813-10.304688 14.1875-16 20.824219v-78.902344h-144v96h-16v-88c0-13.230469 10.769531-24 24-24h128c13.230469 0 24 10.769531 24 24zm-50.929688 53.921875c-7.550781 5.800781-15.460937 11.144531-23.703124 16h-93.367188c-10.433594 0-19.328125-6.6875-22.632812-16zm18.671876-16h-111.742188v-80h112v79.761719c-.089844.078125-.167969.160156-.257812.238281zm-119.742188-128c-22.054688 0-40 17.945312-40 40v56h-187.785156c-7.628906-10.503906-14.40625-21.664062-20.214844-33.390625v-31.195313c0-18.878906 12.871094-34.933593 31.3125-39.039062l28.398438-6.320312 33.714843 75.839843 42.574219-42.582031 42.574219 42.582031 33.714843-75.839843 28.398438 6.320312c5.878906 1.3125 11.265625 3.984375 15.914062 7.625zm-147.136719-23.105469 24.417969 30.511719-26.707031 26.699219-22.925781-51.601563zm72.5625 57.210938-26.707031-26.699219 24.417969-30.511719 25.214843 5.617188zm-13.425781-68.914063-24 30-24-30v-9.390625c7.519531 2.671875 15.574219 4.199219 24 4.199219s16.480469-1.527344 24-4.199219zm-24-53.191406v16h39.113281c-10.105469 9.878906-23.90625 16-39.113281 16-30.871094 0-56-25.121094-56-56v-41.367188c0-10.3125 3.328125-20.113281 9.472656-28.175781 30.871094 19.054688 66.144532 29.238281 102.527344 29.542969v40c0 8.601562-2.007812 16.710938-5.480469 24zm71.527344-16h8.472656v8c0 4.40625-3.585938 8-8 8h-4.199219c1.808594-5.105469 3.109375-10.449219 3.726563-16zm8.472656-32v16h-8v-32h16c8.824219 0 16 7.175781 16 16 0 5.894531-3.238281 11-8 13.777344v-13.777344zm-152 16h-16c-8.824219 0-16-7.175781-16-16s7.175781-16 16-16h16zm-31.625-71.488281c-.175781 2.480469-.375 4.960937-.375 7.488281v20.449219c-9.519531 5.550781-16 15.757812-16 27.550781 0 17.648438 14.351562 32 32 32h16.472656c2.398438 21.566406 14.34375 40.296875 31.527344 51.824219v13.761719l-68.167969 15.175781c-22.96875 5.109375-39.6875 23.496093-43.113281 46.101562-5.628906-20.007812-8.71875-41.070312-8.71875-62.863281 0-55.742188 20.3125-109.601562 56.375-151.488281zm.578125 303.488281h175.046875v16h-16v8c0 22.054688 17.945312 40 40 40h60.496094c-26.207032 10.289062-54.6875 16-84.496094 16-69.816406 0-132.480469-31.039062-175.046875-80zm383.046875-49.390625v-22.609375c0-22.054688-17.945312-40-40-40h-97.703125c-7.984375-11.742188-20.152344-20.128906-34.128906-23.238281l-68.167969-15.175781v-13.761719c7.832031-5.25 14.574219-12 19.824219-19.824219h12.175781c13.230469 0 24-10.769531 24-24v-9.136719c13.769531-3.574219 24-16 24-30.863281 0-11.792969-6.480469-22-16-27.550781v-20.449219c0-36.65625-19.113281-68.878906-47.847656-87.398438 5.273437-.363281 10.558594-.601562 15.847656-.601562 73.542969 0 139.160156 34.441406 181.695312 88h-93.695312c-13.230469 0-24 10.769531-24 24v96c0 13.230469 10.769531 24 24 24h8v28.136719l65.640625-28.136719h70.359375c0 36.824219-8.664062 71.65625-24 102.609375zm0 0" data-original="#232323" class="" style="fill:#031B4E" data-old_color="#232323"/><path d="m344 136h96v16h-96zm0 0" data-original="#232323" class="" style="fill:#031B4E" data-old_color="#232323"/><path d="m344 168h96v16h-96zm0 0" data-original="#232323" class="" style="fill:#031B4E" data-old_color="#232323"/><path d="m424 200h16v16h-16zm0 0" data-original="#232323" class="" style="fill:#031B4E" data-old_color="#232323"/><path d="m344 200h64v16h-64zm0 0" data-original="#232323" class="" style="fill:#031B4E" data-old_color="#232323"/></g></g> </svg>
