<?xml version="1.0" encoding="iso-8859-1"?>
<!-- Generator: Adobe Illustrator 16.0.0, SVG Export Plug-In . SVG Version: 6.00 Build 0)  -->
<!DOCTYPE svg PUBLIC "-//W3C//DTD SVG 1.1//EN" "http://www.w3.org/Graphics/SVG/1.1/DTD/svg11.dtd">
<svg version="1.1" id="Layer_1" xmlns="http://www.w3.org/2000/svg" xmlns:xlink="http://www.w3.org/1999/xlink" x="0px" y="0px"
	 width="192.383px" height="40.36px" viewBox="0 0 192.383 40.36" style="enable-background:new 0 0 192.383 40.36;"
	 xml:space="preserve">
<g>
	<path style="fill-rule:evenodd;clip-rule:evenodd;fill:#FFC252;" d="M33.89,22.704l-5.254,14.81
		c-0.203,0.609-0.535,1.145-0.996,1.582c-0.471,0.439-1.016,0.739-1.616,0.932l-0.021,0.01l-0.032,0.012
		c-0.514,0.15-1.07,0.235-1.616,0.278c-0.567,0.033-1.145,0.033-1.723,0.033c-0.61,0-1.22-0.012-1.83-0.076
		c-0.557-0.053-1.124-0.159-1.659-0.353c-0.513-0.192-0.984-0.439-1.401-0.792l-0.064-0.044l-0.053-0.053
		c-0.46-0.438-0.803-0.974-0.985-1.573l-4.901-14.285v13.548c0,0.685-0.192,1.337-0.588,1.904l-0.021,0.033l-0.021,0.03
		c-0.438,0.6-1.06,0.996-1.755,1.231L9.31,39.952l-0.054,0.012l-0.021,0.01V8.332h0.064l9.716,28.828
		c0.064,0.192,0.16,0.374,0.321,0.515c0.161,0.148,0.385,0.256,0.664,0.362c0.278,0.097,0.642,0.172,1.07,0.225
		c0.428,0.043,0.952,0.064,1.562,0.064s1.134-0.01,1.563-0.043c0.428-0.021,0.781-0.085,1.06-0.171
		c0.289-0.097,0.502-0.214,0.663-0.374c0.171-0.15,0.267-0.342,0.354-0.578L36.34,8.332h0.053v31.642
		c-0.021-0.01-0.043-0.021-0.064-0.021l-0.054-0.021l-0.053-0.021c-0.653-0.235-1.252-0.632-1.67-1.198
		c-0.428-0.578-0.663-1.263-0.663-1.979V22.704z"/>
	<path style="fill-rule:evenodd;clip-rule:evenodd;fill:#161C2D;" d="M15.334,6.834l7.512,20.78h0.107l7.79-20.737
		c0.225-0.749,0.481-1.392,0.76-1.915c0.29-0.514,0.61-0.932,0.974-1.252c0.364-0.332,0.813-0.557,1.305-0.695
		c0.503-0.14,1.092-0.204,1.755-0.204h4.783c0.492,0,0.909,0.064,1.252,0.193c0.353,0.117,0.642,0.31,0.867,0.556
		c0.235,0.235,0.396,0.535,0.513,0.878c0.118,0.353,0.183,0.76,0.183,1.209v34.327l0.075-0.021l0.032-0.01l0.043-0.021
		c0.674-0.235,1.284-0.632,1.712-1.221l0.032-0.03l0.021-0.033c0.385-0.567,0.578-1.22,0.578-1.904V5.646
		c0-0.685-0.085-1.37-0.311-2.012c-0.225-0.664-0.557-1.263-1.038-1.776c-0.514-0.557-1.155-0.963-1.862-1.209
		c-0.674-0.246-1.38-0.343-2.097-0.343h-4.783c-0.813,0-1.637,0.075-2.418,0.3c-0.845,0.225-1.626,0.631-2.29,1.22
		c-0.62,0.535-1.113,1.209-1.52,1.927l-0.011,0.021l-0.011,0.021c-0.385,0.728-0.674,1.498-0.92,2.279l-5.425,14.457L17.709,6.063
		c-0.234-0.813-0.534-1.604-0.941-2.343c-0.449-0.803-1.048-1.509-1.797-2.055c-0.728-0.535-1.562-0.878-2.45-1.092
		c-0.877-0.203-1.798-0.268-2.697-0.268H5.179c-1.412,0-2.707,0.46-3.713,1.466C0.417,2.811,0,4.191,0,5.646v31.086
		c0,0.685,0.203,1.337,0.588,1.904L0.61,38.67l0.021,0.03c0.439,0.589,1.038,0.985,1.723,1.221l0.032,0.021l0.043,0.01l0.075,0.021
		V5.646c0-0.92,0.235-1.616,0.728-2.108c0.492-0.481,1.135-0.728,1.947-0.728h4.645c0.824,0,1.541,0.064,2.129,0.204
		c0.6,0.139,1.113,0.363,1.541,0.674c0.428,0.311,0.792,0.728,1.081,1.241S15.12,6.074,15.334,6.834L15.334,6.834z"/>
</g>
<g>
	<g>
		<path style="fill:#161C2D;" d="M64.844,22.229l-1.042-9.685l-4.563,9.685h-0.794l-4.799-9.685l-0.855,9.685h-1.5l1.302-12.785
			h2.406l4.452,9.002l4.253-9.002h2.344l1.414,12.785H64.844z"/>
		<path style="fill:#161C2D;" d="M77.653,22.229h-7.651V9.53h7.378l-0.124,1.29l-4.663,0.062v4.129l4.39,0.05l-0.124,1.178
			l-4.266,0.099v4.539l5.184,0.099L77.653,22.229z"/>
		<path style="fill:#161C2D;" d="M87.822,17.331l-2.827-0.149l0.136-1.029h5.332v5.183c-0.29,0.124-0.645,0.248-1.066,0.372
			c-0.421,0.124-0.88,0.238-1.376,0.341s-1.006,0.188-1.531,0.254c-0.525,0.066-1.036,0.1-1.532,0.1
			c-0.992,0-1.835-0.16-2.529-0.478c-0.695-0.318-1.259-0.769-1.693-1.352c-0.434-0.583-0.75-1.279-0.949-2.09
			c-0.198-0.81-0.297-1.711-0.297-2.703s0.169-1.883,0.508-2.672c0.339-0.79,0.816-1.461,1.432-2.015
			c0.616-0.554,1.354-0.978,2.213-1.271s1.806-0.44,2.84-0.44c0.256,0,0.543,0.008,0.862,0.024c0.318,0.017,0.632,0.042,0.942,0.075
			s0.604,0.068,0.88,0.105c0.277,0.037,0.506,0.081,0.688,0.13l-0.446,1.848c-0.215-0.066-0.486-0.134-0.813-0.205
			c-0.327-0.07-0.669-0.132-1.029-0.186c-0.359-0.054-0.719-0.099-1.079-0.136c-0.36-0.037-0.68-0.056-0.961-0.056
			c-0.463,0-0.899,0.035-1.309,0.105s-0.787,0.233-1.134,0.49c-0.19,0.141-0.343,0.359-0.459,0.657
			c-0.116,0.297-0.207,0.639-0.273,1.023c-0.066,0.384-0.111,0.798-0.136,1.24c-0.025,0.442-0.037,0.875-0.037,1.296
			c0,1.695,0.221,2.993,0.663,3.894s1.143,1.352,2.102,1.352c0.24,0,0.494-0.008,0.763-0.025c0.269-0.017,0.533-0.041,0.793-0.074
			c0.261-0.033,0.504-0.066,0.732-0.099c0.227-0.033,0.423-0.07,0.589-0.112V17.331z"/>
		<path style="fill:#161C2D;" d="M101.165,22.229l-1.488-4.278l-4.774,0.062l-1.55,4.216h-1.637L96.75,9.642l2.505-0.434
			l4.687,13.021H101.165z M99.267,16.748l-1.91-5.481l-2.009,5.481H99.267z"/>
		<path style="fill:#161C2D;" d="M120.745,22.229v-5.717h-5.741v5.717h-2.592V9.53h2.592v5.556h5.741V9.53h2.592v12.698H120.745z"/>
		<path style="fill:#161C2D;" d="M138.552,15.83c0,1.008-0.135,1.918-0.403,2.728s-0.672,1.5-1.209,2.071s-1.207,1.009-2.009,1.314
			s-1.736,0.459-2.803,0.459c-1.091,0-2.025-0.157-2.803-0.472c-0.776-0.314-1.418-0.758-1.922-1.333
			c-0.504-0.574-0.874-1.265-1.109-2.071c-0.236-0.806-0.354-1.705-0.354-2.697c0-0.992,0.122-1.885,0.365-2.679
			c0.244-0.793,0.618-1.469,1.123-2.027c0.504-0.558,1.146-0.986,1.928-1.284c0.781-0.297,1.713-0.446,2.797-0.446
			c1.066,0,1.998,0.149,2.796,0.446c0.798,0.298,1.463,0.726,1.996,1.284s0.935,1.234,1.203,2.027S138.552,14.838,138.552,15.83z
			 M135.824,15.842c0-0.777-0.07-1.471-0.211-2.083c-0.141-0.611-0.359-1.132-0.657-1.563c-0.297-0.43-0.678-0.758-1.141-0.986
			c-0.463-0.227-1.017-0.341-1.661-0.341c-0.563,0-1.086,0.058-1.569,0.174s-0.866,0.281-1.146,0.496
			c-0.281,0.215-0.486,0.68-0.614,1.396c-0.128,0.715-0.192,1.684-0.192,2.908c0,0.761,0.058,1.451,0.174,2.071
			s0.308,1.153,0.577,1.6c0.269,0.446,0.626,0.792,1.072,1.036s1.004,0.366,1.674,0.366c0.687,0,1.255-0.06,1.705-0.18
			s0.829-0.279,1.135-0.478c0.141-0.091,0.265-0.275,0.372-0.552s0.196-0.614,0.267-1.011s0.124-0.841,0.161-1.333
			C135.805,16.87,135.824,16.363,135.824,15.842z"/>
		<path style="fill:#161C2D;" d="M148.82,18.508c0,0.463-0.117,0.926-0.354,1.389c-0.235,0.463-0.57,0.88-1.004,1.252
			c-0.435,0.372-0.957,0.674-1.569,0.905c-0.611,0.231-1.298,0.348-2.058,0.348c-0.414,0-0.792-0.021-1.135-0.062
			c-0.344-0.042-0.668-0.104-0.974-0.186s-0.6-0.18-0.881-0.292c-0.281-0.112-0.562-0.238-0.843-0.378l0.632-1.885
			c0.183,0.124,0.429,0.254,0.738,0.391s0.641,0.263,0.992,0.378s0.709,0.213,1.072,0.291c0.364,0.079,0.694,0.118,0.992,0.118
			c0.687,0,1.203-0.075,1.55-0.223c0.19-0.083,0.346-0.269,0.466-0.558c0.119-0.29,0.18-0.67,0.18-1.141
			c0-0.331-0.089-0.605-0.267-0.825c-0.179-0.219-0.412-0.411-0.701-0.577c-0.289-0.165-0.62-0.314-0.992-0.446
			c-0.372-0.132-0.75-0.273-1.135-0.421c-0.384-0.149-0.762-0.32-1.134-0.515s-0.703-0.434-0.992-0.719
			c-0.29-0.285-0.523-0.628-0.701-1.029s-0.267-0.887-0.267-1.457c0-0.372,0.102-0.765,0.304-1.178
			c0.203-0.413,0.498-0.789,0.887-1.128c0.389-0.339,0.866-0.62,1.433-0.843s1.213-0.334,1.94-0.334
			c0.587,0,1.147,0.029,1.681,0.086c0.533,0.058,1.052,0.132,1.556,0.223l-0.396,1.885c-0.24-0.083-0.507-0.161-0.8-0.236
			c-0.294-0.074-0.594-0.138-0.899-0.192s-0.604-0.097-0.893-0.13s-0.546-0.05-0.769-0.05c-0.24,0-0.49,0.015-0.75,0.043
			c-0.261,0.029-0.474,0.089-0.639,0.18c-0.166,0.091-0.285,0.248-0.36,0.471c-0.074,0.224-0.111,0.492-0.111,0.806
			c0,0.323,0.089,0.591,0.267,0.806s0.411,0.401,0.701,0.558c0.289,0.157,0.62,0.302,0.991,0.434
			c0.372,0.132,0.753,0.275,1.142,0.428c0.388,0.153,0.769,0.327,1.141,0.521c0.372,0.194,0.702,0.438,0.992,0.732
			c0.289,0.293,0.522,0.647,0.7,1.06C148.731,17.421,148.82,17.921,148.82,18.508z"/>
		<path style="fill:#161C2D;" d="M153.495,22.229V10.882l-3.906-0.062l0.124-1.29h10.28l-0.124,1.252l-3.782,0.099v11.347H153.495z"
			/>
		<path style="fill:#161C2D;" d="M164.258,22.229h-2.592V9.53h2.592V22.229z"/>
		<path style="fill:#161C2D;" d="M177.651,22.291l-8.966-8.903h-0.037c0.017,0.744,0.033,1.43,0.05,2.058
			c0.008,0.265,0.015,0.531,0.019,0.8c0.004,0.269,0.009,0.517,0.013,0.744c0.004,0.228,0.008,0.426,0.013,0.595
			c0.004,0.169,0.006,0.292,0.006,0.366v4.278h-1.513V9.444h1.128l8.979,8.878h0.012c-0.017-0.686-0.028-1.327-0.037-1.922
			c0-0.256-0.002-0.515-0.006-0.775c-0.004-0.261-0.009-0.509-0.013-0.744c-0.004-0.236-0.006-0.453-0.006-0.651
			c0-0.198,0-0.359,0-0.483V9.53h1.513v12.76H177.651z"/>
		<path style="fill:#161C2D;" d="M189.742,17.331l-2.827-0.149l0.136-1.029h5.333v5.183c-0.29,0.124-0.646,0.248-1.066,0.372
			c-0.422,0.124-0.881,0.238-1.377,0.341s-1.007,0.188-1.531,0.254c-0.525,0.066-1.035,0.1-1.531,0.1
			c-0.992,0-1.836-0.16-2.53-0.478c-0.694-0.318-1.259-0.769-1.692-1.352c-0.434-0.583-0.75-1.279-0.948-2.09
			c-0.199-0.81-0.298-1.711-0.298-2.703s0.169-1.883,0.508-2.672s0.816-1.461,1.433-2.015c0.616-0.554,1.354-0.978,2.214-1.271
			c0.859-0.293,1.806-0.44,2.84-0.44c0.256,0,0.543,0.008,0.861,0.024c0.318,0.017,0.633,0.042,0.942,0.075
			c0.311,0.033,0.604,0.068,0.881,0.105c0.276,0.037,0.506,0.081,0.688,0.13l-0.446,1.848c-0.215-0.066-0.485-0.134-0.812-0.205
			c-0.327-0.07-0.67-0.132-1.029-0.186c-0.36-0.054-0.72-0.099-1.079-0.136s-0.681-0.056-0.961-0.056
			c-0.463,0-0.899,0.035-1.309,0.105s-0.787,0.233-1.135,0.49c-0.19,0.141-0.343,0.359-0.459,0.657
			c-0.115,0.297-0.206,0.639-0.272,1.023s-0.111,0.798-0.137,1.24c-0.024,0.442-0.037,0.875-0.037,1.296
			c0,1.695,0.222,2.993,0.664,3.894c0.441,0.901,1.143,1.352,2.102,1.352c0.239,0,0.494-0.008,0.763-0.025s0.533-0.041,0.794-0.074
			c0.26-0.033,0.504-0.066,0.731-0.099c0.228-0.033,0.424-0.07,0.589-0.112V17.331z"/>
	</g>
	<g>
		<path style="fill:#4E5F83;" d="M51.548,29.876l-0.497,1.504h-0.639l1.625-4.782h0.745l1.632,4.782h-0.66l-0.511-1.504H51.548z
			 M53.117,29.394l-0.468-1.376c-0.106-0.312-0.178-0.596-0.249-0.873h-0.014c-0.071,0.284-0.149,0.575-0.241,0.866l-0.468,1.383
			H53.117z"/>
		<path style="fill:#4E5F83;" d="M55.031,30.629c0.277,0.17,0.681,0.312,1.107,0.312c0.631,0,1-0.333,1-0.816
			c0-0.447-0.255-0.703-0.901-0.951c-0.78-0.277-1.263-0.681-1.263-1.355c0-0.745,0.617-1.298,1.547-1.298
			c0.489,0,0.844,0.114,1.057,0.234l-0.17,0.503c-0.156-0.085-0.476-0.227-0.908-0.227c-0.653,0-0.901,0.391-0.901,0.717
			c0,0.447,0.291,0.667,0.951,0.922c0.809,0.312,1.22,0.703,1.22,1.405c0,0.738-0.546,1.376-1.674,1.376
			c-0.461,0-0.965-0.135-1.221-0.305L55.031,30.629z"/>
		<path style="fill:#4E5F83;" d="M58.613,26.655c0.298-0.05,0.688-0.092,1.185-0.092c0.61,0,1.057,0.142,1.341,0.397
			c0.262,0.227,0.418,0.575,0.418,1c0,0.433-0.128,0.773-0.369,1.021c-0.326,0.348-0.858,0.525-1.461,0.525
			c-0.185,0-0.355-0.007-0.497-0.042v1.916h-0.618V26.655z M59.23,28.961c0.135,0.036,0.305,0.05,0.511,0.05
			c0.745,0,1.199-0.362,1.199-1.022c0-0.631-0.447-0.937-1.128-0.937c-0.27,0-0.475,0.021-0.582,0.05V28.961z"/>
		<path style="fill:#4E5F83;" d="M61.224,31.012c0-0.262,0.177-0.447,0.425-0.447c0.249,0,0.419,0.185,0.419,0.447
			c0,0.256-0.163,0.447-0.426,0.447C61.394,31.459,61.224,31.268,61.224,31.012z"/>
		<path style="fill:#4E5F83;" d="M62.862,31.381v-4.782h0.674l1.533,2.419c0.354,0.561,0.631,1.064,0.858,1.554l0.014-0.007
			c-0.057-0.639-0.071-1.22-0.071-1.965v-2.001h0.582v4.782h-0.625l-1.518-2.427c-0.333-0.532-0.653-1.078-0.894-1.596l-0.021,0.007
			c0.036,0.603,0.05,1.178,0.05,1.973v2.043H62.862z"/>
		<path style="fill:#4E5F83;" d="M70.006,29.139h-1.859v1.724h2.072v0.518h-2.689v-4.782h2.583v0.518h-1.965v1.511h1.859V29.139z"/>
		<path style="fill:#4E5F83;" d="M72.041,27.124h-1.455v-0.525h3.541v0.525h-1.462v4.257h-0.625V27.124z"/>
		<path style="fill:#4E5F83;" d="M76.935,29.876l-0.497,1.504H75.8l1.625-4.782h0.745l1.632,4.782h-0.66l-0.511-1.504H76.935z
			 M78.503,29.394l-0.468-1.376c-0.106-0.312-0.178-0.596-0.249-0.873h-0.014c-0.071,0.284-0.149,0.575-0.241,0.866l-0.468,1.383
			H78.503z"/>
		<path style="fill:#4E5F83;" d="M80.502,31.381v-4.782h0.674l1.533,2.419c0.354,0.561,0.631,1.064,0.858,1.554l0.014-0.007
			c-0.057-0.639-0.071-1.22-0.071-1.965v-2.001h0.582v4.782h-0.625l-1.518-2.427c-0.333-0.532-0.653-1.078-0.894-1.596l-0.021,0.007
			c0.036,0.603,0.05,1.178,0.05,1.973v2.043H80.502z"/>
		<path style="fill:#4E5F83;" d="M85.17,26.663c0.376-0.057,0.823-0.1,1.313-0.1c0.887,0,1.518,0.206,1.937,0.596
			c0.426,0.39,0.674,0.944,0.674,1.717c0,0.781-0.241,1.419-0.688,1.859c-0.447,0.447-1.185,0.688-2.115,0.688
			c-0.44,0-0.809-0.021-1.121-0.057V26.663z M85.788,30.891c0.156,0.028,0.383,0.036,0.624,0.036c1.32,0,2.037-0.738,2.037-2.029
			c0.007-1.128-0.631-1.845-1.937-1.845c-0.319,0-0.561,0.028-0.724,0.064V30.891z"/>
		<path style="fill:#4E5F83;" d="M91.923,31.381l-1.213-4.782h0.653l0.567,2.419c0.142,0.596,0.27,1.192,0.355,1.653h0.014
			c0.078-0.476,0.227-1.043,0.39-1.66l0.639-2.413h0.646l0.582,2.427c0.134,0.567,0.262,1.135,0.333,1.639h0.014
			c0.1-0.525,0.234-1.057,0.384-1.653l0.631-2.413h0.632l-1.355,4.782h-0.646l-0.603-2.49c-0.149-0.61-0.248-1.079-0.312-1.561
			h-0.014c-0.085,0.475-0.192,0.943-0.369,1.561l-0.681,2.49H91.923z"/>
		<path style="fill:#4E5F83;" d="M97.76,26.599v4.782h-0.617v-4.782H97.76z"/>
		<path style="fill:#4E5F83;" d="M98.838,31.381v-4.782h0.674l1.533,2.419c0.354,0.561,0.631,1.064,0.858,1.554l0.014-0.007
			c-0.057-0.639-0.07-1.22-0.07-1.965v-2.001h0.582v4.782h-0.625l-1.519-2.427c-0.333-0.532-0.652-1.078-0.894-1.596l-0.021,0.007
			c0.035,0.603,0.05,1.178,0.05,1.973v2.043H98.838z"/>
		<path style="fill:#4E5F83;" d="M103.506,26.663c0.376-0.057,0.823-0.1,1.313-0.1c0.888,0,1.519,0.206,1.938,0.596
			c0.426,0.39,0.674,0.944,0.674,1.717c0,0.781-0.241,1.419-0.688,1.859c-0.446,0.447-1.185,0.688-2.114,0.688
			c-0.439,0-0.809-0.021-1.121-0.057V26.663z M104.124,30.891c0.156,0.028,0.384,0.036,0.625,0.036c1.319,0,2.036-0.738,2.036-2.029
			c0.007-1.128-0.632-1.845-1.938-1.845c-0.319,0-0.561,0.028-0.724,0.064V30.891z"/>
		<path style="fill:#4E5F83;" d="M112.317,28.94c0,1.646-1,2.519-2.221,2.519c-1.263,0-2.149-0.979-2.149-2.427
			c0-1.519,0.943-2.512,2.221-2.512C111.473,26.521,112.317,27.521,112.317,28.94z M108.606,29.018c0,1.022,0.554,1.937,1.525,1.937
			c0.979,0,1.533-0.901,1.533-1.987c0-0.951-0.497-1.944-1.525-1.944C109.117,27.024,108.606,27.968,108.606,29.018z"/>
		<path style="fill:#4E5F83;" d="M113.898,31.381l-1.213-4.782h0.652l0.568,2.419c0.142,0.596,0.27,1.192,0.354,1.653h0.014
			c0.078-0.476,0.228-1.043,0.391-1.66l0.639-2.413h0.646l0.582,2.427c0.135,0.567,0.263,1.135,0.333,1.639h0.015
			c0.1-0.525,0.234-1.057,0.383-1.653l0.632-2.413h0.632l-1.355,4.782h-0.646l-0.604-2.49c-0.148-0.61-0.248-1.079-0.313-1.561
			h-0.014c-0.085,0.475-0.191,0.943-0.369,1.561l-0.681,2.49H113.898z"/>
		<path style="fill:#4E5F83;" d="M119.034,30.629c0.276,0.17,0.682,0.312,1.106,0.312c0.632,0,1.001-0.333,1.001-0.816
			c0-0.447-0.256-0.703-0.901-0.951c-0.78-0.277-1.263-0.681-1.263-1.355c0-0.745,0.617-1.298,1.547-1.298
			c0.489,0,0.844,0.114,1.057,0.234l-0.17,0.503c-0.156-0.085-0.476-0.227-0.908-0.227c-0.652,0-0.901,0.391-0.901,0.717
			c0,0.447,0.291,0.667,0.951,0.922c0.809,0.312,1.221,0.703,1.221,1.405c0,0.738-0.547,1.376-1.675,1.376
			c-0.461,0-0.965-0.135-1.221-0.305L119.034,30.629z"/>
		<path style="fill:#4E5F83;" d="M124.736,26.599V28.6h2.313v-2.001h0.624v4.782h-0.624v-2.242h-2.313v2.242h-0.617v-4.782H124.736z
			"/>
		<path style="fill:#4E5F83;" d="M132.831,28.94c0,1.646-1,2.519-2.221,2.519c-1.263,0-2.149-0.979-2.149-2.427
			c0-1.519,0.943-2.512,2.221-2.512C131.987,26.521,132.831,27.521,132.831,28.94z M129.12,29.018c0,1.022,0.554,1.937,1.525,1.937
			c0.979,0,1.533-0.901,1.533-1.987c0-0.951-0.497-1.944-1.525-1.944C129.63,27.024,129.12,27.968,129.12,29.018z"/>
		<path style="fill:#4E5F83;" d="M133.546,30.629c0.276,0.17,0.681,0.312,1.106,0.312c0.632,0,1.001-0.333,1.001-0.816
			c0-0.447-0.256-0.703-0.901-0.951c-0.78-0.277-1.263-0.681-1.263-1.355c0-0.745,0.617-1.298,1.547-1.298
			c0.489,0,0.844,0.114,1.057,0.234l-0.17,0.503c-0.156-0.085-0.476-0.227-0.908-0.227c-0.652,0-0.901,0.391-0.901,0.717
			c0,0.447,0.291,0.667,0.951,0.922c0.809,0.312,1.221,0.703,1.221,1.405c0,0.738-0.547,1.376-1.675,1.376
			c-0.461,0-0.965-0.135-1.221-0.305L133.546,30.629z"/>
		<path style="fill:#4E5F83;" d="M138.037,27.124h-1.454v-0.525h3.54v0.525h-1.461v4.257h-0.625V27.124z"/>
		<path style="fill:#4E5F83;" d="M141.27,26.599v4.782h-0.617v-4.782H141.27z"/>
		<path style="fill:#4E5F83;" d="M142.348,31.381v-4.782h0.674l1.533,2.419c0.354,0.561,0.631,1.064,0.858,1.554l0.014-0.007
			c-0.057-0.639-0.07-1.22-0.07-1.965v-2.001h0.582v4.782h-0.625l-1.519-2.427c-0.333-0.532-0.652-1.078-0.894-1.596l-0.021,0.007
			c0.035,0.603,0.05,1.178,0.05,1.973v2.043H142.348z"/>
		<path style="fill:#4E5F83;" d="M150.656,31.168c-0.276,0.1-0.822,0.263-1.469,0.263c-0.724,0-1.319-0.185-1.787-0.632
			c-0.412-0.397-0.667-1.036-0.667-1.781c0.007-1.426,0.985-2.469,2.59-2.469c0.553,0,0.985,0.121,1.191,0.22l-0.148,0.503
			c-0.256-0.113-0.575-0.206-1.058-0.206c-1.164,0-1.923,0.724-1.923,1.923c0,1.213,0.73,1.93,1.845,1.93
			c0.404,0,0.682-0.057,0.823-0.127v-1.426h-0.973v-0.497h1.575V31.168z"/>
		<path style="fill:#4E5F83;" d="M153.719,26.599v4.782h-0.617v-4.782H153.719z"/>
		<path style="fill:#4E5F83;" d="M154.797,31.381v-4.782h0.674l1.533,2.419c0.354,0.561,0.631,1.064,0.858,1.554l0.014-0.007
			c-0.057-0.639-0.07-1.22-0.07-1.965v-2.001h0.582v4.782h-0.625l-1.519-2.427c-0.333-0.532-0.652-1.078-0.894-1.596l-0.021,0.007
			c0.035,0.603,0.05,1.178,0.05,1.973v2.043H154.797z"/>
		<path style="fill:#4E5F83;" d="M163.445,29.139h-1.859v1.724h2.072v0.518h-2.689v-4.782h2.583v0.518h-1.966v1.511h1.859V29.139z"
			/>
		<path style="fill:#4E5F83;" d="M168.098,31.168c-0.276,0.1-0.822,0.263-1.469,0.263c-0.724,0-1.319-0.185-1.787-0.632
			c-0.412-0.397-0.667-1.036-0.667-1.781c0.007-1.426,0.985-2.469,2.59-2.469c0.553,0,0.985,0.121,1.191,0.22l-0.148,0.503
			c-0.256-0.113-0.575-0.206-1.058-0.206c-1.164,0-1.923,0.724-1.923,1.923c0,1.213,0.73,1.93,1.845,1.93
			c0.404,0,0.682-0.057,0.823-0.127v-1.426h-0.973v-0.497h1.575V31.168z"/>
		<path style="fill:#4E5F83;" d="M170.105,31.381v-2.029l-1.512-2.753h0.703l0.674,1.32c0.185,0.362,0.326,0.653,0.476,0.986h0.014
			c0.135-0.313,0.298-0.625,0.482-0.986l0.688-1.32h0.702l-1.604,2.746v2.036H170.105z"/>
		<path style="fill:#4E5F83;" d="M172.829,26.655c0.298-0.05,0.688-0.092,1.186-0.092c0.609,0,1.057,0.142,1.341,0.397
			c0.263,0.227,0.418,0.575,0.418,1c0,0.433-0.127,0.773-0.368,1.021c-0.327,0.348-0.859,0.525-1.462,0.525
			c-0.185,0-0.354-0.007-0.497-0.042v1.916h-0.617V26.655z M173.446,28.961c0.135,0.036,0.306,0.05,0.511,0.05
			c0.745,0,1.199-0.362,1.199-1.022c0-0.631-0.446-0.937-1.128-0.937c-0.27,0-0.476,0.021-0.582,0.05V28.961z"/>
		<path style="fill:#4E5F83;" d="M177.51,27.124h-1.454v-0.525h3.54v0.525h-1.461v4.257h-0.625V27.124z"/>
	</g>
</g>
</svg>
