<svg id="icons" enable-background="new 0 0 64 64" height="512" viewBox="0 0 64 64" width="512" xmlns="http://www.w3.org/2000/svg"><path d="m32 51c1.11 0 2 .89 2 2 0 1.1-.89 2-2 2-1.1 0-2-.9-2-2 0-1.11.9-2 2-2z" fill="#5c9eff"/><path d="m32 55c1.11 0 2-.9 2-2 0-1.11-.89-2-2-2-1.1 0-2 .89-2 2 0 1.1.9 2 2 2zm4-9.06c2.961 1.47 5 4.529 5 8.06 0 4.97-4.029 9-9 9-4.97 0-9-4.03-9-9 0-3.53 2.041-6.59 5-8.06 1.2-.6 2.561-.94 4-.94 1.44 0 2.801.34 4 .94z" fill="#cedbff"/><path d="m47.5 36h-19.5-14c-5.52 0-10-4.48-10-10v3.97c0 5.521 4.48 10 10 10h14 8 11.5c6.91 0 12.5-5.6 12.5-12.5v-3.97c0 6.9-5.59 12.5-12.5 12.5z" fill="#d7e9ff"/><path d="m47.49 11h.01c6.91 0 12.5 5.59 12.5 12.5 0 6.9-5.59 12.5-12.5 12.5h-19.5-14c-5.52 0-10-4.48-10-10s4.48-10 10-10h1l.12.02c.97-8.46 8.16-15.02 16.88-15.02 6.891 0 12.83 4.1 15.49 10z" fill="#fff"/><g fill="#0444f9"><path d="m32 64c-5.514 0-10-4.486-10-10s4.486-10 10-10 10 4.486 10 10-4.486 10-10 10zm0-18c-4.411 0-8 3.589-8 8s3.589 8 8 8 8-3.589 8-8-3.589-8-8-8z"/><path d="m27.998 46.936c-.553 0-1-.447-1-1v-11.935c0-.553.447-1 1-1s1 .447 1 1v11.935c0 .552-.447 1-1 1z"/><path d="m36 46.937c-.553 0-1-.447-1-1v-5.937c0-.553.447-1 1-1s1 .447 1 1v5.937c0 .552-.447 1-1 1z"/><path d="m32 55.999c-1.654 0-3-1.346-3-3s1.346-3 3-3 3 1.346 3 3-1.346 3-3 3zm0-4c-.552 0-1 .448-1 1s.448 1 1 1 1-.448 1-1-.448-1-1-1z"/><path d="m32 57.999c-.553 0-1-.447-1-1v-2c0-.553.447-1 1-1s1 .447 1 1v2c0 .553-.447 1-1 1z"/><path d="m27.998 35.001c-.553 0-1-.447-1-1 0-2.757 2.244-5 5.002-5 .553 0 1 .448 1 1s-.447 1-1 1c-1.655 0-3.002 1.346-3.002 3 0 .553-.447 1-1 1z"/><path d="m49 19c-.553 0-1-.448-1-1 0-8.822-7.178-16-16-16s-16 7.178-16 16c0 .552-.447 1-1 1s-1-.448-1-1c0-9.925 8.075-18 18-18s18 8.075 18 18c0 .552-.447 1-1 1z"/><path d="m47.5 36.998c-.553 0-1-.447-1-1s.447-1 1-1c6.341 0 11.5-5.158 11.5-11.499s-5.159-11.5-11.5-11.5c-.553 0-1-.448-1-1s.447-1 1-1c7.444 0 13.5 6.056 13.5 13.5 0 7.443-6.056 13.499-13.5 13.499z"/><path d="m14 36.998c-6.065 0-11-4.934-11-10.999s4.935-11 11-11c.553 0 1 .448 1 1s-.447 1-1 1c-4.963 0-9 4.038-9 9s4.037 8.999 9 8.999c.553 0 1 .447 1 1s-.447 1-1 1z"/><path d="m47.5 36.998h-33.5c-.553 0-1-.447-1-1s.447-1 1-1h33.5c.553 0 1 .447 1 1s-.447 1-1 1z"/><path d="m15 16.999h-1c-.553 0-1-.448-1-1s.447-1 1-1h1c.553 0 1 .448 1 1s-.447 1-1 1z"/><path d="m47.5 40.969c-.553 0-1-.447-1-1s.447-1 1-1c6.341 0 11.5-5.158 11.5-11.499 0-.552.447-1 1-1s1 .448 1 1c0 7.443-6.056 13.499-13.5 13.499z"/><path d="m14 40.969c-6.065 0-11-4.935-11-10.999 0-.552.447-1 1-1s1 .448 1 1c0 4.962 4.037 8.999 9 8.999.553 0 1 .447 1 1s-.447 1-1 1z"/><path d="m47.5 40.969h-33.5c-.553 0-1-.447-1-1s.447-1 1-1h33.5c.553 0 1 .447 1 1s-.447 1-1 1z"/><path d="m60 28.47c-.553 0-1-.448-1-1v-3.971c0-.552.447-1 1-1s1 .448 1 1v3.971c0 .552-.447 1-1 1z"/><path d="m4 30.97c-.553 0-1-.448-1-1v-3.971c0-.552.447-1 1-1s1 .448 1 1v3.971c0 .552-.447 1-1 1z"/></g></svg>