<svg id="icons" enable-background="new 0 0 64 64" height="512" viewBox="0 0 64 64" width="512" xmlns="http://www.w3.org/2000/svg"><path d="m42 15c-3.92 0-7.46-1.62-10-4.221-2.55 2.601-6.09 4.221-10 4.221h-9v25c0 9.37 7.62 17 17 17h.021 3.979c4.69 0 8.93-1.91 12.01-4.99 3.08-3.07 4.99-7.33 4.99-12.01v-25z" fill="#cedbff"/><path d="m55 7v33c0 11.61-9.4 21-21 21-1.11 0-2 .89-2 2 0-1.11-.9-2-2-2-11.61 0-21-9.39-21-21v-33c0 2.21 1.79 4 4 4h9c5.521 0 10-4.471 10-10 0 5.529 4.47 10 10 10h9c2.21 0 4-1.79 4-4zm-4 33v-25h-9c-3.92 0-7.46-1.62-10-4.221-2.55 2.601-6.09 4.221-10 4.221h-9v25c0 9.37 7.62 17 17 17h.021 3.979c4.69 0 8.93-1.91 12.01-4.99 3.08-3.07 4.99-7.33 4.99-12.01z" fill="#5c9eff"/><path d="m17.99 32.99c0 2.76 2.24 4.99 5 4.99h17c3.31 0 6-2.681 6-5.99v3c0 3.31-2.69 6-6 6h-17c-2.76 0-5-2.24-5-4.99z" fill="#d7e9ff"/><path d="m22.99 28h.06c.49-4.5 4.311-8 8.94-8 3.92 0 7.26 2.51 8.479 6.01 3.091.25 5.521 2.83 5.521 5.98 0 3.31-2.69 5.99-6 5.99h-17c-2.76 0-5-2.23-5-4.99 0-2.75 2.24-4.99 5-4.99z" fill="#fff"/><g fill="#0444f9"><path d="m30 61.999c-12.131 0-22-9.869-22-22 0-.553.447-1 1-1s1 .447 1 1c0 11.028 8.972 20 20 20 .553 0 1 .447 1 1s-.447 1-1 1z"/><path d="m42 12c-6.065 0-11-4.935-11-11 0-.552.447-1 1-1s1 .448 1 1c0 4.962 4.037 9 9 9 .553 0 1 .448 1 1s-.447 1-1 1z"/><path d="m34 61.999c-.553 0-1-.447-1-1s.447-1 1-1c11.028 0 20-8.972 20-20 0-.553.447-1 1-1s1 .447 1 1c0 12.131-9.869 22-22 22z"/><path d="m51 12c-.553 0-1-.448-1-1s.447-1 1-1c1.654 0 3-1.346 3-3 0-.552.447-1 1-1s1 .448 1 1c0 2.757-2.243 5-5 5z"/><path d="m51 12h-9c-.553 0-1-.448-1-1s.447-1 1-1h9c.553 0 1 .448 1 1s-.447 1-1 1z"/><path d="m55 40.999c-.553 0-1-.447-1-1v-32.999c0-.552.447-1 1-1s1 .448 1 1v32.999c0 .553-.447 1-1 1z"/><path d="m22 12c-.553 0-1-.448-1-1s.447-1 1-1c4.963 0 9-4.038 9-9 0-.552.447-1 1-1s1 .448 1 1c0 6.065-4.935 11-11 11z"/><path d="m13 12c-2.757 0-5-2.243-5-5 0-.552.447-1 1-1s1 .448 1 1c0 1.654 1.346 3 3 3 .553 0 1 .448 1 1s-.447 1-1 1z"/><path d="m22 12h-9c-.553 0-1-.448-1-1s.447-1 1-1h9c.553 0 1 .448 1 1s-.447 1-1 1z"/><path d="m9 40.999c-.553 0-1-.447-1-1v-32.999c0-.552.447-1 1-1s1 .448 1 1v32.999c0 .553-.447 1-1 1z"/><path d="m32 64c-.553 0-1-.447-1-1 0-1.654 1.347-3.001 3.001-3.001.553 0 1 .447 1 1s-.447 1-1 1c-.552 0-1.001.449-1.001 1.001 0 .553-.447 1-1 1z"/><path d="m32 64c-.553 0-1-.447-1-1 0-.552-.448-1-1-1-.553 0-1-.447-1-1s.447-1 1-1c1.654 0 3 1.346 3 3 0 .553-.447 1-1 1z"/><path d="m30.021 58.001c-.001 0-.001 0 0 0-.021 0-.041-.001-.063-.002-9.905-.022-17.958-8.089-17.958-18v-24.999c0-.552.447-1 1-1h9c3.515 0 6.813-1.392 9.285-3.92.377-.385 1.053-.385 1.43 0 2.473 2.528 5.77 3.92 9.285 3.92h9c.553 0 1 .448 1 1v24.999c0 9.925-8.075 18-18 18zm-16.021-42.001v23.999c0 8.822 7.178 16 16 16 .019 0 .039.001.06.002l3.938-.002c8.824 0 16.002-7.178 16.002-16v-23.999h-8c-3.728 0-7.241-1.355-10-3.836-2.759 2.481-6.272 3.836-10 3.836z"/><path d="m39.99 38.984h-17c-.553 0-1-.447-1-1s.447-1 1-1h17c.553 0 1 .447 1 1s-.447 1-1 1z"/><path d="m40.988 29.996c-.553 0-1-.448-1-1 0-4.409-3.587-7.996-7.996-7.996s-7.996 3.587-7.996 7.996c0 .552-.447 1-1 1s-1-.448-1-1c0-5.512 4.484-9.996 9.996-9.996s9.996 4.484 9.996 9.996c0 .552-.447 1-1 1z"/><path d="m39.99 38.985c-.553 0-1-.447-1-1s.447-1 1-1c2.757 0 5-2.24 5-4.993 0-2.588-2.021-4.776-4.599-4.981-.551-.044-.962-.526-.918-1.077.044-.55.545-.957 1.076-.917 3.611.288 6.44 3.352 6.44 6.976.001 3.856-3.139 6.992-6.999 6.992z"/><path d="m22.99 38.984c-3.307 0-5.996-2.688-5.996-5.99 0-3.305 2.689-5.994 5.996-5.994.553 0 1 .448 1 1s-.447 1-1 1c-2.203 0-3.996 1.792-3.996 3.994 0 2.2 1.793 3.99 3.996 3.99.553 0 1 .447 1 1s-.447 1-1 1z"/><path d="m23.051 29h-.061c-.553 0-1-.448-1-1s.447-1 1-1 1.03.448 1.03 1-.416 1-.969 1z"/><path d="m39.99 41.986h-17c-.553 0-1-.447-1-1s.447-1 1-1h17c.553 0 1 .447 1 1s-.447 1-1 1z"/><path d="m39.99 41.986c-.553 0-1-.447-1-1s.447-1 1-1c2.757 0 5-2.239 5-4.992 0-.553.447-1 1-1s1 .447 1 1c0 3.856-3.14 6.992-7 6.992z"/><path d="m22.99 41.986c-3.307 0-5.996-2.688-5.996-5.99 0-.553.447-1 1-1s1 .447 1 1c0 2.2 1.793 3.99 3.996 3.99.553 0 1 .447 1 1s-.447 1-1 1z"/><path d="m17.994 36.996c-.553 0-1-.447-1-1v-3.002c0-.552.447-1 1-1s1 .448 1 1v3.002c0 .553-.447 1-1 1z"/><path d="m45.99 35.994c-.553 0-1-.447-1-1v-3.002c0-.552.447-1 1-1s1 .448 1 1v3.002c0 .553-.447 1-1 1z"/><path d="m39.001 46.999h-14c-.553 0-1-.447-1-1s.447-1 1-1h14c.553 0 1 .447 1 1s-.447 1-1 1z"/><path d="m35 49.999h-5.998c-.553 0-1-.447-1-1s.447-1 1-1h5.998c.553 0 1 .447 1 1s-.447 1-1 1z"/></g></svg>