<svg id="icons" enable-background="new 0 0 64 64" height="512" viewBox="0 0 64 64" width="512" xmlns="http://www.w3.org/2000/svg"><path d="m47.5 11.01h-.011c-2.659-5.899-8.6-10-15.49-10-8.719 0-15.909 6.56-16.879 15.02l-.121-.021h-1c-5.52 0-10 4.48-10 10 0 5.53 4.48 10 10 10h33.501c6.899 0 12.5-5.59 12.5-12.5 0-6.899-5.601-12.499-12.5-12.499z" fill="#fff"/><path d="m46 57.98-5.011 5.01v-5.01z" fill="#cedbff"/><path d="m47.5 36.01c6.899 0 12.5-5.59 12.5-12.5v5.98c0 6.899-5.601 12.5-12.5 12.5h-1.5v-3h-28.001v3h-4c-5.52 0-10-4.48-10-10v-5.98c0 5.53 4.48 10 10 10z" fill="#d7e9ff"/><path d="m46 41.99v15.99h-5.011v5.01h-22.99v-21-3h28.001z" fill="#cedbff"/><path d="m35 26.98h-17.001v-4h13z" fill="#cedbff"/><path d="m46 22.98v4h-11l-4.001-4z" fill="#d7e9ff"/><g fill="#0444f9"><path d="m49 19.015c-.553 0-1-.447-1-1 0-8.822-7.178-16-16-16s-16 7.178-16 16c0 .553-.447 1-1 1s-1-.447-1-1c0-9.925 8.075-18 18-18s18 8.075 18 18c0 .552-.447 1-1 1z"/><path d="m47.5 37.013c-.553 0-1-.447-1-1s.447-1 1-1c6.341 0 11.5-5.158 11.5-11.499s-5.159-11.5-11.5-11.5c-.553 0-1-.447-1-1s.447-1 1-1c7.444 0 13.5 6.056 13.5 13.5 0 7.443-6.056 13.499-13.5 13.499z"/><path d="m14 37.013c-6.065 0-11-4.935-11-10.999 0-6.065 4.935-11 11-11 .553 0 1 .447 1 1s-.447 1-1 1c-4.963 0-9 4.037-9 9 0 4.962 4.037 8.999 9 8.999.553 0 1 .447 1 1s-.447 1-1 1z"/><path d="m47.5 37.013h-33.5c-.553 0-1-.447-1-1s.447-1 1-1h33.5c.553 0 1 .447 1 1s-.447 1-1 1z"/><path d="m15 17.014h-1c-.553 0-1-.447-1-1s.447-1 1-1h1c.553 0 1 .447 1 1s-.447 1-1 1z"/><path d="m47.5 42.985c-.553 0-1-.447-1-1s.447-1 1-1c6.341 0 11.5-5.158 11.5-11.499 0-.553.447-1 1-1s1 .447 1 1c0 7.444-6.056 13.499-13.5 13.499z"/><path d="m14 42.985c-6.065 0-11-4.935-11-10.999 0-.553.447-1 1-1s1 .447 1 1c0 4.962 4.037 8.999 9 8.999.553 0 1 .447 1 1s-.447 1-1 1z"/><path d="m47.5 42.985h-1.501c-.553 0-1-.447-1-1s.447-1 1-1h1.501c.553 0 1 .447 1 1s-.447 1-1 1z"/><path d="m18.001 42.985h-4.001c-.553 0-1-.447-1-1s.447-1 1-1h4.001c.553 0 1 .447 1 1s-.447 1-1 1z"/><path d="m60 30.486c-.553 0-1-.447-1-1v-5.973c0-.553.447-1 1-1s1 .447 1 1v5.973c0 .553-.447 1-1 1z"/><path d="m4 32.986c-.553 0-1-.447-1-1v-5.973c0-.553.447-1 1-1s1 .447 1 1v5.973c0 .553-.447 1-1 1z"/><path d="m46.999 39.985h-29.998c-.553 0-1-.447-1-1s.447-1 1-1h29.998c.553 0 1 .447 1 1s-.447 1-1 1z"/><path d="m18.001 63.985c-.553 0-1-.447-1-1v-24c0-.553.447-1 1-1s1 .447 1 1v24c0 .553-.447 1-1 1z"/><path d="m45.999 58.98c-.553 0-1-.447-1-1v-18.995c0-.553.447-1 1-1s1 .447 1 1v18.995c0 .553-.447 1-1 1z"/><path d="m40.994 63.985h-22.993c-.553 0-1-.447-1-1s.447-1 1-1h22.993c.553 0 1 .447 1 1s-.447 1-1 1z"/><path d="m40.994 63.985c-.256 0-.512-.098-.707-.293-.391-.391-.391-1.023 0-1.414l5.005-5.005c.391-.391 1.023-.391 1.414 0s.391 1.023 0 1.414l-5.005 5.005c-.195.196-.451.293-.707.293z"/><path d="m45.999 58.98h-5.005c-.553 0-1-.447-1-1s.447-1 1-1h5.005c.553 0 1 .447 1 1s-.447 1-1 1z"/><path d="m40.994 63.985c-.553 0-1-.447-1-1v-5.005c0-.553.447-1 1-1s1 .447 1 1v5.005c0 .553-.447 1-1 1z"/><path d="m40.994 46.988h-16.992c-.553 0-1-.447-1-1s.447-1 1-1h16.992c.553 0 1 .447 1 1s-.447 1-1 1z"/><path d="m40.994 50.987h-16.992c-.553 0-1-.447-1-1s.447-1 1-1h16.992c.553 0 1 .447 1 1s-.447 1-1 1z"/><path d="m40.994 54.986h-16.992c-.553 0-1-.447-1-1s.447-1 1-1h16.992c.553 0 1 .447 1 1s-.447 1-1 1z"/><path d="m46 27.984h-27.999c-.553 0-1-.447-1-1v-4c0-.553.447-1 1-1h27.999c.553 0 1 .447 1 1v4c0 .553-.447 1-1 1zm-26.999-2h25.999v-2h-25.999z"/><path d="m35 27.984c-.256 0-.512-.098-.707-.293l-4-4c-.391-.391-.391-1.023 0-1.414s1.023-.391 1.414 0l4 4c.391.391.391 1.023 0 1.414-.195.196-.451.293-.707.293z"/></g></svg>