<svg id="icons" enable-background="new 0 0 64 64" height="512" viewBox="0 0 64 64" width="512" xmlns="http://www.w3.org/2000/svg"><path d="m38 5h-4v-4z" fill="#fff"/><path d="m38 5v10h-5.99-6.01v-14h8v4z" fill="#d7e9ff"/><path d="m14 37.75v.25h-13v-12h5l1 2h7v1 4z" fill="#d7e9ff"/><path d="m58 38.01 1 2.99h-5l1-2.99z" fill="#cedbff"/><path d="m58 38.01h-3-3.99c-.55 0-1-.45-1-1v-4.02-3.98c0-.55.45-1 1-1h10.99c.55 0 1 .45 1 1v8c0 .55-.45 1-1 1z" fill="#d7e9ff"/><path d="m25.08 30c.479-3.39 3.39-5.99 6.92-5.99h.01c3.16 0 5.84 2.11 6.7 5 2.39.11 4.29 2.08 4.29 4.49 0 2.49-2.01 4.5-4.5 4.5h-13.49c-2.21 0-4.01-1.79-4.01-4.01 0-.34.04-.681.13-.99.44-1.73 2.01-3.01 3.88-3.01z" fill="#fff"/><path d="m21 33.99c0 2.22 1.8 4.01 4.01 4.01h13.49c2.49 0 4.5-2.01 4.5-4.5v4.01c0 2.48-2.01 4.5-4.5 4.5h-6.49-7c-2.21 0-4.01-1.8-4.01-4.01z" fill="#d7e9ff"/><path d="m38.98 54h-13.96-.02v-2c0-.55.45-1 1-1h.02 5.99 5.96c.55 0 1 .45 1.011 1v.02 1.98z" fill="#d7e9ff"/><path d="m25.02 54h13.96.02v9h-13.98z" fill="#fff"/><g fill="#0444f9"><path d="m13.998 38.999h-12.997c-.553 0-1-.447-1-1v-11.999c0-.553.447-1 1-1h5.001c.379 0 .726.214.895.553l.724 1.449h6.378c.553 0 1 .447 1 1v9.997c-.001.553-.448 1-1.001 1zm-11.997-2h10.997v-7.997h-5.996c-.379 0-.726-.214-.895-.553l-.723-1.449h-3.383z"/><path d="m61.999 39.006h-10.993c-1.103 0-2-.897-2-2v-7.996c0-1.103.897-2 2-2h10.993c1.103 0 2 .897 2 2v7.996c0 1.102-.897 2-2 2zm0-2v1zm-10.993-7.996v7.996h10.989l.004-7.996z"/><path d="m54.003 41.999c-.104 0-.211-.017-.316-.052-.523-.174-.807-.74-.632-1.265l1-2.999c.175-.523.735-.81 1.265-.632.523.174.807.74.632 1.265l-1 2.999c-.14.419-.53.684-.949.684z"/><path d="m59.002 41.999c-.419 0-.809-.265-.948-.684l-1-2.999c-.175-.524.108-1.091.632-1.265.529-.178 1.09.108 1.265.632l1 2.999c.175.524-.108 1.091-.632 1.265-.106.035-.213.052-.317.052z"/><path d="m60.002 41.999h-6.999c-.553 0-1-.447-1-1s.447-1 1-1h6.999c.553 0 1 .447 1 1s-.447 1-1 1z"/><path d="m21.127 34.002h-7.129c-.553 0-1-.447-1-1s.447-1 1-1h7.129c.553 0 1 .447 1 1s-.447 1-1 1z"/><path d="m13.998 38.751c-.553 0-1-.447-1-1v-8.748c0-.553.447-1 1-1s1 .447 1 1v8.748c0 .553-.447 1-1 1z"/><path d="m38.002 6.002h-4c-.553 0-1-.447-1-1v-4c0-.404.243-.77.617-.924.375-.154.804-.069 1.09.217l4 4c.286.286.372.716.217 1.09s-.52.617-.924.617zm-3-2h.586l-.586-.586z"/><path d="m38.002 16.002c-.553 0-1-.447-1-1v-10c0-.553.447-1 1-1s1 .447 1 1v10c0 .553-.447 1-1 1z"/><path d="m38.002 16.002h-12.003c-.553 0-1-.447-1-1s.447-1 1-1h12.003c.553 0 1 .447 1 1s-.447 1-1 1z"/><path d="m25.999 16.002c-.553 0-1-.447-1-1v-14c0-.553.447-1 1-1s1 .447 1 1v14c0 .553-.447 1-1 1z"/><path d="m34.002 2.002h-8.003c-.553 0-1-.447-1-1s.447-1 1-1h8.003c.553 0 1 .447 1 1s-.447 1-1 1z"/><path d="m38.998 63.998h-13.978c-.553 0-1-.447-1-1v-8.997c0-.553.447-1 1-1h13.979c.553 0 1 .447 1 1v8.997c-.001.553-.448 1-1.001 1zm-12.978-2h11.979v-6.997h-11.979z"/><path d="m25.001 53c-.552 0-.997-.45-.997-1.003 0-1.1.895-1.994 1.995-1.994.553 0 1 .447 1 1s-.447 1-1 1c0 .553-.445.997-.998.997z"/><path d="m25.002 56.003c-.553 0-1-.447-1-1v-3.002c0-.553.447-1 1-1s1 .447 1 1v3.002c0 .553-.447 1-1 1z"/><path d="m38.982 53.019c-.553 0-1-.447-1-1 0-.008-.007-.016-.018-.016-.553 0-1-.447-1-1s.447-1 1-1c1.112 0 2.018.904 2.018 2.016 0 .552-.447 1-1 1z"/><path d="m38.98 56.003c-.553 0-1-.447-1-1v-3.002c0-.553.447-1 1-1s1 .447 1 1v3.002c0 .553-.447 1-1 1z"/><path d="m37.965 52.003h-11.947c-.553 0-1-.447-1-1s.447-1 1-1h11.947c.553 0 1 .447 1 1s-.447 1-1 1z"/><path d="m35.997 58.002h-7.998c-.553 0-1-.447-1-1s.447-1 1-1h7.998c.553 0 1 .447 1 1s-.447 1-1 1z"/><path d="m32.994 61.002h-1.992c-.553 0-1-.447-1-1s.447-1 1-1h1.992c.553 0 1 .447 1 1s-.447 1-1 1z"/><path d="m32.009 25.008c-.553 0-1-.447-1-1v-9.005c0-.553.447-1 1-1s1 .447 1 1v9.005c0 .553-.447 1-1 1z"/><path d="m32.009 52.001c-.553 0-1-.447-1-1v-10.002c0-.553.447-1 1-1s1 .447 1 1v10.002c0 .553-.447 1-1 1z"/><path d="m38.502 38.998h-13.491c-.553 0-1-.447-1-1s.447-1 1-1h13.491c.553 0 1 .447 1 1s-.447 1-1 1z"/><path d="m38.998 32.008c-.553 0-1-.447-1-1 0-3.309-2.691-6-6-6-3.308 0-5.999 2.691-5.999 6 0 .553-.447 1-1 1s-1-.447-1-1c0-4.411 3.588-8 7.999-8s8 3.589 8 8c0 .553-.447 1-1 1z"/><path d="m38.502 38.998c-.553 0-1-.447-1-1s.447-1 1-1c1.93 0 3.5-1.568 3.5-3.496 0-1.874-1.467-3.409-3.338-3.494-.552-.025-.979-.492-.954-1.044.025-.553.529-.982 1.044-.954 2.943.134 5.248 2.546 5.248 5.492 0 3.03-2.468 5.496-5.5 5.496z"/><path d="m25.011 38.998c-2.762 0-5.008-2.245-5.008-5.005s2.246-5.006 5.008-5.006c.553 0 1 .447 1 1s-.447 1-1 1c-1.658 0-3.008 1.349-3.008 3.006s1.35 3.005 3.008 3.005c.553 0 1 .447 1 1s-.448 1-1 1z"/><path d="m38.502 43.005h-13.491c-.553 0-1-.447-1-1s.447-1 1-1h13.491c.553 0 1 .447 1 1s-.447 1-1 1z"/><path d="m38.502 43.005c-.553 0-1-.447-1-1s.447-1 1-1c1.93 0 3.5-1.568 3.5-3.496 0-.553.447-1 1-1s1 .447 1 1c0 3.03-2.468 5.496-5.5 5.496z"/><path d="m25.011 43.005c-2.762 0-5.008-2.245-5.008-5.005 0-.553.447-1 1-1s1 .447 1 1c0 1.657 1.35 3.005 3.008 3.005.553 0 1 .447 1 1s-.448 1-1 1z"/><path d="m21.003 39c-.553 0-1-.447-1-1v-4.007c0-.553.447-1 1-1s1 .447 1 1v4.007c0 .553-.447 1-1 1z"/><path d="m43.002 38.509c-.553 0-1-.447-1-1v-4.007c0-.553.447-1 1-1s1 .447 1 1v4.007c0 .553-.447 1-1 1z"/><path d="m50.006 33.991h-7.004c-.553 0-1-.447-1-1s.447-1 1-1h7.004c.553 0 1 .447 1 1s-.447 1-1 1z"/></g></svg>