<svg id="icons" enable-background="new 0 0 64 64" height="512" viewBox="0 0 64 64" width="512" xmlns="http://www.w3.org/2000/svg"><path d="m42 34v-.01-3-5.99c4.42 0 8 3.58 8 8 0 4.41-3.58 8-8 8h-.26-20.74c-3.31 0-6-2.69-6-6s2.69-6 6-6h1v1.99 3 .01z" fill="#fff"/><path d="m22 14.99h20v8h-20z" fill="#cedbff"/><path d="m42 25v5.99h-20v-1.99-6.01h20z" fill="#cedbff"/><path d="m21.5 45c-3.59 0-6.5-2.91-6.5-6.5v-3.5c0 3.31 2.69 6 6 6h20.74.26c4.42 0 8-3.59 8-8v4c0 4.42-3.58 8-8 8h-.26z" fill="#d7e9ff"/><path d="m42 33.99v.01h-20v-.01-3h20z" fill="#cedbff"/><path d="m7 4v4h-4z" fill="#fff"/><path d="m13 7.5v10.5h-8.67-1.33v-10h4v-4h6z" fill="#d7e9ff"/><path d="m61 8h-4v-4z" fill="#fff"/><path d="m61 8v10h-1.33-8.67v-10.5-3.5h6v4z" fill="#d7e9ff"/><path d="m61 50h-4v-4l1.72 1.72z" fill="#fff"/><path d="m61 50v10h-10v-3.5-10.5h6v4z" fill="#d7e9ff"/><path d="m13 56.5v3.5h-10v-10h4v-4h6z" fill="#d7e9ff"/><path d="m7 46v4h-4l2.28-2.28z" fill="#fff"/><g fill="#0444f9"><path d="m61.001 50.996h-4c-.553 0-1-.447-1-1v-4c0-.404.243-.77.617-.924.375-.155.804-.069 1.09.217l4 4c.286.286.372.716.217 1.09-.154.374-.52.617-.924.617zm-3-2h.586l-.586-.586z"/><path d="m61.001 60.996c-.553 0-1-.447-1-1v-10c0-.553.447-1 1-1s1 .447 1 1v10c0 .553-.447 1-1 1z"/><path d="m61.001 60.996h-10c-.553 0-1-.447-1-1s.447-1 1-1h10c.553 0 1 .447 1 1s-.447 1-1 1z"/><path d="m51.001 60.996c-.553 0-1-.447-1-1v-14c0-.553.447-1 1-1s1 .447 1 1v14c0 .553-.447 1-1 1z"/><path d="m57.001 46.996h-6c-.553 0-1-.447-1-1s.447-1 1-1h6c.553 0 1 .447 1 1s-.447 1-1 1z"/><path d="m61.001 9.001h-4c-.553 0-1-.447-1-1v-4c0-.404.243-.77.617-.924.375-.154.804-.069 1.09.217l4 4c.286.286.372.716.217 1.09-.154.374-.52.617-.924.617zm-3-2h.586l-.586-.586z"/><path d="m61.001 19.001c-.553 0-1-.447-1-1v-10c0-.553.447-1 1-1s1 .447 1 1v10c0 .553-.447 1-1 1z"/><path d="m61.001 19.001h-10c-.553 0-1-.447-1-1s.447-1 1-1h10c.553 0 1 .447 1 1s-.447 1-1 1z"/><path d="m51.001 19.001c-.553 0-1-.447-1-1v-14c0-.553.447-1 1-1s1 .447 1 1v14c0 .553-.447 1-1 1z"/><path d="m57.001 5.001h-6c-.553 0-1-.447-1-1s.447-1 1-1h6c.553 0 1 .447 1 1s-.447 1-1 1z"/><path d="m6.999 50.996h-4c-.404 0-.77-.243-.924-.617-.155-.374-.069-.804.217-1.09l4-4c.286-.286.716-.373 1.09-.217.374.154.617.52.617.924v4c0 .553-.447 1-1 1zm-1.586-2h.586v-.586z"/><path d="m2.999 60.996c-.553 0-1-.447-1-1v-10c0-.553.447-1 1-1s1 .447 1 1v10c0 .553-.447 1-1 1z"/><path d="m12.999 60.996h-10c-.553 0-1-.447-1-1s.447-1 1-1h10c.553 0 1 .447 1 1s-.447 1-1 1z"/><path d="m12.999 60.996c-.553 0-1-.447-1-1v-14c0-.553.447-1 1-1s1 .447 1 1v14c0 .553-.447 1-1 1z"/><path d="m12.999 46.996h-6c-.553 0-1-.447-1-1s.447-1 1-1h6c.553 0 1 .447 1 1s-.447 1-1 1z"/><path d="m6.999 9.001h-4c-.404 0-.77-.243-.924-.617-.155-.374-.069-.804.217-1.09l4-4c.286-.286.716-.372 1.09-.217.374.154.617.52.617.924v4c0 .553-.447 1-1 1zm-1.586-2h.586v-.586z"/><path d="m2.999 19.001c-.553 0-1-.447-1-1v-10c0-.553.447-1 1-1s1 .447 1 1v10c0 .553-.447 1-1 1z"/><path d="m12.999 19.001h-10c-.553 0-1-.447-1-1s.447-1 1-1h10c.553 0 1 .447 1 1s-.447 1-1 1z"/><path d="m12.999 19.001c-.553 0-1-.447-1-1v-14c0-.553.447-1 1-1s1 .447 1 1v14c0 .553-.447 1-1 1z"/><path d="m12.999 5.001h-6c-.553 0-1-.447-1-1s.447-1 1-1h6c.553 0 1 .447 1 1s-.447 1-1 1z"/><path d="m41.743 41.996h-20.742c-.553 0-1-.447-1-1s.447-1 1-1h20.742c.553 0 1 .447 1 1s-.447 1-1 1z"/><path d="m42 41.996c-.553 0-1-.447-1-1s.447-1 1-1c3.859 0 7-3.139 7-6.997 0-3.859-3.141-6.999-7-6.999-.553 0-1-.447-1-1s.447-1 1-1c4.963 0 9 4.037 9 8.999 0 4.961-4.037 8.997-9 8.997z"/><path d="m21.001 41.996c-3.859 0-7-3.14-7-6.999 0-3.858 3.141-6.997 7-6.997.553 0 1 .447 1 1s-.447 1-1 1c-2.757 0-5 2.241-5 4.997 0 2.757 2.243 4.999 5 4.999.553 0 1 .447 1 1s-.447 1-1 1z"/><path d="m41.743 46h-20.242c-.553 0-1-.447-1-1s.447-1 1-1h20.242c.553 0 1 .447 1 1s-.447 1-1 1z"/><path d="m42 46c-.553 0-1-.447-1-1s.447-1 1-1c3.859 0 7-3.14 7-6.998 0-.553.447-1 1-1s1 .447 1 1c0 4.962-4.037 8.998-9 8.998z"/><path d="m21.501 46c-4.136 0-7.5-3.364-7.5-7.499 0-.553.447-1 1-1s1 .447 1 1c0 3.032 2.468 5.499 5.5 5.499.553 0 1 .447 1 1s-.447 1-1 1z"/><path d="m15.001 39.501c-.553 0-1-.447-1-1v-4.004c0-.553.447-1 1-1s1 .447 1 1v4.004c0 .553-.447 1-1 1z"/><path d="m50 38.002c-.553 0-1-.447-1-1v-4.003c0-.553.447-1 1-1s1 .447 1 1v4.003c0 .553-.447 1-1 1z"/><path d="m39.028 19.993c-.553 0-1.005-.447-1.005-1s.442-1 .994-1h.011c.552 0 1 .447 1 1s-.448 1-1 1z"/><path d="m41.998 23.993h-19.994c-.553 0-1-.447-1-1v-8c0-.553.447-1 1-1h19.994c.553 0 1 .447 1 1v8c0 .553-.447 1-1 1zm-18.994-2h17.994v-6h-17.994z"/><path d="m26.004 20.993c-.256 0-.512-.098-.707-.293-.391-.391-.391-1.023 0-1.414l2-2c.391-.391 1.023-.391 1.414 0s.391 1.023 0 1.414l-2 2c-.195.196-.451.293-.707.293z"/><path d="m31.004 20.993c-.256 0-.512-.098-.707-.293-.391-.391-.391-1.023 0-1.414l2-2c.391-.391 1.023-.391 1.414 0s.391 1.023 0 1.414l-2 2c-.195.196-.451.293-.707.293z"/><path d="m39.028 27.993c-.553 0-1.005-.447-1.005-1s.442-1 .994-1h.011c.552 0 1 .447 1 1s-.448 1-1 1z"/><path d="m41.998 31.993h-19.994c-.553 0-1-.447-1-1v-8c0-.553.447-1 1-1h19.994c.553 0 1 .447 1 1v8c0 .553-.447 1-1 1zm-18.994-2h17.994v-6h-17.994z"/><path d="m26.004 28.993c-.256 0-.512-.098-.707-.293-.391-.391-.391-1.023 0-1.414l2-2c.391-.391 1.023-.391 1.414 0s.391 1.023 0 1.414l-2 2c-.195.196-.451.293-.707.293z"/><path d="m31.004 28.993c-.256 0-.512-.098-.707-.293-.391-.391-.391-1.023 0-1.414l2-2c.391-.391 1.023-.391 1.414 0s.391 1.023 0 1.414l-2 2c-.195.196-.451.293-.707.293z"/><path d="m41.998 34.988c-.553 0-1-.447-1-1v-1.995h-17.994v1.995c0 .553-.447 1-1 1s-1-.447-1-1v-2.995c0-.553.447-1 1-1h19.994c.553 0 1 .447 1 1v2.995c0 .553-.447 1-1 1z"/><path d="m43 35h-22c-.553 0-1-.447-1-1s.447-1 1-1h22c.553 0 1 .447 1 1s-.447 1-1 1z"/><path d="m22.004 30h-1.003c-.553 0-1-.447-1-1s.447-1 1-1h1.003c.553 0 1 .447 1 1s-.447 1-1 1z"/><path d="m5.278 48.725c-.343 0-.676-.176-.862-.492-2.889-4.901-4.416-10.514-4.416-16.233 0-5.086 1.158-9.948 3.442-14.451.249-.493.852-.693 1.344-.439.493.25.689.852.439 1.344-2.14 4.22-3.225 8.777-3.225 13.546 0 5.361 1.432 10.624 4.139 15.217.28.476.122 1.089-.354 1.369-.159.094-.334.139-.507.139z"/><path d="m32 64c-7.178 0-13.961-2.322-19.615-6.715-.437-.339-.516-.968-.177-1.403s.966-.516 1.403-.177c5.301 4.118 11.66 6.295 18.389 6.295s13.088-2.177 18.388-6.294c.438-.34 1.064-.259 1.403.177s.26 1.064-.177 1.403c-5.654 4.393-12.436 6.714-19.614 6.714z"/><path d="m58.724 48.72c-.173 0-.348-.045-.507-.139-.476-.28-.634-.894-.354-1.369 2.706-4.592 4.137-9.852 4.137-15.212 0-4.769-1.085-9.327-3.225-13.548-.25-.492-.053-1.095.439-1.344.489-.253 1.094-.054 1.344.439 2.284 4.505 3.442 9.367 3.442 14.453 0 5.717-1.526 11.328-4.414 16.228-.187.316-.52.492-.862.492z"/><path d="m13 8.503c-.299 0-.594-.133-.791-.387-.339-.436-.26-1.064.177-1.403 5.653-4.392 12.435-6.713 19.614-6.713 7.175 0 13.957 2.32 19.611 6.71.437.339.516.967.177 1.403-.338.437-.965.518-1.403.177-5.301-4.115-11.658-6.29-18.385-6.29-6.73 0-13.088 2.176-18.388 6.293-.182.142-.398.21-.612.21z"/></g></svg>