<svg id="icons" enable-background="new 0 0 64 64" height="512" viewBox="0 0 64 64" width="512" xmlns="http://www.w3.org/2000/svg"><path d="m55 21.995c0 4.41-3.58 8-8 8h-.26-21.24c-3.59 0-6.5-2.91-6.5-6.5v-4.01c0 3.59 2.91 6.5 6.5 6.5h21.24.26c4.42 0 8-3.58 8-8z" fill="#d7e9ff"/><path d="m47 9.995c4.42 0 8 3.58 8 7.99 0 4.42-3.58 8-8 8h-.26-21.24c-3.59 0-6.5-2.91-6.5-6.5s2.91-6.49 6.5-6.49h.68c.94-5.12 5.42-9 10.82-9 4.27 0 7.98 2.44 9.8 6z" fill="#fff"/><path d="m58.32 38.065v-.011c.22-.029.449-.05.68-.05 2.21 0 4 1.79 4 4 0 1.48-.8 2.771-2 3.46l-27 14.54-23-3v-23h9l15.69 3.061c1.88.319 3.31 1.96 3.31 3.939z" fill="#d7e9ff"/><path d="m11 57.005v2h-10v-27h10v2z" fill="#cedbff"/><g fill="#0444f9"><path d="m6.03 57.006c-.553 0-1.005-.447-1.005-1s.442-1 .994-1h.011c.552 0 1 .447 1 1s-.448 1-1 1z"/><path d="m61.002 46.471c-.346 0-.682-.179-.866-.499-.277-.479-.113-1.09.364-1.366.926-.535 1.5-1.531 1.5-2.6 0-1.654-1.346-3-3-3-.553 0-1-.447-1-1s.447-1 1-1c2.757 0 5 2.243 5 5 0 1.779-.957 3.439-2.498 4.33-.158.092-.33.135-.5.135z"/><path d="m34.001 61.006c-.356 0-.701-.19-.882-.526-.262-.486-.079-1.093.407-1.354l27-14.537c.485-.262 1.093-.08 1.354.407.262.486.079 1.093-.407 1.354l-27 14.537c-.15.081-.312.119-.472.119z"/><path d="m34.001 61.006c-.043 0-.086-.003-.13-.009l-23-3c-.548-.071-.935-.573-.862-1.12.071-.548.566-.94 1.12-.862l23 3c.548.071.935.573.862 1.12-.065.504-.495.871-.99.871z"/><path d="m11 60.006h-10c-.553 0-1-.447-1-1v-27c0-.553.447-1 1-1h10c.553 0 1 .447 1 1v27c0 .553-.447 1-1 1zm-9-2h8v-25h-8z"/><path d="m38.999 42.006c-.486 0-.912-.354-.987-.85-.083-.546.292-1.056.838-1.139l19.317-2.941c.546-.083 1.056.292 1.139.838s-.292 1.056-.838 1.139l-19.318 2.941c-.05.008-.101.012-.151.012z"/><path d="m35 46.006c-.553 0-1-.447-1-1s.447-1 1-1c1.654 0 3-1.346 3-3 0-1.465-1.044-2.708-2.483-2.956-.544-.094-.909-.611-.815-1.155s.614-.905 1.155-.815c2.401.412 4.143 2.484 4.143 4.926 0 2.757-2.243 5-5 5z"/><path d="m35.688 38.064c-.063 0-.128-.006-.192-.019l-15.688-3.059c-.542-.105-.896-.631-.79-1.173s.63-.897 1.173-.79l15.688 3.059c.542.105.896.631.79 1.173-.093.478-.512.809-.981.809z"/><path d="m20 35.006h-9c-.553 0-1-.447-1-1s.447-1 1-1h9c.553 0 1 .447 1 1s-.447 1-1 1z"/><path d="m34.58 45.982c-.025 0-.052-.001-.078-.003l-12.579-.977c-.551-.043-.963-.523-.92-1.074.043-.552.516-.963 1.074-.92l12.579.977c.551.043.963.523.92 1.074-.041.525-.478.923-.996.923z"/><path d="m58.315 39.063c-.479 0-.903-.346-.985-.835-.091-.545.276-1.061.821-1.151.279-.047.564-.07.849-.07.553 0 1 .447 1 1s-.447 1-1 1c-.177 0-.351.015-.519.043-.055.009-.111.013-.166.013z"/><path d="m35 46.006c-.18 0-.357-.01-.531-.03-.549-.062-.943-.558-.881-1.105.062-.549.553-.958 1.105-.881.102.01.203.016.307.016.553 0 1 .447 1 1s-.447 1-1 1z"/><path d="m46.741 26.99h-21.243c-.553 0-1-.447-1-1s.447-1 1-1h21.243c.553 0 1 .447 1 1s-.447 1-1 1z"/><path d="m47.998 15.994c-.553 0-1-.447-1-1 0-5.514-4.486-10-10-10s-10 4.486-10 10c0 .553-.447 1-1 1s-1-.447-1-1c0-6.617 5.383-12 12-12s12 5.383 12 12c0 .553-.447 1-1 1z"/><path d="m46.998 26.99c-.553 0-1-.447-1-1s.447-1 1-1c3.859 0 7-3.14 7-6.998s-3.141-6.998-7-6.998c-.553 0-1-.447-1-1s.447-1 1-1c4.963 0 9 4.036 9 8.998s-4.037 8.998-9 8.998z"/><path d="m25.498 26.99c-4.136 0-7.5-3.364-7.5-7.5 0-4.134 3.364-7.496 7.5-7.496.553 0 1 .447 1 1s-.447 1-1 1c-3.032 0-5.5 2.466-5.5 5.496 0 3.032 2.468 5.5 5.5 5.5.553 0 1 .447 1 1s-.447 1-1 1z"/><path d="m46.741 30.994h-21.243c-.553 0-1-.447-1-1s.447-1 1-1h21.243c.553 0 1 .447 1 1s-.447 1-1 1z"/><path d="m46.998 30.994c-.553 0-1-.447-1-1s.447-1 1-1c3.859 0 7-3.14 7-6.998 0-.553.447-1 1-1s1 .447 1 1c0 4.962-4.037 8.998-9 8.998z"/><path d="m25.498 30.994c-4.136 0-7.5-3.364-7.5-7.5 0-.553.447-1 1-1s1 .447 1 1c0 3.032 2.468 5.5 5.5 5.5.553 0 1 .447 1 1s-.447 1-1 1z"/><path d="m26.18 13.994h-.682c-.553 0-1-.447-1-1s.447-1 1-1h.682c.553 0 1 .447 1 1s-.448 1-1 1z"/><path d="m46.998 10.994h-.199c-.553 0-1-.447-1-1s.447-1 1-1h.199c.553 0 1 .447 1 1s-.447 1-1 1z"/><path d="m18.998 24.494c-.553 0-1-.447-1-1v-4.004c0-.553.447-1 1-1s1 .447 1 1v4.004c0 .553-.447 1-1 1z"/><path d="m54.998 22.996c-.553 0-1-.447-1-1v-4.004c0-.553.447-1 1-1s1 .447 1 1v4.004c0 .553-.447 1-1 1z"/></g></svg>