<svg id="icons" enable-background="new 0 0 64 64" height="512" viewBox="0 0 64 64" width="512" xmlns="http://www.w3.org/2000/svg"><path d="m49.24 12.01c-3.01-6.5-9.6-11.01-17.24-11.01-9.81 0-17.89 7.45-18.89 17h-.01-1.1c-6.08 0-11 4.93-11 11 0 6.08 4.92 11 11 11h37c7.73 0 14-6.26 14-14 0-7.64-6.14-13.85-13.76-13.99z" fill="#d7e9ff"/><path d="m38.03 57h5v3h-5z" fill="#cedbff"/><path d="m27.03 55c0-.69-.09-1.36-.25-2h.01 26.24v4h-1-6-3-5-11.25c.16-.64.25-1.31.25-2z" fill="#d7e9ff"/><path d="m46.03 57h6v4h-6z" fill="#cedbff"/><path d="m26.78 53c.16.64.25 1.31.25 2s-.09 1.36-.25 2c-.891 3.45-4.021 6-7.75 6-4.42 0-8-3.58-8-8s3.58-8 8-8c3.73 0 6.86 2.55 7.75 6zm-3.75 2c0-2.21-1.79-4-4-4s-4 1.79-4 4 1.79 4 4 4 4-1.79 4-4z" fill="#d7e9ff"/><path d="m1 29c0 6.08 4.92 11 11 11h37c7.73 0 14-6.26 14-14v4c0 7.74-6.27 14-14 14h-37c-6.08 0-11-4.92-11-11z" fill="#cedbff"/><path d="m20.03 22h24v6h-24z" fill="#fff"/><path d="m26.03 31h12v3h-12z" fill="#cedbff"/><path d="m20.03 13h24v6h-24z" fill="#fff"/><g fill="#0444f9"><path d="m19.03 63.998c-4.963 0-9-4.037-9-9s4.037-9 9-9 9 4.037 9 9-4.037 9-9 9zm0-16c-3.859 0-7 3.141-7 7s3.141 7 7 7 7-3.141 7-7-3.14-7-7-7z"/><path d="m19.028 59.996c-2.756 0-4.998-2.242-4.998-4.998 0-2.757 2.242-5 4.998-5s4.998 2.243 4.998 5c0 2.756-2.242 4.998-4.998 4.998zm0-7.998c-1.653 0-2.998 1.346-2.998 3 0 1.653 1.345 2.998 2.998 2.998s2.998-1.345 2.998-2.998c0-1.654-1.344-3-2.998-3z"/><path d="m53.03 53.994h-26.238c-.553 0-1-.447-1-1s.447-1 1-1h26.238c.553 0 1 .447 1 1s-.447 1-1 1z"/><path d="m53.03 57.998h-26.252c-.553 0-1-.447-1-1s.447-1 1-1h26.252c.553 0 1 .447 1 1s-.447 1-1 1z"/><path d="m53.03 57.998c-.553 0-1-.447-1-1v-4.004c0-.553.447-1 1-1s1 .447 1 1v4.004c0 .553-.447 1-1 1z"/><path d="m52.03 61.996c-.553 0-1-.447-1-1v-3.998c0-.553.447-1 1-1s1 .447 1 1v3.998c0 .553-.447 1-1 1z"/><path d="m52.03 61.996h-6c-.553 0-1-.447-1-1s.447-1 1-1h6c.553 0 1 .447 1 1s-.447 1-1 1z"/><path d="m46.03 61.996c-.553 0-1-.447-1-1v-3.998c0-.553.447-1 1-1s1 .447 1 1v3.998c0 .553-.447 1-1 1z"/><path d="m43.028 60.994c-.553 0-1-.447-1-1v-2.996c0-.553.447-1 1-1s1 .447 1 1v2.996c0 .553-.447 1-1 1z"/><path d="m43.028 60.994h-4.998c-.553 0-1-.447-1-1s.447-1 1-1h4.998c.553 0 1 .447 1 1s-.447 1-1 1z"/><path d="m38.03 60.994c-.553 0-1-.447-1-1v-2.996c0-.553.447-1 1-1s1 .447 1 1v2.996c0 .553-.447 1-1 1z"/><path d="m12 41.002c-6.617 0-12-5.383-12-12s5.383-12 12-12c.553 0 1 .447 1 1s-.447 1-1 1c-5.514 0-10 4.486-10 10s4.486 10 10 10c.553 0 1 .447 1 1s-.447 1-1 1z"/><path d="m49 41.002c-.553 0-1-.447-1-1s.447-1 1-1c7.168 0 13-5.832 13-13 0-7.051-5.739-12.878-12.794-12.99-.553-.009-.993-.464-.984-1.016s.462-1 1.016-.984c8.14.129 14.762 6.853 14.762 14.99 0 8.271-6.729 15-15 15z"/><path d="m51 21.002c-.553 0-1-.447-1-1 0-1.285-.136-2.566-.403-3.807-1.77-8.224-9.17-14.193-17.597-14.193-9.925 0-18 8.075-18 18 0 .553-.447 1-1 1s-1-.447-1-1c0-11.028 8.972-20 20-20 9.362 0 17.586 6.633 19.552 15.772.298 1.378.448 2.801.448 4.228 0 .553-.447 1-1 1z"/><path d="m13.104 19.002h-1.104c-.553 0-1-.447-1-1s.447-1 1-1h1.104c.553 0 1 .447 1 1s-.447 1-1 1z"/><path d="m12 45.002c-6.617 0-12-5.383-12-12 0-.553.447-1 1-1s1 .447 1 1c0 5.514 4.486 10 10 10 .553 0 1 .447 1 1s-.447 1-1 1z"/><path d="m49 45.002c-.553 0-1-.447-1-1s.447-1 1-1c7.168 0 13-5.832 13-13 0-.553.447-1 1-1s1 .447 1 1c0 8.271-6.729 15-15 15z"/><path d="m63 31.002c-.553 0-1-.447-1-1v-4c0-.553.447-1 1-1s1 .447 1 1v4c0 .553-.447 1-1 1z"/><path d="m49 45.002h-37c-.553 0-1-.447-1-1s.447-1 1-1h37c.553 0 1 .447 1 1s-.447 1-1 1z"/><path d="m49 41.002h-37c-.553 0-1-.447-1-1s.447-1 1-1h37c.553 0 1 .447 1 1s-.447 1-1 1z"/><path d="m1 34.002c-.553 0-1-.447-1-1v-4c0-.553.447-1 1-1s1 .447 1 1v4c0 .553-.447 1-1 1z"/><path d="m44.03 19.992h-24c-.553 0-1-.447-1-1v-6c0-.553.447-1 1-1h24c.553 0 1 .447 1 1v6c0 .553-.447 1-1 1zm-23-2h22v-4h-22z"/><path d="m44.03 28.992h-24c-.553 0-1-.447-1-1v-6c0-.553.447-1 1-1h24c.553 0 1 .447 1 1v6c0 .553-.447 1-1 1zm-23-2h22v-4h-22z"/><path d="m26.063 26.001c-.553 0-1.005-.447-1.005-1s.442-1 .994-1h.011c.552 0 1 .447 1 1s-.449 1-1 1z"/><path d="m29.063 26.001c-.553 0-1.005-.447-1.005-1s.442-1 .994-1h.011c.552 0 1 .447 1 1s-.449 1-1 1z"/><path d="m32.063 26.001c-.553 0-1.005-.447-1.005-1s.442-1 .994-1h.011c.552 0 1 .447 1 1s-.449 1-1 1z"/><path d="m35.063 26.001c-.553 0-1.005-.447-1.005-1s.442-1 .994-1h.011c.552 0 1 .447 1 1s-.449 1-1 1z"/><path d="m38.063 26.001c-.553 0-1.005-.447-1.005-1s.442-1 .994-1h.011c.552 0 1 .447 1 1s-.449 1-1 1z"/><path d="m38.031 16.989h-12.001c-.553 0-1-.447-1-1s.447-1 1-1h12.001c.553 0 1 .447 1 1s-.447 1-1 1z"/><path d="m38.031 34.996h-12c-.553 0-1-.447-1-1v-3c0-.553.447-1 1-1h12c.553 0 1 .447 1 1v3c0 .553-.447 1-1 1zm-11-2h10v-1h-10z"/></g></svg>