<svg id="icons" enable-background="new 0 0 64 64" height="512" viewBox="0 0 64 64" width="512" xmlns="http://www.w3.org/2000/svg"><path d="m19.04 30.04c-2.52 2.96-4.04 6.8-4.04 11v-2.011-21.029c0-9.38 7.61-17 17-17 9.391 0 17 7.62 17 17v16.12c-.489-.061-.989-.091-1.5-.091l-.01.011c-.65-1.46-1.5-2.8-2.53-4l.04-.04v-12c0-7.181-5.819-13-13-13-7.18 0-13 5.819-13 13v12z" fill="#cedbff"/><path d="m4 49.029c0 5.53 4.471 10 10 10h33.5c6.9 0 12.5-5.59 12.5-12.5v3.971c0 6.91-5.6 12.5-12.5 12.5h-33.5c-5.529 0-10-4.471-10-10z" fill="#d7e9ff"/><path d="m49 34.12c-.489-.061-.989-.091-1.5-.091l-.01.011c-.65-1.46-1.5-2.8-2.53-4-3.109-3.67-7.76-6-12.96-6-5.199 0-9.85 2.33-12.96 6-2.52 2.96-4.04 6.8-4.04 11v-2.011h-1c-5.529 0-10 4.48-10 10 0 5.53 4.471 10 10 10h33.5c6.9 0 12.5-5.59 12.5-12.5 0-6.389-4.81-11.67-11-12.409z" fill="#fff"/><path d="m31.98 46c1.66 0 3-1.34 3-3s-1.34-3-3-3-3 1.34-3 3 1.34 3 3 3zm0-12c5.52 0 10 4.47 10 10 0 5.52-4.48 10-10 10-5.521 0-10-4.48-10-10 0-5.53 4.48-10 10-10z" fill="#cedbff"/><path d="m31.98 40c1.66 0 3 1.34 3 3s-1.34 3-3 3-3-1.34-3-3 1.34-3 3-3z" fill="#5c9eff"/><g fill="#0444f9"><path d="m49 42.031c-.553 0-1-.447-1-1 0-8.822-7.178-16-16-16s-16 7.178-16 16c0 .553-.447 1-1 1s-1-.447-1-1c0-9.925 8.075-18 18-18s18 8.075 18 18c0 .553-.447 1-1 1z"/><path d="m49 19c-.553 0-1-.447-1-1 0-8.822-7.178-16-16-16s-16 7.178-16 16c0 .553-.447 1-1 1s-1-.447-1-1c0-9.925 8.075-18 18-18s18 8.075 18 18c0 .553-.447 1-1 1z"/><path d="m45 19c-.553 0-1-.447-1-1 0-6.617-5.383-12-12-12s-12 5.383-12 12c0 .553-.447 1-1 1s-1-.447-1-1c0-7.72 6.28-14 14-14s14 6.28 14 14c0 .553-.447 1-1 1z"/><path d="m47.5 60.029c-.553 0-1-.447-1-1s.447-1 1-1c6.341 0 11.5-5.159 11.5-11.5s-5.159-11.5-11.5-11.5c-.553 0-1-.447-1-1s.447-1 1-1c7.444 0 13.5 6.056 13.5 13.5s-6.056 13.5-13.5 13.5z"/><path d="m14 60.029c-6.065 0-11-4.935-11-11s4.935-11 11-11c.553 0 1 .447 1 1s-.447 1-1 1c-4.963 0-9 4.037-9 9s4.037 9 9 9c.553 0 1 .447 1 1s-.447 1-1 1z"/><path d="m47.5 60.029h-33.5c-.553 0-1-.447-1-1s.447-1 1-1h33.5c.553 0 1 .447 1 1s-.447 1-1 1z"/><path d="m15 40.029h-1c-.553 0-1-.447-1-1s.447-1 1-1h1c.553 0 1 .447 1 1s-.447 1-1 1z"/><path d="m47.5 64c-.553 0-1-.447-1-1s.447-1 1-1c6.341 0 11.5-5.159 11.5-11.5 0-.553.447-1 1-1s1 .447 1 1c0 7.444-6.056 13.5-13.5 13.5z"/><path d="m14 64c-6.065 0-11-4.935-11-11 0-.553.447-1 1-1s1 .447 1 1c0 4.963 4.037 9 9 9 .553 0 1 .447 1 1s-.447 1-1 1z"/><path d="m47.5 64h-33.5c-.553 0-1-.447-1-1s.447-1 1-1h33.5c.553 0 1 .447 1 1s-.447 1-1 1z"/><path d="m60 51.5c-.553 0-1-.447-1-1v-3.971c0-.553.447-1 1-1s1 .447 1 1v3.971c0 .553-.447 1-1 1z"/><path d="m4 54c-.553 0-1-.447-1-1v-3.971c0-.553.447-1 1-1s1 .447 1 1v3.971c0 .553-.447 1-1 1z"/><path d="m15 42.031c-.553 0-1-.447-1-1v-23.031c0-.553.447-1 1-1s1 .447 1 1v23.031c0 .553-.447 1-1 1z"/><path d="m19 31c-.553 0-1-.447-1-1v-12c0-.553.447-1 1-1s1 .447 1 1v12c0 .553-.447 1-1 1z"/><path d="m45 31c-.553 0-1-.447-1-1v-12c0-.553.447-1 1-1s1 .447 1 1v12c0 .553-.447 1-1 1z"/><path d="m49 35.119c-.553 0-1-.447-1-1v-16.119c0-.553.447-1 1-1s1 .447 1 1v16.119c0 .553-.447 1-1 1z"/><path d="m31.983 46.994c-2.206 0-4-1.794-4-4s1.794-4 4-4 4 1.794 4 4-1.794 4-4 4zm0-6c-1.103 0-2 .897-2 2s.897 2 2 2 2-.897 2-2-.897-2-2-2z"/><path d="m31.983 49.994c-.553 0-1-.447-1-1v-3c0-.553.447-1 1-1s1 .447 1 1v3c0 .553-.447 1-1 1z"/><path d="m31.984 54.994c-6.065 0-11-4.935-11-11s4.935-11 11-11 11 4.935 11 11-4.934 11-11 11zm0-20c-4.963 0-9 4.037-9 9s4.037 9 9 9 9-4.037 9-9-4.037-9-9-9z"/></g></svg>