<svg id="icons" enable-background="new 0 0 64 64" height="512" viewBox="0 0 64 64" width="512" xmlns="http://www.w3.org/2000/svg"><path d="m1 47h18v8h-18z" fill="#cedbff"/><path d="m16 43.99 3 3.01h-18l3-3.01z" fill="#5c9eff"/><path d="m1 55h18v8h-18z" fill="#cedbff"/><path d="m45 55h18v8h-18z" fill="#cedbff"/><path d="m60 43.99 3 3.01h-18l3-3.01z" fill="#5c9eff"/><path d="m45 47h18v8h-18z" fill="#cedbff"/><path d="m23.01 55h17.99v8h-17.99z" fill="#cedbff"/><path d="m23.01 47h17.99v8h-17.99z" fill="#cedbff"/><path d="m38 43.99 3 3.01h-17.99l2.99-3.01z" fill="#5c9eff"/><path d="m50 19c0 4.42-3.58 8-8 8h-.26-9.74-11.5c-3.59 0-6.5-2.91-6.5-6.5v-4c0 3.58 2.91 6.49 6.5 6.49h21.24.26c4.42 0 8-3.58 8-7.99z" fill="#d7e9ff"/><path d="m42 7c4.42 0 8 3.58 8 8 0 4.41-3.58 7.99-8 7.99h-.26-21.24c-3.59 0-6.5-2.91-6.5-6.49 0-3.59 2.91-6.5 6.5-6.5h.68c.94-5.12 5.42-9 10.82-9 4.27 0 7.98 2.44 9.8 6z" fill="#fff"/><g fill="#0444f9"><path d="m18.998 64.002h-17.996c-.553 0-1-.447-1-1v-16.004c0-.553.447-1 1-1h17.996c.553 0 1 .447 1 1v16.004c0 .553-.447 1-1 1zm-16.996-2h15.996v-14.004h-15.996z"/><path d="m5.03 52.002c-.553 0-1.005-.447-1.005-1s.442-1 .994-1h.011c.552 0 1 .447 1 1s-.448 1-1 1z"/><path d="m5.03 60.002c-.553 0-1.005-.447-1.005-1s.442-1 .994-1h.011c.552 0 1 .447 1 1s-.448 1-1 1z"/><path d="m18.998 56h-17.996c-.553 0-1-.447-1-1s.447-1 1-1h17.996c.553 0 1 .447 1 1s-.447 1-1 1z"/><path d="m10.999 53c-.15 0-.303-.034-.446-.105-.494-.247-.694-.848-.447-1.342l1-2c.248-.495.849-.693 1.342-.447.494.247.694.848.447 1.342l-1 2c-.176.35-.529.552-.896.552z"/><path d="m13.999 53c-.15 0-.303-.034-.446-.105-.494-.247-.694-.848-.447-1.342l1-2c.247-.495.848-.693 1.342-.447.494.247.694.848.447 1.342l-1 2c-.176.35-.529.552-.896.552z"/><path d="m10.999 61c-.15 0-.303-.034-.446-.105-.494-.247-.694-.848-.447-1.342l1-2c.248-.494.849-.692 1.342-.447.494.247.694.848.447 1.342l-1 2c-.176.35-.529.552-.896.552z"/><path d="m13.999 61c-.15 0-.303-.034-.446-.105-.494-.247-.694-.848-.447-1.342l1-2c.247-.494.848-.692 1.342-.447.494.247.694.848.447 1.342l-1 2c-.176.35-.529.552-.896.552z"/><path d="m1.002 47.998c-.256 0-.511-.098-.706-.292-.392-.39-.392-1.023-.002-1.414l2.998-3.006c.391-.393 1.023-.391 1.414-.002.392.39.392 1.023.002 1.414l-2.998 3.006c-.195.196-.452.294-.708.294z"/><path d="m18.998 47.998c-.257 0-.513-.098-.708-.294l-2.998-3.006c-.39-.391-.39-1.024.002-1.414.391-.39 1.023-.39 1.414.002l2.998 3.006c.39.391.39 1.024-.002 1.414-.195.194-.45.292-.706.292z"/><path d="m16 44.992h-12c-.553 0-1-.447-1-1s.447-1 1-1h12c.553 0 1 .447 1 1s-.447 1-1 1z"/><path d="m41 64.002h-17.996c-.553 0-1-.447-1-1v-16.004c0-.553.447-1 1-1h17.996c.553 0 1 .447 1 1v16.004c0 .553-.447 1-1 1zm-16.996-2h15.996v-14.004h-15.996z"/><path d="m27.034 52.002c-.553 0-1.005-.447-1.005-1s.442-1 .994-1h.011c.552 0 1 .447 1 1s-.448 1-1 1z"/><path d="m27.034 60.002c-.553 0-1.005-.447-1.005-1s.442-1 .994-1h.011c.552 0 1 .447 1 1s-.448 1-1 1z"/><path d="m41 56h-17.996c-.553 0-1-.447-1-1s.447-1 1-1h17.996c.553 0 1 .447 1 1s-.447 1-1 1z"/><path d="m33.003 53c-.15 0-.303-.034-.446-.105-.494-.247-.694-.848-.447-1.342l1-2c.248-.495.849-.693 1.342-.447.494.247.694.848.447 1.342l-1 2c-.176.35-.529.552-.896.552z"/><path d="m36.003 53c-.15 0-.303-.034-.446-.105-.494-.247-.694-.848-.447-1.342l1-2c.247-.495.848-.693 1.342-.447.494.247.694.848.447 1.342l-1 2c-.176.35-.529.552-.896.552z"/><path d="m33.003 61c-.15 0-.303-.034-.446-.105-.494-.247-.694-.848-.447-1.342l1-2c.248-.494.849-.692 1.342-.447.494.247.694.848.447 1.342l-1 2c-.176.35-.529.552-.896.552z"/><path d="m36.003 61c-.15 0-.303-.034-.446-.105-.494-.247-.694-.848-.447-1.342l1-2c.247-.494.848-.692 1.342-.447.494.247.694.848.447 1.342l-1 2c-.176.35-.529.552-.896.552z"/><path d="m23.004 47.998c-.256 0-.511-.098-.706-.292-.392-.39-.392-1.023-.002-1.414l2.998-3.006c.391-.393 1.023-.391 1.414-.002.392.39.392 1.023.002 1.414l-2.998 3.006c-.195.196-.452.294-.708.294z"/><path d="m41 47.998c-.257 0-.513-.098-.708-.294l-2.998-3.006c-.39-.391-.39-1.024.002-1.414s1.024-.39 1.414.002l2.998 3.006c.39.391.39 1.024-.002 1.414-.195.194-.45.292-.706.292z"/><path d="m38.002 44.992h-12c-.553 0-1-.447-1-1s.447-1 1-1h12c.553 0 1 .447 1 1s-.447 1-1 1z"/><path d="m62.998 64.002h-17.996c-.553 0-1-.447-1-1v-16.004c0-.553.447-1 1-1h17.996c.553 0 1 .447 1 1v16.004c0 .553-.447 1-1 1zm-16.996-2h15.996v-14.004h-15.996z"/><path d="m49.032 52.002c-.553 0-1.005-.447-1.005-1s.442-1 .994-1h.011c.552 0 1 .447 1 1s-.448 1-1 1z"/><path d="m49.032 60.002c-.553 0-1.005-.447-1.005-1s.442-1 .994-1h.011c.552 0 1 .447 1 1s-.448 1-1 1z"/><path d="m62.998 56h-17.996c-.553 0-1-.447-1-1s.447-1 1-1h17.996c.553 0 1 .447 1 1s-.447 1-1 1z"/><path d="m55.001 53c-.15 0-.303-.034-.446-.105-.494-.247-.694-.848-.447-1.342l1-2c.248-.495.848-.693 1.342-.447.494.247.694.848.447 1.342l-1 2c-.176.35-.529.552-.896.552z"/><path d="m58.001 53c-.15 0-.303-.034-.446-.105-.494-.247-.694-.848-.447-1.342l1-2c.248-.495.849-.693 1.342-.447.494.247.694.848.447 1.342l-1 2c-.176.35-.529.552-.896.552z"/><path d="m55.001 61c-.15 0-.303-.034-.446-.105-.494-.247-.694-.848-.447-1.342l1-2c.248-.494.848-.692 1.342-.447.494.247.694.848.447 1.342l-1 2c-.176.35-.529.552-.896.552z"/><path d="m58.001 61c-.15 0-.303-.034-.446-.105-.494-.247-.694-.848-.447-1.342l1-2c.248-.494.849-.692 1.342-.447.494.247.694.848.447 1.342l-1 2c-.176.35-.529.552-.896.552z"/><path d="m45.002 47.998c-.256 0-.511-.098-.706-.292-.392-.39-.392-1.023-.002-1.414l2.998-3.006c.391-.393 1.023-.391 1.414-.002.392.39.392 1.023.002 1.414l-2.998 3.006c-.195.196-.452.294-.708.294z"/><path d="m62.998 47.998c-.257 0-.513-.098-.708-.294l-2.998-3.006c-.39-.391-.39-1.024.002-1.414s1.024-.39 1.414.002l2.998 3.006c.39.391.39 1.024-.002 1.414-.195.194-.45.292-.706.292z"/><path d="m60 44.992h-12c-.553 0-1-.447-1-1s.447-1 1-1h12c.553 0 1 .447 1 1s-.447 1-1 1z"/><path d="m41.998 23.994h-21.5c-.553 0-1-.447-1-1s.447-1 1-1h21.5c.553 0 1 .447 1 1s-.447 1-1 1z"/><path d="m42.998 12.998c-.553 0-1-.447-1-1 0-5.514-4.486-10-10-10s-10 4.486-10 10c0 .553-.447 1-1 1s-1-.447-1-1c0-6.617 5.383-12 12-12s12 5.383 12 12c0 .553-.447 1-1 1z"/><path d="m41.998 23.994c-.553 0-1-.447-1-1s.447-1 1-1c3.859 0 7-3.139 7-6.996 0-3.859-3.141-7-7-7-.553 0-1-.447-1-1s.447-1 1-1c4.963 0 9 4.037 9 9 0 4.961-4.037 8.996-9 8.996z"/><path d="m20.498 23.994c-4.136 0-7.5-3.363-7.5-7.498s3.364-7.498 7.5-7.498c.553 0 1 .447 1 1s-.447 1-1 1c-3.032 0-5.5 2.467-5.5 5.498s2.468 5.498 5.5 5.498c.553 0 1 .447 1 1s-.447 1-1 1z"/><path d="m41.998 27.998h-21.5c-.553 0-1-.447-1-1s.447-1 1-1h21.5c.553 0 1 .447 1 1s-.447 1-1 1z"/><path d="m41.998 27.998c-.553 0-1-.447-1-1s.447-1 1-1c3.859 0 7-3.14 7-6.998 0-.553.447-1 1-1s1 .447 1 1c0 4.962-4.037 8.998-9 8.998z"/><path d="m20.498 27.998c-4.136 0-7.5-3.363-7.5-7.498 0-.553.447-1 1-1s1 .447 1 1c0 3.031 2.468 5.498 5.5 5.498.553 0 1 .447 1 1s-.447 1-1 1z"/><path d="m21.18 10.998h-.682c-.553 0-1-.447-1-1s.447-1 1-1h.682c.553 0 1 .447 1 1s-.448 1-1 1z"/><path d="m41.998 7.998h-.199c-.553 0-1-.447-1-1s.447-1 1-1h.199c.553 0 1 .447 1 1s-.447 1-1 1z"/><path d="m13.998 21.5c-.553 0-1-.447-1-1v-4.004c0-.553.447-1 1-1s1 .447 1 1v4.004c0 .553-.447 1-1 1z"/><path d="m49.998 20c-.553 0-1-.447-1-1v-4.002c0-.553.447-1 1-1s1 .447 1 1v4.002c0 .553-.447 1-1 1z"/><path d="m10 42.002c-.553 0-1-.447-1-1v-6c0-.553.447-1 1-1s1 .447 1 1v6c0 .553-.447 1-1 1z"/><path d="m54 36.002h-44c-.553 0-1-.447-1-1s.447-1 1-1h44c.553 0 1 .447 1 1s-.447 1-1 1z"/><path d="m54 42c-.553 0-1-.447-1-1v-5.998c0-.553.447-1 1-1s1 .447 1 1v5.998c0 .553-.447 1-1 1z"/><path d="m32 42c-.553 0-1-.447-1-1v-15.998c0-.553.447-1 1-1s1 .447 1 1v15.998c0 .553-.447 1-1 1z"/></g></svg>