<svg id="icons" enable-background="new 0 0 64 64" height="512" viewBox="0 0 64 64" width="512" xmlns="http://www.w3.org/2000/svg"><path d="m14.006 33.5c0 3.58 2.91 6.5 6.5 6.5h21.24.26c4.41 0 8-3.59 8-8v4c0 4.42-3.59 8-8 8h-.26-21.24c-3.59 0-6.5-2.91-6.5-6.5z" fill="#d7e9ff"/><path d="m20.506 27h.68c.939-5.12 5.42-9 10.82-9 4.27 0 7.979 2.44 9.799 6h.201c4.41 0 8 3.58 8 8 0 4.41-3.59 8-8 8h-.26-21.24c-3.59 0-6.5-2.92-6.5-6.5 0-3.59 2.91-6.5 6.5-6.5z" fill="#fff"/><path d="m1.586 30.59c.41-.41.949-.609 1.479-.58.49.01.98.21 1.352.58.779.78.779 2.04 0 2.82-.371.37-.852.57-1.352.58-.529.029-1.068-.17-1.479-.58-.781-.78-.781-2.04 0-2.82z" fill="#cedbff"/><path d="m7.404 44.57c1.07.279 1.701 1.38 1.41 2.449-.128.511-.449.921-.869 1.171-.461.29-1.02.39-1.58.239-1.061-.279-1.699-1.38-1.41-2.449.141-.561.51-1 .99-1.25.43-.23.95-.3 1.459-.16z" fill="#cedbff"/><path d="m16.984 55.18c1.07-.279 2.16.351 2.451 1.42.129.511.061 1.03-.17 1.46-.25.471-.691.841-1.25.99-1.061.28-2.16-.35-2.451-1.42-.148-.55-.039-1.12.24-1.57.26-.42.671-.74 1.18-.88z" fill="#cedbff"/><path d="m33.416 62.41c-.781.79-2.051.79-2.83 0-.41-.41-.602-.95-.58-1.48.01-.489.209-.97.58-1.34.779-.79 2.049-.79 2.83 0 .369.37.559.851.568 1.34.032.53-.16 1.07-.568 1.48z" fill="#cedbff"/><path d="m48.195 56.06c.279.45.391 1.021.24 1.57-.291 1.07-1.381 1.7-2.451 1.42-.559-.149-1-.52-1.25-.99-.229-.43-.299-.949-.17-1.46.291-1.069 1.391-1.699 2.451-1.42.51.14.921.46 1.18.88z" fill="#cedbff"/><path d="m57.635 48.43c-.561.15-1.119.051-1.57-.239-.42-.25-.74-.66-.879-1.171-.291-1.069.35-2.17 1.41-2.449.51-.141 1.029-.07 1.459.16.48.25.85.689.99 1.25.291 1.069-.35 2.169-1.41 2.449z" fill="#cedbff"/><path d="m62.416 30.59c.779.78.779 2.04 0 2.82-.41.41-.951.609-1.48.58-.49-.01-.98-.21-1.35-.58-.781-.78-.781-2.04 0-2.82.369-.37.859-.57 1.35-.58.539-.03 1.07.17 1.48.58z" fill="#cedbff"/><path d="m56.055 15.81c.461-.29 1.02-.39 1.58-.239 1.061.279 1.701 1.38 1.41 2.449-.141.561-.51 1-.99 1.25-.43.23-.949.301-1.459.16-1.061-.279-1.701-1.38-1.41-2.449.128-.511.449-.921.869-1.171z" fill="#cedbff"/><path d="m45.984 4.95c1.061-.28 2.16.35 2.451 1.42.15.55.039 1.12-.24 1.57-.26.42-.67.739-1.18.88-1.06.28-2.16-.35-2.451-1.42-.129-.511-.059-1.03.17-1.46.25-.47.692-.84 1.25-.99z" fill="#cedbff"/><path d="m33.416 4.41c-.781.79-2.051.79-2.83 0-.371-.37-.57-.851-.58-1.34-.021-.53.17-1.07.58-1.48.779-.79 2.049-.79 2.83 0 .408.41.6.95.568 1.48-.009.49-.199.97-.568 1.34z" fill="#cedbff"/><path d="m19.266 5.94c.23.43.299.949.17 1.46-.291 1.07-1.381 1.7-2.452 1.42-.51-.141-.92-.46-1.18-.88-.279-.45-.389-1.021-.24-1.57.291-1.07 1.391-1.7 2.451-1.42.559.15 1.001.52 1.251.99z" fill="#cedbff"/><path d="m6.365 15.57c.561-.15 1.119-.051 1.58.239.42.25.74.66.869 1.171.291 1.069-.34 2.17-1.41 2.449-.51.141-1.039.061-1.469-.17-.471-.25-.84-.689-.98-1.24-.289-1.069.35-2.169 1.41-2.449z" fill="#cedbff"/><g fill="#0444f9"><path d="m56.055 16.796c-.321 0-.637-.154-.83-.44-2.029-3.004-4.581-5.556-7.586-7.583-.458-.309-.578-.931-.27-1.388.31-.458.93-.579 1.389-.27 3.218 2.171 5.951 4.903 8.125 8.122.309.458.188 1.079-.27 1.388-.172.116-.366.171-.558.171z"/><path d="m44.735 6.941c-.147 0-.297-.033-.438-.102-3.253-1.593-6.74-2.526-10.366-2.773-.551-.038-.967-.515-.93-1.066.038-.551.499-.967 1.066-.93 3.885.265 7.622 1.265 11.108 2.972.496.243.701.842.459 1.338-.173.355-.529.561-.899.561z"/><path d="m19.262 6.94c-.37 0-.726-.206-.899-.56-.242-.496-.037-1.095.459-1.338 3.486-1.708 7.225-2.708 11.109-2.972.569-.033 1.029.379 1.066.93s-.379 1.028-.93 1.065c-3.626.247-7.114 1.18-10.367 2.772-.141.07-.291.103-.438.103z"/><path d="m7.938 16.802c-.192 0-.387-.055-.559-.171-.458-.309-.578-.931-.27-1.388 2.173-3.221 4.907-5.955 8.126-8.127.459-.309 1.079-.188 1.389.27.309.458.188 1.079-.27 1.388-3.006 2.028-5.559 4.581-7.587 7.587-.192.287-.507.441-.829.441z"/><path d="m3.067 31.001c-.022 0-.046-.001-.069-.002-.551-.038-.967-.515-.93-1.065.265-3.888 1.265-7.627 2.972-11.113.244-.496.842-.701 1.338-.458s.701.842.459 1.338c-1.593 3.252-2.526 6.741-2.772 10.369-.037.527-.476.931-.998.931z"/><path d="m5.941 45.742c-.37 0-.726-.206-.899-.561-1.708-3.487-2.709-7.228-2.974-11.116-.037-.55.379-1.027.931-1.065.552-.03 1.028.38 1.065.931.246 3.628 1.18 7.117 2.774 10.372.242.495.037 1.095-.459 1.338-.14.069-.29.101-.438.101z"/><path d="m15.805 57.061c-.192 0-.387-.056-.559-.171-3.22-2.172-5.955-4.905-8.13-8.126-.309-.458-.188-1.079.27-1.389.459-.308 1.079-.188 1.389.27 2.03 3.007 4.584 5.56 7.591 7.587.457.309.578.931.27 1.389-.195.285-.51.44-.831.44z"/><path d="m30.002 61.933c-.022 0-.046-.001-.069-.002-3.887-.265-7.624-1.265-11.109-2.972-.496-.243-.701-.843-.459-1.338.243-.496.845-.702 1.338-.459 3.252 1.593 6.739 2.526 10.367 2.772.551.038.967.515.93 1.066-.037.528-.477.933-.998.933z"/><path d="m33.996 61.933c-.521 0-.961-.404-.997-.932-.037-.552.379-1.028.93-1.066 3.627-.246 7.116-1.18 10.37-2.773.497-.243 1.095-.037 1.338.459.242.496.037 1.095-.459 1.338-3.487 1.708-7.227 2.708-11.112 2.973-.024 0-.047.001-.07.001z"/><path d="m48.197 57.059c-.321 0-.637-.154-.83-.441-.309-.457-.188-1.079.271-1.388 3.008-2.028 5.562-4.582 7.592-7.593.309-.458.93-.577 1.389-.27.457.309.578.931.27 1.389-2.175 3.224-4.91 5.96-8.133 8.132-.172.115-.366.171-.559.171z"/><path d="m58.058 45.739c-.147 0-.298-.032-.438-.102-.496-.243-.701-.843-.459-1.338 1.594-3.253 2.527-6.742 2.773-10.371.038-.549.504-.972 1.066-.928.551.038.967.514.93 1.066-.265 3.888-1.265 7.627-2.973 11.113-.174.354-.529.56-.899.56z"/><path d="m60.931 31.002c-.521 0-.961-.404-.997-.932-.246-3.628-1.18-7.118-2.774-10.371-.242-.496-.037-1.095.458-1.338.496-.244 1.096-.038 1.339.458 1.708 3.487 2.709 7.227 2.974 11.115.037.551-.379 1.028-.931 1.065-.023.002-.047.003-.069.003z"/><path d="m31.999 6c-.801 0-1.555-.312-2.121-.879-.566-.566-.879-1.32-.879-2.121s.313-1.555.879-2.122c1.133-1.133 3.109-1.133 4.242 0 .566.566.879 1.32.879 2.121s-.313 1.555-.879 2.122-1.32.879-2.121.879zm0-4c-.267 0-.518.104-.707.293s-.293.44-.293.707.104.518.293.707c.379.379 1.035.378 1.414 0 .189-.189.293-.44.293-.707s-.104-.518-.293-.707-.44-.293-.707-.293z"/><path d="m31.999 64c-.801 0-1.555-.313-2.121-.879-1.17-1.17-1.17-3.072 0-4.242 1.133-1.133 3.109-1.133 4.242 0 1.17 1.17 1.17 3.072 0 4.242-.566.567-1.32.879-2.121.879zm0-4c-.267 0-.518.104-.707.293-.39.39-.39 1.024 0 1.414.379.377 1.035.377 1.414 0 .39-.39.39-1.024 0-1.414-.189-.189-.44-.293-.707-.293z"/><path d="m17.501 9.886c-.262 0-.523-.035-.778-.103-.773-.207-1.421-.703-1.821-1.397-.401-.694-.508-1.503-.3-2.277.351-1.309 1.542-2.223 2.896-2.223.262 0 .523.034.777.103.774.207 1.421.704 1.822 1.398.4.694.507 1.502.299 2.276-.349 1.308-1.54 2.223-2.895 2.223zm-.003-4.001c-.451 0-.848.305-.965.742-.069.258-.033.527.1.758.134.231.35.396.607.466.531.142 1.085-.186 1.225-.707.069-.259.034-.528-.1-.759s-.35-.396-.607-.466c-.085-.023-.173-.034-.26-.034z"/><path d="m46.5 60.115c-.262 0-.522-.034-.776-.103-1.598-.429-2.55-2.076-2.122-3.674.351-1.31 1.542-2.224 2.896-2.224.263 0 .524.034.778.103.773.207 1.421.703 1.822 1.397.4.693.507 1.502.299 2.276-.35 1.31-1.542 2.225-2.897 2.225zm-.003-4c-.45 0-.847.305-.964.741-.143.532.175 1.082.707 1.225.524.138 1.085-.187 1.225-.707.069-.259.034-.528-.1-.759s-.349-.396-.606-.466c-.087-.023-.175-.034-.262-.034z"/><path d="m6.883 20.5c-1.355 0-2.546-.915-2.896-2.225-.429-1.597.523-3.245 2.121-3.673.254-.068.516-.102.778-.102 1.354 0 2.545.915 2.896 2.224.208.774.102 1.582-.299 2.276s-1.048 1.19-1.822 1.397c-.254.069-.516.103-.778.103zm.003-4c-.087 0-.174.012-.26.035-.532.143-.85.692-.707 1.225.14.521.697.85 1.224.707.258-.071.474-.236.608-.467s.169-.5.1-.759c-.118-.436-.514-.741-.965-.741z"/><path d="m57.113 49.5c-1.354 0-2.545-.914-2.896-2.224-.429-1.597.522-3.245 2.121-3.674.254-.068.516-.103.777-.103 1.354 0 2.545.914 2.896 2.224.429 1.597-.522 3.245-2.121 3.674-.253.069-.515.103-.777.103zm.002-4c-.087 0-.174.012-.26.034-.532.143-.85.692-.707 1.225.14.521.694.846 1.225.707.532-.143.85-.692.707-1.225-.117-.436-.514-.741-.965-.741z"/><path d="m3 35c-.802 0-1.556-.313-2.122-.879-1.168-1.169-1.169-3.072-.001-4.242 1.135-1.133 3.11-1.135 4.243 0 .568.566.88 1.319.88 2.121 0 .801-.313 1.555-.88 2.123-.564.565-1.318.877-2.12.877zm-.001-4c-.268 0-.519.104-.707.293-.389.39-.389 1.024 0 1.414.378.378 1.037.379 1.413.001.191-.19.295-.441.295-.708s-.104-.517-.293-.706c-.189-.19-.441-.294-.708-.294z"/><path d="m61 35c-.801 0-1.555-.313-2.122-.878-1.168-1.17-1.169-3.073-.001-4.243 1.136-1.136 3.111-1.133 4.243 0 .566.566.879 1.319.879 2.121s-.313 1.555-.879 2.122c-.564.566-1.318.878-2.12.878zm-.001-4c-.267 0-.519.104-.707.293-.389.39-.389 1.024 0 1.414.377.377 1.038.379 1.413.001.189-.19.294-.441.294-.708s-.104-.518-.293-.706c-.188-.19-.439-.294-.707-.294z"/><path d="m6.886 49.5c-.262 0-.523-.034-.778-.103-1.596-.427-2.548-2.074-2.121-3.673.418-1.563 2.099-2.548 3.674-2.122.774.206 1.422.703 1.822 1.396.401.694.507 1.504.299 2.278-.348 1.309-1.539 2.224-2.896 2.224zm-.002-4c-.451 0-.849.305-.966.741-.142.532.175 1.082.707 1.225.53.137 1.086-.187 1.224-.705.07-.261.035-.53-.098-.762-.134-.23-.35-.396-.607-.465-.086-.022-.173-.034-.26-.034z"/><path d="m57.114 20.5c-.261 0-.522-.034-.776-.103-1.597-.428-2.549-2.076-2.121-3.673.35-1.31 1.541-2.224 2.896-2.224.262 0 .523.034.777.103 1.597.427 2.549 2.075 2.121 3.673-.349 1.309-1.54 2.224-2.897 2.224zm-.001-4c-.451 0-.848.304-.965.741-.143.533.175 1.083.707 1.225.525.139 1.085-.187 1.225-.707.143-.533-.175-1.083-.707-1.225-.086-.023-.173-.034-.26-.034z"/><path d="m17.5 60.115c-1.354 0-2.546-.914-2.898-2.223-.208-.775-.101-1.584.301-2.278.4-.693 1.047-1.189 1.82-1.396.254-.068.517-.104.779-.104 1.354 0 2.545.915 2.895 2.226.208.771.103 1.579-.299 2.273-.4.694-1.047 1.191-1.821 1.399-.256.069-.516.103-.777.103zm.002-4.001c-.087 0-.175.012-.261.035-.259.069-.474.234-.607.466s-.17.501-.101.759c.14.519.694.851 1.225.707.258-.069.475-.235.608-.467.133-.231.168-.5.099-.756-.117-.439-.513-.744-.963-.744z"/><path d="m46.499 9.885c-1.354 0-2.545-.914-2.897-2.222-.208-.775-.101-1.583.3-2.278.401-.694 1.048-1.19 1.821-1.397.254-.068.516-.103.777-.103 1.354 0 2.545.915 2.896 2.224.208.773.102 1.582-.3 2.276-.4.694-1.047 1.19-1.821 1.398-.254.068-.514.102-.776.102zm.001-4c-.087 0-.174.012-.26.035-.258.069-.473.235-.606.466s-.17.5-.101.758c.14.521.699.852 1.225.708.258-.069.474-.235.607-.467.134-.231.169-.5.1-.756-.117-.439-.514-.744-.965-.744z"/><path d="m41.742 40.995h-21.243c-.553 0-1-.447-1-1s.447-1 1-1h21.243c.553 0 1 .447 1 1s-.447 1-1 1z"/><path d="m42.999 29.999c-.553 0-1-.448-1-1 0-5.514-4.486-10-10-10s-10 4.486-10 10c0 .552-.447 1-1 1s-1-.448-1-1c0-6.617 5.383-12 12-12s12 5.383 12 12c0 .552-.447 1-1 1z"/><path d="m41.999 40.995c-.553 0-1-.447-1-1s.447-1 1-1c3.859 0 7-3.139 7-6.997 0-3.859-3.141-6.999-7-6.999-.553 0-1-.448-1-1s.447-1 1-1c4.963 0 9 4.037 9 8.999 0 4.961-4.037 8.997-9 8.997z"/><path d="m20.499 40.995c-4.136 0-7.5-3.364-7.5-7.499 0-4.134 3.364-7.497 7.5-7.497.553 0 1 .448 1 1s-.447 1-1 1c-3.032 0-5.5 2.466-5.5 5.497 0 3.032 2.468 5.499 5.5 5.499.553 0 1 .447 1 1s-.447 1-1 1z"/><path d="m41.742 44.999h-21.243c-.553 0-1-.447-1-1s.447-1 1-1h21.243c.553 0 1 .447 1 1s-.447 1-1 1z"/><path d="m41.999 44.999c-.553 0-1-.447-1-1s.447-1 1-1c3.859 0 7-3.14 7-6.998 0-.553.447-1 1-1s1 .447 1 1c0 4.962-4.037 8.998-9 8.998z"/><path d="m20.499 44.999c-4.136 0-7.5-3.364-7.5-7.499 0-.553.447-1 1-1s1 .447 1 1c0 3.032 2.468 5.499 5.5 5.499.553 0 1 .447 1 1s-.447 1-1 1z"/><path d="m21.181 27.999h-.682c-.553 0-1-.448-1-1s.447-1 1-1h.682c.553 0 1 .448 1 1s-.448 1-1 1z"/><path d="m41.999 24.999h-.199c-.553 0-1-.448-1-1s.447-1 1-1h.199c.553 0 1 .448 1 1s-.447 1-1 1z"/><path d="m13.999 38.5c-.553 0-1-.447-1-1v-4.004c0-.552.447-1 1-1s1 .448 1 1v4.004c0 .553-.447 1-1 1z"/><path d="m49.999 37.001c-.553 0-1-.447-1-1v-4.003c0-.552.447-1 1-1s1 .448 1 1v4.003c0 .553-.447 1-1 1z"/></g></svg>