<svg id="icons" enable-background="new 0 0 64 64" height="512" viewBox="0 0 64 64" width="512" xmlns="http://www.w3.org/2000/svg"><path d="m39 58.005h24v4h-24z" fill="#cedbff"/><path d="m1 58.005h24v4h-24z" fill="#cedbff"/><path d="m39 62.005v1h-14v-1-4-1h4v-4h1 4 1v4h4v1z" fill="#d7e9ff"/><path d="m34 46.005v7h-4v-7-3h4z" fill="#cedbff"/><path d="m49 39.995h-15-22c-6.08 0-11-4.92-11-11v6.01c0 6.07 4.92 11 11 11h18v-3h4v3h15c7.73 0 14-6.27 14-14v-6.01c0 7.73-6.27 14-14 14z" fill="#d7e9ff"/><path d="m49.24 12.005c7.62.13 13.76 6.35 13.76 13.99 0 7.729-6.27 14-14 14h-15-22c-6.08 0-11-4.92-11-11 0-6.07 4.92-11 11-11h1.101.01c1-9.55 9.08-17 18.89-17 7.64 0 14.22 4.51 17.239 11.01z" fill="#fff"/><g fill="#0444f9"><path d="m25 59.002h-24c-.553 0-1-.447-1-1s.447-1 1-1h24c.553 0 1 .447 1 1s-.447 1-1 1z"/><path d="m25 63.002h-24c-.553 0-1-.447-1-1s.447-1 1-1h24c.553 0 1 .447 1 1s-.447 1-1 1z"/><path d="m63 59.002h-24c-.553 0-1-.447-1-1s.447-1 1-1h24c.553 0 1 .447 1 1s-.447 1-1 1z"/><path d="m63 63.002h-24c-.553 0-1-.447-1-1s.447-1 1-1h24c.553 0 1 .447 1 1s-.447 1-1 1z"/><path d="m25 64.002c-.553 0-1-.447-1-1v-6c0-.553.447-1 1-1s1 .447 1 1v6c0 .553-.447 1-1 1z"/><path d="m39 64.002c-.553 0-1-.447-1-1v-6c0-.553.447-1 1-1s1 .447 1 1v6c0 .553-.447 1-1 1z"/><path d="m39 64.002h-14c-.553 0-1-.447-1-1s.447-1 1-1h14c.553 0 1 .447 1 1s-.447 1-1 1z"/><path d="m39 58.002h-4c-.553 0-1-.447-1-1s.447-1 1-1h4c.553 0 1 .447 1 1s-.447 1-1 1z"/><path d="m29 58.002h-4c-.553 0-1-.447-1-1s.447-1 1-1h4c.553 0 1 .447 1 1s-.447 1-1 1z"/><path d="m29 58.002c-.553 0-1-.447-1-1v-4c0-.553.447-1 1-1s1 .447 1 1v4c0 .553-.447 1-1 1z"/><path d="m35 58.002c-.553 0-1-.447-1-1v-4c0-.553.447-1 1-1s1 .447 1 1v4c0 .553-.447 1-1 1z"/><path d="m35 54.002h-6c-.553 0-1-.447-1-1s.447-1 1-1h6c.553 0 1 .447 1 1s-.447 1-1 1z"/><path d="m30 54.002c-.553 0-1-.447-1-1v-10.004c0-.553.447-1 1-1s1 .447 1 1v10.004c0 .553-.447 1-1 1z"/><path d="m34 54.002c-.553 0-1-.447-1-1v-10.004c0-.553.447-1 1-1s1 .447 1 1v10.004c0 .553-.447 1-1 1z"/><path d="m12 40.998c-6.617 0-12-5.383-12-12s5.383-12 12-12c.553 0 1 .447 1 1s-.447 1-1 1c-5.514 0-10 4.486-10 10s4.486 10 10 10c.553 0 1 .447 1 1s-.447 1-1 1z"/><path d="m49 40.998c-.553 0-1-.447-1-1s.447-1 1-1c7.168 0 13-5.832 13-13 0-7.052-5.739-12.878-12.794-12.988-.552-.009-.993-.464-.984-1.016s.446-.998 1.016-.984c8.14.127 14.762 6.85 14.762 14.988 0 8.272-6.729 15-15 15z"/><path d="m51 20.998c-.553 0-1-.447-1-1 0-1.285-.136-2.566-.403-3.807-1.77-8.224-9.17-14.193-17.597-14.193-9.925 0-18 8.075-18 18 0 .553-.447 1-1 1s-1-.447-1-1c0-11.028 8.972-20 20-20 9.362 0 17.585 6.633 19.552 15.772.298 1.378.448 2.801.448 4.228 0 .553-.447 1-1 1z"/><path d="m13.104 18.998h-1.104c-.553 0-1-.447-1-1s.447-1 1-1h1.104c.553 0 1 .447 1 1s-.447 1-1 1z"/><path d="m49 40.998h-37c-.553 0-1-.447-1-1s.447-1 1-1h37c.553 0 1 .447 1 1s-.447 1-1 1z"/><path d="m12 47.004c-6.617 0-12-5.384-12-12.002 0-.553.447-1 1-1s1 .447 1 1c0 5.515 4.486 10.002 10 10.002.553 0 1 .447 1 1s-.447 1-1 1z"/><path d="m49 47.004c-.553 0-1-.447-1-1s.447-1 1-1c7.168 0 13-5.833 13-13.002 0-.553.447-1 1-1s1 .447 1 1c0 8.272-6.729 15.002-15 15.002z"/><path d="m30 47.004h-18c-.553 0-1-.447-1-1s.447-1 1-1h18c.553 0 1 .447 1 1s-.447 1-1 1z"/><path d="m63 33.002c-.553 0-1-.447-1-1v-6.004c0-.553.447-1 1-1s1 .447 1 1v6.004c0 .553-.447 1-1 1z"/><path d="m1 36.002c-.553 0-1-.447-1-1v-6.004c0-.553.447-1 1-1s1 .447 1 1v6.004c0 .553-.447 1-1 1z"/><path d="m31.997 32.994c-3.031 0-5.864-1.354-7.774-3.713-.348-.429-.281-1.059.148-1.406.429-.348 1.061-.281 1.406.148 1.528 1.888 3.795 2.971 6.22 2.971 4.411 0 8-3.589 8-8 0-.553.447-1 1-1s1 .447 1 1c0 5.514-4.486 10-10 10z"/><path d="m42.501 25.996c-.304 0-.604-.138-.801-.399l-1.503-2.002c-.331-.441-.242-1.068.199-1.4.441-.33 1.069-.242 1.4.199l1.503 2.002c.331.441.242 1.068-.199 1.4-.179.135-.39.2-.599.2z"/><path d="m39.001 25.494c-.304 0-.604-.138-.801-.399-.331-.441-.242-1.068.199-1.4l1.997-1.5c.441-.33 1.069-.242 1.4.199s.242 1.068-.199 1.4l-1.997 1.5c-.179.135-.39.2-.599.2z"/><path d="m22.999 23.998c-.553 0-1-.447-1-1 0-5.514 4.486-10 10-10 3.031 0 5.864 1.354 7.774 3.713.348.429.281 1.059-.148 1.406-.429.348-1.06.28-1.406-.148-1.528-1.888-3.795-2.971-6.22-2.971-4.411 0-8 3.589-8 8 0 .553-.447 1-1 1z"/><path d="m23 23.998c-.305 0-.605-.139-.802-.4l-1.499-2.002c-.331-.442-.24-1.069.201-1.4.442-.332 1.07-.24 1.4.201l1.499 2.002c.331.442.24 1.069-.201 1.4-.179.135-.39.199-.598.199z"/><path d="m23 23.998c-.304 0-.604-.138-.8-.398-.332-.441-.244-1.068.197-1.4l1.997-1.504c.444-.332 1.069-.242 1.4.197.332.441.244 1.068-.197 1.4l-1.997 1.504c-.179.136-.391.201-.6.201z"/><path d="m49 47.002h-15c-.553 0-1-.447-1-1s.447-1 1-1h15c.553 0 1 .447 1 1s-.447 1-1 1z"/><path d="m36 44.002h-8c-.553 0-1-.447-1-1s.447-1 1-1h8c.553 0 1 .447 1 1s-.447 1-1 1z"/></g></svg>