<svg id="icons" enable-background="new 0 0 64 64" height="512" viewBox="0 0 64 64" width="512" xmlns="http://www.w3.org/2000/svg"><path d="m49.24 12.01c-3.011-6.5-9.6-11.01-17.24-11.01-9.81 0-17.89 7.45-18.89 17h-.01-1.1c-6.069 0-11 4.93-11 11 0 6.08 4.931 11 11 11h22 15c7.729 0 14-6.27 14-14 0-7.64-6.14-13.86-13.76-13.99z" fill="#fff"/><path d="m1 59h24v4h-24z" fill="#cedbff"/><path d="m39 59h24v4h-24z" fill="#cedbff"/><path d="m37 61c0-1.1.899-2 2-2s2 .9 2 2c0 1.11-.899 2-2 2s-2-.89-2-2z" fill="#5c9eff"/><path d="m32 13c5.521 0 10 4.48 10 10 0 5.53-4.479 10-10 10s-10-4.47-10-10c0-5.52 4.479-10 10-10z" fill="#cedbff"/><path d="m32 55c-1.101 0-1.989-.88-2-1.99v-.01c0-1.1.899-2 2-2s2 .9 2 2v.01c-.01 1.11-.899 1.99-2 1.99z" fill="#5c9eff"/><path d="m34 46.01v6.99c0-1.1-.899-2-2-2s-2 .9-2 2v-6.99-3h4z" fill="#cedbff"/><path d="m49 40h-15-22c-6.069 0-11-4.92-11-11v6.01c0 6.07 4.931 11 11 11h18v-3h4v3h15c7.729 0 14-6.27 14-14v-6.01c0 7.73-6.271 14-14 14z" fill="#d7e9ff"/><path d="m27 61c0 1.11-.899 2-2 2-1.11 0-2-.89-2-2 0-1.1.89-2 2-2 1.101 0 2 .9 2 2z" fill="#5c9eff"/><g fill="#0444f9"><path d="m25.001 60.003h-24c-.553 0-1-.447-1-1s.447-1 1-1h24c.553 0 1 .447 1 1s-.447 1-1 1z"/><path d="m25.001 64.003h-24c-.553 0-1-.447-1-1s.447-1 1-1h24c.553 0 1 .447 1 1s-.447 1-1 1z"/><path d="m63.001 60.003h-24c-.553 0-1-.447-1-1s.447-1 1-1h24c.553 0 1 .447 1 1s-.447 1-1 1z"/><path d="m63.001 64.003h-24c-.553 0-1-.447-1-1s.447-1 1-1h24c.553 0 1 .447 1 1s-.447 1-1 1z"/><path d="m30.001 54.005c-.553 0-1-.447-1-1v-10.004c0-.553.447-1 1-1s1 .447 1 1v10.004c0 .553-.447 1-1 1z"/><path d="m34.001 54.005c-.553 0-1-.447-1-1v-10.004c0-.553.447-1 1-1s1 .447 1 1v10.004c0 .553-.447 1-1 1z"/><path d="m12.001 41.001c-6.617 0-12-5.383-12-12s5.383-12 12-12c.553 0 1 .447 1 1s-.447 1-1 1c-5.514 0-10 4.486-10 10s4.486 10 10 10c.553 0 1 .447 1 1s-.447 1-1 1z"/><path d="m49.001 41.001c-.553 0-1-.447-1-1s.447-1 1-1c7.168 0 13-5.832 13-13 0-7.052-5.739-12.878-12.794-12.988-.552-.009-.993-.464-.984-1.016s.492-1.007 1.016-.984c8.141.127 14.763 6.851 14.763 14.988-.001 8.271-6.73 15-15.001 15z"/><path d="m51.001 21.001c-.553 0-1-.447-1-1 0-1.285-.136-2.566-.403-3.807-1.77-8.225-9.17-14.193-17.597-14.193-9.925 0-18 8.075-18 18 0 .553-.447 1-1 1s-1-.447-1-1c0-11.028 8.972-20 20-20 9.362 0 17.585 6.633 19.552 15.772.298 1.378.448 2.801.448 4.228 0 .553-.447 1-1 1z"/><path d="m13.105 19.001h-1.104c-.553 0-1-.447-1-1s.447-1 1-1h1.104c.553 0 1 .447 1 1s-.447 1-1 1z"/><path d="m49.001 41.001h-37c-.553 0-1-.447-1-1s.447-1 1-1h37c.553 0 1 .447 1 1s-.447 1-1 1z"/><path d="m12.001 47.007c-6.617 0-12-5.384-12-12.002 0-.553.447-1 1-1s1 .447 1 1c0 5.515 4.486 10.002 10 10.002.553 0 1 .447 1 1s-.447 1-1 1z"/><path d="m49.001 47.007c-.553 0-1-.447-1-1s.447-1 1-1c7.168 0 13-5.833 13-13.002 0-.553.447-1 1-1s1 .447 1 1c0 8.272-6.729 15.002-15 15.002z"/><path d="m30.001 47.007h-18c-.553 0-1-.447-1-1s.447-1 1-1h18c.553 0 1 .447 1 1s-.447 1-1 1z"/><path d="m63.001 33.005c-.553 0-1-.447-1-1v-6.004c0-.553.447-1 1-1s1 .447 1 1v6.004c0 .553-.447 1-1 1z"/><path d="m1.001 36.005c-.553 0-1-.447-1-1v-6.004c0-.553.447-1 1-1s1 .447 1 1v6.004c0 .553-.447 1-1 1z"/><path d="m49.001 47.005h-15c-.553 0-1-.447-1-1s.447-1 1-1h15c.553 0 1 .447 1 1s-.447 1-1 1z"/><path d="m36.001 44.005h-8c-.553 0-1-.447-1-1s.447-1 1-1h8c.553 0 1 .447 1 1s-.447 1-1 1z"/><path d="m32.001 56.002c-1.654 0-3-1.346-3-3s1.346-3 3-3 3 1.346 3 3-1.346 3-3 3zm0-4c-.552 0-1 .448-1 1s.448 1 1 1 1-.448 1-1-.448-1-1-1z"/><path d="m24.999 64.003c-1.654 0-3-1.346-3-3s1.346-3 3-3 3 1.346 3 3-1.346 3-3 3zm0-4c-.552 0-1 .448-1 1s.448 1 1 1 1-.448 1-1-.448-1-1-1z"/><path d="m39.001 64.003c-1.654 0-3-1.346-3-3s1.346-3 3-3 3 1.346 3 3-1.346 3-3 3zm0-4c-.552 0-1 .448-1 1s.448 1 1 1 1-.448 1-1-.448-1-1-1z"/><path d="m30.001 62.001h-4c-.553 0-1-.447-1-1s.447-1 1-1h4c.553 0 1 .447 1 1s-.447 1-1 1z"/><path d="m38.001 62.001h-4c-.553 0-1-.447-1-1s.447-1 1-1h4c.553 0 1 .447 1 1s-.447 1-1 1z"/><path d="m32.001 58.899c-.553 0-1-.447-1-1v-3.896c0-.553.447-1 1-1s1 .447 1 1v3.896c0 .553-.447 1-1 1z"/><path d="m32.001 34.003c-6.065 0-11-4.935-11-11s4.935-11 11-11 11 4.935 11 11-4.935 11-11 11zm0-20c-4.963 0-9 4.037-9 9s4.037 9 9 9 9-4.037 9-9-4.037-9-9-9z"/><path d="m32.001 25.002c-.553 0-1-.447-1-1v-4.999c0-.553.447-1 1-1s1 .447 1 1v4.999c0 .553-.447 1-1 1z"/><path d="m32.031 28.002c-.553 0-1.005-.447-1.005-1s.442-1 .994-1h.011c.552 0 1 .447 1 1s-.448 1-1 1z"/></g></svg>