<svg id="icons" enable-background="new 0 0 64 64" height="512" viewBox="0 0 64 64" width="512" xmlns="http://www.w3.org/2000/svg"><path d="m1 29.5c0 6.08 4.93 11 11 11h16v4h-16c-6.07 0-11-4.92-11-11z" fill="#5c9eff"/><path d="m30 40.49h4 2v.01 4 14c0 2.21-1.79 4-4 4s-4-1.79-4-4v-14-4-.01z" fill="#cedbff"/><path d="m34 34.36v6.13h-4v-6.13c.65.09 1.32.14 2 .14s1.35-.05 2-.14z" fill="#fff"/><path d="m63 30.5c0 7.74-6.27 14-14 14h-13v-4h13c7.73 0 14-6.27 14-14z" fill="#5c9eff"/><path d="m32 31.5c6.07 0 11-4.93 11-11s-4.93-11-11-11-11 4.93-11 11 4.93 11 11 11zm0-25c7.73 0 14 6.27 14 14 0 7.05-5.22 12.89-12 13.86-.65.09-1.32.14-2 .14s-1.35-.05-2-.14c-6.78-.97-12-6.81-12-13.86 0-7.73 6.27-14 14-14z" fill="#fff"/><path d="m49.25 12.51c7.62.14 13.75 6.34 13.75 13.99 0 7.73-6.27 14-14 14h-13v-.01h-2v-6.13c6.78-.971 12-6.811 12-13.86 0-7.73-6.27-14-14-14s-14 6.27-14 14c0 7.05 5.22 12.89 12 13.86v6.13h-2v.01h-16c-6.07 0-11-4.92-11-11 0-6.07 4.93-11 11-11h1.11c1-9.55 9.08-17 18.89-17 7.64 0 14.23 4.51 17.25 11.01z" fill="#cedbff"/><path d="m32 9.5c6.07 0 11 4.93 11 11s-4.93 11-11 11-11-4.93-11-11 4.93-11 11-11z" fill="#d7e9ff"/><g fill="#0444f9"><path d="m32.001 35.5c-8.271 0-15-6.729-15-15s6.729-15 15-15 15 6.729 15 15-6.729 15-15 15zm0-28c-7.168 0-13 5.832-13 13s5.832 13 13 13 13-5.832 13-13-5.832-13-13-13z"/><path d="m32.001 32.5c-6.617 0-12-5.383-12-12s5.383-12 12-12 12 5.383 12 12-5.383 12-12 12zm0-22c-5.514 0-10 4.486-10 10s4.486 10 10 10 10-4.486 10-10-4.486-10-10-10z"/><path d="m30.001 41.494c-.553 0-1-.447-1-1v-6.135c0-.553.447-1 1-1s1 .447 1 1v6.135c0 .553-.447 1-1 1z"/><path d="m34.001 41.494c-.553 0-1-.447-1-1v-6.137c0-.553.447-1 1-1s1 .447 1 1v6.137c0 .553-.447 1-1 1z"/><path d="m12.001 41.502c-6.617 0-12-5.383-12-12s5.383-12 12-12c.553 0 1 .447 1 1s-.447 1-1 1c-5.514 0-10 4.486-10 10s4.486 10 10 10c.553 0 1 .447 1 1s-.447 1-1 1z"/><path d="m49.001 41.502c-.553 0-1-.447-1-1s.447-1 1-1c7.168 0 13-5.832 13-13 0-7.052-5.739-12.878-12.794-12.988-.552-.009-.993-.464-.984-1.016s.487-.958 1.016-.984c8.141.127 14.763 6.851 14.763 14.988-.001 8.271-6.73 15-15.001 15z"/><path d="m51.001 21.502c-.553 0-1-.447-1-1 0-1.285-.136-2.566-.403-3.807-1.77-8.225-9.17-14.193-17.597-14.193-9.925 0-18 8.075-18 18 0 .553-.447 1-1 1s-1-.447-1-1c0-11.028 8.972-20 20-20 9.362 0 17.585 6.633 19.552 15.772.298 1.378.448 2.801.448 4.228 0 .553-.447 1-1 1z"/><path d="m13.105 19.502h-1.104c-.553 0-1-.447-1-1s.447-1 1-1h1.104c.553 0 1 .447 1 1s-.447 1-1 1z"/><path d="m27.999 41.502h-15.998c-.553 0-1-.447-1-1s.447-1 1-1h15.998c.553 0 1 .447 1 1s-.447 1-1 1z"/><path d="m12.001 45.506c-6.617 0-12-5.384-12-12.002 0-.553.447-1 1-1s1 .447 1 1c0 5.515 4.486 10.002 10 10.002.553 0 1 .447 1 1s-.447 1-1 1z"/><path d="m49.001 45.506c-.553 0-1-.447-1-1s.447-1 1-1c7.168 0 13-5.833 13-13.002 0-.553.447-1 1-1s1 .447 1 1c0 8.272-6.729 15.002-15 15.002z"/><path d="m27.999 45.506h-15.998c-.553 0-1-.447-1-1s.447-1 1-1h15.998c.553 0 1 .447 1 1s-.447 1-1 1z"/><path d="m49.084 41.502h-13.082c-.553 0-1-.447-1-1s.447-1 1-1h13.082c.553 0 1 .447 1 1s-.447 1-1 1z"/><path d="m49.001 45.506h-12.999c-.553 0-1-.447-1-1s.447-1 1-1h12.999c.553 0 1 .447 1 1s-.447 1-1 1z"/><path d="m63.001 31.504c-.553 0-1-.447-1-1v-4.002c0-.553.447-1 1-1s1 .447 1 1v4.002c0 .553-.447 1-1 1z"/><path d="m1.001 34.504c-.553 0-1-.447-1-1v-4.002c0-.553.447-1 1-1s1 .447 1 1v4.002c0 .553-.447 1-1 1z"/><path d="m36.001 41.494h-8c-.553 0-1-.447-1-1s.447-1 1-1h8c.553 0 1 .447 1 1s-.447 1-1 1z"/><path d="m27.999 59.504c-.553 0-1-.447-1-1v-18.002c0-.553.447-1 1-1s1 .447 1 1v18.002c0 .553-.447 1-1 1z"/><path d="m36.001 59.504c-.553 0-1-.447-1-1v-18.002c0-.553.447-1 1-1s1 .447 1 1v18.002c0 .553-.447 1-1 1z"/><path d="m32.001 63.502c-2.758 0-5.002-2.243-5.002-5 0-.553.447-1 1-1s1 .447 1 1c0 1.654 1.347 3 3.002 3 1.654 0 3.001-1.346 3.001-3 0-.553.447-1 1-1s1 .447 1 1c0 2.757-2.243 5-5.001 5z"/></g></svg>