<svg id="icons" enable-background="new 0 0 64 64" height="512" viewBox="0 0 64 64" width="512" xmlns="http://www.w3.org/2000/svg"><path d="m49 9h-34l4-4h26z" fill="#5c9eff"/><path d="m21 25c1.11 0 2 .89 2 2 0 1.1-.89 2-2 2-1.1 0-2-.9-2-2 0-1.11.9-2 2-2z" fill="#d7e9ff"/><path d="m49 9v12h-34v-12zm-26 6c0-1.11-.89-2-2-2-1.1 0-2 .89-2 2 0 1.1.9 2 2 2 1.11 0 2-.9 2-2z" fill="#cedbff"/><path d="m21 13c1.11 0 2 .89 2 2 0 1.1-.89 2-2 2-1.1 0-2-.9-2-2 0-1.11.9-2 2-2z" fill="#d7e9ff"/><path d="m21 37c1.11 0 2 .89 2 2 0 1.1-.89 2-2 2-1.1 0-2-.9-2-2 0-1.11.9-2 2-2z" fill="#d7e9ff"/><path d="m49 33v12h-34v-12h1zm-26 6c0-1.11-.89-2-2-2-1.1 0-2 .89-2 2 0 1.1.9 2 2 2 1.11 0 2-.9 2-2z" fill="#cedbff"/><path d="m49 27v6h-33-1v-12h34zm-26 0c0-1.11-.89-2-2-2-1.1 0-2 .89-2 2 0 1.1.9 2 2 2 1.11 0 2-.9 2-2z" fill="#cedbff"/><path d="m63 45c0 7.74-6.27 14-14 14h-37c-6.07 0-11-4.92-11-11v-4c0 6.08 4.93 11 11 11h37c7.73 0 14-6.27 14-14z" fill="#d7e9ff"/><path d="m49 45v-12-6c7.73 0 14 6.27 14 14s-6.27 14-14 14h-37c-6.07 0-11-4.92-11-11s4.93-11 11-11h3v12z" fill="#fff"/><g fill="#0444f9"><path d="m21.001 17.998c-1.654 0-3-1.346-3-3s1.346-3 3-3 3 1.346 3 3-1.346 3-3 3zm0-4c-.552 0-1 .448-1 1s.448 1 1 1 1-.448 1-1-.448-1-1-1z"/><path d="m36 16.998c-.15 0-.303-.034-.446-.105-.494-.247-.694-.848-.447-1.342l1-2c.248-.494.847-.693 1.342-.447.494.247.694.848.447 1.342l-1 2c-.176.35-.529.552-.896.552z"/><path d="m40 16.998c-.15 0-.303-.034-.446-.105-.494-.247-.694-.848-.447-1.342l1-2c.248-.494.849-.693 1.342-.447.494.247.694.848.447 1.342l-1 2c-.176.35-.529.552-.896.552z"/><path d="m44 16.998c-.15 0-.303-.034-.446-.105-.494-.247-.694-.848-.447-1.342l1-2c.247-.494.848-.693 1.342-.447.494.247.694.848.447 1.342l-1 2c-.176.35-.529.552-.896.552z"/><path d="m21.001 29.998c-1.654 0-3-1.346-3-3s1.346-3 3-3 3 1.346 3 3-1.346 3-3 3zm0-4c-.552 0-1 .448-1 1s.448 1 1 1 1-.448 1-1-.448-1-1-1z"/><path d="m36 28.998c-.15 0-.303-.034-.446-.105-.494-.247-.694-.848-.447-1.342l1-2c.248-.494.847-.693 1.342-.447.494.247.694.848.447 1.342l-1 2c-.176.35-.529.552-.896.552z"/><path d="m40 28.998c-.15 0-.303-.034-.446-.105-.494-.247-.694-.848-.447-1.342l1-2c.248-.494.849-.693 1.342-.447.494.247.694.848.447 1.342l-1 2c-.176.35-.529.552-.896.552z"/><path d="m44 28.998c-.15 0-.303-.034-.446-.105-.494-.247-.694-.848-.447-1.342l1-2c.247-.494.848-.693 1.342-.447.494.247.694.848.447 1.342l-1 2c-.176.35-.529.552-.896.552z"/><path d="m21.001 41.998c-1.654 0-3-1.346-3-3s1.346-3 3-3 3 1.346 3 3-1.346 3-3 3zm0-4c-.552 0-1 .448-1 1s.448 1 1 1 1-.448 1-1-.448-1-1-1z"/><path d="m36 40.998c-.15 0-.303-.034-.446-.105-.494-.247-.694-.848-.447-1.342l1-2c.248-.494.847-.693 1.342-.447.494.247.694.848.447 1.342l-1 2c-.176.35-.529.552-.896.552z"/><path d="m40 40.998c-.15 0-.303-.034-.446-.105-.494-.247-.694-.848-.447-1.342l1-2c.248-.494.849-.693 1.342-.447.494.247.694.848.447 1.342l-1 2c-.176.35-.529.552-.896.552z"/><path d="m44 40.998c-.15 0-.303-.034-.446-.105-.494-.247-.694-.848-.447-1.342l1-2c.247-.494.848-.693 1.342-.447.494.247.694.848.447 1.342l-1 2c-.176.35-.529.552-.896.552z"/><path d="m49.001 21.998h-34c-.553 0-1-.447-1-1v-12c0-.553.447-1 1-1h34c.553 0 1 .447 1 1v12c0 .553-.447 1-1 1zm-33-2h32v-10h-32z"/><path d="m49.001 33.999h-34c-.553 0-1-.447-1-1v-12c0-.553.447-1 1-1h34c.553 0 1 .447 1 1v12c0 .553-.447 1-1 1zm-33-2h32v-10h-32z"/><path d="m49.001 46h-34c-.553 0-1-.447-1-1v-12c0-.553.447-1 1-1h34c.553 0 1 .447 1 1v12c0 .553-.447 1-1 1zm-33-2h32v-10h-32z"/><path d="m12.001 56c-6.617 0-12-5.383-12-12s5.383-12.001 12-12.001c.553 0 1 .447 1 1s-.447 1-1 1c-5.514 0-10 4.486-10 10.001 0 5.514 4.486 10 10 10 .553 0 1 .447 1 1s-.447 1-1 1z"/><path d="m49.001 56c-.553 0-1-.447-1-1s.447-1 1-1c7.168 0 13-5.832 13-13.001 0-.553.447-1 1-1s1 .447 1 1c0 8.272-6.729 15.001-15 15.001z"/><path d="m63.001 41.999c-.553 0-1-.447-1-1 0-7.168-5.832-13-13-13-.553 0-1-.447-1-1s.447-1 1-1c8.271 0 15 6.729 15 15 0 .553-.447 1-1 1z"/><path d="m49.001 56h-37c-.553 0-1-.447-1-1s.447-1 1-1h37c.553 0 1 .447 1 1s-.447 1-1 1z"/><path d="m12.001 60.004c-6.617 0-12-5.384-12-12.002 0-.553.447-1 1-1s1 .447 1 1c0 5.515 4.486 10.002 10 10.002.553 0 1 .447 1 1s-.447 1-1 1z"/><path d="m49.001 60.004c-.553 0-1-.447-1-1s.447-1 1-1c7.168 0 13-5.833 13-13.003 0-.553.447-1 1-1s1 .447 1 1c0 8.272-6.729 15.003-15 15.003z"/><path d="m49.001 60.004h-37c-.553 0-1-.447-1-1s.447-1 1-1h37c.553 0 1 .447 1 1s-.447 1-1 1z"/><path d="m63.001 46.001c-.553 0-1-.447-1-1v-4.002c0-.553.447-1 1-1s1 .447 1 1v4.002c0 .553-.447 1-1 1z"/><path d="m1.001 49.002c-.553 0-1-.447-1-1v-4.002c0-.553.447-1 1-1s1 .447 1 1v4.002c0 .553-.447 1-1 1z"/><path d="m16.001 33.999h-4c-.553 0-1-.447-1-1s.447-1 1-1h4c.553 0 1 .447 1 1s-.447 1-1 1z"/><path d="m51.001 46.001h-38c-.553 0-1-.447-1-1s.447-1 1-1h38c.553 0 1 .447 1 1s-.447 1-1 1z"/><path d="m15.001 9.998c-.256 0-.512-.098-.707-.293-.391-.391-.391-1.023 0-1.414l3.999-3.998c.391-.391 1.023-.391 1.414 0s.391 1.023 0 1.414l-3.999 3.998c-.195.195-.451.293-.707.293z"/><path d="m49.001 9.998c-.256 0-.512-.098-.707-.293l-3.999-3.998c-.391-.391-.391-1.023 0-1.414s1.023-.391 1.414 0l3.999 3.998c.391.391.391 1.023 0 1.414-.195.195-.451.293-.707.293z"/><path d="m45.002 6h-26.002c-.553 0-1-.447-1-1s.447-1 1-1h26.002c.553 0 1 .447 1 1s-.447 1-1 1z"/></g></svg>