<svg id="icons" enable-background="new 0 0 64 64" height="512" viewBox="0 0 64 64" width="512" xmlns="http://www.w3.org/2000/svg"><path d="m63 31.005c0 7.73-6.27 14-14 14v-4.01c7.73 0 14-6.26 14-14z" fill="#d7e9ff"/><path d="m15 40.995v4.01h-3c-6.08 0-11-4.93-11-11v-4.01c0 6.08 4.92 11 11 11h2.99z" fill="#d7e9ff"/><path d="m49.24 13.015c7.62.12 13.76 6.34 13.76 13.98 0 7.74-6.27 14-14 14 0-4.69-1.899-8.94-4.979-12.02s-7.33-4.98-12.021-4.98c-9.39 0-17 7.62-17 17h-.01-2.99c-6.08 0-11-4.92-11-11 0-6.07 4.92-11 11-11h1.101.01c.99-9.55 9.069-17 18.89-17 7.639 0 14.229 4.51 17.239 11.02z" fill="#fff"/><path d="m32 40.845.08.08-.08.07h-.01-16.99c0-9.38 7.61-17 17-17z" fill="#d7e9ff"/><path d="m44.021 28.976-11.941 11.949-.08-.08v-16.85c4.69 0 8.94 1.901 12.021 4.981z" fill="#fff"/><path d="m49 40.995v4.01c0 4.69-1.899 8.95-4.979 12.021v-4.011c3.08-3.079 4.979-7.32 4.979-12.02z" fill="#cedbff"/><path d="m44.021 28.976c3.08 3.079 4.979 7.329 4.979 12.019 0 4.7-1.899 8.94-4.979 12.02l-12.021-12.02.08-.07z" fill="#d7e9ff"/><path d="m15 40.995c0 9.39 7.61 17 17 17 4.69 0 8.94-1.9 12.021-4.98v4.011c-3.08 3.08-7.33 4.979-12.021 4.979-9.39 0-17-7.609-17-17z" fill="#5c9eff"/><path d="m32 40.995 12.021 12.02c-3.08 3.08-7.33 4.98-12.021 4.98-9.39 0-17-7.61-17-17h16.99z" fill="#cedbff"/><g fill="#0444f9"><path d="m12.001 42c-6.617 0-12-5.383-12-12s5.383-12 12-12c.553 0 1 .447 1 1s-.447 1-1 1c-5.514 0-10 4.486-10 10s4.486 10 10 10c.553 0 1 .447 1 1s-.447 1-1 1z"/><path d="m49.001 42c-.553 0-1-.447-1-1s.447-1 1-1c7.168 0 13-5.832 13-13 0-7.052-5.739-12.878-12.794-12.988-.552-.009-.993-.464-.984-1.016s.477-1.016 1.016-.984c8.14.127 14.762 6.85 14.762 14.988 0 8.271-6.729 15-15 15z"/><path d="m51.001 22c-.553 0-1-.447-1-1 0-1.285-.136-2.566-.403-3.807-1.77-8.224-9.17-14.193-17.597-14.193-9.925 0-18 8.075-18 18 0 .553-.447 1-1 1s-1-.447-1-1c0-11.028 8.972-20 20-20 9.362 0 17.585 6.633 19.552 15.772.298 1.378.448 2.801.448 4.228 0 .553-.447 1-1 1z"/><path d="m13.105 20h-1.104c-.553 0-1-.447-1-1s.447-1 1-1h1.104c.553 0 1 .447 1 1s-.447 1-1 1z"/><path d="m15.001 42h-3c-.553 0-1-.447-1-1s.447-1 1-1h3c.553 0 1 .447 1 1s-.447 1-1 1z"/><path d="m12.001 46.004c-6.617 0-12-5.384-12-12.002 0-.553.447-1 1-1s1 .447 1 1c0 5.515 4.486 10.002 10 10.002.553 0 1 .447 1 1s-.447 1-1 1z"/><path d="m49.001 46.004c-.553 0-1-.447-1-1s.447-1 1-1c7.168 0 13-5.833 13-13.002 0-.553.447-1 1-1s1 .447 1 1c0 8.272-6.729 15.002-15 15.002z"/><path d="m15.001 46.004h-3c-.553 0-1-.447-1-1s.447-1 1-1h3c.553 0 1 .447 1 1s-.447 1-1 1z"/><path d="m63.001 32.002c-.553 0-1-.447-1-1v-4.002c0-.553.447-1 1-1s1 .447 1 1v4.002c0 .553-.447 1-1 1z"/><path d="m1.001 35.002c-.553 0-1-.447-1-1v-4.002c0-.553.447-1 1-1s1 .447 1 1v4.002c0 .553-.447 1-1 1z"/><path d="m32.001 59c-9.925 0-18-8.075-18-18s8.075-18 18-18 18 8.075 18 18-8.075 18-18 18zm0-34c-8.822 0-16 7.178-16 16s7.178 16 16 16 16-7.178 16-16-7.178-16-16-16z"/><path d="m32.001 63.004c-9.925 0-18-8.075-18-18 0-.553.447-1 1-1s1 .447 1 1c0 8.822 7.178 16 16 16s16-7.178 16-16c0-.553.447-1 1-1s1 .447 1 1c0 9.925-8.075 18-18 18z"/><path d="m15.001 46.004c-.553 0-1-.447-1-1v-4.004c0-.553.447-1 1-1s1 .447 1 1v4.004c0 .553-.447 1-1 1z"/><path d="m49.001 46.004c-.553 0-1-.447-1-1v-4.004c0-.553.447-1 1-1s1 .447 1 1v4.004c0 .553-.447 1-1 1z"/><path d="m32.001 41.844c-.553 0-1-.447-1-1v-16.844c0-.553.447-1 1-1s1 .447 1 1v16.844c0 .552-.447 1-1 1z"/><path d="m44.021 54.02c-.256 0-.512-.098-.707-.293l-12.021-12.02c-.391-.391-.391-1.023 0-1.414s1.023-.391 1.414 0l12.021 12.02c.391.391.391 1.023 0 1.414-.196.195-.452.293-.707.293z"/><path d="m31.999 42h-17c-.553 0-1-.447-1-1s.447-1 1-1h17c.553 0 1 .447 1 1s-.447 1-1 1z"/><path d="m32.001 42c-.256 0-.512-.098-.707-.293-.391-.391-.391-1.023 0-1.414l12.02-12.02c.391-.391 1.023-.391 1.414 0s.391 1.023 0 1.414l-12.02 12.02c-.195.195-.451.293-.707.293z"/><path d="m44.021 58.024c-.553 0-1-.447-1-1v-4.004c0-.553.447-1 1-1s1 .447 1 1v4.005c0 .552-.448.999-1 .999z"/></g></svg>