<svg id="icons" enable-background="new 0 0 64 64" height="512" viewBox="0 0 64 64" width="512" xmlns="http://www.w3.org/2000/svg"><path d="m39 49c3.87 0 7 3.13 7 7s-3.13 7-7 7c-2.79 0-5.19-1.64-6.32-4h-1.36c-1.13 2.36-3.529 4-6.319 4-3.87 0-7-3.13-7-7s3.13-7 7-7h7z" fill="#cedbff"/><path d="m60 27.47c0 6.91-5.601 12.5-12.5 12.5h-33.5c-5.521 0-10-4.47-10-10v-3.97c0 5.53 4.479 10 10 10h33.5c6.899 0 12.5-5.59 12.5-12.5z" fill="#d7e9ff"/><path d="m47.489 11h.011c6.899 0 12.5 5.6 12.5 12.5 0 6.91-5.601 12.5-12.5 12.5h-33.5c-5.521 0-10-4.47-10-10 0-5.52 4.479-10 10-10h1l.12.02c.97-8.46 8.159-15.02 16.88-15.02 6.89 0 12.83 4.1 15.489 10z" fill="#fff"/><g fill="#0444f9"><path d="m49.001 19.003c-.553 0-1-.447-1-1 0-8.822-7.178-16-16-16s-16 7.178-16 16c0 .553-.447 1-1 1s-1-.447-1-1c0-9.925 8.075-18 18-18s18 8.075 18 18c0 .553-.447 1-1 1z"/><path d="m47.501 37.001c-.553 0-1-.447-1-1s.447-1 1-1c6.341 0 11.5-5.158 11.5-11.499s-5.159-11.5-11.5-11.5c-.553 0-1-.447-1-1s.447-1 1-1c7.444 0 13.5 6.056 13.5 13.5 0 7.443-6.056 13.499-13.5 13.499z"/><path d="m14.001 37.001c-6.065 0-11-4.935-11-10.999 0-6.065 4.935-11 11-11 .553 0 1 .447 1 1s-.447 1-1 1c-4.963 0-9 4.037-9 9 0 4.962 4.037 8.999 9 8.999.553 0 1 .447 1 1s-.447 1-1 1z"/><path d="m47.501 37.001h-33.5c-.553 0-1-.447-1-1s.447-1 1-1h33.5c.553 0 1 .447 1 1s-.447 1-1 1z"/><path d="m15.001 17.002h-1c-.553 0-1-.447-1-1s.447-1 1-1h1c.553 0 1 .447 1 1s-.447 1-1 1z"/><path d="m47.501 40.972c-.553 0-1-.447-1-1s.447-1 1-1c6.341 0 11.5-5.158 11.5-11.499 0-.553.447-1 1-1s1 .447 1 1c0 7.443-6.056 13.499-13.5 13.499z"/><path d="m14.001 40.972c-6.065 0-11-4.935-11-10.999 0-.553.447-1 1-1s1 .447 1 1c0 4.962 4.037 8.999 9 8.999.553 0 1 .447 1 1s-.447 1-1 1z"/><path d="m47.501 40.972h-33.5c-.553 0-1-.447-1-1s.447-1 1-1h33.5c.553 0 1 .447 1 1s-.447 1-1 1z"/><path d="m60.001 28.473c-.553 0-1-.447-1-1v-3.971c0-.553.447-1 1-1s1 .447 1 1v3.971c0 .552-.447 1-1 1z"/><path d="m4.001 30.973c-.553 0-1-.447-1-1v-3.971c0-.553.447-1 1-1s1 .447 1 1v3.971c0 .552-.447 1-1 1z"/><path d="m39.001 64.001c-2.85 0-5.5-1.551-6.92-4h-.16c-1.42 2.449-4.07 4-6.92 4-4.411 0-8-3.589-8-8s3.589-8 8-8h14c4.411 0 8 3.589 8 8s-3.589 8-8 8zm-7.683-6h1.365c.386 0 .737.222.903.57.991 2.083 3.116 3.43 5.414 3.43 3.309 0 6-2.691 6-6s-2.691-6-6-6h-14c-3.309 0-6 2.691-6 6s2.691 6 6 6c2.298 0 4.423-1.347 5.414-3.43.167-.348.519-.57.904-.57z"/><path d="m25.001 59.001c-.553 0-1-.447-1-1v-4c0-.553.447-1 1-1s1 .447 1 1v4c0 .553-.447 1-1 1z"/><path d="m27.001 57.001h-4c-.553 0-1-.447-1-1s.447-1 1-1h4c.553 0 1 .447 1 1s-.447 1-1 1z"/><path d="m37.045 57.001c-.553 0-1.005-.447-1.005-1s.442-1 .994-1h.011c.552 0 1 .447 1 1s-.448 1-1 1z"/><path d="m39.045 55.001c-.553 0-1.005-.447-1.005-1s.442-1 .994-1h.011c.552 0 1 .447 1 1s-.448 1-1 1z"/><path d="m39.047 59.002c-.553 0-1.005-.447-1.005-1s.442-1 .994-1h.011c.552 0 1 .447 1 1s-.448 1-1 1z"/><path d="m41.047 57.002c-.553 0-1.005-.447-1.005-1s.442-1 .994-1h.011c.552 0 1 .447 1 1s-.448 1-1 1z"/><path d="m32.001 50.002c-.553 0-1-.447-1-1v-3.004c0-.553.447-1 1-1s1 .447 1 1v3.004c0 .553-.447 1-1 1z"/><path d="m32.001 46.998c-.553 0-1-.447-1-1 0-1.654 1.346-3 3-3 .553 0 1 .447 1 1s-.447 1-1 1c-.552 0-1 .448-1 1 0 .553-.447 1-1 1z"/><path d="m40.003 44.997c-.553 0-1-.447-1-1s.447-1 1-1c.551 0 .998-.447.998-.998s-.447-.998-.998-.998c-.553 0-1-.447-1-1s.447-1 1-1c1.653 0 2.998 1.345 2.998 2.998s-1.345 2.998-2.998 2.998z"/><path d="m40.003 44.998h-6.002c-.553 0-1-.447-1-1s.447-1 1-1h6.002c.553 0 1 .447 1 1s-.447 1-1 1z"/><path d="m32.001 50.002c-.553 0-1-.447-1-1v-3.004c0-.553.447-1 1-1s1 .447 1 1v3.004c0 .553-.447 1-1 1z"/><path d="m31.998 30c-3.031 0-5.864-1.354-7.774-3.713-.348-.429-.281-1.059.148-1.406s1.06-.28 1.406.148c1.529 1.888 3.795 2.971 6.22 2.971 4.411 0 8-3.589 8-8 0-.553.447-1 1-1s1 .447 1 1c0 5.514-4.486 10-10 10z"/><path d="m42.502 23.002c-.304 0-.604-.138-.801-.399l-1.503-2.002c-.331-.441-.242-1.068.199-1.4.441-.329 1.069-.242 1.4.199l1.503 2.002c.331.441.242 1.068-.199 1.4-.179.135-.39.2-.599.2z"/><path d="m39.002 22.5c-.304 0-.604-.138-.801-.399-.331-.441-.242-1.068.199-1.4l1.997-1.5c.441-.329 1.069-.242 1.4.199s.242 1.068-.199 1.4l-1.997 1.5c-.179.135-.39.2-.599.2z"/><path d="m23 21.004c-.553 0-1-.447-1-1 0-5.514 4.486-10 10-10 3.031 0 5.864 1.354 7.774 3.713.348.429.281 1.059-.148 1.406-.429.348-1.06.28-1.406-.148-1.528-1.888-3.795-2.971-6.22-2.971-4.411 0-8 3.589-8 8 0 .553-.447 1-1 1z"/><path d="m23.001 21.004c-.305 0-.605-.139-.802-.4l-1.499-2.002c-.331-.442-.24-1.069.201-1.4.442-.332 1.07-.239 1.4.201l1.499 2.002c.331.442.24 1.069-.201 1.4-.179.134-.39.199-.598.199z"/><path d="m23.001 21.004c-.304 0-.604-.138-.8-.398-.332-.441-.244-1.068.197-1.4l1.997-1.504c.441-.333 1.069-.243 1.4.197.332.441.244 1.068-.197 1.4l-1.997 1.504c-.18.135-.391.201-.6.201z"/></g></svg>