<svg id="icons" enable-background="new 0 0 64 64" height="512" viewBox="0 0 64 64" width="512" xmlns="http://www.w3.org/2000/svg"><path d="m4 28.5c0 5.53 4.48 10 10 10h6v3.97h-6c-5.52 0-10-4.47-10-10z" fill="#5c9eff"/><path d="m20 54.5h24v3h-24z" fill="#d7e9ff"/><path d="m20 57.5h24v3h-24z" fill="#d7e9ff"/><path d="m60 29.97c0 6.91-5.59 12.5-12.5 12.5h-3.5v-3.97h3.5c6.91 0 12.5-5.59 12.5-12.5z" fill="#5c9eff"/><path d="m44 42.47v12.03h-24v-12.03-3.97-16h19v5h5v11z" fill="#d7e9ff"/><path d="m44 27.5h-5v-5z" fill="#fff"/><path d="m47.49 13.5h.01c6.91 0 12.5 5.6 12.5 12.5 0 6.91-5.59 12.5-12.5 12.5h-3.5v-11l-5-5h-19v16h-6c-5.52 0-10-4.47-10-10 0-5.52 4.48-10 10-10h1l.12.02c.97-8.46 8.16-15.02 16.88-15.02 6.89 0 12.83 4.1 15.49 10z" fill="#cedbff"/><g fill="#0444f9"><path d="m49.001 21.503c-.553 0-1-.447-1-1 0-8.822-7.178-16-16-16s-16 7.178-16 16c0 .553-.447 1-1 1s-1-.447-1-1c0-9.925 8.075-18 18-18s18 8.075 18 18c0 .553-.447 1-1 1z"/><path d="m47.501 39.501c-.553 0-1-.447-1-1s.447-1 1-1c6.341 0 11.5-5.158 11.5-11.499s-5.159-11.5-11.5-11.5c-.553 0-1-.447-1-1s.447-1 1-1c7.444 0 13.5 6.056 13.5 13.5 0 7.443-6.056 13.499-13.5 13.499z"/><path d="m14.001 39.501c-6.065 0-11-4.935-11-10.999 0-6.065 4.935-11 11-11 .553 0 1 .447 1 1s-.447 1-1 1c-4.963 0-9 4.037-9 9 0 4.962 4.037 8.999 9 8.999.553 0 1 .447 1 1s-.447 1-1 1z"/><path d="m20 39.501h-5.999c-.553 0-1-.447-1-1s.447-1 1-1h5.999c.553 0 1 .447 1 1s-.447 1-1 1z"/><path d="m15.001 19.502h-1c-.553 0-1-.447-1-1s.447-1 1-1h1c.553 0 1 .447 1 1s-.447 1-1 1z"/><path d="m47.501 43.472c-.553 0-1-.447-1-1s.447-1 1-1c6.341 0 11.5-5.158 11.5-11.499 0-.553.447-1 1-1s1 .447 1 1c0 7.443-6.056 13.499-13.5 13.499z"/><path d="m14.001 43.472c-6.065 0-11-4.935-11-10.999 0-.553.447-1 1-1s1 .447 1 1c0 4.962 4.037 8.999 9 8.999.553 0 1 .447 1 1s-.447 1-1 1z"/><path d="m20 43.472h-5.999c-.553 0-1-.447-1-1s.447-1 1-1h5.999c.553 0 1 .447 1 1s-.447 1-1 1z"/><path d="m60.001 30.973c-.553 0-1-.447-1-1v-3.971c0-.553.447-1 1-1s1 .447 1 1v3.971c0 .552-.447 1-1 1z"/><path d="m4.001 33.473c-.553 0-1-.447-1-1v-3.971c0-.553.447-1 1-1s1 .447 1 1v3.971c0 .552-.447 1-1 1z"/><path d="m47.501 39.501h-3.5c-.553 0-1-.447-1-1s.447-1 1-1h3.5c.553 0 1 .447 1 1s-.447 1-1 1z"/><path d="m47.501 43.472h-3.5c-.553 0-1-.447-1-1s.447-1 1-1h3.5c.553 0 1 .447 1 1s-.447 1-1 1z"/><path d="m44.001 55.497h-24c-.553 0-1-.447-1-1v-32c0-.553.447-1 1-1h18.998c.266 0 .52.105.707.293l5.002 5.004c.188.188.293.441.293.707v26.996c0 .553-.447 1-1 1zm-23-2h22v-25.582l-4.416-4.418h-17.584z"/><path d="m38.999 28.501c-.553 0-1-.447-1-1v-5.004c0-.553.447-1 1-1s1 .447 1 1v5.004c0 .553-.447 1-1 1z"/><path d="m44.001 28.501h-5.002c-.553 0-1-.447-1-1s.447-1 1-1h5.002c.553 0 1 .447 1 1s-.447 1-1 1z"/><path d="m20.001 61.501c-.553 0-1-.447-1-1v-6.004c0-.553.447-1 1-1s1 .447 1 1v6.004c0 .553-.447 1-1 1z"/><path d="m44.001 61.501c-.553 0-1-.447-1-1v-6.004c0-.553.447-1 1-1s1 .447 1 1v6.004c0 .553-.447 1-1 1z"/><path d="m44.001 58.498h-24.001c-.553 0-1-.447-1-1s.447-1 1-1h24.001c.553 0 1 .447 1 1s-.447 1-1 1z"/><path d="m44.001 61.501h-24.001c-.553 0-1-.447-1-1s.447-1 1-1h24.001c.553 0 1 .447 1 1s-.447 1-1 1z"/><path d="m38.999 35.502h-13.998c-.553 0-1-.447-1-1s.447-1 1-1h13.998c.553 0 1 .447 1 1s-.447 1-1 1z"/><path d="m38.999 39.502h-13.998c-.553 0-1-.447-1-1s.447-1 1-1h13.998c.553 0 1 .447 1 1s-.447 1-1 1z"/><path d="m38.999 43.502h-13.998c-.553 0-1-.447-1-1s.447-1 1-1h13.998c.553 0 1 .447 1 1s-.447 1-1 1z"/><path d="m32.001 47.502h-7c-.553 0-1-.447-1-1s.447-1 1-1h7c.553 0 1 .447 1 1s-.447 1-1 1z"/></g></svg>