<svg id="icons" enable-background="new 0 0 64 64" height="512" viewBox="0 0 64 64" width="512" xmlns="http://www.w3.org/2000/svg"><path d="m46 21.5h3v3h-3z" fill="#cedbff"/><path d="m46 8.5h-5v-5z" fill="#fff"/><path d="m46 24.5h-18l-4-4h-4-4v13.99 11.01h33v-17.01-3.99z" fill="#d7e9ff"/><circle cx="32.5" cy="34.99" fill="#cedbff" r="6.5"/><path d="m46 21.5v3h-18l-4-4h-4v-17h21v5h5z" fill="#fff"/><path d="m63 46.5c0 7.73-6.27 14-14 14h-37c-6.08 0-11-4.93-11-11v-4.01c0 6.08 4.92 11 11 11h37c7.73 0 14-6.26 14-14z" fill="#d7e9ff"/><path d="m49 45.5v-17.01c7.73 0 14 6.27 14 14 0 7.74-6.27 14-14 14h-37c-6.08 0-11-4.92-11-11 0-6.07 4.92-11 11-11h4v11.01z" fill="#fff"/><g fill="#0444f9"><path d="m12.001 57.497c-6.617 0-12-5.383-12-12s5.383-12.001 12-12.001c.553 0 1 .447 1 1s-.447 1-1 1c-5.514 0-10 4.486-10 10.001 0 5.514 4.486 10 10 10 .553 0 1 .447 1 1s-.447 1-1 1z"/><path d="m49.001 57.497c-.553 0-1-.447-1-1s.447-1 1-1c7.168 0 13-5.832 13-13.001 0-.553.447-1 1-1s1 .447 1 1c0 8.272-6.729 15.001-15 15.001z"/><path d="m63.001 43.496c-.553 0-1-.447-1-1 0-7.168-5.832-13-13-13-.553 0-1-.447-1-1s.447-1 1-1c8.271 0 15 6.729 15 15 0 .553-.447 1-1 1z"/><path d="m49.001 57.497h-37c-.553 0-1-.447-1-1s.447-1 1-1h37c.553 0 1 .447 1 1s-.447 1-1 1z"/><path d="m12.001 61.501c-6.617 0-12-5.384-12-12.002 0-.553.447-1 1-1s1 .447 1 1c0 5.515 4.486 10.002 10 10.002.553 0 1 .447 1 1s-.447 1-1 1z"/><path d="m49.001 61.501c-.553 0-1-.447-1-1s.447-1 1-1c7.168 0 13-5.833 13-13.003 0-.553.447-1 1-1s1 .447 1 1c0 8.273-6.729 15.003-15 15.003z"/><path d="m49.001 61.501h-37c-.553 0-1-.447-1-1s.447-1 1-1h37c.553 0 1 .447 1 1s-.447 1-1 1z"/><path d="m63.001 47.498c-.553 0-1-.447-1-1v-4.002c0-.553.447-1 1-1s1 .447 1 1v4.002c0 .553-.447 1-1 1z"/><path d="m1.001 50.499c-.553 0-1-.447-1-1v-4.002c0-.553.447-1 1-1s1 .447 1 1v4.002c0 .553-.447 1-1 1z"/><path d="m16.001 35.496h-4c-.553 0-1-.447-1-1s.447-1 1-1h4c.553 0 1 .447 1 1s-.447 1-1 1z"/><path d="m49.001 46.503h-33c-.553 0-1-.447-1-1v-25.002c0-.553.447-1 1-1h8c.266 0 .52.105.707.293l3.71 3.711h20.583c.553 0 1 .447 1 1v20.998c0 .553-.447 1-1 1zm-32-2h31v-18.998h-19.997c-.266 0-.52-.105-.707-.293l-3.71-3.711h-6.586z"/><path d="m51 46.503h-36.999c-.553 0-1-.447-1-1s.447-1 1-1h36.999c.553 0 1 .447 1 1s-.447 1-1 1z"/><path d="m49.001 22.502h-3.001c-.553 0-1-.447-1-1s.447-1 1-1h3.001c.553 0 1 .447 1 1s-.447 1-1 1z"/><path d="m49.001 25.505c-.553 0-1-.447-1-1v-3.003c0-.553.447-1 1-1s1 .447 1 1v3.003c0 .553-.447 1-1 1z"/><path d="m46 25.506c-.553 0-1-.447-1-1v-15.59l-4.412-4.413h-19.587v16c0 .553-.447 1-1 1s-1-.447-1-1v-17c0-.553.447-1 1-1h21.001c.266 0 .52.105.707.293l4.998 4.999c.188.187.293.441.293.707v16.004c0 .553-.447 1-1 1z"/><path d="m41.002 9.503c-.553 0-1-.447-1-1v-5c0-.553.447-1 1-1s1 .447 1 1v5c0 .553-.447 1-1 1z"/><path d="m46 9.503h-4.998c-.553 0-1-.447-1-1s.447-1 1-1h4.998c.553 0 1 .447 1 1s-.447 1-1 1z"/><path d="m32.501 42.494c-4.136 0-7.5-3.364-7.5-7.5s3.364-7.5 7.5-7.5 7.5 3.364 7.5 7.5-3.364 7.5-7.5 7.5zm0-13c-3.032 0-5.5 2.468-5.5 5.5s2.468 5.5 5.5 5.5 5.5-2.468 5.5-5.5-2.468-5.5-5.5-5.5z"/><path d="m35.001 35.994h-5c-.553 0-1-.447-1-1s.447-1 1-1h5c.553 0 1 .447 1 1s-.447 1-1 1z"/><path d="m32.501 38.494c-.553 0-1-.447-1-1v-5c0-.553.447-1 1-1s1 .447 1 1v5c0 .553-.447 1-1 1z"/></g></svg>