<svg id="icons" enable-background="new 0 0 64 64" height="512" viewBox="0 0 64 64" width="512" xmlns="http://www.w3.org/2000/svg"><path d="m11 2v8.01h-10v-9.01h3l1 1z" fill="#cedbff"/><path d="m63 2v8.01h-10v-9.01h3l1 1z" fill="#cedbff"/><path d="m63 55v8h-10v-9h3l1 1z" fill="#cedbff"/><path d="m50 37c0 4.42-3.58 8-8 8h-21.5c-3.59 0-6.5-2.91-6.5-6.5v-4c0 3.59 2.91 6.5 6.5 6.5h21.5c4.42 0 8-3.58 8-8z" fill="#d7e9ff"/><path d="m42 25c4.42 0 8 3.58 8 8s-3.58 8-8 8h-21.5c-3.59 0-6.5-2.91-6.5-6.5s2.91-6.5 6.5-6.5h.68c.94-5.11 5.42-9 10.82-9 4.28 0 7.98 2.44 9.8 6z" fill="#fff"/><path d="m11 55v8h-10v-9h3l1 1z" fill="#cedbff"/><g fill="#0444f9"><path d="m11.003 11.005h-10.003c-.553 0-1-.447-1-1v-9.002c0-.553.447-1 1-1h3c.265 0 .52.105.707.293l.707.706h5.589c.553 0 1 .447 1 1v8.003c0 .553-.447 1-1 1zm-9.003-2h8.003v-6.003h-5.003c-.265 0-.52-.105-.707-.293l-.707-.706h-1.586z"/><path d="m63.002 11.005h-10.003c-.553 0-1-.447-1-1v-9.002c0-.553.447-1 1-1h3c.265 0 .52.105.707.293l.707.706h5.589c.553 0 1 .447 1 1v8.003c0 .553-.447 1-1 1zm-9.003-2h8.003v-6.003h-5.003c-.265 0-.52-.105-.707-.293l-.707-.706h-1.586z"/><path d="m11.003 64.001h-10.003c-.553 0-1-.447-1-1v-9.002c0-.553.447-1 1-1h3c.265 0 .52.105.707.293l.707.706h5.589c.553 0 1 .447 1 1v8.003c0 .553-.447 1-1 1zm-9.003-2h8.003v-6.003h-5.003c-.265 0-.52-.105-.707-.293l-.707-.706h-1.586z"/><path d="m63.002 64.001h-10.003c-.553 0-1-.447-1-1v-9.002c0-.553.447-1 1-1h3c.265 0 .52.105.707.293l.707.706h5.589c.553 0 1 .447 1 1v8.003c0 .553-.447 1-1 1zm-9.003-2h8.003v-6.003h-5.003c-.265 0-.52-.105-.707-.293l-.707-.706h-1.586z"/><path d="m6.002 51.002c-.553 0-1-.447-1-1v-36c0-.553.447-1 1-1s1 .447 1 1v36c0 .553-.447 1-1 1z"/><path d="m58 51.002c-.553 0-1-.447-1-1v-36c0-.553.447-1 1-1s1 .447 1 1v36c0 .553-.447 1-1 1z"/><path d="m49 7.002h-34c-.553 0-1-.447-1-1s.447-1 1-1h34c.553 0 1 .447 1 1s-.447 1-1 1z"/><path d="m49 60.001h-34c-.553 0-1-.447-1-1s.447-1 1-1h34c.553 0 1 .447 1 1s-.447 1-1 1z"/><path d="m42 41.998h-21.5c-.553 0-1-.447-1-1s.447-1 1-1h21.5c.553 0 1 .447 1 1s-.447 1-1 1z"/><path d="m43 31.002c-.553 0-1-.447-1-1 0-5.514-4.486-10-10-10s-10 4.486-10 10c0 .553-.447 1-1 1s-1-.447-1-1c0-6.617 5.383-12 12-12s12 5.383 12 12c0 .553-.447 1-1 1z"/><path d="m42 41.998c-.553 0-1-.447-1-1s.447-1 1-1c3.859 0 7-3.139 7-6.997 0-3.859-3.141-6.999-7-6.999-.553 0-1-.447-1-1s.447-1 1-1c4.963 0 9 4.037 9 8.999 0 4.961-4.037 8.997-9 8.997z"/><path d="m20.5 41.998c-4.136 0-7.5-3.364-7.5-7.499 0-4.134 3.364-7.497 7.5-7.497.553 0 1 .447 1 1s-.447 1-1 1c-3.032 0-5.5 2.466-5.5 5.497 0 3.032 2.468 5.499 5.5 5.499.553 0 1 .447 1 1s-.447 1-1 1z"/><path d="m42 46.002h-21.5c-.553 0-1-.447-1-1s.447-1 1-1h21.5c.553 0 1 .447 1 1s-.447 1-1 1z"/><path d="m42 46.002c-.553 0-1-.447-1-1s.447-1 1-1c3.859 0 7-3.14 7-6.998 0-.553.447-1 1-1s1 .447 1 1c0 4.962-4.037 8.998-9 8.998z"/><path d="m20.5 46.002c-4.136 0-7.5-3.364-7.5-7.499 0-.553.447-1 1-1s1 .447 1 1c0 3.032 2.468 5.499 5.5 5.499.553 0 1 .447 1 1s-.447 1-1 1z"/><path d="m21.182 29.002h-.682c-.553 0-1-.447-1-1s.447-1 1-1h.682c.553 0 1 .447 1 1s-.448 1-1 1z"/><path d="m42 26.002h-.199c-.553 0-1-.447-1-1s.447-1 1-1h.199c.553 0 1 .447 1 1s-.447 1-1 1z"/><path d="m14 39.503c-.553 0-1-.447-1-1v-4.004c0-.553.447-1 1-1s1 .447 1 1v4.004c0 .553-.447 1-1 1z"/><path d="m50 38.004c-.553 0-1-.447-1-1v-4.003c0-.553.447-1 1-1s1 .447 1 1v4.003c0 .553-.447 1-1 1z"/></g></svg>