<svg id="icons" enable-background="new 0 0 64 64" height="512" viewBox="0 0 64 64" width="512" xmlns="http://www.w3.org/2000/svg"><path d="m11 57.995 1 2.99h-6l1-2.99z" fill="#cedbff"/><path d="m11 57.995h-4-5c-.55 0-1-.45-1-1v-10c0-.55.45-1 1-1h14c.55 0 1 .45 1 1v10c0 .55-.45 1-1 1z" fill="#d7e9ff"/><path d="m63 46.995v10c0 .55-.45 1-1 1h-14c-.55 0-1-.45-1-1v-10c0-.55.45-1 1-1h14c.55 0 1 .45 1 1z" fill="#d7e9ff"/><path d="m37 46.995v13c0 .55-.45 1-1 1h-8c-.55 0-1-.45-1-1v-13c0-.55.45-1 1-1h8c.55 0 1 .45 1 1z" fill="#d7e9ff"/><path d="m50 21.005c0 4.42-3.58 8-8 8h-9.96-11.54c-3.59 0-6.5-2.909-6.5-6.5v-4c0 3.58 2.91 6.49 6.5 6.49h21.5c4.42 0 8-3.58 8-7.99z" fill="#d7e9ff"/><path d="m42 9.005c4.42 0 8 3.58 8 8 0 4.41-3.58 7.99-8 7.99h-21.5c-3.59 0-6.5-2.91-6.5-6.49 0-3.59 2.91-6.5 6.5-6.5h.68c.94-5.119 5.42-9 10.82-9 4.27 0 7.98 2.44 9.8 6z" fill="#fff"/><g fill="#0444f9"><path d="m15.997 58.992h-13.996c-1.103 0-2-.897-2-2v-9.998c0-1.103.897-2 2-2h13.996c1.103 0 2 .897 2 2v9.998c0 1.103-.897 2-2 2zm0-2v1zm-13.996-9.998v9.998h13.992l.004-9.998z"/><path d="m5.999 61.986c-.104 0-.211-.017-.316-.052-.523-.174-.807-.74-.632-1.265l1-3c.175-.523.737-.807 1.265-.632.523.174.807.74.632 1.265l-1 3c-.14.42-.53.684-.949.684z"/><path d="m11.999 61.986c-.419 0-.809-.265-.948-.684l-1-3c-.175-.524.108-1.091.632-1.265.527-.175 1.09.108 1.265.632l1 3c.175.524-.108 1.091-.632 1.265-.106.036-.212.052-.317.052z"/><path d="m12.999 61.986h-8c-.553 0-1-.447-1-1s.447-1 1-1h8c.553 0 1 .447 1 1s-.447 1-1 1z"/><path d="m36.001 61.998h-8.002c-1.103 0-2-.897-2-2v-13.004c0-1.103.897-2 2-2h8.002c1.103 0 2 .897 2 2v13.004c0 1.103-.897 2-2 2zm0-2v1zm-8.002-13.004v13.004h7.998l.004-13.004z"/><path d="m32.03 58.998c-.553 0-1.005-.447-1.005-1s.442-1 .994-1h.011c.552 0 1 .447 1 1s-.448 1-1 1z"/><path d="m61.999 58.992h-13.996c-1.103 0-2-.897-2-2v-9.998c0-1.103.897-2 2-2h13.996c1.103 0 2 .897 2 2v9.998c0 1.103-.897 2-2 2zm0-2v1zm-13.996-9.998v9.998h13.992l.004-9.998z"/><path d="m61.033 52.997c-.553 0-1.005-.447-1.005-1s.442-1 .994-1h.011c.552 0 1 .447 1 1s-.448 1-1 1z"/><path d="m8.018 43.988c-.553 0-1-.447-1-1v-6.998c0-.553.447-1 1-1s1 .447 1 1v6.998c0 .553-.448 1-1 1z"/><path d="m55.001 36.99h-46.983c-.553 0-1-.447-1-1s.447-1 1-1h46.983c.553 0 1 .447 1 1s-.447 1-1 1z"/><path d="m55.001 43.992c-.553 0-1-.447-1-1v-7.002c0-.553.447-1 1-1s1 .447 1 1v7.002c0 .553-.447 1-1 1z"/><path d="m32.041 43.992c-.553 0-1-.447-1-1v-16.002c0-.553.447-1 1-1s1 .447 1 1v16.002c0 .553-.447 1-1 1z"/><path d="m42 25.998h-21.5c-.553 0-1-.447-1-1s.447-1 1-1h21.5c.553 0 1 .447 1 1s-.447 1-1 1z"/><path d="m43 15.002c-.553 0-1-.447-1-1 0-5.514-4.486-10-10-10s-10 4.486-10 10c0 .553-.447 1-1 1s-1-.447-1-1c0-6.617 5.383-12 12-12s12 5.383 12 12c0 .553-.447 1-1 1z"/><path d="m42 25.998c-.553 0-1-.447-1-1s.447-1 1-1c3.859 0 7-3.139 7-6.996 0-3.859-3.141-7-7-7-.553 0-1-.447-1-1s.447-1 1-1c4.963 0 9 4.037 9 9 0 4.961-4.037 8.996-9 8.996z"/><path d="m20.5 25.998c-4.136 0-7.5-3.363-7.5-7.498s3.364-7.498 7.5-7.498c.553 0 1 .447 1 1s-.447 1-1 1c-3.032 0-5.5 2.467-5.5 5.498s2.468 5.498 5.5 5.498c.553 0 1 .447 1 1s-.447 1-1 1z"/><path d="m42 30.002h-21.5c-.553 0-1-.447-1-1s.447-1 1-1h21.5c.553 0 1 .447 1 1s-.447 1-1 1z"/><path d="m42 30.002c-.553 0-1-.447-1-1s.447-1 1-1c3.859 0 7-3.14 7-6.998 0-.553.447-1 1-1s1 .447 1 1c0 4.962-4.037 8.998-9 8.998z"/><path d="m20.5 30.002c-4.136 0-7.5-3.363-7.5-7.498 0-.553.447-1 1-1s1 .447 1 1c0 3.031 2.468 5.498 5.5 5.498.553 0 1 .447 1 1s-.447 1-1 1z"/><path d="m21.182 13.002h-.682c-.553 0-1-.447-1-1s.447-1 1-1h.682c.553 0 1 .447 1 1s-.448 1-1 1z"/><path d="m42 10.002h-.199c-.553 0-1-.447-1-1s.447-1 1-1h.199c.553 0 1 .447 1 1s-.447 1-1 1z"/><path d="m14 23.504c-.553 0-1-.447-1-1v-4.004c0-.553.447-1 1-1s1 .447 1 1v4.004c0 .553-.447 1-1 1z"/><path d="m50 22.004c-.553 0-1-.447-1-1v-4.002c0-.553.447-1 1-1s1 .447 1 1v4.002c0 .553-.447 1-1 1z"/></g></svg>