<svg id="icons" enable-background="new 0 0 64 64" height="512" viewBox="0 0 64 64" width="512" xmlns="http://www.w3.org/2000/svg"><path d="m40.49 18.015c3.09.25 5.51 2.83 5.51 5.98 0 3.31-2.69 5.99-6 5.99h-17c-2.76 0-5-2.24-5-4.99 0-2.76 2.24-4.99 5-4.99h.06c.49-4.5 4.301-8 8.94-8 3.92 0 7.26 2.51 8.48 6.01z" fill="#d7e9ff"/><path d="m40 29.985c3.31 0 6-2.681 6-5.99v3c0 3.31-2.69 5.99-6 5.99h-17c-2.76 0-5-2.23-5-4.99v-3c0 2.75 2.24 4.99 5 4.99z" fill="#cedbff"/><path d="m18 27.995c0 2.76 2.24 4.99 5 4.99h17c3.31 0 6-2.681 6-5.99v-3c0-3.15-2.42-5.73-5.51-5.98h-.01c-1.221-3.5-4.561-6.01-8.48-6.01-4.64 0-8.45 3.5-8.94 8h-.06c-2.76 0-5 2.23-5 4.99zm37-4c0 8.3-4.4 15.58-11 19.62v3.38h-24v-3.38c-6.6-4.04-11-11.32-11-19.62 0-12.71 10.3-23 23-23s23 10.29 23 23z" fill="#fff"/><path d="m26.79 59.995h10.42c-1.04 1.8-2.979 3.01-5.21 3.01s-4.17-1.21-5.21-3.01z" fill="#cedbff"/><path d="m20 46.995v4.96 4 2.04l2 2h4.79 10.42 4.79l2-2v-2.96-4-4.04z" fill="#d7e9ff"/><g fill="#0444f9"><path d="m44 47.991h-24c-.553 0-1-.447-1-1v-2.824c-6.899-4.446-11-11.947-11-20.176 0-13.233 10.767-24 24-24s24 10.767 24 24c0 8.229-4.101 15.729-11 20.176v2.824c0 .553-.447 1-1 1zm-23-2h22v-2.377c0-.348.181-.671.478-.853 6.588-4.037 10.522-11.054 10.522-18.77 0-12.131-9.869-22-22-22s-22 9.869-22 22c0 7.716 3.934 14.732 10.522 18.771.297.181.478.505.478.852z"/><path d="m41.999 60.991h-19.999c-.266 0-.52-.105-.707-.293l-2-2c-.188-.187-.293-.441-.293-.707v-11c0-.553.447-1 1-1h24c.553 0 1 .447 1 1v11c0 .266-.105.52-.293.707l-2.001 2c-.187.188-.442.293-.707.293zm-19.585-2h19.171l1.415-1.414v-9.586h-22v9.586z"/><path d="m18.999 52.991c-.534 0-.978-.423-.998-.962-.021-.552.409-1.017.961-1.037l26-1c.53-.043 1.017.408 1.037.961.021.552-.409 1.017-.961 1.037l-26 1c-.013.001-.025.001-.039.001z"/><path d="m18.999 56.991c-.534 0-.978-.423-.998-.962-.021-.552.409-1.017.961-1.037l26-1c.53-.032 1.017.408 1.037.961.021.552-.409 1.017-.961 1.037l-26 1c-.013.001-.025.001-.039.001z"/><path d="m32 64.009c-2.501 0-4.829-1.349-6.074-3.52-.275-.479-.109-1.091.369-1.365.479-.274 1.091-.109 1.365.369.891 1.552 2.553 2.516 4.34 2.516s3.449-.964 4.34-2.516c.273-.479.885-.645 1.365-.369.479.274.645.886.369 1.365-1.245 2.171-3.573 3.52-6.074 3.52z"/><path d="m39.998 30.984h-17c-.553 0-1-.448-1-1s.447-1 1-1h17c.553 0 1 .448 1 1s-.447 1-1 1z"/><path d="m40.996 21.997c-.553 0-1-.448-1-1 0-4.41-3.587-7.997-7.996-7.997s-7.996 3.587-7.996 7.996c0 .552-.447 1-1 1s-1-.448-1-1c0-5.511 4.484-9.996 9.996-9.996s9.996 4.484 9.996 9.996c0 .553-.447 1.001-1 1.001z"/><path d="m39.998 30.985c-.553 0-1-.448-1-1s.447-1 1-1c2.757 0 5-2.24 5-4.993 0-2.588-2.02-4.776-4.599-4.981-.551-.044-.962-.525-.918-1.076.045-.55.518-.961 1.076-.918 3.611.287 6.44 3.351 6.44 6.975.001 3.856-3.14 6.993-6.999 6.993z"/><path d="m22.998 30.984c-3.307 0-5.996-2.687-5.996-5.99 0-3.305 2.689-5.994 5.996-5.994.553 0 1 .448 1 1s-.447 1-1 1c-2.203 0-3.996 1.792-3.996 3.994 0 2.2 1.793 3.99 3.996 3.99.553 0 1 .448 1 1s-.447 1-1 1z"/><path d="m23.059 21h-.061c-.553 0-1-.448-1-1s.447-1 1-1 1.03.448 1.03 1-.417 1-.969 1z"/><path d="m39.998 33.986h-17c-.553 0-1-.448-1-1s.447-1 1-1h17c.553 0 1 .448 1 1s-.447 1-1 1z"/><path d="m39.998 33.986c-.553 0-1-.447-1-1s.447-1 1-1c2.757 0 5-2.24 5-4.993 0-.552.447-1 1-1s1 .448 1 1c0 3.857-3.141 6.993-7 6.993z"/><path d="m22.998 33.986c-3.307 0-5.996-2.688-5.996-5.99 0-.552.447-1 1-1s1 .448 1 1c0 2.2 1.793 3.99 3.996 3.99.553 0 1 .448 1 1s-.447 1-1 1z"/><path d="m18.002 28.996c-.553 0-1-.448-1-1v-3.001c0-.552.447-1 1-1s1 .448 1 1v3.001c0 .552-.447 1-1 1z"/><path d="m45.998 27.994c-.553 0-1-.448-1-1v-3.001c0-.552.447-1 1-1s1 .448 1 1v3.001c0 .552-.447 1-1 1z"/></g></svg>