<svg id="icons" enable-background="new 0 0 64 64" height="512" viewBox="0 0 64 64" width="512" xmlns="http://www.w3.org/2000/svg"><path d="m49.25 21.51c-3.021-6.5-9.61-11.01-17.25-11.01-9.81 0-17.89 7.45-18.89 17h-1.11c-6.069 0-11 4.93-11 11 0 6.08 4.931 11 11 11h37c7.73 0 14-6.27 14-14 0-7.65-6.13-13.85-13.75-13.99z" fill="#fff"/><path d="m63 39.5c0 7.74-6.27 14-14 14h-37c-6.069 0-11-4.92-11-11v-4c0 6.08 4.931 11 11 11h37c7.73 0 14-6.27 14-14z" fill="#d7e9ff"/><path d="m32 27.5c-1.101 0-2 .89-2 2 0 1.1.899 2 2 2 1.11 0 2-.9 2-2 0-1.11-.89-2-2-2zm.06-10c6.621 0 12 5.37 12 12 0 6.62-5.379 12-12 12-6.629 0-12-5.38-12-12 0-2.18.58-4.22 1.59-5.98 1.051-1.81 2.551-3.329 4.36-4.39 1.761-1.03 3.81-1.62 5.99-1.63z" fill="#d7e9ff"/><path d="m32 27.5c1.11 0 2 .89 2 2 0 1.1-.89 2-2 2-1.101 0-2-.9-2-2 0-1.11.899-2 2-2z" fill="#cedbff"/><path d="m44.06 29.5c0-6.63-5.379-12-12-12-.02 0-.039 0-.06 0-2.181.01-4.229.6-5.99 1.63-1.81 1.061-3.31 2.58-4.36 4.39-1.01 1.761-1.59 3.801-1.59 5.98 0 6.62 5.371 12 12 12 6.621 0 12-5.38 12-12zm-12-15c8.28 0 15 6.71 15 15 0 8.28-6.72 15-15 15-8.289 0-15-6.72-15-15 0-8.29 6.711-15 15-15z" fill="#cedbff"/><g fill="#0444f9"><path d="m12.001 50.5c-6.617 0-12-5.383-12-12s5.383-12 12-12c.553 0 1 .447 1 1s-.447 1-1 1c-5.514 0-10 4.486-10 10s4.486 10 10 10c.553 0 1 .447 1 1s-.447 1-1 1z"/><path d="m49.001 50.5c-.553 0-1-.447-1-1s.447-1 1-1c7.168 0 13-5.832 13-13 0-7.052-5.739-12.878-12.794-12.988-.552-.009-.993-.464-.984-1.016.009-.547.455-.984 1-.984h.016c8.141.127 14.763 6.851 14.763 14.988-.001 8.271-6.73 15-15.001 15z"/><path d="m51.001 30.5c-.553 0-1-.447-1-1 0-1.285-.136-2.566-.403-3.807-1.77-8.225-9.17-14.193-17.597-14.193-9.925 0-18 8.075-18 18 0 .553-.447 1-1 1s-1-.447-1-1c0-11.028 8.972-20 20-20 9.362 0 17.585 6.633 19.552 15.772.298 1.378.448 2.801.448 4.228 0 .553-.447 1-1 1z"/><path d="m13.105 28.5h-1.104c-.553 0-1-.447-1-1s.447-1 1-1h1.104c.553 0 1 .447 1 1s-.447 1-1 1z"/><path d="m49.001 50.5h-37c-.553 0-1-.447-1-1s.447-1 1-1h37c.553 0 1 .447 1 1s-.447 1-1 1z"/><path d="m12.001 54.504c-6.617 0-12-5.384-12-12.002 0-.553.447-1 1-1s1 .447 1 1c0 5.515 4.486 10.002 10 10.002.553 0 1 .447 1 1s-.447 1-1 1z"/><path d="m49.001 54.504c-.553 0-1-.447-1-1s.447-1 1-1c7.168 0 13-5.833 13-13.002 0-.553.447-1 1-1s1 .447 1 1c0 8.272-6.729 15.002-15 15.002z"/><path d="m49.001 54.504h-37c-.553 0-1-.447-1-1s.447-1 1-1h37c.553 0 1 .447 1 1s-.447 1-1 1z"/><path d="m63.001 40.502c-.553 0-1-.447-1-1v-4.002c0-.553.447-1 1-1s1 .447 1 1v4.002c0 .553-.447 1-1 1z"/><path d="m1.001 43.502c-.553 0-1-.447-1-1v-4.002c0-.553.447-1 1-1s1 .447 1 1v4.002c0 .553-.447 1-1 1z"/><path d="m32.054 45.498c-8.822 0-16-7.178-16-16s7.178-16 16-16 16 7.178 16 16-7.178 16-16 16zm0-30c-7.72 0-14 6.28-14 14s6.28 14 14 14 14-6.28 14-14-6.281-14-14-14z"/><path d="m32.054 42.498c-7.168 0-13-5.832-13-13s5.832-13 13-13 13 5.832 13 13-5.832 13-13 13zm0-24c-6.065 0-11 4.935-11 11s4.935 11 11 11 11-4.935 11-11-4.935-11-11-11z"/><path d="m32.001 19.498c-.553 0-1-.447-1-1v-1c0-.553.447-1 1-1s1 .447 1 1v1c0 .553-.447 1-1 1z"/><path d="m26.502 20.971c-.346 0-.682-.179-.867-.5l-.5-.865c-.276-.478-.112-1.09.366-1.366.477-.276 1.09-.113 1.366.366l.5.865c.276.478.112 1.09-.366 1.366-.157.091-.329.134-.499.134z"/><path d="m22.474 24.998c-.17 0-.342-.043-.499-.134l-.866-.5c-.479-.276-.643-.888-.366-1.366.276-.478.888-.642 1.366-.366l.866.5c.479.276.643.888.366 1.366-.186.32-.522.5-.867.5z"/><path d="m21.001 30.498h-1c-.553 0-1-.447-1-1s.447-1 1-1h1c.553 0 1 .447 1 1s-.447 1-1 1z"/><path d="m44.002 30.498h-.999c-.553 0-1-.447-1-1s.447-1 1-1h.999c.553 0 1 .447 1 1s-.447 1-1 1z"/><path d="m41.53 24.998c-.346 0-.682-.179-.867-.5-.276-.478-.112-1.09.366-1.366l.865-.5c.477-.275 1.089-.113 1.366.366.276.478.112 1.09-.366 1.366l-.865.5c-.157.091-.329.134-.499.134z"/><path d="m37.502 20.971c-.17 0-.342-.043-.499-.134-.479-.276-.643-.889-.366-1.366l.5-.865c.276-.479.888-.643 1.366-.366s.643.889.366 1.366l-.5.865c-.185.321-.521.5-.867.5z"/><path d="m32.001 32.5c-1.654 0-3-1.346-3-3s1.346-3 3-3 3 1.346 3 3-1.346 3-3 3zm0-4c-.552 0-1 .448-1 1s.448 1 1 1 1-.448 1-1-.448-1-1-1z"/><path d="m32.001 28.5c-.553 0-1-.447-1-1v-6.002c0-.553.447-1 1-1s1 .447 1 1v6.002c0 .553-.447 1-1 1z"/><path d="m35.001 36.5h-6c-.553 0-1-.447-1-1s.447-1 1-1h6c.553 0 1 .447 1 1s-.447 1-1 1z"/></g></svg>