<svg id="icons" enable-background="new 0 0 64 64" height="512" viewBox="0 0 64 64" width="512" xmlns="http://www.w3.org/2000/svg"><path d="m18 33.01h28v8h-28z" fill="#cedbff"/><path d="m46 25.01h-28v-2.65-5.35h28v5.35z" fill="#cedbff"/><path d="m43 13.01 3 4h-28l3-4z" fill="#5c9eff"/><path d="m32 49c-3.67 0-7.07-1.17-9.85-3.15-1.62-1.15-3.02-2.58-4.15-4.21v-.63h28v.63c-3.07 4.45-8.2 7.36-14 7.36z" fill="#cedbff"/><path d="m18 25.01h28v8h-28z" fill="#cedbff"/><path d="m43 13.01h-22l-3 4v5.351c-1.89 2.739-3 6.06-3 9.64s1.11 6.9 3 9.64c1.13 1.63 2.53 3.061 4.15 4.21 2.78 1.979 6.18 3.149 9.85 3.149 5.8 0 10.93-2.91 14-7.36 1.89-2.739 3-6.06 3-9.64s-1.11-6.9-3-9.64v-5.35zm20 12.99v12h-4.68c-.681 3.01-1.87 5.83-3.471 8.37l3.311 3.31-8.48 8.48-3.31-3.311c-2.54 1.601-5.36 2.79-8.37 3.471v4.68h-12v-4.68c-3.01-.681-5.83-1.87-8.37-3.471l-3.31 3.311-8.48-8.48 3.3-3.31c-1.59-2.54-2.78-5.36-3.46-8.37h-4.68v-12h4.68c.681-3.01 1.87-5.83 3.46-8.37l-3.3-3.31 8.48-8.48 3.31 3.311c2.54-1.601 5.36-2.791 8.37-3.471v-4.68h12v4.68c3.01.681 5.83 1.87 8.37 3.471l3.31-3.311 8.48 8.48-3.311 3.31c1.601 2.54 2.79 5.36 3.471 8.37z" fill="#d7e9ff"/><g fill="#0444f9"><path d="m38.001 64.002h-12c-.553 0-1-.447-1-1v-3.891c-2.536-.652-4.958-1.656-7.218-2.991l-2.753 2.752c-.375.375-1.039.375-1.414 0l-8.485-8.485c-.188-.188-.293-.441-.293-.707s.105-.52.293-.707l2.752-2.753c-1.335-2.26-2.339-4.682-2.991-7.218h-3.891c-.553 0-1-.447-1-1v-12c0-.553.447-1 1-1h3.891c.652-2.536 1.656-4.958 2.991-7.218l-2.752-2.753c-.188-.188-.293-.441-.293-.707s.105-.52.293-.707l8.485-8.485c.375-.375 1.039-.375 1.414 0l2.753 2.752c2.26-1.335 4.682-2.339 7.218-2.991v-3.891c0-.553.447-1 1-1h12c.553 0 1 .447 1 1v3.891c2.536.652 4.958 1.656 7.218 2.991l2.753-2.752c.375-.375 1.039-.375 1.414 0l8.485 8.485c.188.188.293.441.293.707s-.105.52-.293.707l-2.752 2.753c1.335 2.26 2.339 4.682 2.991 7.218h3.891c.553 0 1 .447 1 1v12c0 .553-.447 1-1 1h-3.891c-.652 2.536-1.656 4.958-2.991 7.218l2.752 2.753c.188.188.293.441.293.707s-.105.52-.293.707l-8.485 8.485c-.375.375-1.039.375-1.414 0l-2.753-2.752c-2.26 1.335-4.682 2.339-7.218 2.991v3.891c0 .553-.447 1-1 1zm-11-2h10v-3.678c0-.467.323-.872.778-.976 2.858-.648 5.569-1.771 8.058-3.339.395-.246.908-.191 1.24.14l2.602 2.602 7.071-7.071-2.602-2.602c-.33-.33-.388-.845-.14-1.24 1.567-2.488 2.69-5.199 3.339-8.058.104-.455.509-.778.976-.778h3.678v-10h-3.678c-.467 0-.872-.323-.976-.778-.648-2.858-1.771-5.569-3.339-8.058-.248-.396-.19-.91.14-1.24l2.602-2.602-7.071-7.071-2.602 2.602c-.332.331-.846.386-1.24.14-2.488-1.567-5.199-2.69-8.058-3.339-.455-.104-.778-.509-.778-.976v-3.678h-10v3.678c0 .467-.323.872-.778.976-2.858.648-5.569 1.771-8.058 3.339-.395.246-.909.191-1.24-.14l-2.602-2.602-7.071 7.071 2.602 2.602c.33.33.388.845.14 1.24-1.567 2.488-2.69 5.199-3.339 8.058-.104.455-.509.778-.976.778h-3.678v10h3.678c.467 0 .872.323.976.778.648 2.858 1.771 5.569 3.339 8.058.248.396.19.91-.14 1.24l-2.602 2.602 7.071 7.071 2.602-2.602c.331-.331.846-.386 1.24-.14 2.488 1.567 5.199 2.69 8.058 3.339.455.104.778.509.778.976z"/><path d="m32.001 50.002c-9.925 0-18-8.075-18-18 0-3.667 1.098-7.196 3.175-10.206.314-.456.936-.567 1.392-.255.454.313.568.937.255 1.392-1.846 2.674-2.821 5.81-2.821 9.069 0 8.822 7.178 16 16 16s16-7.178 16-16c0-3.259-.976-6.396-2.821-9.07-.313-.455-.199-1.078.255-1.392.456-.313 1.077-.2 1.392.255 2.077 3.011 3.175 6.54 3.175 10.207-.002 9.925-8.077 18-18.002 18z"/><path d="m43.032 22.01c-.553 0-1.005-.447-1.005-1s.442-1 .994-1h.011c.552 0 1 .447 1 1s-.448 1-1 1z"/><path d="m46.002 26.01h-28.003c-.553 0-1-.447-1-1v-8c0-.553.447-1 1-1h28.003c.553 0 1 .447 1 1v8c0 .553-.447 1-1 1zm-27.003-2h26.003v-6h-26.003z"/><path d="m21.999 23.01c-.256 0-.512-.098-.707-.293-.391-.391-.391-1.023 0-1.414l2-2c.391-.391 1.023-.391 1.414 0s.391 1.023 0 1.414l-2 2c-.195.195-.451.293-.707.293z"/><path d="m26.999 23.01c-.256 0-.512-.098-.707-.293-.391-.391-.391-1.023 0-1.414l2-2c.391-.391 1.023-.391 1.414 0s.391 1.023 0 1.414l-2 2c-.195.195-.451.293-.707.293z"/><path d="m31.999 23.01c-.256 0-.512-.098-.707-.293-.391-.391-.391-1.023 0-1.414l2-2c.391-.391 1.023-.391 1.414 0s.391 1.023 0 1.414l-2 2c-.195.195-.451.293-.707.293z"/><path d="m43.032 30.01c-.553 0-1.005-.447-1.005-1s.442-1 .994-1h.011c.552 0 1 .447 1 1s-.448 1-1 1z"/><path d="m46.002 34.01h-28.003c-.553 0-1-.447-1-1v-8c0-.553.447-1 1-1h28.003c.553 0 1 .447 1 1v8c0 .553-.447 1-1 1zm-27.003-2h26.003v-6h-26.003z"/><path d="m21.999 31.01c-.256 0-.512-.098-.707-.293-.391-.391-.391-1.023 0-1.414l2-2c.391-.391 1.023-.391 1.414 0s.391 1.023 0 1.414l-2 2c-.195.195-.451.293-.707.293z"/><path d="m26.999 31.01c-.256 0-.512-.098-.707-.293-.391-.391-.391-1.023 0-1.414l2-2c.391-.391 1.023-.391 1.414 0s.391 1.023 0 1.414l-2 2c-.195.195-.451.293-.707.293z"/><path d="m31.999 31.01c-.256 0-.512-.098-.707-.293-.391-.391-.391-1.023 0-1.414l2-2c.391-.391 1.023-.391 1.414 0s.391 1.023 0 1.414l-2 2c-.195.195-.451.293-.707.293z"/><path d="m43.032 38.01c-.553 0-1.005-.447-1.005-1s.442-1 .994-1h.011c.552 0 1 .447 1 1s-.448 1-1 1z"/><path d="m46.002 42.01h-28.003c-.553 0-1-.447-1-1v-8c0-.553.447-1 1-1h28.003c.553 0 1 .447 1 1v8c0 .553-.447 1-1 1zm-27.003-2h26.003v-6h-26.003z"/><path d="m21.999 39.01c-.256 0-.512-.098-.707-.293-.391-.391-.391-1.023 0-1.414l2-2c.391-.391 1.023-.391 1.414 0s.391 1.023 0 1.414l-2 2c-.195.195-.451.293-.707.293z"/><path d="m26.999 39.01c-.256 0-.512-.098-.707-.293-.391-.391-.391-1.023 0-1.414l2-2c.391-.391 1.023-.391 1.414 0s.391 1.023 0 1.414l-2 2c-.195.195-.451.293-.707.293z"/><path d="m31.999 39.01c-.256 0-.512-.098-.707-.293-.391-.391-.391-1.023 0-1.414l2-2c.391-.391 1.023-.391 1.414 0s.391 1.023 0 1.414l-2 2c-.195.195-.451.293-.707.293z"/><path d="m46.002 42.644c-.423 0-.785-.263-.931-.634h-26.142c-.146.369-.508.631-.93.631-.553 0-1-.447-1-1v-.631c0-.553.447-1 1-1h28.003c.553 0 1 .447 1 1v.634c0 .552-.447 1-1 1z"/><path d="m22.155 46.854c-.256 0-.512-.098-.707-.293-.391-.391-.391-1.023 0-1.414l1.844-1.844c.391-.391 1.023-.391 1.414 0s.391 1.023 0 1.414l-1.844 1.844c-.195.195-.451.293-.707.293z"/><path d="m26.999 47.01c-.256 0-.512-.098-.707-.293-.391-.391-.391-1.023 0-1.414l2-2c.391-.391 1.023-.391 1.414 0s.391 1.023 0 1.414l-2 2c-.195.195-.451.293-.707.293z"/><path d="m31.999 47.01c-.256 0-.512-.098-.707-.293-.391-.391-.391-1.023 0-1.414l2-2c.391-.391 1.023-.391 1.414 0s.391 1.023 0 1.414l-2 2c-.195.195-.451.293-.707.293z"/><path d="m17.998 18.01c-.209 0-.419-.065-.599-.2-.442-.331-.532-.958-.2-1.399l3-4c.331-.442.959-.53 1.399-.2.442.331.532.958.2 1.399l-3 4c-.195.262-.495.4-.8.4z"/><path d="m46.003 18.01c-.305 0-.604-.138-.801-.4l-3-4c-.332-.441-.242-1.068.2-1.399.441-.331 1.067-.243 1.399.2l3 4c.332.441.242 1.068-.2 1.399-.179.134-.389.2-.598.2z"/><path d="m43.002 14.01h-22.003c-.553 0-1-.447-1-1s.447-1 1-1h22.003c.553 0 1 .447 1 1s-.447 1-1 1z"/><path d="m32.001 55.002c-12.683 0-23-10.317-23-23 0-.553.447-1 1-1s1 .447 1 1c0 11.579 9.421 21 21 21 .553 0 1 .447 1 1s-.447 1-1 1z"/><path d="m54.001 33.002c-.553 0-1-.447-1-1 0-11.579-9.421-21-21-21-.553 0-1-.447-1-1s.447-1 1-1c12.683 0 23 10.317 23 23 0 .553-.447 1-1 1z"/></g></svg>