<svg id="icons" enable-background="new 0 0 64 64" height="512" viewBox="0 0 64 64" width="512" xmlns="http://www.w3.org/2000/svg"><path d="m51 10c2.12 0 3.85 1.641 3.99 3.74-1.13.8-2.5 1.26-3.99 1.26s-2.86-.46-3.99-1.26c.14-2.099 1.87-3.74 3.99-3.74z" fill="#fff"/><path d="m53 8c0 1.101-.9 2-2 2s-2-.899-2-2c0-1.109.9-2 2-2s2 .891 2 2z" fill="#d7e9ff"/><path d="m49 8c0 1.101.9 2 2 2-2.12 0-3.85 1.641-3.99 3.74-1.82-1.25-3.01-3.36-3.01-5.74 0-3.87 3.13-7 7-7s7 3.13 7 7c0 2.38-1.19 4.49-3.01 5.74-.14-2.099-1.87-3.74-3.99-3.74 1.1 0 2-.899 2-2 0-1.109-.9-2-2-2s-2 .891-2 2z" fill="#cedbff"/><path d="m34 8c0 1.101-.9 2-2 2s-2-.899-2-2c0-1.109.9-2 2-2s2 .891 2 2z" fill="#d7e9ff"/><path d="m32 10c2.12 0 3.85 1.641 3.99 3.74-1.13.8-2.5 1.26-3.99 1.26s-2.86-.46-3.99-1.26c.13-2.099 1.86-3.74 3.99-3.74z" fill="#fff"/><path d="m30 8c0 1.101.9 2 2 2-2.13 0-3.86 1.641-3.99 3.74-1.82-1.25-3.01-3.36-3.01-5.74 0-3.87 3.13-7 7-7s7 3.13 7 7c0 2.38-1.19 4.49-3.01 5.74-.14-2.099-1.87-3.74-3.99-3.74 1.1 0 2-.899 2-2 0-1.109-.9-2-2-2s-2 .891-2 2z" fill="#cedbff"/><path d="m13 10c2.12 0 3.85 1.641 3.99 3.74-1.13.79-2.51 1.26-3.99 1.26-1.49 0-2.87-.47-4-1.27.14-2.089 1.88-3.73 4-3.73z" fill="#fff"/><path d="m15 8c0 1.101-.9 2-2 2-1.11 0-2-.899-2-2 0-1.109.89-2 2-2 1.1 0 2 .891 2 2z" fill="#d7e9ff"/><path d="m11 8c0 1.101.89 2 2 2-2.12 0-3.86 1.641-4 3.73-1.82-1.25-3-3.36-3-5.73 0-3.87 3.13-7 7-7 3.86 0 7 3.13 7 7 0 2.38-1.19 4.48-3.01 5.74-.14-2.099-1.87-3.74-3.99-3.74 1.1 0 2-.899 2-2 0-1.109-.9-2-2-2-1.11 0-2 .891-2 2z" fill="#cedbff"/><path d="m4 49.03c0 5.52 4.48 10 10 10h33.5c6.9 0 12.5-5.6 12.5-12.5v3.97c0 6.9-5.6 12.5-12.5 12.5h-33.5c-5.52 0-10-4.479-10-10z" fill="#d7e9ff"/><path d="m15.12 39.05c.97-8.46 8.16-15.02 16.88-15.02 6.89 0 12.83 4.1 15.49 10h.01c6.9 0 12.5 5.59 12.5 12.5 0 6.9-5.6 12.5-12.5 12.5h-33.5c-5.52 0-10-4.48-10-10 0-5.53 4.48-10 10-10h1z" fill="#fff"/><g fill="#0444f9"><path d="m12.999 16.002c-4.411 0-8-3.589-8-8s3.589-8 8-8 8 3.589 8 8-3.589 8-8 8zm0-14c-3.309 0-6 2.691-6 6s2.691 6 6 6 6-2.691 6-6-2.691-6-6-6z"/><path d="m12.999 11.002c-1.654 0-3-1.346-3-3s1.346-3 3-3 3 1.346 3 3-1.346 3-3 3zm0-4c-.552 0-1 .448-1 1s.448 1 1 1 1-.448 1-1-.448-1-1-1z"/><path d="m16.989 14.752c-.524 0-.965-.408-.997-.938-.098-1.576-1.412-2.812-2.994-2.812s-2.896 1.235-2.994 2.812c-.033.552-.511.976-1.06.937-.551-.034-.971-.509-.937-1.06.162-2.629 2.354-4.688 4.99-4.688s4.828 2.06 4.99 4.688c.034.551-.386 1.025-.937 1.06-.019 0-.04.001-.061.001z"/><path d="m51.003 16.002c-4.411 0-8-3.589-8-8s3.589-8 8-8 8 3.589 8 8-3.589 8-8 8zm0-14c-3.309 0-6 2.691-6 6s2.691 6 6 6 6-2.691 6-6-2.691-6-6-6z"/><path d="m51.003 11.002c-1.654 0-3-1.346-3-3s1.346-3 3-3 3 1.346 3 3-1.346 3-3 3zm0-4c-.552 0-1 .448-1 1s.448 1 1 1 1-.448 1-1-.448-1-1-1z"/><path d="m54.993 14.752c-.524 0-.965-.408-.997-.938-.098-1.576-1.412-2.812-2.994-2.812s-2.896 1.235-2.994 2.812c-.033.552-.513.976-1.06.937-.551-.034-.971-.509-.937-1.06.162-2.629 2.354-4.688 4.99-4.688s4.828 2.06 4.99 4.688c.034.551-.386 1.025-.937 1.06-.019 0-.04.001-.061.001z"/><path d="m32.001 16.002c-4.411 0-8-3.589-8-8s3.589-8 8-8 8 3.589 8 8-3.589 8-8 8zm0-14c-3.309 0-6 2.691-6 6s2.691 6 6 6 6-2.691 6-6-2.691-6-6-6z"/><path d="m32.001 11.002c-1.654 0-3-1.346-3-3s1.346-3 3-3 3 1.346 3 3-1.346 3-3 3zm0-4c-.552 0-1 .448-1 1s.448 1 1 1 1-.448 1-1-.448-1-1-1z"/><path d="m35.991 14.752c-.524 0-.965-.408-.997-.938-.098-1.576-1.412-2.812-2.994-2.812s-2.896 1.235-2.994 2.812c-.033.552-.505.976-1.06.937-.551-.034-.971-.509-.937-1.06.162-2.629 2.354-4.688 4.99-4.688s4.828 2.06 4.99 4.688c.034.551-.386 1.025-.937 1.06-.019 0-.04.001-.061.001z"/><path d="m51.003 18.002c-.553 0-1-.447-1-1v-2c0-.553.447-1 1-1s1 .447 1 1v2c0 .553-.447 1-1 1z"/><path d="m12.999 18.002c-.553 0-1-.447-1-1v-2c0-.553.447-1 1-1s1 .447 1 1v2c0 .553-.447 1-1 1z"/><path d="m32.001 25.004c-.553 0-1-.447-1-1v-9.002c0-.553.447-1 1-1s1 .447 1 1v9.002c0 .553-.447 1-1 1z"/><path d="m49.003 20.002h-34.004c-.553 0-1-.447-1-1s.447-1 1-1h34.004c.553 0 1 .447 1 1s-.447 1-1 1z"/><path d="m14.999 20.002c-1.654 0-3-1.346-3-3 0-.553.447-1 1-1s1 .447 1 1c0 .552.448 1 1 1 .553 0 1 .447 1 1s-.447 1-1 1z"/><path d="m49.003 20.002c-.553 0-1-.447-1-1s.447-1 1-1c.552 0 1-.448 1-1 0-.553.447-1 1-1s1 .447 1 1c0 1.654-1.346 3-3 3z"/><path d="m49.001 42.033c-.553 0-1-.447-1-1 0-8.822-7.178-16-16-16s-16 7.178-16 16c0 .553-.447 1-1 1s-1-.447-1-1c0-9.925 8.075-18 18-18s18 8.075 18 18c0 .553-.447 1-1 1z"/><path d="m47.501 60.031c-.553 0-1-.447-1-1s.447-1 1-1c6.341 0 11.5-5.159 11.5-11.5s-5.159-11.5-11.5-11.5c-.553 0-1-.447-1-1s.447-1 1-1c7.444 0 13.5 6.056 13.5 13.5s-6.056 13.5-13.5 13.5z"/><path d="m14.001 60.031c-6.065 0-11-4.935-11-11s4.935-11 11-11c.553 0 1 .447 1 1s-.447 1-1 1c-4.963 0-9 4.037-9 9s4.037 9 9 9c.553 0 1 .447 1 1s-.447 1-1 1z"/><path d="m47.501 60.031h-33.5c-.553 0-1-.447-1-1s.447-1 1-1h33.5c.553 0 1 .447 1 1s-.447 1-1 1z"/><path d="m15.001 40.031h-1c-.553 0-1-.447-1-1s.447-1 1-1h1c.553 0 1 .447 1 1s-.447 1-1 1z"/><path d="m47.501 64.002c-.553 0-1-.447-1-1s.447-1 1-1c6.341 0 11.5-5.159 11.5-11.5 0-.553.447-1 1-1s1 .447 1 1c0 7.444-6.056 13.5-13.5 13.5z"/><path d="m14.001 64.002c-6.065 0-11-4.935-11-11 0-.553.447-1 1-1s1 .447 1 1c0 4.963 4.037 9 9 9 .553 0 1 .447 1 1s-.447 1-1 1z"/><path d="m47.501 64.002h-33.5c-.553 0-1-.447-1-1s.447-1 1-1h33.5c.553 0 1 .447 1 1s-.447 1-1 1z"/><path d="m60.001 51.502c-.553 0-1-.447-1-1v-3.971c0-.553.447-1 1-1s1 .447 1 1v3.971c0 .553-.447 1-1 1z"/><path d="m4.001 54.002c-.553 0-1-.447-1-1v-3.971c0-.553.447-1 1-1s1 .447 1 1v3.971c0 .553-.447 1-1 1z"/><path d="m31.989 53.006c-3.031 0-5.864-1.354-7.774-3.713-.348-.429-.281-1.059.148-1.406s1.061-.28 1.406.148c1.528 1.888 3.795 2.971 6.22 2.971 4.411 0 8-3.589 8-8 0-.553.447-1 1-1s1 .447 1 1c0 5.514-4.486 10-10 10z"/><path d="m42.493 46.008c-.304 0-.604-.138-.801-.399l-1.503-2.002c-.331-.441-.242-1.068.199-1.4.441-.33 1.069-.241 1.4.199l1.503 2.002c.331.441.242 1.068-.199 1.4-.179.134-.39.2-.599.2z"/><path d="m38.993 45.506c-.304 0-.604-.138-.801-.399-.331-.441-.242-1.068.199-1.4l1.997-1.5c.441-.33 1.069-.241 1.4.199.331.441.242 1.068-.199 1.4l-1.997 1.5c-.179.134-.39.2-.599.2z"/><path d="m22.991 44.01c-.553 0-1-.447-1-1 0-5.514 4.486-10 10-10 3.031 0 5.864 1.354 7.774 3.713.348.429.281 1.059-.148 1.406s-1.06.28-1.406-.148c-1.528-1.888-3.795-2.971-6.22-2.971-4.411 0-8 3.589-8 8 0 .553-.447 1-1 1z"/><path d="m22.992 44.01c-.305 0-.605-.139-.802-.4l-1.499-2.002c-.331-.442-.24-1.069.201-1.4.443-.332 1.07-.239 1.4.201l1.499 2.002c.331.442.24 1.069-.201 1.4-.179.134-.39.199-.598.199z"/><path d="m22.992 44.01c-.304 0-.604-.138-.8-.398-.332-.441-.244-1.068.197-1.4l1.997-1.504c.444-.332 1.069-.243 1.4.197.332.441.244 1.068-.197 1.4l-1.997 1.504c-.179.135-.391.201-.6.201z"/></g></svg>