<svg id="icons" enable-background="new 0 0 64 64" height="512" viewBox="0 0 64 64" width="512" xmlns="http://www.w3.org/2000/svg"><path d="m31.02 35.505h-.04-24.98c-1.1 0-2 .891-2 2v19.99h28.98v-11-8.99c0-1.1-.88-1.98-1.96-2z" fill="#fff"/><path d="m1 57.495h3 28.98 3v1c0 1.1-.9 2-2 2h-30.98c-1.1 0-2-.9-2-2z" fill="#cedbff"/><path d="m21 45.495h-13v-3h10z" fill="#cedbff"/><path d="m29 42.495v3h-8l-3-3z" fill="#d7e9ff"/><path d="m44 41.505c2.77 0 5 2.24 5 5s-2.23 5-5 5c-2.76 0-5-2.24-5-5v-.01c.01-2.76 2.24-4.99 5-4.99z" fill="#cedbff"/><path d="m27 18.995c0 3.59 2.92 6.5 6.5 6.5h21.5c4.42 0 8-3.58 8-7.99v4c0 4.41-3.58 8-8 8h-11-10.5c-3.58 0-6.5-2.91-6.5-6.5z" fill="#d7e9ff"/><path d="m55 9.505c4.42 0 8 3.58 8 8 0 4.41-3.58 7.99-8 7.99h-21.5c-3.58 0-6.5-2.91-6.5-6.5 0-3.58 2.92-6.49 6.5-6.49h.68c.94-5.12 5.431-9 10.82-9 4.28 0 7.98 2.44 9.8 6h.01z" fill="#fff"/><g fill="#0444f9"><path d="m55.001 26.503h-21.5c-.553 0-1-.447-1-1s.447-1 1-1h21.5c.553 0 1 .447 1 1s-.447 1-1 1z"/><path d="m56.001 15.507c-.553 0-1-.447-1-1 0-5.514-4.486-10-10-10s-10 4.486-10 10c0 .553-.447 1-1 1s-1-.447-1-1c0-6.617 5.383-12 12-12s12 5.383 12 12c0 .553-.447 1-1 1z"/><path d="m55.001 26.503c-.553 0-1-.447-1-1s.447-1 1-1c3.859 0 7-3.139 7-6.997 0-3.859-3.141-6.999-7-6.999-.553 0-1-.447-1-1s.447-1 1-1c4.963 0 9 4.037 9 8.999 0 4.961-4.037 8.997-9 8.997z"/><path d="m33.501 26.503c-4.136 0-7.5-3.364-7.5-7.499 0-4.134 3.364-7.497 7.5-7.497.553 0 1 .447 1 1s-.447 1-1 1c-3.032 0-5.5 2.466-5.5 5.497 0 3.032 2.468 5.499 5.5 5.499.553 0 1 .447 1 1s-.447 1-1 1z"/><path d="m55.001 30.507h-21.5c-.553 0-1-.447-1-1s.447-1 1-1h21.5c.553 0 1 .447 1 1s-.447 1-1 1z"/><path d="m55.001 30.507c-.553 0-1-.447-1-1s.447-1 1-1c3.859 0 7-3.14 7-6.998 0-.553.447-1 1-1s1 .447 1 1c0 4.962-4.037 8.998-9 8.998z"/><path d="m33.501 30.507c-4.136 0-7.5-3.364-7.5-7.499 0-.553.447-1 1-1s1 .447 1 1c0 3.032 2.468 5.499 5.5 5.499.553 0 1 .447 1 1s-.447 1-1 1z"/><path d="m34.183 13.507h-.682c-.553 0-1-.447-1-1s.447-1 1-1h.682c.553 0 1 .447 1 1s-.448 1-1 1z"/><path d="m55.001 10.507h-.199c-.553 0-1-.447-1-1s.447-1 1-1h.199c.553 0 1 .447 1 1s-.447 1-1 1z"/><path d="m27.001 24.008c-.553 0-1-.447-1-1v-4.004c0-.553.447-1 1-1s1 .447 1 1v4.004c0 .553-.447 1-1 1z"/><path d="m63.001 22.509c-.553 0-1-.447-1-1v-4.003c0-.553.447-1 1-1s1 .447 1 1v4.003c0 .553-.447 1-1 1z"/><path d="m3.001 61.497c-1.654 0-3-1.346-3-3 0-.553.447-1 1-1s1 .447 1 1c0 .552.448 1 1 1 .553 0 1 .447 1 1s-.447 1-1 1z"/><path d="m3.999 38.51c-.553 0-1-.447-1-1 0-1.654 1.346-3 3-3 .553 0 1 .447 1 1s-.447 1-1 1c-.552 0-1 .448-1 1 0 .553-.447 1-1 1z"/><path d="m1.001 59.497c-.553 0-1-.447-1-1v-.997c0-.553.447-1 1-1s1 .447 1 1v.997c0 .553-.447 1-1 1z"/><path d="m33.974 61.497c-.553 0-1-.447-1-1s.447-1 1-1c.552 0 1-.448 1-1 0-.553.447-1 1-1s1 .447 1 1c0 1.654-1.346 3-3 3z"/><path d="m35.974 59.497c-.553 0-1-.447-1-1v-.997c0-.553.447-1 1-1s1 .447 1 1v.997c0 .553-.448 1-1 1z"/><path d="m35.974 58.5h-34.973c-.553 0-1-.447-1-1s.447-1 1-1h34.973c.553 0 1 .447 1 1s-.448 1-1 1z"/><path d="m33.974 61.497h-30.973c-.553 0-1-.447-1-1s.447-1 1-1h30.973c.553 0 1 .447 1 1s-.448 1-1 1z"/><path d="m3.999 58.496c-.553 0-1-.447-1-1v-19.986c0-.553.447-1 1-1s1 .447 1 1v19.986c0 .553-.447 1-1 1z"/><path d="m32.976 38.51c-.553 0-1-.447-1-1 0-.552-.448-1-1-1-.553 0-1-.447-1-1s.447-1 1-1c1.654 0 3 1.346 3 3 0 .553-.448 1-1 1z"/><path d="m32.976 58.496c-.553 0-1-.447-1-1v-19.986c0-.553.447-1 1-1s1 .447 1 1v19.986c0 .553-.448 1-1 1z"/><path d="m31.017 36.51h-25.018c-.553 0-1-.447-1-1s.447-1 1-1h25.018c.553 0 1 .447 1 1s-.448 1-1 1z"/><path d="m28.999 46.502h-21c-.553 0-1-.447-1-1v-3c0-.553.447-1 1-1h21c.553 0 1 .447 1 1v3c0 .553-.447 1-1 1zm-20-2h19v-1h-19z"/><path d="m20.999 46.502c-.256 0-.512-.098-.707-.293l-3-3c-.391-.391-.391-1.023 0-1.414s1.023-.391 1.414 0l3 3c.391.391.391 1.023 0 1.414-.195.195-.451.293-.707.293z"/><path d="m25.996 50.503h-14.994c-.553 0-1-.447-1-1s.447-1 1-1h14.994c.553 0 1 .447 1 1s-.447 1-1 1z"/><path d="m21.999 53.503h-7c-.553 0-1-.447-1-1s.447-1 1-1h7c.553 0 1 .447 1 1s-.447 1-1 1z"/><path d="m43.999 42.497c-.553 0-1-.447-1-1v-13.99c0-.553.447-1 1-1s1 .447 1 1v13.99c0 .553-.447 1-1 1z"/><path d="m38.994 47.501h-6.019c-.553 0-1-.447-1-1s.447-1 1-1h6.019c.553 0 1 .447 1 1s-.447 1-1 1z"/><path d="m44.001 52.508c-3.309 0-6-2.691-6-6s2.691-6 6-6 6 2.691 6 6-2.691 6-6 6zm0-10c-2.206 0-4 1.794-4 4s1.794 4 4 4 4-1.794 4-4-1.794-4-4-4z"/><path d="m44.001 47.508c-.553 0-1-.447-1-1v-2.001c0-.553.447-1 1-1s1 .447 1 1v2.001c0 .553-.447 1-1 1z"/><path d="m44.031 49.507c-.553 0-1.005-.447-1.005-1s.442-1 .994-1h.011c.552 0 1 .447 1 1s-.448 1-1 1z"/></g></svg>