<svg id="icons" enable-background="new 0 0 64 64" height="512" viewBox="0 0 64 64" width="512" xmlns="http://www.w3.org/2000/svg"><path d="m41 22.49h-18.01c-1.65 0-3 1.35-3 3v2 13.01 4.01 11h24.01v-11-4.01-13.01-2c0-1.65-1.35-3-3-3z" fill="#d7e9ff"/><path d="m22.99 59.5h18.01c1.65 0 3-1.34 3-3v3c0 1.65-1.35 3-3 3h-18.01c-1.65 0-3-1.35-3-3v-3c0 1.66 1.35 3 3 3z" fill="#5c9eff"/><path d="m44 55.51v.99c0 1.66-1.35 3-3 3h-18.01c-1.65 0-3-1.34-3-3v-.99z" fill="#cedbff"/><path d="m63 30.5c0 7.74-6.27 14.01-14 14.01h-5v-4.01h5c7.73 0 14-6.26 14-14z" fill="#d7e9ff"/><path d="m34.99 27.5 4 4.01h-4z" fill="#fff"/><path d="m38.99 31.51v19h-14v-23.01h10v4.01z" fill="#fff"/><path d="m1 29.5c0 6.08 4.93 11 11 11h7.99v4.01h-7.99c-6.07 0-11-4.93-11-11.01z" fill="#d7e9ff"/><path d="m13.11 18.5c1-9.55 9.08-17 18.89-17 7.64 0 14.23 4.51 17.25 11.01 7.62.14 13.75 6.35 13.75 13.99 0 7.74-6.27 14-14 14h-5v-13.01-2c0-1.65-1.35-3-3-3h-18.01c-1.65 0-3 1.35-3 3v2 13.01h-7.99c-6.07 0-11-4.92-11-11 0-6.07 4.93-11 11-11z" fill="#fff"/><g fill="#0444f9"><path d="m12.001 41.502c-6.617 0-12-5.383-12-12s5.383-12.001 12-12.001c.553 0 1 .447 1 1s-.447 1-1 1c-5.514 0-10 4.486-10 10.001 0 5.514 4.486 10 10 10 .553 0 1 .447 1 1s-.447 1-1 1z"/><path d="m49.001 41.502c-.553 0-1-.447-1-1s.447-1 1-1c7.168 0 13-5.832 13-13.001 0-7.052-5.739-12.878-12.794-12.988-.552-.009-.993-.464-.984-1.016s.466-.962 1.016-.984c8.141.127 14.763 6.851 14.763 14.988-.001 8.271-6.73 15.001-15.001 15.001z"/><path d="m51.001 21.501c-.553 0-1-.447-1-1 0-1.285-.136-2.566-.403-3.807-1.77-8.225-9.17-14.193-17.597-14.193-9.925 0-18 8.075-18 18 0 .553-.447 1-1 1s-1-.447-1-1c0-11.028 8.972-20 20-20 9.362 0 17.585 6.633 19.552 15.772.298 1.378.448 2.801.448 4.228 0 .553-.447 1-1 1z"/><path d="m13.105 19.501h-1.104c-.553 0-1-.447-1-1s.447-1 1-1h1.104c.553 0 1 .447 1 1s-.447 1-1 1z"/><path d="m49.001 41.502h-5.01c-.553 0-1-.447-1-1s.447-1 1-1h5.01c.553 0 1 .447 1 1s-.447 1-1 1z"/><path d="m19.991 41.502h-7.99c-.553 0-1-.447-1-1s.447-1 1-1h7.99c.553 0 1 .447 1 1s-.447 1-1 1z"/><path d="m12.001 45.506c-6.617 0-12-5.384-12-12.002 0-.553.447-1 1-1s1 .447 1 1c0 5.515 4.486 10.002 10 10.002.553 0 1 .447 1 1s-.447 1-1 1z"/><path d="m49.001 45.506c-.553 0-1-.447-1-1s.447-1 1-1c7.168 0 13-5.833 13-13.003 0-.553.447-1 1-1s1 .447 1 1c0 8.272-6.729 15.003-15 15.003z"/><path d="m49.001 45.506h-5.003c-.553 0-1-.447-1-1s.447-1 1-1h5.003c.553 0 1 .447 1 1s-.447 1-1 1z"/><path d="m19.986 45.506h-7.985c-.553 0-1-.447-1-1s.447-1 1-1h7.985c.553 0 1 .447 1 1s-.447 1-1 1z"/><path d="m63.001 31.503c-.553 0-1-.447-1-1v-4.002c0-.553.447-1 1-1s1 .447 1 1v4.002c0 .553-.447 1-1 1z"/><path d="m1.001 34.504c-.553 0-1-.447-1-1v-4.002c0-.553.447-1 1-1s1 .447 1 1v4.002c0 .553-.447 1-1 1z"/><path d="m43.998 56.505h-24.012c-.553 0-1-.447-1-1s.447-1 1-1h24.012c.553 0 1 .447 1 1s-.447 1-1 1z"/><path d="m32.022 58.503c-.553 0-1.005-.447-1.005-1s.442-1 .994-1h.011c.552 0 1 .447 1 1s-.448 1-1 1z"/><path d="m40.998 60.504h-18.012c-2.206 0-4-1.794-4-4v-31.011c0-2.206 1.794-4 4-4h18.012c2.206 0 4 1.794 4 4v31.011c0 2.206-1.794 4-4 4zm-18.012-37.011c-1.103 0-2 .897-2 2v31.011c0 1.103.897 2 2 2h18.012c1.103 0 2-.897 2-2v-31.011c0-1.103-.897-2-2-2z"/><path d="m40.998 63.503h-18.012c-2.206 0-4-1.794-4-4v-32.012c0-.553.447-1 1-1s1 .447 1 1v32.012c0 1.103.897 2 2 2h18.012c1.103 0 2-.897 2-2v-32.012c0-.553.447-1 1-1s1 .447 1 1v32.012c0 2.206-1.794 4-4 4z"/><path d="m38.992 51.508h-14.001c-.553 0-1-.447-1-1v-23.005c0-.553.447-1 1-1h10.001c.266 0 .52.105.707.293l4 4.002c.188.188.293.442.293.707v19.003c0 .553-.447 1-1 1zm-13.001-2h12.001v-17.589l-3.414-3.416h-8.587z"/><path d="m38.992 32.505h-4c-.553 0-1-.447-1-1s.447-1 1-1h4c.553 0 1 .447 1 1s-.447 1-1 1z"/><path d="m34.992 32.505c-.553 0-1-.447-1-1v-4.002c0-.553.447-1 1-1s1 .447 1 1v4.002c0 .553-.447 1-1 1z"/><path d="m34.992 37.506h-6c-.553 0-1-.447-1-1s.447-1 1-1h6c.553 0 1 .447 1 1s-.447 1-1 1z"/><path d="m34.992 40.506h-6c-.553 0-1-.447-1-1s.447-1 1-1h6c.553 0 1 .447 1 1s-.447 1-1 1z"/><path d="m34.992 43.506h-6c-.553 0-1-.447-1-1s.447-1 1-1h6c.553 0 1 .447 1 1s-.447 1-1 1z"/><path d="m34.992 46.506h-6c-.553 0-1-.447-1-1s.447-1 1-1h6c.553 0 1 .447 1 1s-.447 1-1 1z"/></g></svg>