<svg id="icons" enable-background="new 0 0 64 64" height="512" viewBox="0 0 64 64" width="512" xmlns="http://www.w3.org/2000/svg"><path d="m46 41.97v21 .03h-28v-21.03-3h3v.03 17.99c1.66 0 3.01 1.35 3.01 3.01h15.99c0-1.66 1.34-3 3-3v-18-.03h3z" fill="#d7e9ff"/><path d="m25.97 38.97h12.06c0 3.33-2.7 6.03-6.03 6.03s-6.03-2.7-6.03-6.03z" fill="#d7e9ff"/><path d="m43 39v18c-1.66 0-3 1.34-3 3h-15.99c0-1.66-1.35-3.01-3.01-3.01v-17.99-.03h4.97c0 3.33 2.7 6.03 6.03 6.03s6.03-2.7 6.03-6.03h4.97z" fill="#cedbff"/><path d="m47.5 36c6.91 0 12.5-5.6 12.5-12.5v5.97c0 6.91-5.59 12.5-12.5 12.5h-1.5v-3h-3-4.97-12.06-4.97-3v3h-4c-5.52 0-10-4.47-10-10v-5.97c0 5.52 4.48 10 10 10z" fill="#d7e9ff"/><path d="m47.49 11h.01c6.91 0 12.5 5.6 12.5 12.5s-5.59 12.5-12.5 12.5h-33.5c-5.52 0-10-4.48-10-10s4.48-10 10-10h1l.12.02c.97-8.46 8.16-15.02 16.88-15.02 6.89 0 12.83 4.1 15.49 10z" fill="#fff"/><g fill="#0444f9"><path d="m49.001 19.002c-.553 0-1-.447-1-1 0-8.822-7.178-16-16-16s-16 7.178-16 16c0 .553-.447 1-1 1s-1-.447-1-1c0-9.925 8.075-18 18-18s18 8.075 18 18c0 .553-.447 1-1 1z"/><path d="m47.501 37c-.553 0-1-.447-1-1s.447-1 1-1c6.341 0 11.5-5.158 11.5-11.499s-5.159-11.5-11.5-11.5c-.553 0-1-.447-1-1s.447-1 1-1c7.444 0 13.5 6.056 13.5 13.5 0 7.443-6.056 13.499-13.5 13.499z"/><path d="m14.001 37c-6.065 0-11-4.935-11-10.999 0-6.065 4.935-11 11-11 .553 0 1 .447 1 1s-.447 1-1 1c-4.963 0-9 4.037-9 9 0 4.962 4.037 8.999 9 8.999.553 0 1 .447 1 1s-.447 1-1 1z"/><path d="m47.501 37h-33.5c-.553 0-1-.447-1-1s.447-1 1-1h33.5c.553 0 1 .447 1 1s-.447 1-1 1z"/><path d="m15.001 17.001h-1c-.553 0-1-.447-1-1s.447-1 1-1h1c.553 0 1 .447 1 1s-.447 1-1 1z"/><path d="m47.501 42.973c-.553 0-1-.447-1-1s.447-1 1-1c6.341 0 11.5-5.158 11.5-11.499 0-.553.447-1 1-1s1 .447 1 1c0 7.443-6.056 13.499-13.5 13.499z"/><path d="m14.001 42.973c-6.065 0-11-4.935-11-10.999 0-.553.447-1 1-1s1 .447 1 1c0 4.962 4.037 8.999 9 8.999.553 0 1 .447 1 1s-.447 1-1 1z"/><path d="m47.501 42.973h-1.501c-.553 0-1-.447-1-1s.447-1 1-1h1.501c.553 0 1 .447 1 1s-.447 1-1 1z"/><path d="m18.002 42.973h-4.001c-.553 0-1-.447-1-1s.447-1 1-1h4.001c.553 0 1 .447 1 1s-.447 1-1 1z"/><path d="m60.001 30.474c-.553 0-1-.447-1-1v-5.973c0-.553.447-1 1-1s1 .447 1 1v5.973c0 .552-.447 1-1 1z"/><path d="m4.001 32.974c-.553 0-1-.447-1-1v-5.973c0-.553.447-1 1-1s1 .447 1 1v5.973c0 .552-.447 1-1 1z"/><path d="m47 39.973h-29.998c-.553 0-1-.447-1-1s.447-1 1-1h29.998c.553 0 1 .447 1 1s-.447 1-1 1z"/><path d="m18.002 64.002c-.553 0-1-.447-1-1v-24.029c0-.553.447-1 1-1s1 .447 1 1v24.029c0 .553-.447 1-1 1z"/><path d="m46 63.973c-.553 0-1-.447-1-1v-24c0-.553.447-1 1-1s1 .447 1 1v24c0 .552-.447 1-1 1z"/><path d="m46 64.002h-27.998c-.553 0-1-.447-1-1s.447-1 1-1h27.998c.553 0 1 .447 1 1s-.447 1-1 1z"/><path d="m24.007 60.999c-.553 0-1-.447-1-1 0-1.104-.898-2.003-2.003-2.003-.553 0-1-.447-1-1s.447-1 1-1c2.207 0 4.003 1.796 4.003 4.003 0 .553-.447 1-1 1z"/><path d="m39.999 60.999c-.553 0-1-.447-1-1 0-2.206 1.794-4 4-4 .553 0 1 .447 1 1s-.447 1-1 1c-1.103 0-2 .897-2 2 0 .553-.447 1-1 1z"/><path d="m32.001 46.002c-3.876 0-7.029-3.153-7.029-7.029 0-.553.447-1 1-1s1 .447 1 1c0 2.773 2.256 5.029 5.029 5.029s5.029-2.256 5.029-5.029c0-.553.447-1 1-1s1 .447 1 1c0 3.876-3.153 7.029-7.029 7.029z"/><path d="m21.003 58.004c-.553 0-1-.447-1-1v-18.002c0-.553.447-1 1-1s1 .447 1 1v18.002c0 .553-.447 1-1 1z"/><path d="m39.999 61.001h-15.997c-.553 0-1-.447-1-1s.447-1 1-1h15.997c.553 0 1 .447 1 1s-.447 1-1 1z"/><path d="m43.001 58.004c-.553 0-1-.447-1-1v-18.002c0-.553.447-1 1-1s1 .447 1 1v18.002c0 .553-.447 1-1 1z"/></g></svg>