<svg id="icons" enable-background="new 0 0 64 64" height="512" viewBox="0 0 64 64" width="512" xmlns="http://www.w3.org/2000/svg"><path d="m63 30c0 7.74-6.27 14-14 14h-1.27l.359-4h.911c7.73 0 14-6.27 14-14z" fill="#d7e9ff"/><path d="m51 26v4h-2-34-2v-4z" fill="#d7e9ff"/><path d="m15.91 40-.91-10h34l-.91 10-.36 4-1.73 19h-28l-1.73-19z" fill="#cedbff"/><path d="m1 29c0 6.08 4.92 11 11 11h3.91l.359 4h-4.269c-6.08 0-11-4.92-11-11z" fill="#d7e9ff"/><path d="m51 30v-4h-38v4h2l.91 10h-3.91c-6.08 0-11-4.92-11-11s4.92-11 11-11h1.1.011c1-9.55 9.08-17 18.89-17 7.64 0 14.23 4.51 17.24 11.01 7.619.13 13.759 6.34 13.759 13.99 0 7.73-6.27 14-14 14h-.91l.91-10z" fill="#fff"/><g fill="#0444f9"><path d="m12.001 41.003c-6.617 0-12-5.383-12-12s5.383-12.001 12-12.001c.553 0 1 .447 1 1s-.447 1-1 1c-5.514 0-10 4.486-10 10.001 0 5.514 4.486 10 10 10 .553 0 1 .447 1 1s-.447 1-1 1z"/><path d="m49.001 41.003c-.553 0-1-.447-1-1s.447-1 1-1c7.168 0 13-5.832 13-13.001 0-7.052-5.739-12.878-12.794-12.988-.552-.009-.993-.464-.984-1.016s.45-1.013 1.016-.984c8.141.127 14.763 6.851 14.763 14.988-.001 8.271-6.73 15.001-15.001 15.001z"/><path d="m51.001 21.002c-.553 0-1-.447-1-1 0-1.285-.136-2.566-.403-3.807-1.77-8.225-9.17-14.193-17.597-14.193-9.925 0-18 8.075-18 18 0 .553-.447 1-1 1s-1-.447-1-1c0-11.028 8.972-20 20-20 9.362 0 17.585 6.633 19.552 15.772.298 1.378.448 2.801.448 4.228 0 .553-.447 1-1 1z"/><path d="m13.105 19.002h-1.104c-.553 0-1-.447-1-1s.447-1 1-1h1.104c.553 0 1 .447 1 1s-.447 1-1 1z"/><path d="m12.001 45.007c-6.617 0-12-5.384-12-12.002 0-.553.447-1 1-1s1 .447 1 1c0 5.515 4.486 10.002 10 10.002.553 0 1 .447 1 1s-.447 1-1 1z"/><path d="m49.001 45.007c-.553 0-1-.447-1-1s.447-1 1-1c7.168 0 13-5.833 13-13.003 0-.553.447-1 1-1s1 .447 1 1c0 8.272-6.729 15.003-15 15.003z"/><path d="m63.001 31.004c-.553 0-1-.447-1-1v-4.002c0-.553.447-1 1-1s1 .447 1 1v4.002c0 .553-.447 1-1 1z"/><path d="m1.001 34.005c-.553 0-1-.447-1-1v-4.002c0-.553.447-1 1-1s1 .447 1 1v4.002c0 .553-.447 1-1 1z"/><path d="m51.005 31h-38.008c-.553 0-1-.447-1-1v-4c0-.553.447-1 1-1h38.008c.553 0 1 .447 1 1v4c0 .553-.447 1-1 1zm-37.008-2h36.008v-2h-36.008z"/><path d="m18 64.001c-.512 0-.947-.391-.995-.909l-3-32.998c-.05-.551.355-1.037.905-1.087.562-.051 1.036.356 1.087.905l3 32.998c.05.551-.355 1.037-.905 1.087-.031.003-.062.004-.092.004z"/><path d="m46.002 64.002c-.03 0-.061-.001-.092-.004-.55-.05-.955-.536-.905-1.087l3-32.998c.051-.55.526-.959 1.087-.905.55.05.955.536.905 1.087l-3 32.998c-.048.518-.483.909-.995.909z"/><path d="m46.001 64.001h-28c-.553 0-1-.447-1-1s.447-1 1-1h28c.553 0 1 .447 1 1s-.447 1-1 1z"/><path d="m25 59c-.514 0-.95-.393-.995-.913l-2.002-22.999c-.048-.551.359-1.035.909-1.083.537-.063 1.035.359 1.083.909l2.002 22.999c.048.551-.359 1.035-.909 1.083-.029.003-.059.004-.088.004z"/><path d="m32.001 59c-.553 0-1-.447-1-1v-22.999c0-.553.447-1 1-1s1 .447 1 1v22.999c0 .553-.447 1-1 1z"/><path d="m39.002 59c-.029 0-.059-.001-.088-.004-.55-.048-.957-.532-.909-1.083l2.002-22.999c.048-.55.544-.964 1.083-.909.55.048.957.532.909 1.083l-2.002 22.999c-.045.52-.481.913-.995.913z"/><path d="m49.001 41.003h-.909c-.553 0-1-.447-1-1s.447-1 1-1h.909c.553 0 1 .447 1 1s-.447 1-1 1z"/><path d="m49.001 45.007h-1.273c-.553 0-1-.447-1-1s.447-1 1-1h1.273c.553 0 1 .447 1 1s-.447 1-1 1z"/><path d="m16.001 41.003h-4c-.553 0-1-.447-1-1s.447-1 1-1h4c.553 0 1 .447 1 1s-.447 1-1 1z"/><path d="m16.274 45.007h-4.273c-.553 0-1-.447-1-1s.447-1 1-1h4.273c.553 0 1 .447 1 1s-.447 1-1 1z"/></g></svg>