<svg id="icons" enable-background="new 0 0 64 64" height="512" viewBox="0 0 64 64" width="512" xmlns="http://www.w3.org/2000/svg"><path d="m27 46h-3c1.11 0 2-.89 2-2 0-1.1-.89-2-2-2h-6.82l-.04.01c-.09-.66-.14-1.33-.14-2.01 0-8.28 6.72-15 15-15 4.44 0 8.43 1.93 11.17 5h-7.17c-1.1 0-2 .9-2 2s.9 2 2 2h-3c-1.11 0-2 .9-2 2s.89 2 2 2h6c-1.11 0-2 .9-2 2s.89 2 2 2h7.86c-.97 7.34-7.26 13-14.86 13-4.44 0-8.43-1.93-11.18-5h6.18c1.1 0 2-.89 2-2 0-1.1-.9-2-2-2z" fill="#cedbff"/><path d="m27 46c1.1 0 2 .9 2 2 0 1.11-.9 2-2 2h-6.18c-1.95-2.18-3.28-4.94-3.681-7.99l.041-.01h6.82c1.11 0 2 .9 2 2 0 1.11-.89 2-2 2z" fill="#d7e9ff"/><path d="m43.17 30c2.38 2.65 3.83 6.16 3.83 10 0 .68-.05 1.35-.14 2h-7.86c-1.11 0-2-.9-2-2s.89-2 2-2h-6c-1.11 0-2-.9-2-2s.89-2 2-2h3c-1.1 0-2-.9-2-2s.9-2 2-2z" fill="#d7e9ff"/><path d="m49.24 12.01c-3.01-6.5-9.6-11.01-17.24-11.01-9.81 0-17.89 7.45-18.89 17h-.01-1.1c-6.08 0-11 4.93-11 11 0 5.04 3.38 9.29 8.01 10.59.95.27 1.95.41 2.99.41h1 4c0-8.28 6.72-15 15-15 4.44 0 8.43 1.93 11.17 5 2.38 2.65 3.83 6.16 3.83 10h2c.68 0 1.35-.05 2-.14 1.4-.2 2.73-.61 3.96-1.19 4.75-2.24 8.04-7.07 8.04-12.67 0-7.65-6.14-13.86-13.76-13.99z" fill="#fff"/><g fill="#0444f9"><path d="m12 41c-6.617 0-12-5.383-12-12s5.383-12 12-12c.553 0 1 .448 1 1s-.447 1-1 1c-5.514 0-10 4.486-10 10s4.486 10 10 10c.553 0 1 .447 1 1s-.447 1-1 1z"/><path d="m49 41c-.553 0-1-.447-1-1s.447-1 1-1c7.168 0 13-5.832 13-13 0-7.051-5.739-12.878-12.794-12.989-.553-.009-.993-.463-.984-1.016.009-.552.478-.994 1.016-.984 8.14.128 14.762 6.852 14.762 14.989 0 8.271-6.729 15-15 15z"/><path d="m51 21c-.553 0-1-.448-1-1 0-1.285-.136-2.566-.403-3.807-1.77-8.224-9.17-14.193-17.597-14.193-9.925 0-18 8.075-18 18 0 .552-.447 1-1 1s-1-.448-1-1c0-11.028 8.972-20 20-20 9.362 0 17.585 6.633 19.552 15.772.298 1.379.448 2.801.448 4.228 0 .552-.447 1-1 1z"/><path d="m13.104 19h-1.104c-.553 0-1-.448-1-1s.447-1 1-1h1.104c.553 0 1 .448 1 1s-.447 1-1 1z"/><path d="m32 56c-8.822 0-16-7.178-16-16s7.178-16 16-16 16 7.178 16 16-7.178 16-16 16zm0-30c-7.72 0-14 6.28-14 14s6.28 14 14 14 14-6.28 14-14-6.28-14-14-14z"/><path d="m32 60c-2.034 0-4.041-.305-5.966-.904-.527-.165-.821-.726-.657-1.253.165-.526.723-.817 1.253-.657 1.725.538 3.522.813 5.347.814.015-.001.029-.001.043-.001.552 0 .999.447.999 1 0 .537-.424.976-.956.999-.022.001-.042.002-.063.002zm3.84-.388c-.465 0-.882-.326-.979-.799-.111-.541.237-1.069.778-1.181 5.136-1.054 9.548-4.299 12.105-8.901.269-.482.877-.658 1.359-.389.483.269.657.877.389 1.359-2.841 5.114-7.744 8.719-13.451 9.89-.067.014-.135.021-.201.021zm-13.041-1.983c-.164 0-.33-.04-.483-.125-5.116-2.836-8.726-7.734-9.902-13.44-.111-.541.236-1.07.777-1.182.548-.108 1.07.237 1.182.777 1.059 5.135 4.308 9.543 8.912 12.095.483.268.658.877.391 1.359-.184.33-.526.516-.877.516zm27.336-10.943c-.099 0-.199-.015-.299-.046-.527-.165-.82-.727-.655-1.253.544-1.736.819-3.548.819-5.387 0-.553.447-1.039.999-1.039.553 0 1 .408 1 .961h-1l1 .042c.001 2.078-.306 4.092-.91 6.021-.134.427-.528.701-.954.701zm-37.135-5.667c-.553 0-1-.428-1-.98v-.039c0-2.027.303-4.027.898-5.945.164-.526.724-.821 1.252-.658.527.164.822.725.658 1.252-.536 1.725-.808 3.526-.808 5.351 0 .553-.447 1.019-1 1.019zm37.6-3.917c-.464 0-.88-.324-.978-.796-1.071-5.133-4.329-9.535-8.939-12.078-.483-.267-.659-.875-.393-1.358.267-.483.874-.66 1.359-.393 5.12 2.825 8.74 7.717 9.93 13.421.113.54-.233 1.07-.774 1.183-.069.014-.138.021-.205.021zm-35.239-5.285c-.164 0-.33-.04-.483-.125-.482-.267-.658-.875-.391-1.359 2.83-5.118 7.726-8.733 13.431-9.917.535-.115 1.069.234 1.183.776.112.541-.235 1.07-.776 1.182-5.133 1.065-9.539 4.319-12.087 8.926-.183.331-.524.517-.877.517zm22.27-8.969c-.098 0-.197-.015-.296-.045-1.722-.533-3.517-.803-5.335-.803-.553 0-1.029-.448-1.029-1s.419-1 .972-1h.057c2.019 0 4.013.3 5.927.892.527.164.822.724.659 1.251-.133.429-.528.705-.955.705z"/><path d="m33.65 63.941c-.521 0-.959-.402-.996-.929-.039-.552.375-1.029.926-1.068 1.786-.127 3.548-.471 5.236-1.021.522-.171 1.089.116 1.261.642.171.525-.116 1.09-.642 1.261-1.843.6-3.766.975-5.713 1.112-.024.002-.048.003-.072.003zm-3.721-.033c-.029 0-.06-.001-.09-.004-5.522-.492-10.743-2.915-14.7-6.821-.394-.388-.397-1.021-.01-1.414.39-.394 1.022-.397 1.414-.01 3.628 3.581 8.413 5.802 13.474 6.253.55.049.956.535.907 1.085-.047.52-.483.911-.995.911zm12.633-2.469c-.362 0-.711-.197-.889-.54-.254-.491-.063-1.095.428-1.348 4.522-2.341 8.118-6.203 10.124-10.877.219-.508.806-.743 1.313-.524.508.218.742.806.524 1.313-2.188 5.098-6.109 9.312-11.042 11.863-.147.077-.304.113-.458.113zm-29.15-6.888c-.309 0-.613-.143-.809-.41-1.148-1.574-2.103-3.283-2.836-5.081-.209-.512.037-1.096.548-1.304.51-.21 1.095.036 1.304.548.673 1.648 1.547 3.215 2.6 4.657.326.446.228 1.072-.218 1.397-.178.13-.385.193-.589.193zm40.918-8.014c-.08 0-.16-.01-.241-.029-.536-.133-.863-.675-.73-1.211.425-1.722.641-3.504.641-5.297 0-.553.447-1.047.999-1.047.553 0 1 .4 1 .953h-1l1 .063c.001 1.985-.234 3.93-.699 5.809-.112.454-.521.759-.97.759zm-44.757-.405c-.456 0-.868-.314-.974-.778-.398-1.746-.599-3.546-.599-5.354 0-3.773.852-7.387 2.529-10.739.248-.494.848-.695 1.342-.446.494.247.694.848.447 1.342-1.538 3.072-2.318 6.383-2.318 9.843 0 1.658.185 3.31.549 4.91.123.538-.214 1.074-.753 1.196-.074.018-.15.026-.223.026zm45.113-8.937c-.48 0-.904-.347-.985-.836-.832-5.006-3.41-9.608-7.259-12.959-.417-.363-.461-.995-.098-1.411.363-.417.996-.458 1.41-.098 4.199 3.656 7.011 8.677 7.919 14.14.091.545-.277 1.06-.822 1.15-.056.01-.111.014-.165.014zm-41.331-9.67c-.203 0-.408-.062-.585-.19-.447-.324-.548-.949-.225-1.396 1.142-1.576 2.473-3.012 3.958-4.268.422-.356 1.053-.303 1.409.118.356.422.304 1.053-.118 1.409-1.361 1.151-2.582 2.468-3.628 3.913-.195.271-.501.414-.811.414zm30.746-6.089c-.18 0-.361-.048-.525-.15-1.519-.941-3.148-1.694-4.844-2.238-.525-.169-.815-.732-.646-1.258.168-.525.73-.815 1.258-.646 1.851.594 3.629 1.416 5.285 2.442.47.291.614.907.323 1.377-.189.305-.516.473-.851.473zm-23.925-.169c-.34 0-.671-.173-.858-.485-.284-.474-.131-1.088.343-1.372 3.714-2.23 7.981-3.41 12.339-3.41 1.192 0 2.39.088 3.558.262.546.082.923.59.842 1.136s-.59.925-1.137.842c-1.071-.159-2.168-.24-3.263-.24-3.995 0-7.906 1.081-11.311 3.125-.161.096-.338.142-.513.142z"/><path d="m17 41h-5c-.553 0-1-.447-1-1s.447-1 1-1h5c.553 0 1 .447 1 1s-.447 1-1 1z"/><path d="m49 41h-2c-.553 0-1-.447-1-1s.447-1 1-1h2c.553 0 1 .447 1 1s-.447 1-1 1z"/><path d="m36.002 34.997c-1.654 0-3-1.346-3-2.999 0-1.654 1.346-3 3-3 .553 0 1 .448 1 1s-.447 1-1 1c-.552 0-1 .449-1 1s.448.999 1 .999c.553 0 1 .447 1 1s-.447 1-1 1z"/><path d="m32.995 38.998c-1.654 0-3-1.346-3-3s1.346-3 3-3c.553 0 1 .447 1 1s-.447 1-1 1c-.552 0-1 .448-1 1s.448 1 1 1c.553 0 1 .447 1 1s-.447 1-1 1z"/><path d="m24.001 47c-.553 0-1-.447-1-1s.447-1 1-1c.552 0 1-.448 1-1s-.448-1-1-1c-.553 0-1-.447-1-1s.447-1 1-1c1.654 0 3 1.346 3 3s-1.346 3-3 3z"/><path d="m27 51c-.553 0-1-.447-1-1s.447-1 1-1c.552 0 1-.448 1-1s-.448-1-1-1c-.553 0-1-.447-1-1s.447-1 1-1c1.654 0 3 1.346 3 3s-1.346 3-3 3z"/><path d="m38.998 42.998c-1.654 0-3-1.346-3-3s1.346-3 3-3c.553 0 1 .447 1 1s-.447 1-1 1c-.552 0-1 .448-1 1s.448 1 1 1c.553 0 1 .447 1 1s-.447 1-1 1z"/><path d="m36.002 34.998h-3.007c-.553 0-1-.447-1-1s.447-1 1-1h3.007c.553 0 1 .447 1 1s-.447 1-1 1z"/><path d="m38.998 38.998h-6.003c-.553 0-1-.447-1-1s.447-1 1-1h6.003c.553 0 1 .447 1 1s-.447 1-1 1z"/><path d="m46.867 42.998h-7.869c-.553 0-1-.447-1-1s.447-1 1-1h7.869c.553 0 1 .447 1 1s-.447 1-1 1z"/><path d="m43.178 30.998h-7.176c-.553 0-1-.448-1-1s.447-1 1-1h7.176c.553 0 1 .448 1 1s-.448 1-1 1z"/><path d="m27 51h-6.181c-.553 0-1-.447-1-1s.447-1 1-1h6.181c.553 0 1 .447 1 1s-.447 1-1 1z"/><path d="m27 47h-2.999c-.553 0-1-.447-1-1s.447-1 1-1h2.999c.553 0 1 .447 1 1s-.447 1-1 1z"/><path d="m24.001 43h-6.822c-.553 0-1-.447-1-1s.447-1 1-1h6.822c.553 0 1 .447 1 1s-.447 1-1 1z"/></g></svg>