<svg id="icons" enable-background="new 0 0 64 64" height="512" viewBox="0 0 64 64" width="512" xmlns="http://www.w3.org/2000/svg"><path d="m42 7c4.42 0 8 3.58 8 8s-3.58 8-8 8h-21.5c-3.58 0-6.5-2.91-6.5-6.5s2.92-6.5 6.5-6.5h.69c.94-5.12 5.42-9 10.81-9 4.28 0 7.99 2.439 9.8 6.01l.01-.01z" fill="#fff"/><path d="m50 19c0 4.42-3.58 8-8 8h-21.5c-3.58 0-6.5-2.91-6.5-6.5v-4c0 3.59 2.92 6.5 6.5 6.5h21.5c4.42 0 8-3.58 8-8z" fill="#d7e9ff"/><path d="m19.01 33v21h-2.95-.05v-19c0-1.1.9-2 2-2z" fill="#cedbff"/><path d="m36.01 58 1 5h-10l1-5z" fill="#cedbff"/><path d="m48.01 54v2c0 1.1-.899 2-2 2h-10-8-10c-1.1 0-2-.9-2-2v-2h.05 2.95z" fill="#d7e9ff"/><path d="m19.01 33h27c1.101 0 2 .9 2 2v19h-29z" fill="#5c9eff"/><g fill="#0444f9"><path d="m32.035 57.002c-.553 0-1.005-.447-1.005-1s.442-1 .994-1h.011c.552 0 1 .447 1 1s-.448 1-1 1z"/><path d="m48.005 55.002h-31.951c-.553 0-1-.447-1-1s.447-1 1-1h31.951c.553 0 1 .447 1 1s-.447 1-1 1z"/><path d="m46.005 59.002h-27.998c-1.654 0-3-1.346-3-3v-20.998c0-1.654 1.346-3 3-3h27.998c1.654 0 3 1.346 3 3v20.998c0 1.654-1.346 3-3 3zm-27.998-24.998c-.552 0-1 .448-1 1v20.998c0 .552.448 1 1 1h27.998c.552 0 1-.448 1-1v-20.998c0-.552-.448-1-1-1z"/><path d="m27.006 64.002c-.065 0-.131-.006-.197-.02-.541-.108-.893-.635-.784-1.177l1-5c.107-.542.635-.898 1.177-.784.541.108.893.635.784 1.177l-1 5c-.095.476-.513.804-.98.804z"/><path d="m37.004 64.002c-.467 0-.885-.328-.979-.804l-1-5c-.108-.542.243-1.068.784-1.177.547-.111 1.068.242 1.177.784l1 5c.108.542-.243 1.068-.784 1.177-.067.014-.134.02-.198.02z"/><path d="m39.005 64.002h-14c-.553 0-1-.447-1-1s.447-1 1-1h14c.553 0 1 .447 1 1s-.447 1-1 1z"/><path d="m19.007 55.002c-.553 0-1-.447-1-1v-20.998c0-.553.447-1 1-1s1 .447 1 1v20.998c0 .553-.447 1-1 1z"/><path d="m24.999 37.002h-3c-.553 0-1-.447-1-1s.447-1 1-1h3c.553 0 1 .447 1 1s-.447 1-1 1z"/><path d="m24.999 52.006h-3c-.553 0-1-.447-1-1s.447-1 1-1h3c.553 0 1 .447 1 1s-.447 1-1 1z"/><path d="m30.003 49.006h-7.004c-.553 0-1-.447-1-1s.447-1 1-1h7.004c.553 0 1 .447 1 1s-.447 1-1 1z"/><path d="m38.011 43.002h-14.01c-.553 0-1-.447-1-1s.447-1 1-1h14.01c.553 0 1 .447 1 1s-.448 1-1 1z"/><path d="m43.017 46.006h-19.016c-.553 0-1-.447-1-1s.447-1 1-1h19.016c.553 0 1 .447 1 1s-.448 1-1 1z"/><path d="m34.007 40.002h-11.008c-.553 0-1-.447-1-1s.447-1 1-1h11.008c.553 0 1 .447 1 1s-.447 1-1 1z"/><path d="m41.999 23.998h-21.5c-.553 0-1-.447-1-1s.447-1 1-1h21.5c.553 0 1 .447 1 1s-.447 1-1 1z"/><path d="m42.999 13.002c-.553 0-1-.447-1-1 0-5.514-4.486-10-10-10s-10 4.486-10 10c0 .553-.447 1-1 1s-1-.447-1-1c0-6.617 5.383-12 12-12s12 5.383 12 12c0 .553-.447 1-1 1z"/><path d="m41.999 23.998c-.553 0-1-.447-1-1s.447-1 1-1c3.859 0 7-3.14 7-6.998s-3.141-6.998-7-6.998c-.553 0-1-.447-1-1s.447-1 1-1c4.963 0 9 4.036 9 8.998s-4.037 8.998-9 8.998z"/><path d="m20.499 23.998c-4.136 0-7.5-3.364-7.5-7.5 0-4.134 3.364-7.496 7.5-7.496.553 0 1 .447 1 1s-.447 1-1 1c-3.032 0-5.5 2.466-5.5 5.496 0 3.032 2.468 5.5 5.5 5.5.553 0 1 .447 1 1s-.447 1-1 1z"/><path d="m41.999 28.002h-21.5c-.553 0-1-.447-1-1s.447-1 1-1h21.5c.553 0 1 .447 1 1s-.447 1-1 1z"/><path d="m41.999 28.002c-.553 0-1-.447-1-1s.447-1 1-1c3.859 0 7-3.14 7-6.998 0-.553.447-1 1-1s1 .447 1 1c0 4.962-4.037 8.998-9 8.998z"/><path d="m20.499 28.002c-4.136 0-7.5-3.364-7.5-7.5 0-.553.447-1 1-1s1 .447 1 1c0 3.032 2.468 5.5 5.5 5.5.553 0 1 .447 1 1s-.447 1-1 1z"/><path d="m21.181 11.002h-.682c-.553 0-1-.447-1-1s.447-1 1-1h.682c.553 0 1 .447 1 1s-.448 1-1 1z"/><path d="m41.999 8.002h-.199c-.553 0-1-.447-1-1s.447-1 1-1h.199c.553 0 1 .447 1 1s-.447 1-1 1z"/><path d="m13.999 21.502c-.553 0-1-.447-1-1v-4.004c0-.553.447-1 1-1s1 .447 1 1v4.004c0 .553-.447 1-1 1z"/><path d="m49.999 20.004c-.553 0-1-.447-1-1v-4.004c0-.553.447-1 1-1s1 .447 1 1v4.004c0 .553-.447 1-1 1z"/><path d="m60.997 46.006h-8.996c-.553 0-1-.447-1-1s.447-1 1-1h8.996c.553 0 1 .447 1 1s-.447 1-1 1z"/><path d="m60.997 46.006c-.553 0-1-.447-1-1v-28.004c0-.553.447-1 1-1s1 .447 1 1v28.004c0 .553-.447 1-1 1z"/><path d="m60.997 18.002h-6.996c-.553 0-1-.447-1-1s.447-1 1-1h6.996c.553 0 1 .447 1 1s-.447 1-1 1z"/><path d="m56.001 20.004c-.256 0-.512-.098-.707-.293l-2-2.002c-.391-.391-.391-1.024 0-1.414.391-.391 1.023-.391 1.414 0l2 2.002c.391.391.391 1.024 0 1.414-.195.195-.451.293-.707.293z"/><path d="m54.001 18.002c-.256 0-.512-.098-.707-.293-.391-.39-.391-1.023 0-1.414l2-2.002c.391-.391 1.023-.391 1.414 0 .391.39.391 1.023 0 1.414l-2 2.002c-.195.195-.451.293-.707.293z"/><path d="m12.001 46.006h-8.996c-.553 0-1-.447-1-1s.447-1 1-1h8.996c.553 0 1 .447 1 1s-.447 1-1 1z"/><path d="m3.005 46.006c-.553 0-1-.447-1-1v-28.004c0-.553.447-1 1-1s1 .447 1 1v28.004c0 .553-.447 1-1 1z"/><path d="m10.001 18.002h-6.996c-.553 0-1-.447-1-1s.447-1 1-1h6.996c.553 0 1 .447 1 1s-.447 1-1 1z"/><path d="m10.003 48.031c-.256 0-.512-.098-.707-.293-.391-.39-.391-1.023 0-1.414l2-2.002c.391-.391 1.023-.391 1.414 0 .391.39.391 1.023 0 1.414l-2 2.002c-.195.196-.451.293-.707.293z"/><path d="m12.003 46.029c-.256 0-.512-.098-.707-.293l-2-2.002c-.391-.391-.391-1.024 0-1.414.391-.391 1.023-.391 1.414 0l2 2.002c.391.391.391 1.024 0 1.414-.195.196-.451.293-.707.293z"/></g></svg>