<svg id="icons" enable-background="new 0 0 64 64" height="512" viewBox="0 0 64 64" width="512" xmlns="http://www.w3.org/2000/svg"><path d="m42 30.995h-20c-1.1 0-2 .9-2 2v3 2 1.97 8.03l5.24 5.76 4.76 5.24h12c1.1 0 2-.9 2-2v-14-3.03-1.97-2-3c0-1.099-.9-2-2-2z" fill="#cedbff"/><path d="m20 37.995v1.97h-6c-5.52 0-10-4.47-10-9.99v-3.979c0 5.53 4.48 10 10 10h6z" fill="#d7e9ff"/><path d="m60 27.475c0 6.9-5.59 12.49-12.5 12.49h-3.5v-1.97-2h3.5c6.91 0 12.5-5.59 12.5-12.5z" fill="#d7e9ff"/><path d="m15.12 16.015c.98-8.45 8.16-15.01 16.88-15.01 6.89 0 12.83 4.101 15.49 10l.01-.01c6.91 0 12.5 5.6 12.5 12.5 0 6.91-5.59 12.5-12.5 12.5h-3.5v-3c0-1.1-.9-2-2-2h-20c-1.1 0-2 .9-2 2v3h-6c-5.52 0-10-4.47-10-10 0-5.521 4.48-10 10-10h1z" fill="#fff"/><path d="m44 60.995c0 1.1-.9 2-2 2h-20c-1.1 0-2-.9-2-2v-3.51c0 .87.07 1.51 1 1.51h9 12c1.1 0 2-.9 2-2z" fill="#5c9eff"/><path d="m32 39.995c1.66 0 3 1.35 3 3 0 1.66-1.34 3-3 3-1.65 0-3-1.34-3-3 0-1.65 1.35-3 3-3z" fill="#d7e9ff"/><path d="m25.24 53.755 4.76 5.24h-9c-.93 0-1-.64-1-1.51v-9.49z" fill="#d7e9ff"/><path d="m27.96 51.035c-2.94-1.48-4.96-4.521-4.96-8.04 0-4.97 4.03-9 9-9s9 4.03 9 9-4.03 9-9 9c-1.45 0-2.83-.349-4.04-.96zm7.04-8.04c0-1.65-1.34-3-3-3-1.65 0-3 1.35-3 3 0 1.66 1.35 3 3 3 1.66 0 3-1.34 3-3z" fill="#fff"/><g fill="#0444f9"><path d="m42.003 59.997h-21.003c-.594 0-1.072-.179-1.422-.531-.59-.595-.584-1.421-.578-2.221l.001-.248v-24.002c0-1.654 1.346-3 3-3h20.002c1.654 0 3 1.346 3 3v24.002c0 1.654-1.346 3-3 3zm-20.983-2h20.983c.552 0 1-.448 1-1v-24.002c0-.552-.448-1-1-1h-20.002c-.552 0-1 .448-1 1l-.001 24.265c-.002.228-.004.547.02.737z"/><path d="m42.003 64.001h-20.002c-1.654 0-3-1.346-3-3v-23.001c0-.553.447-1 1-1s1 .447 1 1v23.001c0 .552.448 1 1 1h20.002c.552 0 1-.448 1-1v-23.001c0-.553.447-1 1-1s1 .447 1 1v23.001c0 1.654-1.346 3-3 3z"/><path d="m30.002 59.997c-.271 0-.543-.11-.74-.327l-10.002-11.003c-.371-.409-.341-1.041.067-1.413.408-.37 1.042-.341 1.413.067l10.002 11.003c.371.409.341 1.041-.067 1.413-.192.174-.433.26-.673.26z"/><path d="m32.002 52.998c-5.514 0-10-4.486-10-10s4.486-10 10-10 10 4.486 10 10-4.486 10-10 10zm0-18c-4.411 0-8 3.589-8 8s3.589 8 8 8 8-3.589 8-8-3.589-8-8-8z"/><path d="m32.002 46.998c-2.206 0-4-1.794-4-4s1.794-4 4-4 4 1.794 4 4-1.794 4-4 4zm0-6c-1.103 0-2 .897-2 2s.897 2 2 2 2-.897 2-2-.898-2-2-2z"/><path d="m24.002 55.996c-.256 0-.512-.098-.707-.293-.391-.391-.391-1.023 0-1.414l6-6c.391-.391 1.023-.391 1.414 0s.391 1.023 0 1.414l-6 6c-.195.195-.451.293-.707.293z"/><path d="m32.032 43.997c-.553 0-1.005-.447-1.005-1s.442-1 .994-1h.011c.552 0 1 .447 1 1s-.448 1-1 1z"/><path d="m40.001 55.996h-4.999c-.553 0-1-.447-1-1s.447-1 1-1h4.999c.553 0 1 .447 1 1s-.447 1-1 1z"/><path d="m49.001 19.003c-.553 0-1-.447-1-1 0-8.822-7.178-16-16-16s-16 7.178-16 16c0 .553-.447 1-1 1s-1-.447-1-1c0-9.925 8.075-18 18-18s18 8.075 18 18c0 .553-.447 1-1 1z"/><path d="m47.501 37.001c-.553 0-1-.447-1-1s.447-1 1-1c6.341 0 11.5-5.158 11.5-11.499s-5.159-11.5-11.5-11.5c-.553 0-1-.447-1-1s.447-1 1-1c7.444 0 13.5 6.056 13.5 13.5 0 7.443-6.056 13.499-13.5 13.499z"/><path d="m14.001 37.001c-6.065 0-11-4.935-11-10.999 0-6.065 4.935-11 11-11 .553 0 1 .447 1 1s-.447 1-1 1c-4.963 0-9 4.037-9 9 0 4.962 4.037 8.999 9 8.999.553 0 1 .447 1 1s-.447 1-1 1z"/><path d="m47.501 37.001h-3.5c-.553 0-1-.447-1-1s.447-1 1-1h3.5c.553 0 1 .447 1 1s-.447 1-1 1z"/><path d="m20 37.001h-5.999c-.553 0-1-.447-1-1s.447-1 1-1h5.999c.553 0 1 .447 1 1s-.447 1-1 1z"/><path d="m15.001 17.002h-1c-.553 0-1-.447-1-1s.447-1 1-1h1c.553 0 1 .447 1 1s-.447 1-1 1z"/><path d="m47.501 40.972c-.553 0-1-.447-1-1s.447-1 1-1c6.341 0 11.5-5.158 11.5-11.499 0-.553.447-1 1-1s1 .447 1 1c0 7.443-6.056 13.499-13.5 13.499z"/><path d="m14.001 40.972c-6.065 0-11-4.935-11-10.999 0-.553.447-1 1-1s1 .447 1 1c0 4.962 4.037 8.999 9 8.999.553 0 1 .447 1 1s-.447 1-1 1z"/><path d="m47.501 40.972h-3.499c-.553 0-1-.447-1-1s.447-1 1-1h3.499c.553 0 1 .447 1 1s-.447 1-1 1z"/><path d="m20 40.972h-5.999c-.553 0-1-.447-1-1s.447-1 1-1h5.999c.553 0 1 .447 1 1s-.447 1-1 1z"/><path d="m60.001 28.473c-.553 0-1-.447-1-1v-3.971c0-.553.447-1 1-1s1 .447 1 1v3.971c0 .552-.447 1-1 1z"/><path d="m4.001 30.973c-.553 0-1-.447-1-1v-3.971c0-.553.447-1 1-1s1 .447 1 1v3.971c0 .552-.447 1-1 1z"/><path d="m31.995 11.003c-.208 0-.419-.064-.599-.199l-2.002-1.499c-.441-.331-.532-.958-.201-1.4.33-.44.958-.533 1.4-.201l2.002 1.499c.441.331.532.958.201 1.4-.195.261-.496.4-.801.4z"/><path d="m30.491 13c-.209 0-.42-.065-.601-.201-.441-.332-.529-.959-.197-1.4l1.504-1.997c.331-.439.957-.53 1.4-.197.441.332.529.959.197 1.4l-1.504 1.997c-.195.26-.495.398-.799.398z"/><path d="m32 27.002c-4.963 0-9-4.037-9-9s4.037-9 9-9c.553 0 1 .447 1 1s-.447 1-1 1c-3.859 0-7 3.141-7 7s3.141 7 7 7 7-3.141 7-7c0-2.131-.956-4.121-2.623-5.461-.431-.346-.5-.975-.153-1.405.346-.43.975-.499 1.405-.153 2.142 1.72 3.371 4.279 3.371 7.019 0 4.963-4.037 9-9 9z"/></g></svg>