<svg id="icons" enable-background="new 0 0 64 64" height="512" viewBox="0 0 64 64" width="512" xmlns="http://www.w3.org/2000/svg"><path d="m25.006 16.995h13.49c2.488 0 4.5-2.02 4.5-4.5v3c0 2.49-2.012 4.5-4.5 4.5h-13.49c-2.211 0-4.01-1.79-4.01-4.01v-3c0 2.21 1.799 4.01 4.01 4.01z" fill="#d7e9ff"/><path d="m25.076 8.995c.479-3.39 3.389-5.99 6.92-5.99 3.17 0 5.85 2.101 6.699 5h.01c2.391.11 4.291 2.07 4.291 4.49 0 2.48-2.012 4.5-4.5 4.5h-13.49c-2.211 0-4.01-1.8-4.01-4.01s1.799-4 4.01-4z" fill="#fff"/><circle cx="31.996" cy="28.995" fill="#cedbff" r="5"/><path d="m50.984 48.995c1.432 0 2.801-.34 4-.939v3.939l-2 1-2-1-2 1-2-1v-3.939c1.202.599 2.571.939 4 .939z" fill="#fff"/><path d="m62.984 56.995v3c0 .55-.449 1-1 1h-22c-.559 0-1-.45-1-1v-3c0-2.76 2.23-5 5-5h3l2 1 2-1 2 1 2-1h3c2.762 0 5 2.24 5 5z" fill="#fff"/><path d="m57.984 51.995h-3c2.76.002 4.998 2.241 4.998 5v3c0 .55-.449 1-1 1h3.002c.551 0 1-.45 1-1v-3c0-2.76-2.238-5-5-5z" fill="#d7e9ff"/><path d="m59.984 35.495v1.22c-1.939-2.54-3.359-3.09-5-2.88v-.01l3-4.16c1.262 1.61 2 3.641 2 5.83z" fill="#5c9eff"/><path d="m57.984 29.665-3 4.16v.01c-2.658.33-5.908 2.67-13 1.801-.318-.04-.658-.08-1-.141 0-5.25 4.25-9.5 9.5-9.5 3.051 0 5.772 1.441 7.5 3.67z" fill="#cedbff"/><path d="m59.984 36.715v3.28c0 3.53-2.039 6.59-5 8.061-1.199.6-2.568.939-4 .939-1.43 0-2.799-.34-4-.939-2.959-1.471-5-4.53-5-8.061v-.04-4.319c7.092.869 10.342-1.471 13-1.801 1.641-.21 3.061.34 5 2.88z" fill="#d7e9ff"/><path d="m56.982 34.073v5.922c0 3.53-2.039 6.59-5 8.061-.771.385-1.617.649-2.498.799.49.083.99.141 1.5.141 1.432 0 2.801-.34 4-.939 2.961-1.471 5-4.53 5-8.061v-3.28c-1.129-1.48-2.08-2.27-3.002-2.643z" fill="#cedbff"/><path d="m13.016 48.995c1.439 0 2.799-.34 4-.939v3.939l-2 1-2-1-2 1-2-1v-3.939c1.199.599 2.56.939 4 .939z" fill="#cedbff"/><path d="m25.016 56.995v3c0 .55-.451 1-1 1h-22c-.551 0-1-.45-1-1v-3c0-2.76 2.24-5 5-5h3l2 1 2-1 2 1 2-1h3c2.769 0 5 2.24 5 5z" fill="#cedbff"/><path d="m20.016 51.995h-3c2.768.002 4.996 2.241 4.996 5v3c0 .55-.449 1-1 1h3.004c.549 0 1-.45 1-1v-3c0-2.76-2.231-5-5-5z" fill="#5c9eff"/><path d="m22.016 37.016v2.979c0 3.53-2.041 6.59-5 8.061-1.201.6-2.561.939-4 .939s-2.801-.34-4-.939c-2.951-1.46-4.98-4.5-5-8.011v-.05-2.979l3-2.021s3.01 1 6.5 1 5.5-1 5.5-1z" fill="#d7e9ff"/><path d="m19.016 34.995-.004.001v4.999c0 3.53-2.039 6.59-5 8.061-.771.386-1.615.649-2.498.799.49.083.988.141 1.502.141 1.439 0 2.799-.34 4-.939 2.959-1.471 5-4.53 5-8.061v-2.979z" fill="#cedbff"/><path d="m22.016 33.995v3.021l-3-2.021s-2.01 1-5.5 1-6.5-1-6.5-1l-3 2.021v-3.021c0-4.42 3.58-8 8-8h6v4c2.209 0 4 1.79 4 4z" fill="#cedbff"/><path d="m22.016 37.016v-3.021c0-2.21-1.791-4-4-4v-4h-3v4c0 1.657 1.342 3 3 3 .551 0 1 .448 1 1v1z" fill="#5c9eff"/><g fill="#0444f9"><path d="m1.018 57.998c-.553 0-1-.447-1-1 0-3.309 2.691-6 6-6 .553 0 1 .447 1 1s-.447 1-1 1c-2.206 0-4 1.794-4 4 0 .553-.448 1-1 1z"/><path d="m9.018 52.998h-3c-.553 0-1-.447-1-1s.447-1 1-1h3c.553 0 1 .447 1 1s-.448 1-1 1z"/><path d="m1.018 60.998c-.553 0-1-.447-1-1v-3c0-.553.447-1 1-1s1 .447 1 1v3c0 .553-.448 1-1 1z"/><path d="m2.018 61.998c-1.103 0-2-.897-2-2 0-.531.418-.914.948-.943.553-.035.993.416 1.052.942.552 0 1 .448 1 1 0 .553-.448 1.001-1 1.001z"/><path d="m25.018 57.998c-.553 0-1-.447-1-1 0-2.206-1.794-4-4-4-.553 0-1-.447-1-1s.447-1 1-1c3.309 0 6 2.691 6 6 0 .553-.448 1-1 1z"/><path d="m20.018 52.998h-3c-.553 0-1-.447-1-1s.447-1 1-1h3c.553 0 1 .447 1 1s-.448 1-1 1z"/><path d="m25.018 60.998c-.553 0-1-.447-1-1v-3c0-.553.447-1 1-1s1 .447 1 1v3c0 .553-.448 1-1 1z"/><path d="m24.018 61.998c-.553 0-1-.447-1-1s.447-1 1-1c0-.553.447-1 1-1s1 .447 1 1c0 1.103-.898 2-2 2z"/><path d="m24.018 61.998h-22c-.553 0-1-.447-1-1s.447-1 1-1h22c.553 0 1 .447 1 1s-.448 1-1 1z"/><path d="m9.018 52.998c-.553 0-1-.447-1-1v-3.936c0-.553.447-1 1-1s1 .447 1 1v3.936c0 .553-.448 1-1 1z"/><path d="m17.018 52.998c-.553 0-1-.447-1-1v-3.936c0-.553.447-1 1-1s1 .447 1 1v3.936c0 .553-.448 1-1 1z"/><path d="m13.017 49.998c-5.514 0-9.999-4.485-9.999-9.998 0-.553.447-1 1-1s1 .447 1 1c0 4.41 3.588 7.998 7.999 7.998 4.412 0 8.001-3.588 8.001-7.998 0-.553.447-1 1-1s1 .447 1 1c0 5.513-4.487 9.998-10.001 9.998z"/><path d="m4.018 41.049c-.553 0-1-.447-1-1v-6.051c0-.553.447-1 1-1s1 .447 1 1v6.051c0 .553-.448 1-1 1z"/><path d="m22.018 41c-.553 0-1-.447-1-1v-6.002c0-.553.447-1 1-1s1 .447 1 1v6.002c0 .553-.448 1-1 1z"/><path d="m22.018 34.998c-.553 0-1-.447-1-1 0-1.654-1.346-3-3-3-.553 0-1-.447-1-1s.447-1 1-1c2.757 0 5 2.243 5 5 0 .553-.448 1-1 1z"/><path d="m18.018 30.998c-.553 0-1-.447-1-1v-4c0-.553.447-1 1-1s1 .447 1 1v4c0 .553-.448 1-1 1z"/><path d="m18.018 26.998h-6c-.553 0-1-.447-1-1s.447-1 1-1h6c.553 0 1 .447 1 1s-.448 1-1 1z"/><path d="m4.018 34.998c-.553 0-1-.447-1-1 0-4.963 4.037-9 9-9 .553 0 1 .447 1 1s-.447 1-1 1c-3.859 0-7 3.141-7 7 0 .553-.448 1-1 1z"/><path d="m22.017 38.023c-.192 0-.387-.056-.559-.171l-3-2.025c-.458-.31-.578-.931-.27-1.389.31-.457.93-.577 1.389-.27l3 2.025c.458.31.578.931.27 1.389-.194.287-.509.441-.83.441z"/><path d="m13.518 36.998c-3.612 0-6.687-1.008-6.815-1.051-.523-.175-.807-.74-.634-1.264.174-.523.74-.81 1.264-.635.029.01 2.908.949 6.186.949 3.178 0 5.04-.888 5.059-.897.493-.24 1.094-.037 1.337.457s.043 1.09-.449 1.336c-.093.045-2.263 1.105-5.948 1.105z"/><path d="m4.019 38.023c-.321 0-.637-.154-.83-.44-.309-.458-.189-1.079.269-1.389l3-2.025c.46-.308 1.08-.188 1.389.27s.188 1.079-.27 1.389l-3 2.025c-.172.115-.366.17-.558.17z"/><path d="m11.017 53.998c-.15 0-.303-.034-.446-.105l-2-1c-.494-.247-.694-.848-.447-1.342.248-.494.848-.692 1.342-.447l2 1c.494.247.694.848.447 1.342-.177.35-.529.552-.896.552z"/><path d="m11.019 53.998c-.367 0-.72-.202-.896-.553-.247-.494-.047-1.095.447-1.342l2-1c.494-.245 1.094-.047 1.342.447.247.494.047 1.095-.447 1.342l-2 1c-.144.072-.296.106-.446.106z"/><path d="m15.019 53.998c-.367 0-.72-.202-.896-.553-.247-.494-.047-1.095.447-1.342l2-1c.495-.245 1.094-.047 1.342.447.247.494.047 1.095-.447 1.342l-2 1c-.144.072-.296.106-.446.106z"/><path d="m15.017 53.998c-.15 0-.303-.034-.446-.105l-2-1c-.494-.247-.694-.848-.447-1.342.248-.494.849-.692 1.342-.447l2 1c.494.247.694.848.447 1.342-.177.35-.529.552-.896.552z"/><path d="m41.984 40.959c-.553 0-1-.447-1-1v-4.32c0-.553.447-1 1-1s1 .447 1 1v4.32c0 .553-.447 1-1 1z"/><path d="m59.984 40.998c-.553 0-1-.447-1-1v-4.5c0-.553.447-1 1-1s1 .447 1 1v4.5c0 .553-.447 1-1 1z"/><path d="m59.984 36.498c-.553 0-1-.447-1-1 0-4.687-3.813-8.5-8.501-8.5-4.687 0-8.499 3.813-8.499 8.5 0 .553-.447 1-1 1s-1-.447-1-1c0-5.79 4.71-10.5 10.499-10.5 5.79 0 10.501 4.71 10.501 10.5 0 .553-.447 1-1 1z"/><path d="m59.985 37.715c-.301 0-.598-.135-.795-.392-2.425-3.166-3.515-2.813-6.423-1.871-2.559.828-6.063 1.965-11.939 1.033-.545-.086-.918-.598-.831-1.144.086-.545.599-.919 1.144-.831 5.403.85 8.646-.196 11.011-.962 2.987-.966 5.346-1.728 8.627 2.558.336.438.253 1.066-.186 1.402-.182.139-.396.207-.608.207z"/><path d="m54.983 34.834c-.202 0-.406-.062-.583-.188-.448-.322-.55-.947-.228-1.396l3-4.168c.322-.449.946-.55 1.396-.228.448.322.55.947.228 1.396l-3 4.168c-.195.271-.502.416-.813.416z"/><path d="m38.984 57.998c-.553 0-1-.447-1-1 0-3.309 2.691-6 6-6 .553 0 1 .447 1 1s-.447 1-1 1c-2.206 0-4 1.794-4 4 0 .553-.447 1-1 1z"/><path d="m46.984 52.998h-3c-.553 0-1-.447-1-1s.447-1 1-1h3c.553 0 1 .447 1 1s-.447 1-1 1z"/><path d="m38.984 60.998c-.553 0-1-.447-1-1v-3c0-.553.447-1 1-1s1 .447 1 1v3c0 .553-.447 1-1 1z"/><path d="m39.984 61.998c-1.103 0-2-.897-2-2 0-.531.418-.914.948-.943.573-.035.992.416 1.052.942.552 0 1 .448 1 1 0 .553-.447 1.001-1 1.001z"/><path d="m62.984 57.998c-.553 0-1-.447-1-1 0-2.206-1.794-4-4-4-.553 0-1-.447-1-1s.447-1 1-1c3.309 0 6 2.691 6 6 0 .553-.447 1-1 1z"/><path d="m57.984 52.998h-3c-.553 0-1-.447-1-1s.447-1 1-1h3c.553 0 1 .447 1 1s-.447 1-1 1z"/><path d="m62.984 60.998c-.553 0-1-.447-1-1v-3c0-.553.447-1 1-1s1 .447 1 1v3c0 .553-.447 1-1 1z"/><path d="m61.984 61.998c-.553 0-1-.447-1-1s.447-1 1-1c0-.553.447-1 1-1s1 .447 1 1c0 1.103-.897 2-2 2z"/><path d="m61.984 61.998h-22c-.553 0-1-.447-1-1s.447-1 1-1h22c.553 0 1 .447 1 1s-.447 1-1 1z"/><path d="m46.984 52.998c-.553 0-1-.447-1-1v-3.936c0-.553.447-1 1-1s1 .447 1 1v3.936c0 .553-.447 1-1 1z"/><path d="m54.984 52.998c-.553 0-1-.447-1-1v-3.936c0-.553.447-1 1-1s1 .447 1 1v3.936c0 .553-.447 1-1 1z"/><path d="m50.983 49.998c-5.514 0-9.999-4.485-9.999-9.998 0-.553.447-1 1-1s1 .447 1 1c0 4.41 3.588 7.998 7.999 7.998 4.412 0 8.001-3.588 8.001-7.998 0-.553.447-1 1-1s1 .447 1 1c0 5.513-4.486 9.998-10.001 9.998z"/><path d="m48.983 53.998c-.15 0-.303-.034-.446-.105l-2-1c-.494-.247-.694-.848-.447-1.342.248-.494.847-.692 1.342-.447l2 1c.494.247.694.848.447 1.342-.176.35-.528.552-.896.552z"/><path d="m48.985 53.998c-.367 0-.72-.202-.896-.553-.247-.494-.047-1.095.447-1.342l2-1c.493-.245 1.094-.047 1.342.447.247.494.047 1.095-.447 1.342l-2 1c-.143.072-.295.106-.446.106z"/><path d="m52.985 53.998c-.367 0-.72-.202-.896-.553-.247-.494-.047-1.095.447-1.342l2-1c.494-.245 1.094-.047 1.342.447.247.494.047 1.095-.447 1.342l-2 1c-.143.072-.295.106-.446.106z"/><path d="m52.983 53.998c-.15 0-.303-.034-.446-.105l-2-1c-.494-.247-.694-.848-.447-1.342.248-.494.848-.692 1.342-.447l2 1c.494.247.694.848.447 1.342-.176.35-.528.552-.896.552z"/><path d="m50.984 22.998c-.553 0-1-.447-1-1v-8.996c0-.553.447-1 1-1s1 .447 1 1v8.996c0 .553-.447 1-1 1z"/><path d="m50.984 14.002h-5.001c-.553 0-1-.447-1-1s.447-1 1-1h5.001c.553 0 1 .447 1 1s-.447 1-1 1z"/><path d="m12.982 22.998c-.553 0-1-.447-1-1v-8.996c0-.553.447-1 1-1s1 .447 1 1v8.996c0 .553-.447 1-1 1z"/><path d="m17.983 14.002h-5.001c-.553 0-1-.447-1-1s.447-1 1-1h5.001c.553 0 1 .447 1 1s-.447 1-1 1z"/><path d="m38.498 17.996h-13.492c-.553 0-1-.447-1-1s.447-1 1-1h13.492c.553 0 1 .447 1 1s-.447 1-1 1z"/><path d="m38.994 11.006c-.553 0-1-.447-1-1 0-3.309-2.691-6-6-6s-6 2.691-6 6c0 .553-.447 1-1 1s-1-.447-1-1c0-4.411 3.589-8 8-8s8 3.589 8 8c0 .553-.447 1-1 1z"/><path d="m38.498 17.996c-.553 0-1-.447-1-1s.447-1 1-1c1.93 0 3.5-1.568 3.5-3.496 0-1.874-1.467-3.409-3.339-3.495-.552-.025-.979-.493-.953-1.045s.502-.974 1.045-.953c2.942.135 5.247 2.548 5.247 5.493 0 3.03-2.468 5.496-5.5 5.496z"/><path d="m25.006 17.996c-2.762 0-5.008-2.246-5.008-5.006s2.246-5.006 5.008-5.006c.553 0 1 .447 1 1s-.447 1-1 1c-1.658 0-3.008 1.349-3.008 3.006s1.35 3.006 3.008 3.006c.553 0 1 .447 1 1s-.447 1-1 1z"/><path d="m38.498 20.998h-13.492c-.553 0-1-.447-1-1s.447-1 1-1h13.492c.553 0 1 .447 1 1s-.447 1-1 1z"/><path d="m38.498 20.998c-.553 0-1-.447-1-1s.447-1 1-1c1.93 0 3.5-1.568 3.5-3.496 0-.553.447-1 1-1s1 .447 1 1c0 3.03-2.468 5.496-5.5 5.496z"/><path d="m25.006 20.998c-2.762 0-5.008-2.245-5.008-5.004 0-.553.447-1 1-1s1 .447 1 1c0 1.656 1.35 3.004 3.008 3.004.553 0 1 .447 1 1s-.447 1-1 1z"/><path d="m20.998 16.994c-.553 0-1-.447-1-1v-3.004c0-.553.447-1 1-1s1 .447 1 1v3.004c0 .553-.447 1-1 1z"/><path d="m42.998 16.502c-.553 0-1-.447-1-1v-3.002c0-.553.447-1 1-1s1 .447 1 1v3.002c0 .553-.447 1-1 1z"/><path d="m32.001 34.996c-3.309 0-6-2.691-6-6s2.691-6 6-6 6 2.691 6 6-2.691 6-6 6zm0-10c-2.206 0-4 1.794-4 4s1.794 4 4 4 4-1.794 4-4-1.794-4-4-4z"/><path d="m32.001 31.998c-.553 0-1-.447-1-1v-4c0-.553.447-1 1-1s1 .447 1 1v4c0 .553-.447 1-1 1z"/><path d="m34.001 29.998h-4c-.553 0-1-.447-1-1s.447-1 1-1h4c.553 0 1 .447 1 1s-.447 1-1 1z"/></g></svg>