<svg id="icons" enable-background="new 0 0 64 64" height="512" viewBox="0 0 64 64" width="512" xmlns="http://www.w3.org/2000/svg"><path d="m32 58.995c1.11 0 2 .9 2 2 0 1.11-.89 2-2 2-1.1 0-2-.89-2-2 0-1.099.9-2 2-2z" fill="#d7e9ff"/><path d="m17 36.005v3.971h-3c-5.53 0-10-4.48-10-10v-3.971c0 5.521 4.47 10 10 10z" fill="#d7e9ff"/><path d="m60 27.476c0 6.899-5.6 12.5-12.5 12.5h-.5v-3.971h.5c6.9 0 12.5-5.6 12.5-12.5z" fill="#d7e9ff"/><path d="m15.12 16.025c.97-8.46 8.16-15.02 16.88-15.02 6.89 0 12.83 4.101 15.49 10h.01c6.9 0 12.5 5.601 12.5 12.5 0 6.9-5.6 12.5-12.5 12.5h-.5v-.02h-1v-4-6c0-1.66-1.34-3-3-3h-23c-1.65 0-3 1.34-3 3v10.02h-3c-5.53 0-10-4.479-10-10 0-5.52 4.47-10 10-10h1z" fill="#fff"/><path d="m47 36.005v3.971 4.009h-1-6l-2-4 2-4h6 1z" fill="#5c9eff"/><path d="m20 28.985h23c1.66 0 3 1.34 3 3v4h-6l-2 4 2 4h6v4c0 1.66-1.34 3-3 3h-23c-1.66 0-3-1.34-3-3v-8.01-3.971-10.02c0 1.662 1.35 3.001 3 3.001z" fill="#cedbff"/><path d="m20 22.985h23c1.66 0 3 1.34 3 3v6c0-1.66-1.34-3-3-3h-23c-1.65 0-3-1.34-3-3s1.35-3 3-3z" fill="#5c9eff"/><g fill="#0444f9"><path d="m20.007 29.985c-2.206 0-4-1.794-4-4s1.794-4 4-4c.553 0 1 .447 1 1s-.447 1-1 1c-1.103 0-2 .897-2 2s.897 2 2 2c.553 0 1 .447 1 1s-.447 1-1 1z"/><path d="m43.003 23.985h-22.996c-.553 0-1-.447-1-1s.447-1 1-1h22.996c.553 0 1 .447 1 1s-.447 1-1 1z"/><path d="m46.003 26.985c-.553 0-1-.447-1-1 0-1.103-.897-2-2-2-.553 0-1-.447-1-1s.447-1 1-1c2.206 0 4 1.794 4 4 0 .553-.447 1-1 1z"/><path d="m43.003 29.985h-22.996c-.553 0-1-.447-1-1s.447-1 1-1h22.996c.553 0 1 .447 1 1s-.447 1-1 1z"/><path d="m46.003 32.985c-.553 0-1-.447-1-1 0-1.103-.897-2-2-2-.553 0-1-.447-1-1s.447-1 1-1c2.206 0 4 1.794 4 4 0 .553-.447 1-1 1z"/><path d="m43.003 51.987c-.553 0-1-.447-1-1s.447-1 1-1c1.103 0 2-.897 2-2 0-.553.447-1 1-1s1 .447 1 1c0 2.206-1.794 4-4 4z"/><path d="m20.007 51.987c-2.206 0-4-1.794-4-4 0-.553.447-1 1-1s1 .447 1 1c0 1.103.897 2 2 2 .553 0 1 .447 1 1s-.447 1-1 1z"/><path d="m46.003 48.987c-.553 0-1-.447-1-1v-4c0-.553.447-1 1-1s1 .447 1 1v4c0 .553-.447 1-1 1z"/><path d="m17.007 48.987c-.553 0-1-.447-1-1v-22.002c0-.553.447-1 1-1s1 .447 1 1v22.002c0 .553-.447 1-1 1z"/><path d="m43.003 51.987h-22.996c-.553 0-1-.447-1-1s.447-1 1-1h22.996c.553 0 1 .447 1 1s-.447 1-1 1z"/><path d="m41.003 26.985h-18.996c-.553 0-1-.447-1-1s.447-1 1-1h18.996c.553 0 1 .447 1 1s-.447 1-1 1z"/><path d="m47.003 36.985h-7c-.553 0-1-.447-1-1s.447-1 1-1h7c.553 0 1 .447 1 1s-.447 1-1 1z"/><path d="m47.003 44.987h-7c-.553 0-1-.447-1-1s.447-1 1-1h7c.553 0 1 .447 1 1s-.447 1-1 1z"/><path d="m40.004 44.987c-.367 0-.721-.202-.896-.553l-2-4.001c-.247-.494-.047-1.095.447-1.342.495-.245 1.096-.047 1.342.447l2 4.001c.247.494.047 1.095-.447 1.342-.143.072-.296.106-.446.106z"/><path d="m38.002 40.986c-.15 0-.303-.034-.446-.105-.494-.247-.694-.848-.447-1.342l2-4.001c.246-.494.848-.692 1.342-.447.494.247.694.848.447 1.342l-2 4.001c-.175.35-.529.552-.896.552z"/><path d="m46.003 36.985c-.553 0-1-.447-1-1v-10c0-.553.447-1 1-1s1 .447 1 1v10c0 .553-.447 1-1 1z"/><path d="m47.003 44.987c-.553 0-1-.447-1-1v-8.002c0-.553.447-1 1-1s1 .447 1 1v8.002c0 .553-.447 1-1 1z"/><path d="m42.033 40.986c-.553 0-1.005-.447-1.005-1s.442-1 .994-1h.011c.552 0 1 .447 1 1s-.448 1-1 1z"/><path d="m48.999 19.005c-.553 0-1-.447-1-1 0-8.822-7.178-16-16-16s-16 7.178-16 16c0 .553-.447 1-1 1s-1-.447-1-1c0-9.925 8.075-18 18-18s18 8.075 18 18c0 .553-.447 1-1 1z"/><path d="m47.499 37.003c-.553 0-1-.447-1-1s.447-1 1-1c6.341 0 11.5-5.158 11.5-11.499s-5.159-11.5-11.5-11.5c-.553 0-1-.447-1-1s.447-1 1-1c7.444 0 13.5 6.056 13.5 13.5 0 7.443-6.056 13.499-13.5 13.499z"/><path d="m13.999 37.003c-6.065 0-11-4.935-11-10.999 0-6.065 4.935-11 11-11 .553 0 1 .447 1 1s-.447 1-1 1c-4.963 0-9 4.037-9 9 0 4.962 4.037 8.999 9 8.999.553 0 1 .447 1 1s-.447 1-1 1z"/><path d="m47.499 37.003h-.496c-.553 0-1-.447-1-1s.447-1 1-1h.496c.553 0 1 .447 1 1s-.447 1-1 1z"/><path d="m17.005 37.003h-3.006c-.553 0-1-.447-1-1s.447-1 1-1h3.006c.553 0 1 .447 1 1s-.447 1-1 1z"/><path d="m14.999 17.004h-1c-.553 0-1-.447-1-1s.447-1 1-1h1c.553 0 1 .447 1 1s-.447 1-1 1z"/><path d="m47.499 40.974c-.553 0-1-.447-1-1s.447-1 1-1c6.341 0 11.5-5.158 11.5-11.499 0-.553.447-1 1-1s1 .447 1 1c0 7.443-6.056 13.499-13.5 13.499z"/><path d="m13.999 40.974c-6.065 0-11-4.935-11-10.999 0-.553.447-1 1-1s1 .447 1 1c0 4.962 4.037 8.999 9 8.999.553 0 1 .447 1 1s-.447 1-1 1z"/><path d="m47.499 40.974h-.496c-.553 0-1-.447-1-1s.447-1 1-1h.496c.553 0 1 .447 1 1s-.447 1-1 1z"/><path d="m17.005 40.974h-3.006c-.553 0-1-.447-1-1s.447-1 1-1h3.006c.553 0 1 .447 1 1s-.447 1-1 1z"/><path d="m59.999 28.475c-.553 0-1-.447-1-1v-3.971c0-.553.447-1 1-1s1 .447 1 1v3.971c0 .552-.447 1-1 1z"/><path d="m3.999 30.975c-.553 0-1-.447-1-1v-3.971c0-.553.447-1 1-1s1 .447 1 1v3.971c0 .552-.447 1-1 1z"/><path d="m32.005 59.999c-.553 0-1-.447-1-1v-7.999c0-.553.447-1 1-1s1 .447 1 1v7.999c0 .553-.447 1-1 1z"/><path d="m32.005 63.999c-1.654 0-3-1.346-3-3s1.346-3 3-3 3 1.346 3 3-1.346 3-3 3zm0-4c-.552 0-1 .448-1 1s.448 1 1 1 1-.448 1-1-.448-1-1-1z"/><path d="m60.003 61.999h-25.998c-.553 0-1-.447-1-1s.447-1 1-1h25.998c.553 0 1 .447 1 1s-.447 1-1 1z"/><path d="m30.005 61.999h-25.996c-.553 0-1-.447-1-1s.447-1 1-1h25.996c.553 0 1 .447 1 1s-.447 1-1 1z"/></g></svg>