<svg id="icons" enable-background="new 0 0 64 64" height="512" viewBox="0 0 64 64" width="512" xmlns="http://www.w3.org/2000/svg"><path d="m60.995 34h-26c-1.1 0-2 .9-2 2v17h.05 29.95v-17c0-1.1-.899-2-2-2z" fill="#fff"/><path d="m51.995 57 1 5h-10l1-5z" fill="#5c9eff"/><path d="m33.045 53h29.95v2c0 1.1-.899 2-2 2h-9-8-9c-1.1 0-2-.9-2-2v-2z" fill="#cedbff"/><path d="m57.995 41v3h-8l-3-3z" fill="#d7e9ff"/><path d="m49.995 44h-11.99v-3h8.99z" fill="#cedbff"/><path d="m37.005 20c0 4.42-3.59 8-8 8h-21.5c-3.59 0-6.5-2.91-6.5-6.5v-4.01c0 3.59 2.91 6.5 6.5 6.5h21.5c4.41 0 8-3.58 8-7.99z" fill="#d7e9ff"/><path d="m29.005 8c4.41 0 8 3.58 8 8 0 4.41-3.59 7.99-8 7.99h-21.5c-3.59 0-6.5-2.91-6.5-6.5 0-3.58 2.91-6.49 6.5-6.49h.681c.939-5.12 5.42-9 10.819-9 4.271 0 7.98 2.44 9.801 6z" fill="#fff"/><g fill="#0444f9"><path d="m29.006 24.998h-21.5c-.553 0-1-.447-1-1s.447-1 1-1h21.5c.553 0 1 .447 1 1s-.447 1-1 1z"/><path d="m30.006 14.002c-.553 0-1-.447-1-1 0-5.514-4.486-10-10-10s-10 4.486-10 10c0 .553-.447 1-1 1s-1-.447-1-1c0-6.617 5.383-12 12-12s12 5.383 12 12c0 .553-.447 1-1 1z"/><path d="m29.006 24.998c-.553 0-1-.447-1-1s.447-1 1-1c3.859 0 7-3.139 7-6.997 0-3.859-3.141-6.999-7-6.999-.553 0-1-.447-1-1s.447-1 1-1c4.963 0 9 4.037 9 8.999 0 4.961-4.037 8.997-9 8.997z"/><path d="m7.506 24.998c-4.136 0-7.5-3.364-7.5-7.499 0-4.134 3.364-7.497 7.5-7.497.553 0 1 .447 1 1s-.447 1-1 1c-3.032 0-5.5 2.466-5.5 5.497 0 3.032 2.468 5.499 5.5 5.499.553 0 1 .447 1 1s-.447 1-1 1z"/><path d="m29.006 29.002h-21.5c-.553 0-1-.447-1-1s.447-1 1-1h21.5c.553 0 1 .447 1 1s-.447 1-1 1z"/><path d="m29.006 29.002c-.553 0-1-.447-1-1s.447-1 1-1c3.859 0 7-3.14 7-6.998 0-.553.447-1 1-1s1 .447 1 1c0 4.962-4.037 8.998-9 8.998z"/><path d="m7.506 29.002c-4.136 0-7.5-3.364-7.5-7.499 0-.553.447-1 1-1s1 .447 1 1c0 3.032 2.468 5.499 5.5 5.499.553 0 1 .447 1 1s-.447 1-1 1z"/><path d="m8.188 12.002h-.682c-.553 0-1-.447-1-1s.447-1 1-1h.682c.553 0 1 .447 1 1s-.448 1-1 1z"/><path d="m29.006 9.002h-.199c-.553 0-1-.447-1-1s.447-1 1-1h.199c.553 0 1 .447 1 1s-.447 1-1 1z"/><path d="m1.006 22.503c-.553 0-1-.447-1-1v-4.004c0-.553.447-1 1-1s1 .447 1 1v4.004c0 .553-.447 1-1 1z"/><path d="m37.006 21.004c-.553 0-1-.447-1-1v-4.003c0-.553.447-1 1-1s1 .447 1 1v4.003c0 .553-.447 1-1 1z"/><path d="m48.027 56.002c-.553 0-1.005-.447-1.005-1s.442-1 .994-1h.011c.552 0 1 .447 1 1s-.448 1-1 1z"/><path d="m62.996 54.002h-29.949c-.553 0-1-.447-1-1s.447-1 1-1h29.949c.553 0 1 .447 1 1s-.447 1-1 1z"/><path d="m60.996 58.002h-25.996c-1.654 0-3-1.346-3-3v-18.997c0-1.654 1.346-3 3-3h25.996c1.654 0 3 1.346 3 3v18.997c0 1.654-1.346 3-3 3zm-25.996-22.997c-.552 0-1 .448-1 1v18.997c0 .552.448 1 1 1h25.996c.552 0 1-.448 1-1v-18.997c0-.552-.448-1-1-1z"/><path d="m42.998 63.002c-.065 0-.131-.006-.197-.02-.541-.108-.893-.635-.784-1.177l1-5c.107-.543.636-.896 1.177-.784.541.108.893.635.784 1.177l-1 5c-.095.476-.513.804-.98.804z"/><path d="m52.996 63.002c-.467 0-.885-.328-.979-.804l-1-5c-.108-.542.243-1.068.784-1.177.549-.113 1.069.243 1.177.784l1 5c.108.542-.243 1.068-.784 1.177-.067.014-.133.02-.198.02z"/><path d="m54.997 63.002h-14c-.553 0-1-.447-1-1s.447-1 1-1h14c.553 0 1 .447 1 1s-.447 1-1 1z"/><path d="m58.005 45.002h-19.999c-.553 0-1-.447-1-1v-3c0-.553.447-1 1-1h19.999c.553 0 1 .447 1 1v3c0 .553-.447 1-1 1zm-18.999-2h17.999v-1h-17.999z"/><path d="m50.005 45.002c-.256 0-.512-.098-.707-.293l-3-3c-.391-.391-.391-1.023 0-1.414s1.023-.391 1.414 0l3 3c.391.391.391 1.023 0 1.414-.195.195-.451.293-.707.293z"/><path d="m51.005 47.999h-5.999c-.553 0-1-.447-1-1s.447-1 1-1h5.999c.553 0 1 .447 1 1s-.447 1-1 1z"/><path d="m51.007 30.999c-.553 0-1-.447-1-1v-10.998c0-.553.447-1 1-1s1 .447 1 1v10.998c0 .553-.447 1-1 1z"/><path d="m51.001 20.001h-9.996c-.553 0-1-.447-1-1s.447-1 1-1h9.996c.553 0 1 .447 1 1s-.447 1-1 1z"/><path d="m43.005 22.001c-.256 0-.512-.098-.707-.293l-2-2c-.391-.391-.391-1.023 0-1.414s1.023-.391 1.414 0l2 2c.391.391.391 1.023 0 1.414-.195.195-.451.293-.707.293z"/><path d="m41.005 20.001c-.256 0-.512-.098-.707-.293-.391-.391-.391-1.023 0-1.414l2-2c.391-.391 1.023-.391 1.414 0s.391 1.023 0 1.414l-2 2c-.195.195-.451.293-.707.293z"/><path d="m19.006 43.998c-.553 0-1-.447-1-1v-10.998c0-.553.447-1 1-1s1 .447 1 1v10.998c0 .553-.447 1-1 1z"/><path d="m29.008 43.998h-9.996c-.553 0-1-.447-1-1s.447-1 1-1h9.996c.553 0 1 .447 1 1s-.447 1-1 1z"/><path d="m29.008 43.998c-.256 0-.512-.098-.707-.293l-2-2c-.391-.391-.391-1.023 0-1.414s1.023-.391 1.414 0l2 2c.391.391.391 1.023 0 1.414-.195.195-.451.293-.707.293z"/><path d="m27.008 45.998c-.256 0-.512-.098-.707-.293-.391-.391-.391-1.023 0-1.414l2-2c.391-.391 1.023-.391 1.414 0s.391 1.023 0 1.414l-2 2c-.195.195-.451.293-.707.293z"/></g></svg>