<svg id="icons" enable-background="new 0 0 64 64" height="512" viewBox="0 0 64 64" width="512" xmlns="http://www.w3.org/2000/svg"><path d="m57.04 23h-.04-9.83c-.05.01-.11.01-.16.01h-1-10-8.01-10.99c-.05 0-.1 0-.149-.01h-9.861c-1.1 0-2 .89-2 2v32h20 14 20v-32c0-1.1-.87-1.98-1.96-2z" fill="#d7e9ff"/><path d="m25 60h14v-3h20 4v4c0 1.11-.89 2-2 2h-58c-1.1 0-2-.89-2-2v-4h4 20z" fill="#cedbff"/><path d="m25 57h14v3h-14z" fill="#5c9eff"/><path d="m23.07 41.01c.489-4.5 4.31-8 8.939-8 3.91 0 7.25 2.51 8.48 6.01 3.091.25 5.511 2.83 5.511 5.98 0 3.31-2.68 6-6 6h-17c-2.75 0-4.99-2.24-4.99-5 0-2.75 2.24-4.99 4.99-4.99z" fill="#fff"/><path d="m47.01 1c1.65 0 3 1.35 3 3v16.01c0 1.601-1.26 2.91-2.84 2.99h-1.16v-22z" fill="#cedbff"/><path d="m36.01 23h-8.01-11.14c-1.58-.07-2.851-1.39-2.851-2.99v-16.01c0-1.65 1.351-3 3-3h29v22z" fill="#d7e9ff"/><g fill="#0444f9"><path d="m3.001 64c-1.654 0-3-1.346-3-3 0-.553.447-1 1-1s1 .447 1 1c0 .552.448 1 1 1 .553 0 1 .447 1 1s-.447 1-1 1z"/><path d="m5.001 25.998c-.553 0-1-.447-1-1 0-1.654 1.346-3 3-3 .553 0 1 .447 1 1s-.447 1-1 1c-.552 0-1 .448-1 1 0 .553-.447 1-1 1z"/><path d="m1.001 62c-.553 0-1-.447-1-1v-4.001c0-.553.447-1 1-1s1 .447 1 1v4.001c0 .553-.447 1-1 1z"/><path d="m61.001 64c-.553 0-1-.447-1-1s.447-1 1-1c.552 0 1-.448 1-1 0-.553.447-1 1-1s1 .447 1 1c0 1.654-1.346 3-3 3z"/><path d="m63.001 62c-.553 0-1-.447-1-1v-4.001c0-.553.447-1 1-1s1 .447 1 1v4.001c0 .553-.447 1-1 1z"/><path d="m63.001 57.999h-62c-.553 0-1-.447-1-1s.447-1 1-1h62c.553 0 1 .447 1 1s-.447 1-1 1z"/><path d="m61.001 64h-58c-.553 0-1-.447-1-1s.447-1 1-1h58c.553 0 1 .447 1 1s-.447 1-1 1z"/><path d="m5.001 57.995c-.553 0-1-.447-1-1v-31.997c0-.553.447-1 1-1s1 .447 1 1v31.997c0 .553-.447 1-1 1z"/><path d="m59.001 25.998c-.553 0-1-.447-1-1 0-.552-.448-1-1-1-.553 0-1-.447-1-1s.447-1 1-1c1.654 0 3 1.346 3 3 0 .553-.447 1-1 1z"/><path d="m59.001 57.995c-.553 0-1-.447-1-1v-31.997c0-.553.447-1 1-1s1 .447 1 1v31.997c0 .553-.447 1-1 1z"/><path d="m57.042 23.998h-50.041c-.553 0-1-.447-1-1s.447-1 1-1h50.041c.553 0 1 .447 1 1s-.447 1-1 1z"/><path d="m25.002 60.997c-.553 0-1-.447-1-1v-3.002c0-.553.447-1 1-1s1 .447 1 1v3.002c0 .553-.447 1-1 1z"/><path d="m39.001 60.997h-13.999c-.553 0-1-.447-1-1s.447-1 1-1h13.999c.553 0 1 .447 1 1s-.447 1-1 1z"/><path d="m39.001 60.997c-.553 0-1-.447-1-1v-2.998c0-.553.447-1 1-1s1 .447 1 1v2.998c0 .553-.447 1-1 1z"/><path d="m40.005 51.998h-17c-.553 0-1-.447-1-1s.447-1 1-1h17c.553 0 1 .447 1 1s-.447 1-1 1z"/><path d="m41.003 43.007c-.553 0-1-.447-1-1 0-4.409-3.587-7.996-7.996-7.996s-7.996 3.587-7.996 7.996c0 .553-.447 1-1 1s-1-.447-1-1c0-5.512 4.484-9.996 9.996-9.996s9.996 4.484 9.996 9.996c0 .553-.447 1-1 1z"/><path d="m40.005 51.999c-.553 0-1-.447-1-1s.447-1 1-1c2.757 0 5-2.241 5-4.996 0-2.59-2.02-4.778-4.599-4.981-.55-.044-.961-.525-.918-1.076.044-.55.511-.947 1.076-.918 3.611.285 6.44 3.35 6.44 6.976.001 3.856-3.14 6.995-6.999 6.995z"/><path d="m23.005 51.998c-3.307 0-5.996-2.688-5.996-5.993 0-3.306 2.689-5.994 5.996-5.994.553 0 1 .447 1 1s-.447 1-1 1c-2.203 0-3.996 1.792-3.996 3.994s1.793 3.993 3.996 3.993c.553 0 1 .447 1 1s-.447 1-1 1z"/><path d="m23.065 42.011h-.061c-.553 0-1-.447-1-1s.447-1 1-1 1.03.447 1.03 1-.416 1-.969 1z"/><path d="m28.002 30.004c-.553 0-1-.447-1-1v-11.996c0-.553.447-1 1-1s1 .447 1 1v11.996c0 .553-.447 1-1 1z"/><path d="m30 20.006c-.256 0-.512-.098-.707-.293l-1.998-1.998c-.391-.391-.391-1.023 0-1.414s1.023-.391 1.414 0l1.998 1.998c.391.391.391 1.023 0 1.414-.195.195-.451.293-.707.293z"/><path d="m26.004 20.006c-.256 0-.512-.098-.707-.293-.391-.391-.391-1.023 0-1.414l1.998-1.998c.391-.391 1.023-.391 1.414 0s.391 1.023 0 1.414l-1.998 1.998c-.195.195-.451.293-.707.293z"/><path d="m36.01 30.004c-.553 0-1-.447-1-1v-11.996c0-.553.447-1 1-1s1 .447 1 1v11.996c0 .553-.447 1-1 1z"/><path d="m36.01 30.004c-.256 0-.512-.098-.707-.293l-1.998-1.998c-.391-.391-.391-1.023 0-1.414s1.023-.391 1.414 0l1.998 1.998c.391.391.391 1.023 0 1.414-.196.195-.451.293-.707.293z"/><path d="m36.01 30.004c-.256 0-.512-.098-.707-.293-.391-.391-.391-1.023 0-1.414l1.998-1.998c.391-.391 1.023-.391 1.414 0s.391 1.023 0 1.414l-1.998 1.998c-.196.195-.451.293-.707.293z"/><path d="m46.008 24.014c-.553 0-1-.447-1-1v-22.01c0-.553.447-1 1-1s1 .447 1 1v22.01c0 .552-.447 1-1 1z"/><path d="m48.036 13.009c-.553 0-1.005-.447-1.005-1s.442-1 .994-1h.011c.552 0 1 .447 1 1s-.448 1-1 1z"/><path d="m47.007 24.014h-30c-2.206 0-4-1.794-4-4v-16.01c0-2.206 1.794-4 4-4h30c2.206 0 4 1.794 4 4v16.01c0 2.206-1.794 4-4 4zm-30-22.01c-1.103 0-2 .897-2 2v16.01c0 1.103.897 2 2 2h30c1.103 0 2-.897 2-2v-16.01c0-1.103-.897-2-2-2z"/></g></svg>