<svg id="icons" enable-background="new 0 0 64 64" height="512" viewBox="0 0 64 64" width="512" xmlns="http://www.w3.org/2000/svg"><path d="m10.51 1h-.01c-1.65 0-3 1.35-3 3v.01 45c0-1.66 1.35-3 3-3h1 24.78c1.96-3.01 5.359-5 9.22-5v-23.01-14-3z" fill="#d7e9ff"/><path d="m42.23 51.09c.17.29.26.62.26.97 0 .351-.09.681-.26.971-.341.609-.99 1.029-1.74 1.029-1.11 0-2-.899-2-2 0-1.109.89-2 2-2 .75 0 1.41.42 1.74 1.03z" fill="#fff"/><path d="m48.49 46.06c1.1 0 2 .891 2 2 0 1.101-.9 2-2 2-.75 0-1.41-.42-1.75-1.029-.16-.29-.25-.62-.25-.971 0-1.11.89-2 2-2z" fill="#fff"/><path d="m42.23 51.09c-.33-.609-.99-1.03-1.74-1.03-1.11 0-2 .891-2 2 0 1.101.89 2 2 2 .75 0 1.399-.42 1.74-1.029.17-.29.26-.62.26-.971 0-.35-.09-.68-.26-.97zm4.51 3.99c-.16.29-.25.62-.25.97 0 1.11.89 2 2 2 1.1 0 2-.89 2-2 0-1.1-.9-2-2-2-.75 0-1.41.42-1.75 1.03zm0-6.05c.34.609 1 1.029 1.75 1.029 1.1 0 2-.899 2-2 0-1.109-.9-2-2-2-1.11 0-2 .891-2 2 0 .351.09.681.25.971zm-1.24-8.02c6.07 0 11 4.92 11 10.99 0 6.09-4.93 11-11 11-6.08 0-11-4.92-11-10.99 0-1.04.14-2.05.42-3 .3-1.08.76-2.09 1.36-3 1.96-3.01 5.36-5 9.22-5z" fill="#cedbff"/><path d="m48.49 54.05c1.1 0 2 .9 2 2 0 1.11-.9 2-2 2-1.11 0-2-.89-2-2 0-.35.09-.68.25-.97.34-.61 1-1.03 1.75-1.03z" fill="#fff"/><path d="m11.5 49.01h23.41.01c-.28.95-.42 1.96-.42 3h-24c-1.65 0-3-1.35-3-3 0-1.66 1.35-3 3-3h1z" fill="#cedbff"/><path d="m11.5 46.01h24.78c-.601.91-1.061 1.92-1.36 3h-.01-23.41z" fill="#fff"/><path d="m49.5 4v10l-4 4v-14z" fill="#cedbff"/><path d="m19.51 32.99c-2.21 0-4.01-1.79-4.01-4.01v-2.99c0 2.21 1.8 4.01 4.01 4.01h13.49c2.48 0 4.5-2.02 4.5-4.5v2.99c0 2.479-2.02 4.5-4.5 4.5z" fill="#d7e9ff"/><path d="m33.21 21.01c2.39.11 4.29 2.08 4.29 4.49 0 2.48-2.02 4.5-4.5 4.5h-13.49c-2.21 0-4.01-1.8-4.01-4.01s1.8-4 4.01-4l.07.01c.479-3.39 3.39-5.99 6.92-5.99 3.17 0 5.85 2.1 6.71 5z" fill="#fff"/><g fill="#0444f9"><path d="m33.001 30.996h-13.49c-.553 0-1-.447-1-1s.447-1 1-1h13.49c.553 0 1 .447 1 1s-.447 1-1 1z"/><path d="m33.497 24.006c-.553 0-1-.447-1-1 0-3.309-2.691-6-6-6-3.308 0-5.998 2.691-5.998 6 0 .553-.447 1-1 1s-1-.447-1-1c0-4.411 3.588-8 7.998-8 4.411 0 8 3.589 8 8 0 .553-.447 1-1 1z"/><path d="m33.001 30.996c-.553 0-1-.447-1-1s.447-1 1-1c1.93 0 3.5-1.568 3.5-3.496 0-1.875-1.466-3.409-3.338-3.493-.552-.024-.979-.492-.954-1.044s.509-.988 1.044-.954c2.942.133 5.248 2.544 5.248 5.491 0 3.03-2.468 5.496-5.5 5.496z"/><path d="m19.511 30.996c-2.762 0-5.008-2.245-5.008-5.004 0-2.76 2.246-5.006 5.008-5.006.553 0 1 .447 1 1s-.447 1-1 1c-1.658 0-3.008 1.349-3.008 3.006 0 1.656 1.35 3.004 3.008 3.004.553 0 1 .447 1 1s-.448 1-1 1z"/><path d="m33.001 33.988h-13.49c-.553 0-1-.447-1-1s.447-1 1-1h13.49c.553 0 1 .447 1 1s-.447 1-1 1z"/><path d="m33.001 33.988c-.553 0-1-.447-1-1s.447-1 1-1c1.93 0 3.5-1.568 3.5-3.496 0-.553.447-1 1-1s1 .447 1 1c0 3.03-2.468 5.496-5.5 5.496z"/><path d="m19.511 33.988c-2.762 0-5.008-2.245-5.008-5.004 0-.553.447-1 1-1s1 .447 1 1c0 1.656 1.35 3.004 3.008 3.004.553 0 1 .447 1 1s-.448 1-1 1z"/><path d="m15.503 29.984c-.553 0-1-.447-1-1v-2.992c0-.553.447-1 1-1s1 .447 1 1v2.992c0 .553-.447 1-1 1z"/><path d="m37.501 29.492c-.553 0-1-.447-1-1v-2.992c0-.553.447-1 1-1s1 .447 1 1v2.992c0 .553-.447 1-1 1z"/><path d="m40.487 55.057c-1.654 0-3-1.346-3-3s1.346-3 3-3 3 1.346 3 3-1.345 3-3 3zm0-4c-.552 0-1 .448-1 1s.448 1 1 1 1-.448 1-1-.448-1-1-1z"/><path d="m48.487 51.057c-1.654 0-3-1.346-3-3s1.346-3 3-3 3 1.346 3 3-1.345 3-3 3zm0-4c-.552 0-1 .448-1 1s.448 1 1 1 1-.448 1-1-.448-1-1-1z"/><path d="m48.487 59.051c-1.654 0-3-1.344-3-2.996 0-1.654 1.346-3 3-3s3 1.346 3 3c0 1.652-1.345 2.996-3 2.996zm0-3.996c-.552 0-1 .448-1 1 0 .549.448.996 1 .996s1-.447 1-.996c0-.552-.448-1-1-1z"/><path d="m46.738 56.084c-.139 0-.279-.029-.414-.09l-4.506-2.057c-.503-.229-.724-.823-.495-1.325s.82-.722 1.325-.495l4.506 2.057c.503.229.724.823.495 1.325-.168.368-.531.585-.911.585z"/><path d="m42.236 52.086c-.38 0-.742-.217-.91-.584-.229-.503-.009-1.096.493-1.325l4.506-2.059c.503-.231 1.096-.008 1.325.493.229.503.009 1.096-.493 1.325l-4.506 2.059c-.134.062-.276.091-.415.091z"/><path d="m10.503 53.006c-2.206 0-4-1.794-4-4s1.794-4 4-4c.553 0 1 .447 1 1s-.447 1-1 1c-1.103 0-2 .897-2 2s.897 2 2 2c.553 0 1 .447 1 1s-.447 1-1 1z"/><path d="m7.503 5.004c-.553 0-1-.447-1-1 0-2.206 1.794-4 4-4 .553 0 1 .447 1 1s-.447 1-1 1c-1.103 0-2 .897-2 2 0 .553-.447 1-1 1z"/><path d="m36.277 47.006h-25.774c-.553 0-1-.447-1-1s.447-1 1-1h25.774c.553 0 1 .447 1 1s-.447 1-1 1z"/><path d="m34.499 53.006h-23.996c-.553 0-1-.447-1-1s.447-1 1-1h23.996c.553 0 1 .447 1 1s-.447 1-1 1z"/><path d="m45.499 19c-.256 0-.512-.098-.707-.293-.391-.391-.391-1.023 0-1.414l3.707-3.707v-8.582h-3c-.553 0-1-.447-1-1s.447-1 1-1h4c.553 0 1 .447 1 1v9.996c0 .266-.105.52-.293.707l-4 4c-.195.195-.451.293-.707.293z"/><path d="m7.503 50.006c-.553 0-1-.447-1-1v-45c0-.553.447-1 1-1s1 .447 1 1v45c0 .553-.447 1-1 1z"/><path d="m34.907 50.006h-23.404c-.553 0-1-.447-1-1s.447-1 1-1h23.404c.553 0 1 .447 1 1s-.447 1-1 1z"/><path d="m11.503 50.006c-.553 0-1-.447-1-1v-3c0-.553.447-1 1-1s1 .447 1 1v3c0 .553-.447 1-1 1z"/><path d="m45.501 42.006c-.553 0-1-.447-1-1v-40.002c0-.553.447-1 1-1s1 .447 1 1v40.002c0 .553-.447 1-1 1z"/><path d="m45.499 2.004h-34.992c-.553 0-1-.447-1-1s.447-1 1-1h34.992c.553 0 1 .447 1 1s-.447 1-1 1z"/><path d="m45.499 64c-6.617 0-12-5.381-12-11.994 0-6.617 5.383-12 12-12s12 5.381 12 11.994c0 6.617-5.383 12-12 12zm0-21.994c-5.514 0-10 4.486-10 10 0 5.511 4.486 9.994 10 9.994s10-4.486 10-10c0-5.511-4.486-9.994-10-9.994z"/></g></svg>