<svg id="icons" enable-background="new 0 0 64 64" height="512" viewBox="0 0 64 64" width="512" xmlns="http://www.w3.org/2000/svg"><path d="m62.995 9.005h-61.99v49.99h62v-49.99z" fill="#fff"/><path d="m5.015 13.015h54v25.99h-54z" fill="#cedbff"/><path d="m62.995 9.005h-61.99-.01v-2c0-1.11.899-2 2-2h58c1.109 0 2 .89 2 2z" fill="#d7e9ff"/><path d="m32.005 42.995c1.649 0 3 1.35 3 3 0 1.66-1.351 3-3 3-1.66 0-3-1.34-3-3 0-1.65 1.34-3 3-3z" fill="#cedbff"/><path d="m12.515 42.995c1.66 0 3 1.35 3 3 0 1.66-1.34 3-3 3-1.65 0-3-1.34-3-3 0-1.65 1.349-3 3-3z" fill="#cedbff"/><path d="m51.515 42.995c1.66 0 3 1.35 3 3 0 1.66-1.34 3-3 3-1.65 0-3-1.34-3-3 0-1.65 1.349-3 3-3z" fill="#cedbff"/><path d="m13.074 24.995c.48-3.391 3.4-5.99 6.921-5.99 3.17 0 5.85 2.1 6.71 5 2.39.11 4.29 2.08 4.29 4.49 0 2.479-2.011 4.5-4.5 4.5h-13.49c-2.21 0-4-1.79-4-4.01 0-2.211 1.79-4 4-4z" fill="#fff"/><g fill="#0444f9"><path d="m4.027 8.006c-.553 0-1.005-.447-1.005-1s.442-1 .994-1h.011c.552 0 1 .447 1 1s-.448 1-1 1z"/><path d="m7.027 8.006c-.553 0-1.005-.447-1.005-1s.442-1 .994-1h.011c.552 0 1 .447 1 1s-.448 1-1 1z"/><path d="m10.027 8.006c-.553 0-1.005-.447-1.005-1s.442-1 .994-1h.011c.552 0 1 .447 1 1s-.448 1-1 1z"/><path d="m63.005 59.998h-62c-.553 0-1-.447-1-1v-49.992c0-.553.447-1 1-1h62c.553 0 1 .447 1 1v49.992c0 .553-.447 1-1 1zm-61-2h60v-47.992h-60v47.992z"/><path d="m.997 8.006c-.553 0-1-.447-1-1 0-1.654 1.346-3 3-3 .553 0 1 .447 1 1s-.447 1-1 1c-.552 0-1 .448-1 1 0 .553-.447 1-1 1z"/><path d="m.997 10.006c-.553 0-1-.447-1-1v-2c0-.553.447-1 1-1s1 .447 1 1v2c0 .553-.447 1-1 1z"/><path d="m62.997 8.006c-.553 0-1-.447-1-1 0-.552-.448-1-1-1-.553 0-1-.447-1-1s.447-1 1-1c1.654 0 3 1.346 3 3 0 .553-.447 1-1 1z"/><path d="m62.997 10.006c-.553 0-1-.447-1-1v-2c0-.553.447-1 1-1s1 .447 1 1v2c0 .553-.447 1-1 1z"/><path d="m60.997 6.006h-58c-.553 0-1-.447-1-1s.447-1 1-1h58c.553 0 1 .447 1 1s-.447 1-1 1z"/><path d="m19.017 53.016h-12.995c-.553 0-1-.447-1-1s.447-1 1-1h12.994c.553 0 1 .447 1 1s-.447 1-.999 1z"/><path d="m58.015 53.016h-12.994c-.553 0-1-.447-1-1s.447-1 1-1h12.994c.553 0 1 .447 1 1s-.448 1-1 1z"/><path d="m38.503 53.016h-12.994c-.553 0-1-.447-1-1s.447-1 1-1h12.994c.553 0 1 .447 1 1s-.447 1-1 1z"/><path d="m35.521 56.016h-7.031c-.553 0-1-.447-1-1s.447-1 1-1h7.031c.553 0 1 .447 1 1s-.448 1-1 1z"/><path d="m55.021 56.016h-7.006c-.553 0-1-.447-1-1s.447-1 1-1h7.006c.553 0 1 .447 1 1s-.448 1-1 1z"/><path d="m16.021 56.016h-6.999c-.553 0-1-.447-1-1s.447-1 1-1h6.998c.553 0 1 .447 1 1s-.447 1-.999 1z"/><path d="m59.021 40.01h-54c-.553 0-1-.447-1-1v-25.989c0-.553.447-1 1-1h54c.553 0 1 .447 1 1v25.989c0 .553-.448 1-1 1zm-53-2h52v-23.989h-52z"/><path d="m55.01 21.01h-18.997c-.553 0-1-.447-1-1s.447-1 1-1h18.997c.553 0 1 .447 1 1s-.447 1-1 1z"/><path d="m55.01 24.018h-18.997c-.553 0-1-.447-1-1s.447-1 1-1h18.997c.553 0 1 .447 1 1s-.447 1-1 1z"/><path d="m46.011 27.025h-9.998c-.553 0-1-.447-1-1s.447-1 1-1h9.998c.553 0 1 .447 1 1s-.448 1-1 1z"/><path d="m42.007 32.018h-5.992c-.553 0-1-.447-1-1s.447-1 1-1h5.992c.553 0 1 .447 1 1s-.447 1-1 1z"/><path d="m46.001 31.018h-1.004c-.553 0-1-.447-1-1s.447-1 1-1h1.004c.553 0 1 .447 1 1s-.447 1-1 1z"/><path d="m46.002 33.018c-.366 0-.719-.202-.895-.552l-1.004-2c-.248-.493-.049-1.094.445-1.342.495-.247 1.095-.048 1.342.445l1.004 2c.248.493.049 1.094-.445 1.342-.143.072-.297.107-.447.107z"/><path d="m46.001 33.018h-1c-.553 0-1-.447-1-1s.447-1 1-1h1c.553 0 1 .447 1 1s-.447 1-1 1z"/><path d="m32.001 50.004c-2.206 0-4-1.794-4-4s1.794-4 4-4 4 1.794 4 4-1.794 4-4 4zm0-6c-1.103 0-2 .897-2 2s.897 2 2 2 2-.897 2-2-.897-2-2-2z"/><path d="m12.52 50.004c-2.206 0-4-1.794-4-4s1.794-4 4-4 4 1.794 4 4-1.794 4-4 4zm0-6c-1.103 0-2 .897-2 2s.897 2 2 2 2-.897 2-2-.898-2-2-2z"/><path d="m51.518 50.004c-2.206 0-4-1.794-4-4s1.794-4 4-4 4 1.794 4 4-1.794 4-4 4zm0-6c-1.103 0-2 .897-2 2s.897 2 2 2 2-.897 2-2-.898-2-2-2z"/><path d="m26.5 33.998h-13.491c-.553 0-1-.447-1-1s.447-1 1-1h13.491c.553 0 1 .447 1 1s-.447 1-1 1z"/><path d="m26.996 27.008c-.553 0-1-.447-1-1 0-3.309-2.691-6-6-6-3.308 0-5.999 2.691-5.999 6 0 .553-.447 1-1 1s-1-.447-1-1c0-4.411 3.588-8 7.999-8s8 3.589 8 8c0 .553-.447 1-1 1z"/><path d="m26.5 33.998c-.553 0-1-.447-1-1s.447-1 1-1c1.93 0 3.5-1.568 3.5-3.496 0-1.874-1.467-3.409-3.338-3.494-.552-.025-.979-.492-.954-1.044.025-.553.519-.981 1.044-.954 2.943.134 5.248 2.546 5.248 5.492 0 3.03-2.468 5.496-5.5 5.496z"/><path d="m13.009 33.998c-2.762 0-5.008-2.245-5.008-5.005s2.246-5.006 5.008-5.006c.553 0 1 .447 1 1s-.447 1-1 1c-1.658 0-3.008 1.349-3.008 3.006s1.35 3.005 3.008 3.005c.553 0 1 .447 1 1s-.447 1-1 1z"/></g></svg>