<svg id="icons" enable-background="new 0 0 64 64" height="512" viewBox="0 0 64 64" width="512" xmlns="http://www.w3.org/2000/svg"><path d="m40.48 11.005c3.09.25 5.52 2.83 5.52 5.98 0 3.31-2.69 6-6 6h-17c-2.76 0-5-2.24-5-4.99 0-2.76 2.24-5 5-5h.06c.49-4.5 4.311-8 8.94-8 3.92 0 7.26 2.51 8.48 6.01z" fill="#fff"/><path d="m24 31.005 3 4h-26l3-4z" fill="#5c9eff"/><path d="m60 31.005 3 4h-26l3-4z" fill="#5c9eff"/><path d="m37 35.005h26v8h-26z" fill="#cedbff"/><path d="m37 43.005h26v8h-26z" fill="#cedbff"/><path d="m37 51.005h26v8h-26z" fill="#cedbff"/><path d="m1 43.005h26v8h-26z" fill="#cedbff"/><path d="m1 51.005h26v8h-26z" fill="#cedbff"/><path d="m1 35.005h26v8h-26z" fill="#cedbff"/><g fill="#0444f9"><path d="m24.03 40.002c-.553 0-1.005-.447-1.005-1s.442-1 .994-1h.011c.552 0 1 .447 1 1s-.448 1-1 1z"/><path d="m27 44.002h-26c-.553 0-1-.447-1-1v-8c0-.553.447-1 1-1h26c.553 0 1 .447 1 1v8c0 .553-.447 1-1 1zm-25-2h24v-6h-24z"/><path d="m5 41.002c-.256 0-.512-.098-.707-.293-.391-.391-.391-1.023 0-1.414l2-2c.391-.391 1.023-.391 1.414 0s.391 1.023 0 1.414l-2 2c-.195.195-.451.293-.707.293z"/><path d="m10 41.002c-.256 0-.512-.098-.707-.293-.391-.391-.391-1.023 0-1.414l2-2c.391-.391 1.023-.391 1.414 0s.391 1.023 0 1.414l-2 2c-.195.195-.451.293-.707.293z"/><path d="m15 41.002c-.256 0-.512-.098-.707-.293-.391-.391-.391-1.023 0-1.414l2-2c.391-.391 1.023-.391 1.414 0s.391 1.023 0 1.414l-2 2c-.195.195-.451.293-.707.293z"/><path d="m24.03 48.002c-.553 0-1.005-.447-1.005-1s.442-1 .994-1h.011c.552 0 1 .447 1 1s-.448 1-1 1z"/><path d="m27 52.002h-26c-.553 0-1-.447-1-1v-8c0-.553.447-1 1-1h26c.553 0 1 .447 1 1v8c0 .553-.447 1-1 1zm-25-2h24v-6h-24z"/><path d="m5 49.002c-.256 0-.512-.098-.707-.293-.391-.391-.391-1.023 0-1.414l2-2c.391-.391 1.023-.391 1.414 0s.391 1.023 0 1.414l-2 2c-.195.195-.451.293-.707.293z"/><path d="m10 49.002c-.256 0-.512-.098-.707-.293-.391-.391-.391-1.023 0-1.414l2-2c.391-.391 1.023-.391 1.414 0s.391 1.023 0 1.414l-2 2c-.195.195-.451.293-.707.293z"/><path d="m15 49.002c-.256 0-.512-.098-.707-.293-.391-.391-.391-1.023 0-1.414l2-2c.391-.391 1.023-.391 1.414 0s.391 1.023 0 1.414l-2 2c-.195.195-.451.293-.707.293z"/><path d="m24.03 56.002c-.553 0-1.005-.447-1.005-1s.442-1 .994-1h.011c.552 0 1 .447 1 1s-.448 1-1 1z"/><path d="m27 60.002h-26c-.553 0-1-.447-1-1v-8c0-.553.447-1 1-1h26c.553 0 1 .447 1 1v8c0 .553-.447 1-1 1zm-25-2h24v-6h-24z"/><path d="m5 57.002c-.256 0-.512-.098-.707-.293-.391-.391-.391-1.023 0-1.414l2-2c.391-.391 1.023-.391 1.414 0s.391 1.023 0 1.414l-2 2c-.195.195-.451.293-.707.293z"/><path d="m10 57.002c-.256 0-.512-.098-.707-.293-.391-.391-.391-1.023 0-1.414l2-2c.391-.391 1.023-.391 1.414 0s.391 1.023 0 1.414l-2 2c-.195.195-.451.293-.707.293z"/><path d="m15 57.002c-.256 0-.512-.098-.707-.293-.391-.391-.391-1.023 0-1.414l2-2c.391-.391 1.023-.391 1.414 0s.391 1.023 0 1.414l-2 2c-.195.195-.451.293-.707.293z"/><path d="m.999 36.002c-.209 0-.419-.065-.599-.2-.442-.331-.532-.958-.2-1.399l3-4c.332-.441.958-.531 1.399-.2.442.331.532.958.2 1.4l-3 4c-.195.261-.495.399-.8.399z"/><path d="m27.001 36.002c-.305 0-.604-.138-.801-.4l-3-4c-.332-.442-.242-1.069.2-1.4.44-.333 1.068-.242 1.399.2l3 4c.332.441.242 1.068-.2 1.399-.179.136-.389.201-.598.201z"/><path d="m24 32.002h-20c-.553 0-1-.448-1-1s.447-1 1-1h20c.553 0 1 .448 1 1s-.447 1-1 1z"/><path d="m60.03 40.002c-.553 0-1.005-.447-1.005-1s.442-1 .994-1h.011c.552 0 1 .447 1 1s-.448 1-1 1z"/><path d="m63 44.002h-26c-.553 0-1-.447-1-1v-8c0-.553.447-1 1-1h26c.553 0 1 .447 1 1v8c0 .553-.447 1-1 1zm-25-2h24v-6h-24z"/><path d="m41 41.002c-.256 0-.512-.098-.707-.293-.391-.391-.391-1.023 0-1.414l2-2c.391-.391 1.023-.391 1.414 0s.391 1.023 0 1.414l-2 2c-.195.195-.451.293-.707.293z"/><path d="m46 41.002c-.256 0-.512-.098-.707-.293-.391-.391-.391-1.023 0-1.414l2-2c.391-.391 1.023-.391 1.414 0s.391 1.023 0 1.414l-2 2c-.195.195-.451.293-.707.293z"/><path d="m51 41.002c-.256 0-.512-.098-.707-.293-.391-.391-.391-1.023 0-1.414l2-2c.391-.391 1.023-.391 1.414 0s.391 1.023 0 1.414l-2 2c-.195.195-.451.293-.707.293z"/><path d="m60.03 48.002c-.553 0-1.005-.447-1.005-1s.442-1 .994-1h.011c.552 0 1 .447 1 1s-.448 1-1 1z"/><path d="m63 52.002h-26c-.553 0-1-.447-1-1v-8c0-.553.447-1 1-1h26c.553 0 1 .447 1 1v8c0 .553-.447 1-1 1zm-25-2h24v-6h-24z"/><path d="m41 49.002c-.256 0-.512-.098-.707-.293-.391-.391-.391-1.023 0-1.414l2-2c.391-.391 1.023-.391 1.414 0s.391 1.023 0 1.414l-2 2c-.195.195-.451.293-.707.293z"/><path d="m46 49.002c-.256 0-.512-.098-.707-.293-.391-.391-.391-1.023 0-1.414l2-2c.391-.391 1.023-.391 1.414 0s.391 1.023 0 1.414l-2 2c-.195.195-.451.293-.707.293z"/><path d="m51 49.002c-.256 0-.512-.098-.707-.293-.391-.391-.391-1.023 0-1.414l2-2c.391-.391 1.023-.391 1.414 0s.391 1.023 0 1.414l-2 2c-.195.195-.451.293-.707.293z"/><path d="m60.03 56.002c-.553 0-1.005-.447-1.005-1s.442-1 .994-1h.011c.552 0 1 .447 1 1s-.448 1-1 1z"/><path d="m63 60.002h-26c-.553 0-1-.447-1-1v-8c0-.553.447-1 1-1h26c.553 0 1 .447 1 1v8c0 .553-.447 1-1 1zm-25-2h24v-6h-24z"/><path d="m41 57.002c-.256 0-.512-.098-.707-.293-.391-.391-.391-1.023 0-1.414l2-2c.391-.391 1.023-.391 1.414 0s.391 1.023 0 1.414l-2 2c-.195.195-.451.293-.707.293z"/><path d="m46 57.002c-.256 0-.512-.098-.707-.293-.391-.391-.391-1.023 0-1.414l2-2c.391-.391 1.023-.391 1.414 0s.391 1.023 0 1.414l-2 2c-.195.195-.451.293-.707.293z"/><path d="m51 57.002c-.256 0-.512-.098-.707-.293-.391-.391-.391-1.023 0-1.414l2-2c.391-.391 1.023-.391 1.414 0s.391 1.023 0 1.414l-2 2c-.195.195-.451.293-.707.293z"/><path d="m36.999 36.002c-.209 0-.419-.065-.599-.2-.442-.331-.532-.958-.2-1.399l3-4c.332-.441.958-.531 1.399-.2.442.331.532.958.2 1.4l-3 4c-.195.261-.495.399-.8.399z"/><path d="m63.001 36.002c-.305 0-.604-.138-.801-.4l-3-4c-.332-.442-.242-1.069.2-1.4.441-.333 1.067-.242 1.399.2l3 4c.332.441.242 1.068-.2 1.399-.179.136-.389.201-.598.201z"/><path d="m60 32.002h-20c-.553 0-1-.448-1-1s.447-1 1-1h20c.553 0 1 .448 1 1s-.447 1-1 1z"/><path d="m11.021 28.002c-.553 0-1-.448-1-1v-9.99c0-.552.447-1 1-1s1 .448 1 1v9.99c0 .552-.448 1-1 1z"/><path d="m14.998 18.012h-4.001c-.553 0-1-.448-1-1s.447-1 1-1h4.001c.553 0 1 .448 1 1s-.447 1-1 1z"/><path d="m53.003 28.002c-.553 0-1-.448-1-1v-9.99c0-.552.447-1 1-1s1 .448 1 1v9.99c0 .552-.447 1-1 1z"/><path d="m53.003 18.012h-4.001c-.553 0-1-.448-1-1s.447-1 1-1h4.001c.553 0 1 .448 1 1s-.447 1-1 1z"/><path d="m39.998 23.985h-17c-.553 0-1-.448-1-1s.447-1 1-1h17c.553 0 1 .448 1 1s-.447 1-1 1z"/><path d="m40.996 14.994c-.553 0-1-.448-1-1 0-4.409-3.587-7.996-7.996-7.996s-7.996 3.587-7.996 7.996c0 .552-.447 1-1 1s-1-.448-1-1c0-5.512 4.484-9.996 9.996-9.996s9.996 4.484 9.996 9.996c0 .552-.447 1-1 1z"/><path d="m39.998 23.986c-.553 0-1-.448-1-1s.447-1 1-1c2.757 0 5-2.241 5-4.996 0-2.589-2.02-4.777-4.599-4.982-.551-.044-.962-.525-.918-1.076.045-.55.518-.957 1.076-.918 3.611.287 6.44 3.351 6.44 6.976.001 3.858-3.14 6.996-6.999 6.996z"/><path d="m22.998 23.985c-3.307 0-5.996-2.688-5.996-5.993 0-3.306 2.689-5.995 5.996-5.995.553 0 1 .448 1 1s-.447 1-1 1c-2.203 0-3.996 1.792-3.996 3.995 0 2.202 1.793 3.993 3.996 3.993.553 0 1 .448 1 1s-.447 1-1 1z"/><path d="m23.059 13.998h-.061c-.553 0-1-.448-1-1s.447-1 1-1 1.03.448 1.03 1-.417 1-.969 1z"/><path d="m35.001 16h-6.002c-.553 0-1-.448-1-1s.447-1 1-1h6.002c.553 0 1 .448 1 1s-.447 1-1 1z"/><path d="m32 18.992c-.553 0-1-.448-1-1v-5.992c0-.552.447-1 1-1s1 .448 1 1v5.992c0 .552-.447 1-1 1z"/></g></svg>