<svg id="icons" enable-background="new 0 0 64 64" height="512" viewBox="0 0 64 64" width="512" xmlns="http://www.w3.org/2000/svg"><path d="m49.502 58.99v4h-22v-4h2 18z" fill="#cedbff"/><path d="m44.502 41.5c0-1.38 1.12-2.5 2.5-2.5s2.5 1.12 2.5 2.5v13.5l-2 3.99h-18l-4-7v-10.99c2.21 0 4 1.79 4 4v-17.5c0-1.38 1.12-2.5 2.5-2.5s2.5 1.12 2.5 2.5v12c0-1.38 1.12-2.5 2.5-2.5s2.5 1.12 2.5 2.5v1c0-1.38 1.12-2.5 2.5-2.5s2.5 1.12 2.5 2.5z" fill="#d7e9ff"/><path d="m39.992 21.99h-17c-2.76 0-5-2.23-5-4.99v-3c0 2.76 2.24 4.99 5 4.99h17c3.31 0 6-2.681 6-5.99v3c0 3.31-2.69 5.99-6 5.99z" fill="#d7e9ff"/><path d="m22.992 9.01h.06.011c.489-4.5 4.29-8 8.93-8 3.92 0 7.26 2.51 8.48 6.01h.01c3.09.261 5.51 2.83 5.51 5.98 0 3.31-2.69 5.99-6 5.99h-17c-2.76 0-5-2.23-5-4.99s2.239-4.99 4.999-4.99z" fill="#fff"/><g fill="#0444f9"><path d="m31.526 62.994c-.553 0-1.005-.447-1.005-1s.442-1 .994-1h.011c.552 0 1 .447 1 1s-.448 1-1 1z"/><path d="m34.496 28.498c-.553 0-1-.447-1-1 0-.827-.673-1.5-1.5-1.5s-1.5.673-1.5 1.5c0 .553-.447 1-1 1s-1-.447-1-1c0-1.93 1.57-3.5 3.5-3.5s3.5 1.57 3.5 3.5c0 .553-.447 1-1 1z"/><path d="m39.495 40.497c-.553 0-1-.447-1-1 0-.826-.673-1.499-1.5-1.499-.826 0-1.499.673-1.499 1.499 0 .553-.447 1-1 1s-1-.447-1-1c0-1.93 1.569-3.499 3.499-3.499s3.5 1.569 3.5 3.499c0 .553-.447 1-1 1z"/><path d="m44.495 41.497c-.553 0-1-.447-1-1 0-.826-.673-1.499-1.499-1.499-.827 0-1.5.673-1.5 1.499 0 .553-.447 1-1 1s-1-.447-1-1c0-1.93 1.57-3.499 3.5-3.499s3.499 1.569 3.499 3.499c0 .553-.447 1-1 1z"/><path d="m49.494 42.497c-.553 0-1-.447-1-1 0-.826-.673-1.499-1.499-1.499s-1.499.673-1.499 1.499c0 .553-.447 1-1 1s-1-.447-1-1c0-1.93 1.569-3.499 3.499-3.499s3.499 1.569 3.499 3.499c0 .553-.447 1-1 1z"/><path d="m34.496 42.998c-.553 0-1-.447-1-1v-14.5c0-.553.447-1 1-1s1 .447 1 1v14.5c0 .553-.447 1-1 1z"/><path d="m29.496 48.998c-.553 0-1-.447-1-1v-20.5c0-.553.447-1 1-1s1 .447 1 1v20.5c0 .553-.447 1-1 1z"/><path d="m39.496 42.999c-.553 0-1-.447-1-1v-2.501c0-.553.447-1 1-1s1 .447 1 1v2.501c0 .553-.447 1-1 1z"/><path d="m44.496 42.998c-.553 0-1-.447-1-1v-1.501c0-.553.447-1 1-1s1 .447 1 1v1.501c0 .553-.447 1-1 1z"/><path d="m49.496 55.995c-.553 0-1-.447-1-1v-13.498c0-.553.447-1 1-1s1 .447 1 1v13.498c0 .553-.447 1-1 1z"/><path d="m29.496 45.998c-.553 0-1-.447-1-1 0-1.654-1.346-3-3-3-.553 0-1-.447-1-1s.447-1 1-1c2.757 0 5 2.243 5 5 0 .553-.447 1-1 1z"/><path d="m25.496 52.994c-.553 0-1-.447-1-1v-10.996c0-.553.447-1 1-1s1 .447 1 1v10.996c0 .553-.447 1-1 1z"/><path d="m29.497 59.994c-.348 0-.685-.181-.869-.504l-4-7c-.274-.479-.107-1.09.372-1.364.479-.277 1.091-.107 1.364.372l4 7c.274.479.107 1.09-.372 1.364-.156.09-.327.132-.495.132z"/><path d="m47.495 59.994c-.15 0-.303-.034-.446-.105-.494-.247-.694-.848-.447-1.342l2-3.999c.247-.494.848-.692 1.342-.447.494.247.694.848.447 1.342l-2 3.999c-.176.35-.529.552-.896.552z"/><path d="m49.496 63.994c-.553 0-1-.447-1-1v-3h-20v3c0 .553-.447 1-1 1s-1-.447-1-1v-4c0-.553.447-1 1-1h22c.553 0 1 .447 1 1v4c0 .553-.447 1-1 1z"/><path d="m39.988 19.99h-17c-.553 0-1-.447-1-1s.447-1 1-1h17c.553 0 1 .447 1 1s-.447 1-1 1z"/><path d="m40.986 11.002c-.553 0-1-.447-1-1 0-4.409-3.587-7.996-7.996-7.996s-7.996 3.587-7.996 7.996c0 .553-.447 1-1 1s-1-.447-1-1c0-5.512 4.484-9.996 9.996-9.996s9.996 4.484 9.996 9.996c0 .553-.447 1-1 1z"/><path d="m39.988 19.991c-.553 0-1-.447-1-1s.447-1 1-1c2.757 0 5-2.24 5-4.993 0-2.588-2.021-4.776-4.599-4.981-.551-.044-.962-.526-.918-1.076.044-.551.526-.957 1.076-.918 3.611.288 6.44 3.352 6.44 6.976.001 3.855-3.139 6.992-6.999 6.992z"/><path d="m22.988 19.99c-3.307 0-5.996-2.688-5.996-5.99 0-3.306 2.689-5.994 5.996-5.994.553 0 1 .447 1 1s-.447 1-1 1c-2.203 0-3.996 1.792-3.996 3.994 0 2.2 1.793 3.99 3.996 3.99.553 0 1 .447 1 1s-.447 1-1 1z"/><path d="m23.049 10.006h-.061c-.553 0-1-.447-1-1s.447-1 1-1 1.03.447 1.03 1-.416 1-.969 1z"/><path d="m39.988 22.992h-17c-.553 0-1-.447-1-1s.447-1 1-1h17c.553 0 1 .447 1 1s-.447 1-1 1z"/><path d="m39.988 22.992c-.553 0-1-.447-1-1s.447-1 1-1c2.757 0 5-2.239 5-4.992 0-.553.447-1 1-1s1 .447 1 1c0 3.855-3.14 6.992-7 6.992z"/><path d="m22.988 22.992c-3.307 0-5.996-2.688-5.996-5.99 0-.553.447-1 1-1s1 .447 1 1c0 2.2 1.793 3.99 3.996 3.99.553 0 1 .447 1 1s-.447 1-1 1z"/><path d="m17.992 18.002c-.553 0-1-.447-1-1v-3.002c0-.553.447-1 1-1s1 .447 1 1v3.002c0 .553-.447 1-1 1z"/><path d="m45.988 17c-.553 0-1-.447-1-1v-3.002c0-.553.447-1 1-1s1 .447 1 1v3.002c0 .553-.447 1-1 1z"/><path d="m39.998 27.012c-.553 0-1-.447-1-1s.447-1 1-1c4.963 0 9-4.038 9-9.001 0-.553.447-1 1-1s1 .447 1 1c0 6.066-4.935 11.001-11 11.001z"/><path d="m39.998 31.012c-.553 0-1-.447-1-1s.447-1 1-1c7.168 0 13-5.832 13-13.001 0-.553.447-1 1-1s1 .447 1 1c0 8.271-6.728 15.001-15 15.001z"/><path d="m23.003 26.99c-5.515 0-10.001-4.485-10.001-9.999 0-.553.447-1 1-1s1 .447 1 1c0 4.411 3.589 7.999 8.001 7.999.553 0 1 .447 1 1s-.447 1-1 1z"/><path d="m23.003 30.99c-7.72 0-14.001-6.28-14.001-13.999 0-.553.447-1 1-1s1 .447 1 1c0 6.616 5.384 11.999 12.001 11.999.553 0 1 .447 1 1s-.447 1-1 1z"/><path d="m31.996 14.994c-.553 0-1-.447-1-1v-5.999c0-.553.447-1 1-1s1 .447 1 1v5.999c0 .553-.447 1-1 1z"/><path d="m34.934 11.988h-5.875c-.553 0-1-.447-1-1s.447-1 1-1h5.875c.553 0 1 .447 1 1s-.448 1-1 1z"/></g></svg>