<svg id="icons" enable-background="new 0 0 64 64" height="512" viewBox="0 0 64 64" width="512" xmlns="http://www.w3.org/2000/svg"><path d="m49 40.495h-37c-6.08 0-11-4.92-11-11v4c0 6.08 4.92 11.01 11 11.01h37c7.73 0 14-6.27 14-14.01v-4c0 7.731-6.27 14-14 14z" fill="#d7e9ff"/><path d="m13.11 18.495c.989-9.55 9.069-17 18.89-17 7.64 0 14.22 4.51 17.24 11.01 7.62.13 13.76 6.34 13.76 13.99 0 7.73-6.27 14-14 14h-37c-6.08 0-11-4.92-11-11 0-6.07 4.92-11 11-11h1.1z" fill="#fff"/><g fill="#0444f9"><path d="m20 49.491c-1.654 0-3-1.346-3-3s1.346-3 3-3 3 1.346 3 3-1.346 3-3 3zm0-4c-.552 0-1 .448-1 1s.448 1 1 1 1-.448 1-1-.448-1-1-1z"/><path d="m32 49.491c-1.654 0-3-1.346-3-3s1.346-3 3-3 3 1.346 3 3-1.346 3-3 3zm0-4c-.552 0-1 .448-1 1s.448 1 1 1 1-.448 1-1-.448-1-1-1z"/><path d="m44 49.491c-1.654 0-3-1.346-3-3s1.346-3 3-3 3 1.346 3 3-1.346 3-3 3zm0-4c-.552 0-1 .448-1 1s.448 1 1 1 1-.448 1-1-.448-1-1-1z"/><path d="m14 49.491c-.553 0-1-.447-1-1v-4c0-.553.447-1 1-1s1 .447 1 1v4c0 .553-.447 1-1 1z"/><path d="m26 49.491c-.553 0-1-.447-1-1v-4c0-.553.447-1 1-1s1 .447 1 1v4c0 .553-.447 1-1 1z"/><path d="m38 49.491c-.553 0-1-.447-1-1v-4c0-.553.447-1 1-1s1 .447 1 1v4c0 .553-.447 1-1 1z"/><path d="m50 49.491c-.553 0-1-.447-1-1v-4c0-.553.447-1 1-1s1 .447 1 1v4c0 .553-.447 1-1 1z"/><path d="m18 56.491c-1.654 0-3-1.346-3-3s1.346-3 3-3 3 1.346 3 3-1.346 3-3 3zm0-4c-.552 0-1 .448-1 1s.448 1 1 1 1-.448 1-1-.448-1-1-1z"/><path d="m30 56.491c-1.654 0-3-1.346-3-3s1.346-3 3-3 3 1.346 3 3-1.346 3-3 3zm0-4c-.552 0-1 .448-1 1s.448 1 1 1 1-.448 1-1-.448-1-1-1z"/><path d="m42 56.491c-1.654 0-3-1.346-3-3s1.346-3 3-3 3 1.346 3 3-1.346 3-3 3zm0-4c-.552 0-1 .448-1 1s.448 1 1 1 1-.448 1-1-.448-1-1-1z"/><path d="m24 56.491c-.553 0-1-.447-1-1v-4c0-.553.447-1 1-1s1 .447 1 1v4c0 .553-.447 1-1 1z"/><path d="m36 56.491c-.553 0-1-.447-1-1v-4c0-.553.447-1 1-1s1 .447 1 1v4c0 .553-.447 1-1 1z"/><path d="m48 56.491c-.553 0-1-.447-1-1v-4c0-.553.447-1 1-1s1 .447 1 1v4c0 .553-.447 1-1 1z"/><path d="m26 63.5c-1.654 0-3-1.346-3-3s1.346-3 3-3 3 1.346 3 3-1.346 3-3 3zm0-4c-.552 0-1 .448-1 1s.448 1 1 1 1-.448 1-1-.448-1-1-1z"/><path d="m38 63.5c-1.654 0-3-1.346-3-3s1.346-3 3-3 3 1.346 3 3-1.346 3-3 3zm0-4c-.552 0-1 .448-1 1s.448 1 1 1 1-.448 1-1-.448-1-1-1z"/><path d="m20 63.5c-.553 0-1-.447-1-1v-4c0-.553.447-1 1-1s1 .447 1 1v4c0 .553-.447 1-1 1z"/><path d="m32 63.5c-.553 0-1-.447-1-1v-4c0-.553.447-1 1-1s1 .447 1 1v4c0 .553-.447 1-1 1z"/><path d="m44 63.5c-.553 0-1-.447-1-1v-4c0-.553.447-1 1-1s1 .447 1 1v4c0 .553-.447 1-1 1z"/><path d="m12 41.501c-6.617 0-12-5.383-12-12s5.383-12.001 12-12.001c.553 0 1 .448 1 1s-.447 1-1 1c-5.514 0-10 4.486-10 10.001 0 5.514 4.486 10 10 10 .553 0 1 .447 1 1s-.447 1-1 1z"/><path d="m49 41.501c-.553 0-1-.447-1-1s.447-1 1-1c7.168 0 13-5.832 13-13.001 0-7.051-5.739-12.878-12.794-12.989-.553-.009-.993-.463-.984-1.016.009-.552.467-1 1.016-.984 8.14.128 14.762 6.852 14.762 14.989 0 8.271-6.729 15.001-15 15.001z"/><path d="m51 21.5c-.553 0-1-.448-1-1 0-1.285-.136-2.566-.403-3.807-1.77-8.224-9.17-14.193-17.597-14.193-9.925 0-18 8.075-18 18 0 .552-.447 1-1 1s-1-.448-1-1c0-11.028 8.972-20 20-20 9.362 0 17.585 6.633 19.552 15.772.298 1.379.448 2.801.448 4.228 0 .552-.447 1-1 1z"/><path d="m13.104 19.5h-1.104c-.553 0-1-.448-1-1s.447-1 1-1h1.104c.553 0 1 .448 1 1s-.447 1-1 1z"/><path d="m49 41.501h-37c-.553 0-1-.447-1-1s.447-1 1-1h37c.553 0 1 .447 1 1s-.447 1-1 1z"/><path d="m12 45.505c-6.617 0-12-5.384-12-12.002 0-.552.447-1 1-1s1 .448 1 1c0 5.515 4.486 10.002 10 10.002.553 0 1 .447 1 1s-.447 1-1 1z"/><path d="m49 45.505c-.553 0-1-.447-1-1s.447-1 1-1c7.168 0 13-5.833 13-13.003 0-.552.447-1 1-1s1 .448 1 1c0 8.272-6.729 15.003-15 15.003z"/><path d="m49 45.505h-37c-.553 0-1-.447-1-1s.447-1 1-1h37c.553 0 1 .447 1 1s-.447 1-1 1z"/><path d="m63 31.502c-.553 0-1-.448-1-1v-4.002c0-.552.447-1 1-1s1 .448 1 1v4.002c0 .552-.447 1-1 1z"/><path d="m1 34.503c-.553 0-1-.447-1-1v-4.002c0-.552.447-1 1-1s1 .448 1 1v4.002c0 .553-.447 1-1 1z"/><path d="m31.997 33.496c-3.031 0-5.864-1.353-7.774-3.713-.348-.429-.281-1.059.148-1.406.429-.349 1.06-.28 1.406.148 1.528 1.888 3.795 2.971 6.22 2.971 4.411 0 8-3.589 8-8 0-.552.447-1 1-1s1 .448 1 1c0 5.514-4.486 10-10 10z"/><path d="m42.501 26.498c-.304 0-.604-.138-.801-.399l-1.503-2.002c-.331-.442-.242-1.069.199-1.4.442-.331 1.069-.242 1.4.199l1.503 2.002c.331.442.242 1.069-.199 1.4-.179.135-.39.2-.599.2z"/><path d="m39.001 25.996c-.304 0-.604-.138-.801-.399-.331-.441-.242-1.068.199-1.4l1.997-1.5c.442-.331 1.069-.242 1.4.199s.242 1.068-.199 1.4l-1.997 1.5c-.179.135-.39.2-.599.2z"/><path d="m22.999 24.5c-.553 0-1-.448-1-1 0-5.515 4.486-10.001 10-10.001 3.031 0 5.864 1.353 7.774 3.713.348.429.281 1.059-.148 1.406-.429.349-1.06.281-1.406-.148-1.528-1.888-3.795-2.971-6.22-2.971-4.411 0-8 3.589-8 8.001 0 .552-.447 1-1 1z"/><path d="m23 24.5c-.305 0-.605-.138-.802-.4l-1.499-2.002c-.331-.442-.24-1.069.201-1.4.443-.332 1.069-.241 1.4.201l1.5 2.001c.331.442.24 1.069-.201 1.4-.18.135-.391.2-.599.2z"/><path d="m23 24.5c-.304 0-.604-.137-.8-.398-.332-.441-.244-1.068.197-1.4l1.997-1.504c.443-.333 1.069-.243 1.4.197.332.441.244 1.068-.197 1.4l-1.997 1.504c-.179.136-.391.201-.6.201z"/></g></svg>