<svg id="icons" enable-background="new 0 0 64 64" height="512" viewBox="0 0 64 64" width="512" xmlns="http://www.w3.org/2000/svg"><path d="m60 27.5c0 6.9-5.6 12.5-12.5 12.5h-5.22c.48-1.24.75-2.59.75-4v-.01h4.47c6.9 0 12.5-5.59 12.5-12.49z" fill="#d7e9ff"/><path d="m27.03 45.8c1.5.771 3.2 1.2 5 1.2s3.5-.43 5-1.2v3.2l-2 2-3-1-3 1-2-2z" fill="#cedbff"/><path d="m29.03 51 3-1 3 1 2-2h4c3.311 0 6 2.68 6 6v6c0 1.1-.899 2-2 2h-26c-1.11 0-2-.9-2-2v-6c0-3.32 2.68-6 6-6h4z" fill="#cedbff"/><path d="m41.03 49h-3.003c3.311 0 6 2.68 6 6v6c0 1.1-.899 2-2 2h3.003c1.101 0 2-.9 2-2v-6c0-3.32-2.689-6-6-6z" fill="#5c9eff"/><path d="m43.03 35.99v.01c0 1.41-.27 2.76-.75 4-.99 2.51-2.87 4.58-5.25 5.8-1.5.771-3.2 1.2-5 1.2s-3.5-.43-5-1.2c-2.39-1.22-4.27-3.28-5.25-5.8-.479-1.24-.75-2.59-.75-4v-.01-3.99l3-3s3.71 2 8 2c4.28 0 8-2 8-2l3 3z" fill="#d7e9ff"/><path d="m40.03 29-.003.002v6.988.01c0 1.41-.27 2.76-.75 4-.99 2.51-2.87 4.58-5.25 5.8-1.075.552-2.255.921-3.498 1.09.492.067.991.11 1.501.11 1.8 0 3.5-.43 5-1.2 2.38-1.22 4.26-3.29 5.25-5.8.48-1.24.75-2.59.75-4v-.01-3.99z" fill="#cedbff"/><path d="m24.03 29-3 3v-5c0-4.97 4.021-9 9-9h8v4c2.76 0 5 2.24 5 5v5l-3-3s-3.72 2-8 2c-4.29 0-8-2-8-2z" fill="#cedbff"/><path d="m38.03 25c1.103 0 2 .897 2 2v2l3 3v-5c0-2.76-2.24-5-5-5v-4h-3v4c0 1.657 1.343 3 3 3z" fill="#5c9eff"/><path d="m21.03 36c0 1.41.271 2.76.75 4h-7.78c-5.52 0-10-4.48-10-10v-4c0 5.52 4.48 9.99 10 9.99h7.021.01v.01z" fill="#d7e9ff"/><path d="m15.12 16.02c.971-8.46 8.16-15.02 16.88-15.02 6.891 0 12.83 4.1 15.49 10h.01c6.9 0 12.5 5.59 12.5 12.5 0 6.9-5.6 12.49-12.5 12.49h-4.47v-3.99-5c0-2.76-2.24-5-5-5v-4h-8c-4.979 0-9 4.03-9 9v5 3.99h-.01-7.02c-5.52 0-10-4.47-10-9.99s4.48-10 10-10h1z" fill="#fff"/><g fill="#0444f9"><path d="m49 19c-.553 0-1-.448-1-1 0-8.822-7.178-16-16-16s-16 7.178-16 16c0 .552-.447 1-1 1s-1-.448-1-1c0-9.925 8.075-18 18-18s18 8.075 18 18c0 .552-.447 1-1 1z"/><path d="m47.5 36.994c-.553 0-1-.447-1-1s.447-1 1-1c6.341 0 11.5-5.157 11.5-11.495 0-6.341-5.159-11.499-11.5-11.499-.553 0-1-.448-1-1s.447-1 1-1c7.444 0 13.5 6.056 13.5 13.499 0 7.441-6.056 13.495-13.5 13.495z"/><path d="m14 36.994c-6.065 0-11-4.933-11-10.996 0-6.064 4.935-10.998 11-10.998.553 0 1 .448 1 1s-.447 1-1 1c-4.963 0-9 4.037-9 8.998 0 4.96 4.037 8.996 9 8.996.553 0 1 .447 1 1s-.447 1-1 1z"/><path d="m47.5 36.994h-4.475c-.553 0-1-.447-1-1s.447-1 1-1h4.475c.553 0 1 .447 1 1s-.447 1-1 1z"/><path d="m21.025 36.994h-7.025c-.553 0-1-.447-1-1s.447-1 1-1h7.025c.553 0 1 .447 1 1s-.447 1-1 1z"/><path d="m15 17h-1c-.553 0-1-.448-1-1s.447-1 1-1h1c.553 0 1 .448 1 1s-.447 1-1 1z"/><path d="m47.5 40.997c-.553 0-1-.447-1-1s.447-1 1-1c6.341 0 11.5-5.156 11.5-11.495 0-.552.447-1 1-1s1 .448 1 1c0 7.441-6.056 13.495-13.5 13.495z"/><path d="m14 40.997c-6.065 0-11-4.933-11-10.996 0-.552.447-1 1-1s1 .448 1 1c0 4.961 4.037 8.996 9 8.996.553 0 1 .447 1 1s-.447 1-1 1z"/><path d="m47.5 40.997h-5.223c-.553 0-1-.447-1-1s.447-1 1-1h5.223c.553 0 1 .447 1 1s-.447 1-1 1z"/><path d="m21.777 40.997h-7.777c-.553 0-1-.447-1-1s.447-1 1-1h7.777c.553 0 1 .447 1 1s-.447 1-1 1z"/><path d="m17.026 55.999c-.553 0-1-.447-1-1 0-3.859 3.141-6.999 7-6.999.553 0 1 .447 1 1s-.447 1-1 1c-2.757 0-5 2.242-5 4.999 0 .553-.447 1-1 1z"/><path d="m27.026 50.001-4-.001c-.553 0-1-.448-1-1 0-.553.448-1 1-1l4 .001c.553 0 1 .448 1 1 0 .553-.448 1-1 1z"/><path d="m17.026 62c-.553 0-1-.447-1-1v-6.001c0-.553.447-1 1-1s1 .447 1 1v6.001c0 .553-.447 1-1 1z"/><path d="m47.026 55.999c-.553 0-1-.447-1-1 0-2.757-2.243-4.999-5-4.999-.553 0-1-.447-1-1s.447-1 1-1c3.859 0 7 3.14 7 6.999 0 .553-.447 1-1 1z"/><path d="m37.026 50.001c-.552 0-1-.447-1-1 0-.552.447-1 1-1l4-.001c.552 0 1 .447 1 1 0 .552-.447 1-1 1z"/><path d="m47.026 62c-.553 0-1-.447-1-1v-6.001c0-.553.447-1 1-1s1 .447 1 1v6.001c0 .553-.447 1-1 1z"/><path d="m45.026 64h-26c-.553 0-1-.447-1-1s.447-1 1-1h26c.553 0 1 .447 1 1s-.447 1-1 1z"/><path d="m27.026 50.001c-.553 0-1-.447-1-1v-3.201c0-.553.447-1 1-1s1 .447 1 1v3.201c0 .553-.447 1-1 1z"/><path d="m37.026 50c-.553 0-1-.447-1-1v-3.2c0-.553.447-1 1-1s1 .447 1 1v3.2c0 .553-.447 1-1 1z"/><path d="m32.026 48c-6.617 0-12-5.383-12-12 0-.553.447-1 1-1s1 .447 1 1c0 5.514 4.486 10 10 10s10-4.486 10-10c0-.553.447-1 1-1s1 .447 1 1c0 6.617-5.382 12-12 12z"/><path d="m21.026 37.001c-.553 0-1-.447-1-1v-9.001c0-.552.447-1 1-1s1 .448 1 1v9.001c0 .553-.447 1-1 1z"/><path d="m43.026 37.002c-.553 0-1-.447-1-1v-9.002c0-.552.447-1 1-1s1 .448 1 1v9.002c0 .553-.447 1-1 1z"/><path d="m43.026 28c-.553 0-1-.448-1-1 0-2.206-1.794-4-4-4-.553 0-1-.448-1-1s.447-1 1-1c3.309 0 6 2.691 6 6 0 .552-.447 1-1 1z"/><path d="m38.026 23c-.553 0-1-.448-1-1v-4c0-.552.447-1 1-1s1 .448 1 1v4c0 .552-.447 1-1 1z"/><path d="m38.026 19h-8c-.553 0-1-.448-1-1s.447-1 1-1h8c.553 0 1 .448 1 1s-.447 1-1 1z"/><path d="m21.026 28c-.553 0-1-.448-1-1 0-5.514 4.486-9.999 10-9.999.553 0 1 .448 1 1s-.447 1-1 1c-4.411 0-8 3.588-8 7.999 0 .552-.447 1-1 1z"/><path d="m43.026 33c-.256 0-.512-.098-.707-.293l-3-3c-.391-.391-.391-1.023 0-1.414s1.023-.391 1.414 0l3 3c.391.391.391 1.023 0 1.414-.195.195-.451.293-.707.293z"/><path d="m32.026 32c-4.485 0-8.313-2.033-8.474-2.12-.486-.261-.668-.867-.407-1.353.261-.485.866-.669 1.354-.408.035.019 3.56 1.881 7.527 1.881 3.987 0 7.491-1.862 7.526-1.88.485-.264 1.093-.081 1.354.406.262.486.079 1.093-.407 1.354-.159.087-3.987 2.12-8.473 2.12z"/><path d="m21.026 33c-.256 0-.512-.098-.707-.293-.391-.391-.391-1.023 0-1.414l3-3c.391-.391 1.023-.391 1.414 0s.391 1.023 0 1.414l-3 3c-.195.195-.451.293-.707.293z"/><path d="m29.026 52c-.256 0-.512-.098-.707-.293l-2-1.999c-.391-.391-.391-1.023 0-1.414s1.023-.391 1.414 0l2 1.999c.391.391.391 1.023 0 1.414-.195.195-.451.293-.707.293z"/><path d="m29.026 52c-.419 0-.809-.265-.948-.684-.175-.524.108-1.091.632-1.265l3-1c.528-.175 1.09.108 1.265.632s-.108 1.091-.632 1.265l-3 1c-.106.035-.212.052-.317.052z"/><path d="m35.026 52c-.256 0-.512-.098-.707-.293-.391-.391-.391-1.023 0-1.414l2-1.999c.391-.391 1.023-.391 1.414 0s.391 1.023 0 1.414l-2 1.999c-.195.195-.451.293-.707.293z"/><path d="m35.026 52c-.104 0-.211-.017-.316-.052l-3-1c-.523-.174-.807-.74-.632-1.265.174-.523.737-.807 1.265-.632l3 1c.523.174.807.74.632 1.265-.14.419-.53.684-.949.684z"/><path d="m45.026 64c-.553 0-1-.447-1-1s.447-1 1-1c.552 0 1-.448 1-1 0-.553.447-1 1-1s1 .447 1 1c0 1.654-1.345 3-3 3z"/><path d="m19.026 64c-1.654 0-3-1.346-3-3 0-.553.447-1 1-1s1 .447 1 1c0 .552.448 1 1 1 .553 0 1 .447 1 1s-.447 1-1 1z"/><path d="m32.057 56c-.553 0-1.005-.447-1.005-1s.442-1 .994-1h.011c.552 0 1 .447 1 1s-.449 1-1 1z"/><path d="m32.057 60c-.553 0-1.005-.447-1.005-1s.442-1 .994-1h.011c.552 0 1 .447 1 1s-.449 1-1 1z"/><path d="m4 31.001c-.553 0-1-.448-1-1v-4.003c0-.552.447-1 1-1s1 .448 1 1v4.003c0 .552-.447 1-1 1z"/><path d="m60 28.502c-.553 0-1-.448-1-1v-4.003c0-.552.447-1 1-1s1 .448 1 1v4.003c0 .552-.447 1-1 1z"/></g></svg>