<svg id="icons" enable-background="new 0 0 64 64" height="512" viewBox="0 0 64 64" width="512" xmlns="http://www.w3.org/2000/svg"><path d="m50.36 22.07c-3.07-7.11-10.14-12.07-18.36-12.07-10.36 0-18.89 7.89-19.9 18h-.1c-6.08 0-11 4.92-11 11 0 6.07 4.92 11 11 11h37c7.73 0 14-6.27 14-14 0-7.28-5.54-13.24-12.64-13.93z" fill="#fff"/><path d="m32 14c8.83 0 16 7.16 16 16 0 8.83-7.17 16-16 16s-16-7.17-16-16c0-8.84 7.17-16 16-16z" fill="#cedbff"/><path d="m1 39c0 6.07 4.92 11 11 11h37c7.73 0 14-6.27 14-14v4c0 7.73-6.27 14-14 14h-37c-6.08 0-11-4.92-11-11z" fill="#d7e9ff"/><g fill="#0444f9"><path d="m12 50.996c-6.617 0-12-5.383-12-12s5.383-12 12-12c.553 0 1 .448 1 1s-.447 1-1 1c-5.514 0-10 4.486-10 10s4.486 10 10 10c.553 0 1 .447 1 1s-.447 1-1 1z"/><path d="m49 50.996c-.553 0-1-.447-1-1s.447-1 1-1c7.168 0 13-5.832 13-13.001 0-6.723-5.044-12.281-11.732-12.93-.55-.053-.952-.542-.898-1.092.054-.549.533-.958 1.092-.898 7.718.748 13.538 7.162 13.538 14.92 0 8.272-6.729 15.001-15 15.001z"/><path d="m12.102 28.996h-.102c-.553 0-1-.448-1-1s.447-1 1-1h.102c.553 0 1 .448 1 1s-.448 1-1 1z"/><path d="m49 50.996h-37c-.553 0-1-.447-1-1s.447-1 1-1h37c.553 0 1 .447 1 1s-.447 1-1 1z"/><path d="m12 55c-6.617 0-12-5.384-12-12.002 0-.553.447-1 1-1s1 .447 1 1c0 5.515 4.486 10.002 10 10.002.553 0 1 .447 1 1s-.447 1-1 1z"/><path d="m49 55c-.553 0-1-.447-1-1s.447-1 1-1c7.168 0 13-5.833 13-13.003 0-.553.447-1 1-1s1 .447 1 1c0 8.273-6.729 15.003-15 15.003z"/><path d="m49 55h-37c-.553 0-1-.447-1-1s.447-1 1-1h37c.553 0 1 .447 1 1s-.447 1-1 1z"/><path d="m63 40.997c-.553 0-1-.447-1-1v-4.002c0-.553.447-1 1-1s1 .447 1 1v4.002c0 .553-.447 1-1 1z"/><path d="m1 43.998c-.553 0-1-.447-1-1v-4.002c0-.553.447-1 1-1s1 .447 1 1v4.002c0 .553-.447 1-1 1z"/><path d="m51.998 30.998c-.553 0-1-.448-1-1 0-10.476-8.522-18.998-18.998-18.998s-18.998 8.522-18.998 18.998c0 .552-.447 1-1 1s-1-.448-1-1c0-11.578 9.42-20.998 20.998-20.998s20.998 9.42 20.998 20.998c0 .552-.447 1-1 1z"/><path d="m32 46.998c-9.374 0-17-7.626-17-17s7.626-17 17-17 17 7.626 17 17-7.626 17-17 17zm0-32c-8.271 0-15 6.729-15 15s6.729 15 15 15 15-6.729 15-15-6.729-15-15-15z"/><path d="m41 30.999c-.553 0-1-.448-1-1 0-4.411-3.589-8-8-8s-8 3.589-8 8c0 .552-.447 1-1 1s-1-.448-1-1c0-5.514 4.486-10 10-10s10 4.486 10 10c0 .552-.447 1-1 1z"/><path d="m44 30.999c-.553 0-1-.448-1-1 0-6.065-4.935-11-11-11s-11 4.935-11 11c0 .552-.447 1-1 1s-1-.448-1-1c0-7.168 5.832-13 13-13s13 5.832 13 13c0 .552-.447 1-1 1z"/><path d="m38 30.999c-.553 0-1-.448-1-1 0-2.757-2.243-5-5-5s-5 2.243-5 5c0 .552-.447 1-1 1s-1-.448-1-1c0-3.86 3.141-7 7-7s7 3.14 7 7c0 .552-.447 1-1 1z"/><path d="m35 30.999c-.553 0-1-.448-1-1 0-1.103-.897-2-2-2s-2 .897-2 2c0 .552-.447 1-1 1s-1-.448-1-1c0-2.206 1.794-4 4-4s4 1.794 4 4c0 .552-.447 1-1 1z"/><path d="m32 42.998c-.553 0-1-.447-1-1v-11.999c0-.552.447-1 1-1s1 .448 1 1v11.999c0 .553-.447 1-1 1z"/><path d="m29 42.617c-.553 0-1-.447-1-1v-11.618c0-.552.447-1 1-1s1 .448 1 1v11.618c0 .553-.447 1-1 1z"/><path d="m35 42.617c-.553 0-1-.447-1-1v-11.618c0-.552.447-1 1-1s1 .448 1 1v11.618c0 .553-.447 1-1 1z"/><path d="m38 41.389c-.553 0-1-.447-1-1v-10.39c0-.552.447-1 1-1s1 .448 1 1v10.39c0 .552-.447 1-1 1z"/><path d="m26 41.389c-.553 0-1-.447-1-1v-10.39c0-.552.447-1 1-1s1 .448 1 1v10.39c0 .552-.447 1-1 1z"/><path d="m23 38.998c-.553 0-1-.447-1-1v-7.999c0-.552.447-1 1-1s1 .448 1 1v7.999c0 .553-.447 1-1 1z"/><path d="m41 38.93c-.553 0-1-.447-1-1v-7.931c0-.552.447-1 1-1s1 .448 1 1v7.931c0 .552-.447 1-1 1z"/><path d="m20 33.996c-.553 0-1-.447-1-1v-2.997c0-.552.447-1 1-1s1 .448 1 1v2.997c0 .553-.447 1-1 1z"/><path d="m44 33.996c-.553 0-1-.447-1-1v-2.997c0-.552.447-1 1-1s1 .448 1 1v2.997c0 .553-.447 1-1 1z"/></g></svg>