<svg id="icons" enable-background="new 0 0 64 64" height="512" viewBox="0 0 64 64" width="512" xmlns="http://www.w3.org/2000/svg"><path d="m49.24 15.005c7.62.13 13.76 6.35 13.76 13.99 0 7.74-6.27 14-14 14h-2v-.99h-2.36c-.319-1.37-.859-2.65-1.58-3.82l1.671-1.67-4.24-4.24-1.67 1.671c-1.17-.721-2.45-1.261-3.82-1.58v-2.37h-6v2.37c-1.37.319-2.65.859-3.81 1.58l-1.681-1.671-4.24 4.24 1.671 1.67c-.71 1.17-1.25 2.45-1.58 3.82h-2.361v.99h-5c-6.08 0-11-4.92-11-11 0-6.07 4.92-11 11-11h1.1.011c1-9.55 9.08-17 18.89-17 7.639 0 14.229 4.51 17.239 11.01z" fill="#fff"/><path d="m49 42.995h-32-.029-4.971c-6.08 0-11-4.92-11-11v4c0 6.08 4.92 11 11 11h4.971.029 32c7.73 0 14-6.26 14-14v-4c0 7.74-6.27 14-14 14z" fill="#d7e9ff"/><path d="m34 44.985c0-1.101-.9-1.99-2-1.99s-2 .89-2 1.99c0 1.109.9 2 2 2s2-.89 2-2zm-2-4.99c2.76 0 5 2.24 5 4.99 0 2.76-2.24 5-5 5s-5-2.24-5-5c0-2.75 2.24-4.99 5-4.99z" fill="#5c9eff"/><path d="m47 46.995v1.01h-2.36c-.33 1.37-.87 2.65-1.58 3.81l1.671 1.671-4.24 4.25-1.681-1.681c-1.159.72-2.439 1.26-3.81 1.58v2.37h-6v-2.37c-1.37-.32-2.65-.86-3.81-1.58l-1.681 1.681-4.24-4.25 1.681-1.671c-.72-1.159-1.26-2.439-1.59-3.81h-2.36v-1.01-4-.99h2.36c.33-1.37.87-2.65 1.58-3.82l-1.671-1.67 4.24-4.24 1.681 1.671c1.159-.721 2.439-1.261 3.81-1.58v-2.37h6v2.37c1.37.319 2.65.859 3.82 1.58l1.67-1.671 4.24 4.24-1.671 1.67c.721 1.17 1.261 2.45 1.58 3.82h2.361v.99zm-10-2.01c0-2.75-2.24-4.99-5-4.99s-5 2.24-5 4.99c0 2.76 2.24 5 5 5s5-2.24 5-5z" fill="#cedbff"/><g fill="#0444f9"><path d="m12 43.997c-6.617 0-12-5.383-12-12s5.383-12 12-12c.553 0 1 .448 1 1s-.447 1-1 1c-5.514 0-10 4.486-10 10s4.486 10 10 10c.553 0 1 .447 1 1s-.447 1-1 1z"/><path d="m49 43.997c-.553 0-1-.447-1-1s.447-1 1-1c7.168 0 13-5.832 13-13 0-7.051-5.739-12.878-12.794-12.989-.553-.009-.993-.463-.984-1.016s.451-.967 1.016-.984c8.14.128 14.762 6.852 14.762 14.989 0 8.272-6.729 15-15 15z"/><path d="m51 23.997c-.553 0-1-.448-1-1 0-1.285-.136-2.566-.403-3.807-1.77-8.224-9.17-14.193-17.597-14.193-9.925 0-18 8.075-18 18 0 .552-.447 1-1 1s-1-.448-1-1c0-11.028 8.972-20 20-20 9.362 0 17.585 6.633 19.552 15.772.298 1.379.448 2.801.448 4.228 0 .552-.447 1-1 1z"/><path d="m13.104 21.997h-1.104c-.553 0-1-.448-1-1s.447-1 1-1h1.104c.553 0 1 .448 1 1s-.447 1-1 1z"/><path d="m35.001 61.003h-6c-.553 0-1-.447-1-1v-1.598c-.918-.274-1.805-.642-2.649-1.1l-1.131 1.131c-.391.391-1.023.391-1.414 0l-4.243-4.241c-.188-.188-.293-.441-.293-.707s.105-.52.293-.707l1.132-1.132c-.458-.844-.825-1.73-1.1-2.648h-1.597c-.552 0-1-.447-1-1l-.001-6c0-.265.105-.52.293-.707s.441-.293.707-.293h1.597c.274-.919.642-1.806 1.1-2.65l-1.13-1.13c-.391-.391-.391-1.023 0-1.414l4.242-4.243c.391-.391 1.023-.39 1.414 0l1.13 1.129c.844-.458 1.731-.826 2.65-1.1v-1.596c0-.552.447-1 1-1h6c.553 0 1 .448 1 1v1.596c.918.273 1.805.641 2.65 1.099l1.128-1.128c.375-.374 1.039-.375 1.414 0l4.243 4.243c.391.391.391 1.023 0 1.414l-1.129 1.13c.458.844.825 1.731 1.1 2.65h1.595c.553 0 1 .447 1 1v6c0 .553-.447 1-1 1h-1.596c-.274.917-.642 1.804-1.1 2.648l1.131 1.131c.188.188.293.441.293.707s-.105.52-.293.707l-4.243 4.243c-.188.188-.441.293-.707.293-.266 0-.52-.105-.707-.293l-1.131-1.132c-.844.458-1.73.825-2.648 1.1v1.598c0 .553-.447 1-1 1zm-5-2h4v-1.365c0-.464.318-.866.77-.973 1.243-.295 2.427-.786 3.518-1.46.394-.242.904-.186 1.232.144l.967.968 2.829-2.829-.967-.967c-.328-.328-.388-.838-.144-1.232.674-1.093 1.165-2.276 1.46-3.518.106-.451.509-.77.973-.77h1.363v-4h-1.362c-.464 0-.866-.318-.973-.77-.295-1.245-.786-2.429-1.46-3.52-.244-.395-.185-.904.144-1.232l.965-.966-2.829-2.829-.964.965c-.327.328-.839.387-1.232.144-1.094-.676-2.278-1.166-3.519-1.459-.451-.107-.771-.51-.771-.974v-1.363h-4v1.363c0 .463-.318.866-.77.973-1.245.295-2.429.786-3.52 1.46-.392.244-.902.188-1.232-.144l-.966-.965-2.828 2.829.966.966c.328.328.388.838.144 1.232-.674 1.092-1.165 2.276-1.46 3.52-.106.451-.509.77-.973.77h-1.364l.001 4h1.364c.464 0 .866.318.973.77.295 1.243.786 2.427 1.46 3.518.244.395.185.904-.144 1.232l-.968.968 2.829 2.827.967-.967c.327-.329.839-.389 1.232-.144 1.093.674 2.276 1.165 3.519 1.46.451.106.77.509.77.973z"/><path d="m16.998 43.997h-4.998c-.553 0-1-.447-1-1s.447-1 1-1h4.998c.553 0 1 .447 1 1s-.447 1-1 1z"/><path d="m49 43.997h-1.998c-.553 0-1-.447-1-1s.447-1 1-1h1.998c.553 0 1 .447 1 1s-.447 1-1 1z"/><path d="m12 47.997c-6.617 0-12-5.383-12-12 0-.553.447-1 1-1s1 .447 1 1c0 5.514 4.486 10 10 10 .553 0 1 .447 1 1s-.447 1-1 1z"/><path d="m49 47.997c-.553 0-1-.447-1-1s.447-1 1-1c7.168 0 13-5.832 13-13 0-.552.447-1 1-1s1 .448 1 1c0 8.272-6.729 15-15 15z"/><path d="m16.998 47.997h-4.998c-.553 0-1-.447-1-1s.447-1 1-1h4.998c.553 0 1 .447 1 1s-.447 1-1 1z"/><path d="m49 47.997h-1.998c-.553 0-1-.447-1-1s.447-1 1-1h1.998c.553 0 1 .447 1 1s-.447 1-1 1z"/><path d="m32 54.988c-5.514 0-10-4.486-10-10 0-.553.447-1 1-1s1 .447 1 1c0 4.411 3.589 8 8 8 .553 0 1 .447 1 1s-.447 1-1 1z"/><path d="m41 45.988c-.553 0-1-.447-1-1 0-4.409-3.589-7.997-8-7.997-.553 0-1-.447-1-1s.447-1 1-1c5.514 0 10 4.484 10 9.997 0 .553-.447 1-1 1z"/><path d="m32 50.988c-3.309 0-6-2.691-6-6 0-3.307 2.691-5.996 6-5.996s6 2.689 6 5.996c0 3.309-2.691 6-6 6zm0-9.996c-2.206 0-4 1.793-4 3.996 0 2.206 1.794 4 4 4s4-1.794 4-4c0-2.203-1.794-3.996-4-3.996z"/><path d="m32 47.988c-1.654 0-3-1.346-3-3 0-1.652 1.346-2.996 3-2.996s3 1.344 3 2.996c0 1.655-1.346 3-3 3zm0-3.996c-.552 0-1 .447-1 .996 0 .552.448 1 1 1s1-.448 1-1c0-.549-.448-.996-1-.996z"/><path d="m63 33.997c-.553 0-1-.447-1-1v-4c0-.552.447-1 1-1s1 .448 1 1v4c0 .553-.447 1-1 1z"/><path d="m1 36.997c-.553 0-1-.447-1-1v-4c0-.552.447-1 1-1s1 .448 1 1v4c0 .553-.447 1-1 1z"/></g></svg>