<?xml version="1.0"?>
<svg xmlns="http://www.w3.org/2000/svg" id="_x31_px" enable-background="new 0 0 24 24" height="512px" viewBox="0 0 24 24" width="512px"><g><path d="m12 11c-1.103 0-2-.897-2-2s.897-2 2-2 2 .897 2 2-.897 2-2 2zm0-3c-.552 0-1 .449-1 1s.448 1 1 1 1-.449 1-1-.448-1-1-1z" data-original="#000000" class="active-path" data-old_color="#000000" fill="#1EB2A6"/><path d="m17 15c-1.103 0-2-.897-2-2s.897-2 2-2 2 .897 2 2-.897 2-2 2zm0-3c-.552 0-1 .449-1 1s.448 1 1 1 1-.449 1-1-.448-1-1-1z" data-original="#000000" class="active-path" data-old_color="#000000" fill="#1EB2A6"/><path d="m12 22c-.276 0-.5-.224-.5-.5v-11c0-.276.224-.5.5-.5s.5.224.5.5v11c0 .276-.224.5-.5.5z" data-original="#000000" class="active-path" data-old_color="#000000" fill="#1EB2A6"/><path d="m14.5 19c-.276 0-.5-.224-.5-.5v-3c0-.133.053-.26.146-.354l1.44-1.44c.195-.195.512-.195.707 0s.195.512 0 .707l-1.293 1.294v2.793c0 .276-.224.5-.5.5z" data-original="#000000" class="active-path" data-old_color="#000000" fill="#1EB2A6"/><path d="m7 15c-1.103 0-2-.897-2-2s.897-2 2-2 2 .897 2 2-.897 2-2 2zm0-3c-.552 0-1 .449-1 1s.448 1 1 1 1-.449 1-1-.448-1-1-1z" data-original="#000000" class="active-path" data-old_color="#000000" fill="#1EB2A6"/><path d="m9.5 19c-.276 0-.5-.224-.5-.5v-2.793l-1.294-1.293c-.195-.195-.195-.512 0-.707s.512-.195.707 0l1.44 1.44c.094.093.147.22.147.353v3c0 .276-.224.5-.5.5z" data-original="#000000" class="active-path" data-old_color="#000000" fill="#1EB2A6"/><path d="m18 18h-.5c-.276 0-.5-.224-.5-.5s.224-.5.5-.5h.5c2.757 0 5-2.243 5-5 0-2.647-2.063-4.835-4.697-4.981-.185-.01-.348-.121-.426-.288-1.058-2.266-3.364-3.731-5.877-3.731-3.215 0-5.977 2.395-6.425 5.57-.035.246-.246.43-.495.43-2.286 0-4.08 1.794-4.08 4s1.794 4 4 4h1.5c.276 0 .5.224.5.5s-.224.5-.5.5h-1.5c-2.757 0-5-2.243-5-5 0-2.642 2.059-4.811 4.656-4.988.692-3.456 3.777-6.012 7.344-6.012 2.801 0 5.381 1.578 6.653 4.044 3.022.317 5.347 2.878 5.347 5.956 0 3.309-2.691 6-6 6z" data-original="#000000" class="active-path" data-old_color="#000000" fill="#1EB2A6"/></g> </svg>
