<?xml version="1.0"?>
<svg xmlns="http://www.w3.org/2000/svg" xmlns:xlink="http://www.w3.org/1999/xlink" version="1.1" id="Capa_1" x="0px" y="0px" viewBox="0 0 512.001 512.001" style="enable-background:new 0 0 512.001 512.001;" xml:space="preserve" width="512px" height="512px"><g><g>
	<g>
		<path d="M312.153,202.401c-15.801,0-28.658,12.855-28.658,28.656c0,15.801,12.856,28.656,28.658,28.656    c15.801,0.001,28.657-12.855,28.657-28.656C340.809,215.256,327.953,202.401,312.153,202.401z M312.153,244.49    c-7.407,0.001-13.434-6.026-13.434-13.433c0-7.407,6.027-13.433,13.434-13.433c7.407,0,13.433,6.026,13.433,13.433    C325.585,238.465,319.559,244.49,312.153,244.49z" data-original="#000000" class="active-path" data-old_color="#000000" fill="#D59BF6"/>
	</g>
</g><g>
	<g>
		<path d="M332.824,386.561c-15.801,0-28.656,12.856-28.656,28.656c0,15.801,12.856,28.658,28.656,28.658    c15.8,0,28.656-12.855,28.656-28.658C361.48,399.417,348.624,386.561,332.824,386.561z M332.824,428.651    c-7.407,0-13.433-6.026-13.433-13.434c0-7.407,6.027-13.433,13.433-13.433c7.406,0,13.433,6.027,13.433,13.433    C346.256,422.625,340.23,428.651,332.824,428.651z" data-original="#000000" class="active-path" data-old_color="#000000" fill="#D59BF6"/>
	</g>
</g><g>
	<g>
		<path d="M363.689,288.652c-19.016,0-34.486,15.471-34.486,34.486s15.471,34.486,34.486,34.486s34.486-15.471,34.486-34.486    S382.704,288.652,363.689,288.652z M363.689,342.4c-10.621,0-19.262-8.641-19.262-19.262s8.641-19.262,19.262-19.262    s19.262,8.641,19.262,19.262S374.31,342.4,363.689,342.4z" data-original="#000000" class="active-path" data-old_color="#000000" fill="#D59BF6"/>
	</g>
</g><g>
	<g>
		<path d="M199.851,202.401c-15.8,0-28.657,12.855-28.657,28.656c0,15.801,12.856,28.656,28.657,28.656    c15.8,0,28.656-12.855,28.656-28.656C228.507,215.256,215.651,202.401,199.851,202.401z M199.851,244.491    c-7.407,0-13.433-6.027-13.433-13.433c0-7.407,6.027-13.433,13.433-13.433c7.406,0,13.433,6.026,13.433,13.433    C213.283,238.465,207.257,244.491,199.851,244.491z" data-original="#000000" class="active-path" data-old_color="#000000" fill="#D59BF6"/>
	</g>
</g><g>
	<g>
		<path d="M179.179,386.561c-15.801,0-28.657,12.856-28.657,28.656c0,15.801,12.856,28.658,28.657,28.658    c15.801,0,28.658-12.855,28.658-28.658C207.836,399.417,194.981,386.561,179.179,386.561z M179.179,428.651    c-7.407,0-13.433-6.026-13.433-13.434c0-7.407,6.027-13.433,13.433-13.433c7.407,0,13.434,6.027,13.434,13.433    C192.612,422.625,186.587,428.651,179.179,428.651z" data-original="#000000" class="active-path" data-old_color="#000000" fill="#D59BF6"/>
	</g>
</g><g>
	<g>
		<path d="M148.315,288.652c-19.016,0-34.486,15.471-34.486,34.486s15.471,34.486,34.486,34.486s34.486-15.471,34.486-34.486    S167.33,288.652,148.315,288.652z M148.315,342.4c-10.621,0-19.262-8.641-19.262-19.262s8.641-19.262,19.262-19.262    c10.621,0,19.262,8.641,19.262,19.262S158.936,342.4,148.315,342.4z" data-original="#000000" class="active-path" data-old_color="#000000" fill="#D59BF6"/>
	</g>
</g><g>
	<g>
		<path d="M208.31,87.992c-4.204,0-7.612,3.408-7.612,7.612v8.699c0,4.204,3.408,7.612,7.612,7.612c4.204,0,7.612-3.408,7.612-7.612    v-8.699C215.922,91.4,212.514,87.992,208.31,87.992z" data-original="#000000" class="active-path" data-old_color="#000000" fill="#D59BF6"/>
	</g>
</g><g>
	<g>
		<path d="M304.436,87.992c-4.204,0-7.612,3.408-7.612,7.612v8.699c0,4.204,3.408,7.612,7.612,7.612s7.612-3.408,7.612-7.612v-8.699    C312.048,91.4,308.64,87.992,304.436,87.992z" data-original="#000000" class="active-path" data-old_color="#000000" fill="#D59BF6"/>
	</g>
</g><g>
	<g>
		<path d="M273.245,97.967c-3.165-2.768-7.974-2.445-10.741,0.721c-1.471,1.682-3.705,2.646-6.132,2.646    c-2.428,0-4.662-0.964-6.132-2.646c-2.768-3.165-7.575-3.488-10.741-0.721c-3.166,2.768-3.488,7.575-0.722,10.741    c4.363,4.988,10.776,7.85,17.596,7.85c6.819,0,13.233-2.861,17.593-7.85C276.733,105.542,276.41,100.735,273.245,97.967z" data-original="#000000" class="active-path" data-old_color="#000000" fill="#D59BF6"/>
	</g>
</g><g>
	<g>
		<path d="M465.095,288.17h-15.801c-2.852-15.772-7.599-30.891-13.993-45.118l14.001-12.22    c14.969-13.065,16.519-35.875,3.454-50.844c-12.898-14.777-36.075-16.343-50.843-3.454l-8.037,7.015    c-5.95-5.861-12.27-11.345-18.924-16.415c1.118-5.926,1.692-11.947,1.692-17.961c0-39.987-24.619-74.942-61.055-93.467    c0,0,9.296-19.791,9.32-19.79c9.918,0,17.958-8.039,17.958-17.957C342.866,8.041,334.825,0,324.907,0    c-9.918,0-17.958,8.04-17.958,17.958c0,4.368,1.562,8.369,4.155,11.482l-9.487,20.197c-14.08-5.145-29.482-7.99-45.616-7.99    c-15.893,0-31.073,2.759-44.982,7.758l-9.378-19.966c2.592-3.113,4.155-7.114,4.155-11.482C205.797,8.04,197.757,0,187.839,0    c-9.918,0-17.958,8.04-17.958,17.958c0,9.918,8.04,17.957,17.982,17.956l9.155,19.491c-36.766,18.444-61.658,53.561-61.658,93.768    c0,6.214,0.611,12.428,1.804,18.539c-6.463,4.99-12.66,10.413-18.557,16.256l-8.516-7.433c-6.566-5.73-14.976-8.886-23.683-8.886    c-10.416,0-20.316,4.498-27.16,12.341C46.18,194.96,47.73,217.768,62.7,230.833l14.545,12.695    c-6.368,14.233-10.995,29.201-13.782,44.643H46.907c-19.87,0-36.035,16.166-36.035,36.035c0,19.869,16.165,36.034,36.035,36.034    h16.904c2.905,15.255,7.609,30.035,14.039,44.116L62.7,417.577c-14.97,13.064-16.519,35.873-3.454,50.843    c6.845,7.842,16.744,12.341,27.161,12.341c8.706,0,17.118-3.156,23.682-8.886l9.536-8.322    c22.808,22.143,50.898,38.721,81.306,47.669c11.442,3.372,23.386-5.019,24.135-16.917c0.004-0.068,0.01-0.136,0.014-0.204    c10.294,1.873,20.782,2.832,31.292,2.832c10.51,0,20.997-0.96,31.291-2.832c0.004,0.068,0.01,0.135,0.014,0.203    c0.728,11.761,12.609,20.3,23.96,16.972c30.33-8.895,58.341-25.364,81.129-47.38l9.143,7.979    c14.74,12.858,37.915,11.36,50.843-3.454c13.065-14.97,11.516-37.778-3.454-50.843l-14.617-12.758    c6.541-14.223,11.316-29.159,14.253-44.581h16.159v-0.001c19.869,0,36.034-16.165,36.034-36.034S484.964,288.17,465.095,288.17z     M46.907,345.015c-11.476,0-20.811-9.335-20.811-20.81c0-11.476,9.335-20.811,20.811-20.811h14.42    c-0.173,1.724-0.325,3.452-0.455,5.208c-0.893,12.118-0.67,24.336,0.659,36.414H46.907z M411.923,188.004    c8.543-7.456,21.915-6.539,29.363,1.994c7.545,8.645,6.651,21.818-1.994,29.364l-10.956,9.563    c-6.726-12.253-14.747-23.751-23.953-34.338C404.381,194.586,411.919,188.007,411.923,188.004z M256.002,56.872    c58.128,0,105.418,41.406,105.418,92.302c0,2.722-0.137,5.445-0.411,8.157c-27.038-17.122-57.537-27.22-89.464-29.655    c-19.099-1.463-38.354-0.121-57.074,3.925c-22.541,4.919-43.957,13.795-63.416,26.299c-0.312-2.9-0.47-5.813-0.47-8.725    C150.584,98.279,197.874,56.872,256.002,56.872z M72.711,219.363c-8.645-7.546-9.54-20.718-1.995-29.364    c3.953-4.53,9.672-7.127,15.691-7.127c5.025,0,9.88,1.823,13.673,5.133l8.114,7.081c-9.269,10.682-17.271,22.192-23.941,34.349    L72.711,219.363z M100.079,460.404c-8.54,7.454-21.919,6.535-29.363-1.994c-7.546-8.646-6.651-21.818,1.994-29.363l12.236-10.679    c4.162,7.454,8.84,14.672,14.012,21.624c3.21,4.314,6.594,8.498,10.144,12.537C109.104,452.528,100.081,460.402,100.079,460.404z     M212.709,468.733c-1.358,8.153-2.321,16.371-2.835,24.62c-0.119,1.898-1.752,3.371-3.585,3.406    c-0.348,0.007-0.703-0.039-1.058-0.143c-30.487-8.972-58.452-26.26-80.379-49.426c-24.116-25.479-42.929-60.218-47.058-95.434    c-0.012-0.104-0.015-0.207-0.031-0.311c-10.468-66.018,18.362-134.69,72.042-174.2c0.113-0.073,0.232-0.13,0.342-0.21    c28.599-20.928,63.206-33.092,98.616-34.562v230.481c-0.025,0.04-0.059,0.092-0.085,0.134c-1.305,2.067-2.595,4.146-3.819,6.262    C236.312,393.989,219.735,426.535,212.709,468.733z M226.58,478.906c0.209-1.566,0.434-3.13,0.678-4.691    c0.765-4.919,2.764-14.725,2.77-14.75c6.796-30.77,18.511-55.261,25.896-68.661c0.016-0.029,0.032-0.059,0.049-0.088    c0.136-0.248,0.269-0.485,0.402-0.725c8.377,15.05,22.861,45.229,28.919,82.974c0.317,1.976,0.609,3.956,0.874,5.94    C266.592,482.627,246.154,482.626,226.58,478.906z M439.292,429.047c8.645,7.545,9.539,20.718,1.994,29.363    c-7.449,8.536-20.834,9.438-29.363,1.994l-8.602-7.506c0.277-0.314,0.543-0.635,0.818-0.95    c8.908-10.209,16.779-21.331,23.415-33.143L439.292,429.047z M416.341,407.504c-5.693,10.772-12.474,20.989-20.228,30.389    c-0.008,0.01-0.016,0.02-0.024,0.029c-22.925,27.095-52.652,47.701-86.711,58.138c-0.643,0.196-1.344,0.364-2.04,0.453    c-2.163,0.272-4.283-0.243-4.464-3.154c-0.74-11.905-2.428-23.737-4.873-35.409c-0.008-0.036-0.016-0.073-0.023-0.11    c-7.825-36.911-22.311-65.174-30.102-78.516c-1.254-2.148-2.534-4.285-3.89-6.371V142.476c0.146,0.006,0.292,0.015,0.44,0.021    c1.298,0,7.005,0.407,8.544,0.574c84.385,7.721,152.187,73.661,162.783,157.185C440.426,337.094,433.683,374.684,416.341,407.504z     M465.095,345.015h-13.877c0.576-5.239,0.945-10.524,1.104-15.845c0.25-8.373-0.033-17.247-0.89-25.776h13.663    c11.475,0,20.81,9.335,20.81,20.811C485.905,335.68,476.57,345.015,465.095,345.015z" data-original="#000000" class="active-path" data-old_color="#000000" fill="#D59BF6"/>
	</g>
</g></g> </svg>
