<?xml version="1.0" encoding="iso-8859-1"?>
<!-- Generator: Adobe Illustrator 16.0.0, SVG Export Plug-In . SVG Version: 6.00 Build 0)  -->
<!DOCTYPE svg PUBLIC "-//W3C//DTD SVG 1.1//EN" "http://www.w3.org/Graphics/SVG/1.1/DTD/svg11.dtd">
<svg version="1.1" id="Layer_1" xmlns="http://www.w3.org/2000/svg" xmlns:xlink="http://www.w3.org/1999/xlink" x="0px" y="0px"
	 width="300.9px" height="257.227px" viewBox="0 0 300.9 257.227" style="enable-background:new 0 0 300.9 257.227;"
	 xml:space="preserve">
<g>
	<path style="fill:#cedbff;" d="M284.018,221.172c0,2.959-58.917,5.355-131.598,5.355c-72.68,0-131.598-2.396-131.598-5.355
		c0-2.962,58.918-5.359,131.598-5.359C225.101,215.813,284.018,218.21,284.018,221.172z"/>
	<rect x="56.772" y="170.188" style="fill:#0444f9;" width="4.189" height="45.624"/>
	<rect x="265.609" y="206.759" style="fill:#0444f9;" width="7.239" height="11.44"/>
	<path style="fill:#8aa8ff;" d="M75.447,165.922c1.027,10.873-5.659,19.344-16.58,19.344c-10.921,0-19.773-8.852-19.773-19.771
		c0-10.923,5.169-21.122,21.868-19.775c5.178,0.418-2.571,14.526,0.956,17.799C65.81,167.131,75.146,162.723,75.447,165.922z"/>
	<g>
		<path style="fill:#0444f9;" d="M75.146,75.046L75.146,75.046c-0.932,0-1.688-0.758-1.688-1.69l0.026-28.244h169.013v28.244
			c0,0.932-0.755,1.688-1.688,1.688c-0.932,0-1.688-0.756-1.688-1.688V48.488H76.856L76.834,73.36
			C76.834,74.292,76.078,75.046,75.146,75.046z"/>
	</g>
	<g>
		<path style="fill:#0444f9;" d="M75.449,137.159c-0.927,0-1.681-0.745-1.688-1.672l-0.303-32.426
			c-0.009-0.932,0.743-1.695,1.675-1.704h0.013c0.928,0,1.679,0.745,1.688,1.672l0.303,32.426c0.007,0.932-0.743,1.694-1.674,1.703
			H75.449z"/>
	</g>
	<g>
		<path style="fill:#0444f9;" d="M242.497,217.5H73.484l-0.026-52.338c0-0.934,0.756-1.689,1.688-1.689l0,0
			c0.932,0,1.688,0.756,1.688,1.689l0.026,48.964h162.262v-48.971c0-0.934,0.756-1.689,1.688-1.689c0.933,0,1.688,0.756,1.688,1.689
			V217.5z"/>
	</g>
	<g>
		<path style="fill:#0444f9;" d="M240.81,137.157c-0.932,0-1.688-0.756-1.688-1.688v-32.428c0-0.932,0.756-1.688,1.688-1.688
			c0.933,0,1.688,0.756,1.688,1.688v32.428C242.497,136.401,241.742,137.157,240.81,137.157z"/>
	</g>
	<g>
		<path style="fill:#0444f9;" d="M252.906,104.733h-53.169V71.67h53.169V104.733z M203.114,101.357h46.416V75.046h-46.416V101.357z"
			/>
	</g>
	<rect x="214.654" y="55.815" style="fill:#cedbff;" width="26.456" height="17.543"/>
	<g>
		<path style="fill:#0444f9;" d="M242.497,75.046h-29.834V54.127h29.834V75.046z M216.038,71.67h23.084V57.503h-23.084V71.67z"/>
	</g>
	<rect x="75.17" y="46.807" style="fill:#0444f9;" width="165.94" height="4.427"/>
	<rect x="199.737" y="103.042" style="fill:#0444f9;" width="41.373" height="4.168"/>
	<rect x="199.737" y="165.162" style="fill:#0444f9;" width="41.373" height="4.17"/>
	<rect x="75.146" y="103.046" style="fill:#0444f9;" width="38.228" height="4.171"/>
	<rect x="75.146" y="165.162" style="fill:#0444f9;" width="38.228" height="4.17"/>
	<g>
		<path style="fill:#0444f9;" d="M249.526,48.495H66.443V30.699h183.083V48.495z M69.818,45.119h176.331V34.075H69.818V45.119z"/>
	</g>
	<g>
		<path style="fill:#0444f9;" d="M227.882,75.046c-0.932,0-1.688-0.756-1.688-1.688V55.815c0-0.932,0.756-1.688,1.688-1.688
			c0.933,0,1.688,0.756,1.688,1.688v17.543C229.57,74.29,228.814,75.046,227.882,75.046z"/>
	</g>
	<g>
		<path style="fill:#0444f9;" d="M252.906,166.847h-53.169v-33.063h53.169V166.847z M203.114,163.471h46.416v-26.312h-46.416
			V163.471z"/>
	</g>
	<rect x="214.654" y="117.929" style="fill:#cedbff;" width="26.456" height="17.543"/>
	<g>
		<path style="fill:#0444f9;" d="M242.497,137.159h-29.834v-20.918h29.834V137.159z M216.038,133.783h23.084v-14.167h-23.084
			V133.783z"/>
	</g>
	<g>
		<path style="fill:#0444f9;" d="M227.882,137.159c-0.932,0-1.688-0.756-1.688-1.688v-17.543c0-0.932,0.756-1.688,1.688-1.688
			c0.933,0,1.688,0.755,1.688,1.688v17.543C229.57,136.403,228.814,137.159,227.882,137.159z"/>
	</g>
	<g>
		<path style="fill:#0444f9;" d="M252.906,166.847h-53.169v-33.063h53.169V166.847z M203.114,163.471h46.416v-26.312h-46.416
			V163.471z"/>
	</g>
	<rect x="214.654" y="117.929" style="fill:#cedbff;" width="26.456" height="17.543"/>
	<g>
		<path style="fill:#0444f9;" d="M242.497,137.159h-29.834v-20.918h29.834V137.159z M216.038,133.783h23.084v-14.167h-23.084
			V133.783z"/>
	</g>
	<g>
		<path style="fill:#0444f9;" d="M227.882,137.159c-0.932,0-1.688-0.756-1.688-1.688v-17.543c0-0.932,0.756-1.688,1.688-1.688
			c0.933,0,1.688,0.755,1.688,1.688v17.543C229.57,136.403,228.814,137.159,227.882,137.159z"/>
	</g>
	<g>
		<path style="fill:#0444f9;" d="M101.304,137.157c-0.932,0-1.688-0.756-1.688-1.688v-17.541c0-0.932,0.756-1.688,1.688-1.688
			s1.688,0.755,1.688,1.688v17.541C102.992,136.401,102.235,137.157,101.304,137.157z"/>
	</g>
	<g>
		<path style="fill:#0444f9;" d="M113.401,104.733H60.232V71.67h53.169V104.733z M63.607,101.357h46.417V75.046H63.607V101.357z"/>
	</g>
	<rect x="75.146" y="55.815" style="fill:#cedbff;" width="26.457" height="17.543"/>
	<g>
		<path style="fill:#0444f9;" d="M103.291,75.046H73.458V54.127h29.833V75.046z M76.834,71.67h23.081V57.503H76.834V71.67z"/>
	</g>
	<g>
		<path style="fill:#0444f9;" d="M88.377,75.046c-0.932,0-1.688-0.756-1.688-1.688V55.815c0-0.932,0.756-1.688,1.688-1.688
			c0.931,0,1.688,0.756,1.688,1.688v17.543C90.064,74.29,89.308,75.046,88.377,75.046z"/>
	</g>
	<g>
		<path style="fill:#0444f9;" d="M113.401,166.847H60.232v-33.063h53.169V166.847z M63.607,163.471h46.417v-26.312H63.607V163.471z"
			/>
	</g>
	<rect x="75.447" y="117.929" style="fill:#cedbff;" width="26.459" height="17.543"/>
	<g>
		<path style="fill:#0444f9;" d="M103.291,137.159H73.458v-20.918h29.833V137.159z M76.834,133.783h23.081v-14.167H76.834V133.783z"
			/>
	</g>
	<g>
		<path style="fill:#0444f9;" d="M88.377,137.159c-0.932,0-1.688-0.756-1.688-1.688v-17.543c0-0.932,0.756-1.688,1.688-1.688
			c0.931,0,1.688,0.755,1.688,1.688v17.543C90.064,136.403,89.308,137.159,88.377,137.159z"/>
	</g>
	<g>
		<path style="fill:#0444f9;" d="M113.401,166.847H60.232v-33.063h53.169V166.847z M63.607,163.471h46.417v-26.312H63.607V163.471z"
			/>
	</g>
	<g>
		<path style="fill:#0444f9;" d="M88.377,137.159c-0.932,0-1.688-0.756-1.688-1.688v-17.543c0-0.932,0.756-1.688,1.688-1.688
			c0.931,0,1.688,0.755,1.688,1.688v17.543C90.064,136.403,89.308,137.159,88.377,137.159z"/>
	</g>
	<rect x="130.591" y="57.191" style="fill:#cedbff;" width="51.952" height="108.73"/>
	<polygon style="fill:#FFFFFF;" points="182.543,57.191 130.591,100.61 130.591,127.254 182.543,84.332 	"/>
	<polygon style="fill:#FFFFFF;" points="182.543,96.276 130.591,139.693 130.591,152.768 182.543,109.846 	"/>
	<g>
		<path style="fill:#0444f9;" d="M184.229,167.609h-55.326V55.503h55.326V167.609z M132.28,164.233h48.575V58.879H132.28V164.233z"
			/>
	</g>
	<g>
		<path style="fill:#0444f9;" d="M156.569,167.609c-0.932,0-1.688-0.756-1.688-1.688V57.191c0-0.932,0.757-1.688,1.688-1.688
			s1.688,0.756,1.688,1.688v108.73C158.258,166.854,157.501,167.609,156.569,167.609z"/>
	</g>
	<g>
		<path style="fill:#0444f9;" d="M182.541,92.65h-51.95c-0.932,0-1.688-0.756-1.688-1.688c0-0.932,0.756-1.688,1.688-1.688h51.95
			c0.934,0,1.688,0.756,1.688,1.688C184.229,91.894,183.475,92.65,182.541,92.65z"/>
	</g>
	<g>
		<path style="fill:#0444f9;" d="M182.541,130.744h-51.95c-0.932,0-1.688-0.756-1.688-1.688c0-0.932,0.756-1.688,1.688-1.688h51.95
			c0.934,0,1.688,0.756,1.688,1.688C184.229,129.988,183.475,130.744,182.541,130.744z"/>
	</g>
	<g>
		<rect x="135.611" y="173.884" style="fill:#0444f9;" width="41.914" height="41.914"/>
		<path style="fill:#0444f9;" d="M179.211,217.484h-45.288v-45.288h45.288V217.484z M137.3,214.11h38.535v-38.539H137.3V214.11z"/>
	</g>
	<circle style="fill:#cedbff;" cx="34.093" cy="152.768" r="24.774"/>
	<g>
		<path style="fill:#0444f9;" d="M179.211,217.484h-24.33v-45.288h24.33V217.484z M158.258,214.11h17.577v-38.539h-17.577V214.11z"
			/>
	</g>
	<rect x="31.467" y="158.649" style="fill:#0444f9;" width="5.253" height="57.163"/>
	<path style="fill:#8aa8ff;" d="M269.227,210.17h-20.839c-1.323,0-2.01-1.58-1.102-2.546l20.841-22.169
		c0.6-0.634,1.605-0.634,2.201,0l20.841,22.169c0.906,0.966,0.222,2.546-1.101,2.546H269.227z"/>
	<path style="fill:#cedbff;" d="M269.227,195.7h-17.74c-1.125,0-1.708-1.344-0.937-2.165l17.74-18.871
		c0.508-0.538,1.367-0.538,1.873,0l17.74,18.871c0.773,0.821,0.19,2.165-0.936,2.165H269.227z"/>
	<path style="fill:#8aa8ff;" d="M269.227,179.435h-13.789c-0.874,0-1.329-1.045-0.729-1.683l13.791-14.671
		c0.394-0.419,1.062-0.419,1.457,0l13.789,14.671c0.603,0.638,0.149,1.683-0.728,1.683H269.227z"/>
</g>
</svg>
