<?xml version="1.0" encoding="iso-8859-1"?>
<!-- Generator: Adobe Illustrator 16.0.0, SVG Export Plug-In . SVG Version: 6.00 Build 0)  -->
<!DOCTYPE svg PUBLIC "-//W3C//DTD SVG 1.1//EN" "http://www.w3.org/Graphics/SVG/1.1/DTD/svg11.dtd">
<svg version="1.1" id="Layer_1" xmlns="http://www.w3.org/2000/svg" xmlns:xlink="http://www.w3.org/1999/xlink" x="0px" y="0px"
	 width="300.9px" height="257.227px" viewBox="0 0 300.9 257.227" style="enable-background:new 0 0 300.9 257.227;"
	 xml:space="preserve">
<g>
	<path style="fill:#cedbff;" d="M180.822,203.967H63.799l64.184-124.174c-36.309,36.249-58.679,15.572-77.975,30.362
		c-19.335,14.81-30.949,41.038-28.953,64.919c0.92,11.006,4.721,21.271,10.618,30.537h150.395
		C181.655,205.063,181.237,204.512,180.822,203.967z"/>
	<path style="fill:#cedbff;" d="M255.314,51.232c-20.516-13.399-54.328-12.521-75.148,5.991
		c-10.811,9.613-16.247,15.998-23.585,17.109l65.545,129.548h-13.745c0.435,0.576,0.878,1.15,1.309,1.73h39.491
		c11.447-15.256,17.604-28.723,19.169-32.1C274.221,160.848,297.55,78.813,255.314,51.232z"/>
	<polygon style="fill:#cedbff;" points="118.142,96.658 167.752,96.658 182.067,125.189 104.139,125.189 	"/>
	<g>
		<path style="fill:#0444f9;" d="M224.22,205.398H62.861l1.208-2.455l78.597-160.092L224.22,205.398z M68.333,201.988h150.361
			L142.697,50.517L68.333,201.988z"/>
	</g>
	<polygon style="fill:#0444f9;" points="143.134,132.471 180.736,204.789 107.349,204.848 	"/>
	<polygon style="fill:#224989;" points="143.134,132.471 181.037,205.393 172.131,205.393 139.338,140.201 	"/>
	<polygon style="fill:#0444f9;" points="144.047,49.404 146.113,51.011 132.904,24.678 128.838,29.678 	"/>
	<polygon style="fill:#0444f9;" points="140.359,49.033 146.113,51.011 129.723,33.232 127.983,36.601 	"/>
	<polygon style="fill:#0444f9;" points="141.375,49.404 139.31,51.011 152.519,24.678 156.581,29.678 	"/>
	<polygon style="fill:#0444f9;" points="145.061,49.033 139.31,51.011 155.7,33.232 157.437,36.601 	"/>
	<g>
		<path style="fill:#0444f9;" d="M167.756,98.362h-49.614c-0.938,0-1.702-0.764-1.702-1.704c0-0.941,0.764-1.705,1.702-1.705h49.614
			c0.94,0,1.701,0.764,1.701,1.705C169.457,97.599,168.696,98.362,167.756,98.362z"/>
	</g>
	<g>
		<path style="fill:#0444f9;" d="M182.07,126.891h-77.931c-0.941,0-1.705-0.764-1.705-1.704c0-0.941,0.764-1.701,1.705-1.701h77.931
			c0.941,0,1.701,0.76,1.701,1.701C183.771,126.127,183.012,126.891,182.07,126.891z"/>
	</g>
	<g>
		<path style="fill:#0444f9;" d="M120.417,118.78l-8.389-11.691c-0.546-0.764-0.372-1.829,0.392-2.377
			c0.77-0.545,1.831-0.374,2.379,0.39l5.884,8.203l10.285-11.745l11.143,12.037l12.176-11.936l10.994,11.891l2.009-2.11l4.753-4.756
			c0.668-0.665,1.742-0.665,2.414,0c0.665,0.666,0.665,1.743,0,2.408l-4.728,4.728l-4.486,4.715l-11.077-11.983l-12.172,11.936
			l-10.956-11.834L120.417,118.78z"/>
	</g>
	<circle style="fill:#0444f9;" cx="160.25" cy="136.14" r="3.669"/>
	<circle style="fill:#0444f9;" cx="174.261" cy="136.14" r="3.669"/>
	<circle style="fill:#0444f9;" cx="112.343" cy="136.14" r="3.668"/>
	<circle style="fill:#0444f9;" cx="126.354" cy="136.14" r="3.669"/>
	<path style="fill:#cedbff;" d="M115.148,48.803c0,17.115-13.875,30.99-30.992,30.99c-17.117,0-30.993-13.875-30.993-30.99
		c0-17.119,13.876-30.994,30.993-30.994C101.273,17.809,115.148,31.684,115.148,48.803z"/>
	<ellipse style="fill:#cedbff;" cx="91.676" cy="215.109" rx="48.313" ry="3.41"/>
	<ellipse style="fill:#cedbff;" cx="200.9" cy="225.334" rx="44.319" ry="3.127"/>
	<ellipse style="fill:#cedbff;" cx="110.762" cy="236.354" rx="15.909" ry="3.064"/>
	<path style="fill:#FFFFFF;" d="M220.253,118.926c0,2.728-2.212,4.939-4.942,4.939c-2.725,0-4.937-2.212-4.937-4.939
		c0-2.729,2.212-4.939,4.937-4.939C218.041,113.986,220.253,116.197,220.253,118.926z"/>
	<path style="fill:#FFFFFF;" d="M250.163,69.682c0,2.729-2.212,4.943-4.943,4.943c-2.725,0-4.939-2.215-4.939-4.943
		c0-2.728,2.215-4.939,4.939-4.939C247.951,64.742,250.163,66.954,250.163,69.682z"/>
	<path style="fill:#FFFFFF;" d="M245.22,165.756c0,4.809-3.896,8.709-8.713,8.709c-4.81,0-8.71-3.9-8.71-8.709
		c0-4.814,3.9-8.715,8.71-8.715C241.323,157.041,245.22,160.941,245.22,165.756z"/>
	<circle style="fill:#FFFFFF;" cx="60.033" cy="174.465" r="6.6"/>
</g>
</svg>
