<?xml version="1.0" encoding="iso-8859-1"?>
<!-- Generator: Adobe Illustrator 16.0.0, SVG Export Plug-In . SVG Version: 6.00 Build 0)  -->
<!DOCTYPE svg PUBLIC "-//W3C//DTD SVG 1.1//EN" "http://www.w3.org/Graphics/SVG/1.1/DTD/svg11.dtd">
<svg version="1.1" id="Layer_1" xmlns="http://www.w3.org/2000/svg" xmlns:xlink="http://www.w3.org/1999/xlink" x="0px" y="0px"
	 width="300.9px" height="257.227px" viewBox="0 0 300.9 257.227" style="enable-background:new 0 0 300.9 257.227;"
	 xml:space="preserve">
<g>
	<path style="fill:#cedbff;" d="M193.269,96.268c-27.025-8.261-61.664-8.957-88.546,0.594v6.795c0,0,34.551-19.299,88.546-2.007
		V96.268z"/>
	<path style="fill:#cedbff;" d="M239.292,58.31c-3.815,4.256-6.783,9.296-8.671,14.817c-6.123-7.589-16.983-27.442-16.983-27.442
		l-20.377,30.352c1.203,7.367,0,10.079,0,10.079c0.399,0.782-13.049-8.13-13.049-7.95l-31.219-35.433l-30.352,34.81
		c0,0-13.911,8.313-13.911,12.286V76.036L84.373,45.684L64.016,76.036v54.685l-19.452-0.843v47.257l0.122,53.099h-8.834
		c-10.78-18.75-22.463-49.084-22.463-71.99c0-72.489,61.368-131.25,137.071-131.25C184.349,26.993,215.383,38.777,239.292,58.31z"/>
	<path style="fill:#cedbff;" d="M287.512,158.243c0,22.906-8.371,53.24-19.131,71.99c0.02-0.08-15.979,0-15.979,0l0.261-100.355
		l-16.942-0.04l-0.623-19.253c7.709,12.106,21.259,20.136,36.678,20.136c4.276,0,8.413-0.622,12.306-1.766
		C286.329,138.371,287.512,148.167,287.512,158.243z"/>
	<g>
		<path style="fill:#0444f9;" d="M104.723,140.431c-0.831,0-1.506-0.674-1.506-1.505V87.426c0-0.832,0.675-1.506,1.506-1.506
			s1.505,0.674,1.505,1.506v51.499C106.228,139.756,105.554,140.431,104.723,140.431z"/>
	</g>
	<g>
		<path style="fill:#0444f9;" d="M64.02,140.431c-0.831,0-1.506-0.674-1.506-1.505V87.426c0-0.832,0.675-1.506,1.506-1.506
			s1.506,0.674,1.506,1.506v51.499C65.525,139.756,64.851,140.431,64.02,140.431z"/>
	</g>
	<g>
		<path style="fill:#0444f9;" d="M93.328,82.525H75.434c-0.832,0-1.506-0.674-1.506-1.505c0-0.832,0.674-1.506,1.506-1.506h17.895
			c0.831,0,1.506,0.674,1.506,1.506C94.834,81.851,94.159,82.525,93.328,82.525z"/>
	</g>
	<g>
		<path style="fill:#0444f9;" d="M64.02,88.932c-0.831,0-1.506-0.674-1.506-1.505V74.524h14.425v6.495
			c0,0.831-0.674,1.505-1.505,1.505c-0.832,0-1.506-0.674-1.506-1.505v-3.484h-8.402v9.891
			C65.525,88.257,64.851,88.932,64.02,88.932z"/>
	</g>
	<g>
		<path style="fill:#0444f9;" d="M104.723,88.932c-0.831,0-1.506-0.674-1.506-1.505v-9.891h-8.383v3.484
			c0,0.831-0.675,1.505-1.506,1.505s-1.506-0.674-1.506-1.505v-6.495h14.405v12.902C106.228,88.257,105.554,88.932,104.723,88.932z"
			/>
	</g>
	<g>
		<path style="fill:#0444f9;" d="M254.172,230.229H43.055V128.368l19.961-0.035v9.083h12.833v-9.081h18.84l0.031,9.081h12.79v-9.081
			h18.841l0.031,1.505v7.575h12.802v-9.081h18.844l0.012,9.081h12.806v-9.081h18.844l0.029,1.505v7.575h12.788l0.031-9.081h18.84
			v9.081h12.834v-9.083l19.961,0.035V230.229z M46.065,227.218H251.16v-95.842l-13.938-0.027v9.079h-18.855v-9.081h-12.817
			l-0.031,9.081h-18.811v-9.081h-12.851v9.081h-18.829v-9.081h-12.833v9.081H123.37v-9.081h-12.849v9.081H91.709l-0.031-9.081H78.86
			v9.081H60.005v-9.079l-13.939,0.027V227.218z"/>
	</g>
	<g>
		<path style="fill:#0444f9;" d="M104.727,77.536c-0.486,0-0.965-0.233-1.255-0.667L84.381,48.396l-19.11,28.474
			c-0.463,0.69-1.4,0.875-2.09,0.412c-0.688-0.465-0.875-1.4-0.412-2.09L84.381,42.99l21.593,32.201
			c0.462,0.692,0.278,1.627-0.412,2.09C105.303,77.453,105.013,77.536,104.727,77.536z"/>
	</g>
	<g>
		<path style="fill:#0444f9;" d="M126.777,122.187h-13.405v-10.88c0-3.698,3.007-6.705,6.7-6.705c3.698,0,6.705,3.007,6.705,6.705
			V122.187z M116.383,119.176h7.384v-7.869c0-2.037-1.655-3.694-3.694-3.694c-2.034,0-3.689,1.657-3.689,3.694V119.176z"/>
	</g>
	<g>
		<path style="fill:#0444f9;" d="M155.702,122.187h-13.407v-10.88c0-3.698,3.007-6.705,6.702-6.705c3.696,0,6.705,3.007,6.705,6.705
			V122.187z M145.306,119.176h7.386v-7.869c0-2.037-1.659-3.694-3.694-3.694s-3.691,1.657-3.691,3.694V119.176z"/>
	</g>
	<g>
		<path style="fill:#0444f9;" d="M184.623,122.187h-13.406v-10.88c0-3.698,3.008-6.705,6.701-6.705c3.697,0,6.705,3.007,6.705,6.705
			V122.187z M174.229,119.176h7.383v-7.869c0-2.037-1.654-3.694-3.693-3.694c-2.035,0-3.689,1.657-3.689,3.694V119.176z"/>
	</g>
	<g>
		<path style="fill:#0444f9;" d="M233.972,140.431c-0.831,0-1.506-0.674-1.506-1.505V87.426c0-0.832,0.675-1.506,1.506-1.506
			s1.505,0.674,1.505,1.506v51.499C235.477,139.756,234.803,140.431,233.972,140.431z"/>
	</g>
	<g>
		<path style="fill:#0444f9;" d="M193.269,140.431c-0.831,0-1.506-0.674-1.506-1.505V87.426c0-0.832,0.675-1.506,1.506-1.506
			s1.506,0.674,1.506,1.506v51.499C194.774,139.756,194.1,140.431,193.269,140.431z"/>
	</g>
	<g>
		<path style="fill:#0444f9;" d="M222.577,82.525h-17.895c-0.832,0-1.506-0.674-1.506-1.505c0-0.832,0.674-1.506,1.506-1.506h17.895
			c0.831,0,1.506,0.674,1.506,1.506C224.083,81.851,223.408,82.525,222.577,82.525z"/>
	</g>
	<g>
		<path style="fill:#0444f9;" d="M193.269,88.932c-0.831,0-1.506-0.674-1.506-1.505V74.524h14.425v6.495
			c0,0.831-0.674,1.505-1.505,1.505c-0.832,0-1.506-0.674-1.506-1.505v-3.484h-8.402v9.891
			C194.774,88.257,194.1,88.932,193.269,88.932z"/>
	</g>
	<g>
		<path style="fill:#0444f9;" d="M233.972,88.932c-0.831,0-1.506-0.674-1.506-1.505v-9.891h-8.383v3.484
			c0,0.831-0.675,1.505-1.506,1.505s-1.506-0.674-1.506-1.505v-6.495h14.405v12.902C235.477,88.257,234.803,88.932,233.972,88.932z"
			/>
	</g>
	<g>
		<path style="fill:#0444f9;" d="M233.972,77.536c-0.486,0-0.961-0.233-1.251-0.667L213.63,48.396l-19.11,28.474
			c-0.467,0.69-1.404,0.875-2.09,0.412c-0.69-0.465-0.875-1.4-0.412-2.09L213.63,42.99l21.593,32.201
			c0.462,0.692,0.278,1.627-0.412,2.09C234.552,77.453,234.262,77.536,233.972,77.536z"/>
	</g>
	<path style="fill:#224989;" d="M222.575,115.345h-17.893V99.21c0-4.942,4.003-8.948,8.947-8.948l0,0
		c4.94,0,8.945,4.005,8.945,8.948V115.345z"/>
	<path style="fill:#0444f9;" d="M222.575,115.345h-17.893v-13.172c0-4.57,3.703-8.273,8.272-8.273h1.349
		c4.568,0,8.271,3.704,8.271,8.273V115.345z"/>
	<g>
		<path style="fill:#0444f9;" d="M224.083,116.851h-20.906V99.208c0-5.764,4.689-10.451,10.453-10.451s10.453,4.688,10.453,10.451
			V116.851z M206.188,113.839h14.884V99.208c0-4.103-3.34-7.44-7.441-7.44c-4.105,0-7.442,3.337-7.442,7.44V113.839z"/>
	</g>
	<g>
		<path style="fill:#FFFFFF;" d="M213.63,119.75c-0.831,0-1.506-0.812-1.506-1.813V87.734c0-1.002,0.675-1.813,1.506-1.813
			s1.506,0.812,1.506,1.813v30.203C215.136,118.938,214.461,119.75,213.63,119.75z"/>
	</g>
	<g>
		<path style="fill:#0444f9;" d="M104.723,98.367c-0.62,0-1.2-0.384-1.42-1.001c-0.278-0.784,0.134-1.645,0.918-1.923
			c25.705-9.136,60.829-9.375,89.487-0.614c0.796,0.243,1.242,1.084,0.999,1.88c-0.243,0.792-1.078,1.245-1.882,0.998
			c-28.073-8.583-62.456-8.357-87.597,0.575C105.06,98.34,104.891,98.367,104.723,98.367z"/>
	</g>
	<g>
		<path style="fill:#0444f9;" d="M180.235,79.684c-0.42,0-0.831-0.172-1.129-0.509l-30.105-34.153l-29.223,33.512
			c-0.549,0.627-1.495,0.692-2.125,0.145c-0.627-0.547-0.693-1.498-0.145-2.125l31.48-36.1l32.375,36.729
			c0.549,0.624,0.49,1.576-0.133,2.125C180.945,79.561,180.588,79.684,180.235,79.684z"/>
	</g>
	<g>
		<path style="fill:#cedbff;" d="M197.082,228.724h-96.938v-31.192c0-26.769,21.7-48.468,48.469-48.468l0,0
			c26.768,0,48.469,21.7,48.469,48.468V228.724z"/>
		<path style="fill:#0444f9;" d="M198.587,230.229H98.641v-32.698c0-27.557,22.416-49.974,49.973-49.974
			c27.556,0,49.974,22.417,49.974,49.974V230.229z M101.652,227.218h93.924v-29.687c0-25.896-21.069-46.963-46.963-46.963
			s-46.961,21.067-46.961,46.963V227.218z"/>
	</g>
	<g>
		<path style="fill:#0444f9;" d="M148.613,230.229c-0.831,0-1.508-0.675-1.508-1.506v-79.661c0-0.832,0.677-1.506,1.508-1.506
			s1.503,0.674,1.503,1.506v79.661C150.116,229.555,149.444,230.229,148.613,230.229z"/>
	</g>
	<g>
		<path style="fill:#0444f9;" d="M171.362,157.093h-46.091c-0.831,0-1.505-0.675-1.505-1.506s0.674-1.505,1.505-1.505h46.091
			c0.831,0,1.506,0.674,1.506,1.505S172.193,157.093,171.362,157.093z"/>
	</g>
	<g>
		<path style="fill:#0444f9;" d="M185.058,167.093h-72.886c-0.831,0-1.506-0.674-1.506-1.505c0-0.832,0.675-1.506,1.506-1.506
			h72.886c0.832,0,1.506,0.674,1.506,1.506C186.563,166.419,185.89,167.093,185.058,167.093z"/>
	</g>
	<g>
		<path style="fill:#0444f9;" d="M191.829,177.094h-86.427c-0.831,0-1.505-0.675-1.505-1.506s0.674-1.506,1.505-1.506h86.427
			c0.832,0,1.506,0.675,1.506,1.506S192.661,177.094,191.829,177.094z"/>
	</g>
	<g>
		<path style="fill:#0444f9;" d="M195.594,187.094h-93.961c-0.831,0-1.506-0.675-1.506-1.506s0.675-1.506,1.506-1.506h93.961
			c0.831,0,1.506,0.675,1.506,1.506S196.425,187.094,195.594,187.094z"/>
	</g>
	<g>
		<path style="fill:#0444f9;" d="M197.04,197.094h-96.894c-0.831,0-1.506-0.674-1.506-1.506c0-0.831,0.675-1.505,1.506-1.505h96.894
			c0.831,0,1.506,0.674,1.506,1.505C198.546,196.42,197.871,197.094,197.04,197.094z"/>
	</g>
	<g>
		<path style="fill:#0444f9;" d="M197.04,206.085h-96.894c-0.831,0-1.506-0.675-1.506-1.506s0.675-1.506,1.506-1.506h96.894
			c0.831,0,1.506,0.675,1.506,1.506S197.871,206.085,197.04,206.085z"/>
	</g>
	<g>
		<path style="fill:#0444f9;" d="M197.04,215.077h-96.894c-0.831,0-1.506-0.675-1.506-1.506s0.675-1.506,1.506-1.506h96.894
			c0.831,0,1.506,0.675,1.506,1.506S197.871,215.077,197.04,215.077z"/>
	</g>
	<g>
		<path style="fill:#0444f9;" d="M197.04,224.067h-96.894c-0.831,0-1.506-0.674-1.506-1.505c0-0.832,0.675-1.506,1.506-1.506h96.894
			c0.831,0,1.506,0.674,1.506,1.506C198.546,223.394,197.871,224.067,197.04,224.067z"/>
	</g>
	<path style="fill:#cedbff;" d="M71.869,163.337H56.172c-0.559,0-1.012-0.453-1.012-1.012v-4.295c0-0.56,0.453-1.012,1.012-1.012
		h15.697c0.557,0,1.012,0.452,1.012,1.012v4.295C72.881,162.884,72.426,163.337,71.869,163.337z"/>
	<path style="fill:#cedbff;" d="M199.677,152.223h-15.697c-0.557,0-1.012-0.453-1.012-1.012v-4.295c0-0.559,0.455-1.012,1.012-1.012
		h15.697c0.56,0,1.01,0.453,1.01,1.012v4.295C200.687,151.77,200.236,152.223,199.677,152.223z"/>
	<path style="fill:#cedbff;" d="M92.23,195.651H76.533c-0.559,0-1.01-0.453-1.01-1.012v-4.298c0-0.557,0.451-1.01,1.01-1.01H92.23
		c0.557,0,1.01,0.453,1.01,1.01v4.298C93.24,195.198,92.787,195.651,92.23,195.651z"/>
	<path style="fill:#cedbff;" d="M223.828,205.457h-15.697c-0.559,0-1.01-0.453-1.01-1.012v-4.295c0-0.559,0.451-1.012,1.01-1.012
		h15.697c0.557,0,1.012,0.453,1.012,1.012v4.295C224.84,205.004,224.385,205.457,223.828,205.457z"/>
	<path style="fill:#cedbff;" d="M248.142,212.826h-15.695c-0.559,0-1.012-0.452-1.012-1.012v-4.295c0-0.559,0.453-1.012,1.012-1.012
		h15.695c0.559,0,1.012,0.453,1.012,1.012v4.295C249.153,212.374,248.7,212.826,248.142,212.826z"/>
	<path style="fill:#cedbff;" d="M239.282,160.179h-15.697c-0.557,0-1.01-0.453-1.01-1.012v-4.297c0-0.558,0.453-1.01,1.01-1.01
		h15.697c0.559,0,1.012,0.452,1.012,1.01v4.297C240.294,159.726,239.841,160.179,239.282,160.179z"/>
	<path style="fill:#cedbff;" d="M68.717,211.242H53.021c-0.561,0-1.012-0.452-1.012-1.012v-4.295c0-0.559,0.451-1.012,1.012-1.012
		h15.695c0.559,0,1.012,0.453,1.012,1.012v4.295C69.729,210.79,69.275,211.242,68.717,211.242z"/>
	<path style="fill:#cedbff;" d="M92.223,171.414H76.523c-0.557,0-1.012-0.453-1.012-1.01v-4.297c0-0.56,0.455-1.01,1.012-1.01
		h15.699c0.557,0,1.008,0.45,1.008,1.01v4.297C93.23,170.961,92.779,171.414,92.223,171.414z"/>
	<g>
		<path style="fill:#0444f9;" d="M106.242,87.628c-0.348,0-0.692-0.118-0.975-0.356c-0.636-0.538-0.714-1.488-0.177-2.122
			c1.854-2.19,4.023-4.033,6.446-5.478c5.415-3.232,10.845-3.748,14.489-3.634l1.453,0.053v5.042
			c1.353-0.59,3.176-1.168,5.168-1.204v-8.055h27.901c0.831,0,1.505,0.674,1.505,1.505c0,0.832-0.674,1.506-1.505,1.506h-24.891
			v8.398l-1.73-0.265c-3.605-0.549-7.052,1.839-7.088,1.864l-2.372,1.67v-7.515c-3.125,0.075-7.277,0.763-11.386,3.217
			c-2.141,1.276-4.055,2.905-5.693,4.838C107.091,87.448,106.667,87.628,106.242,87.628z"/>
	</g>
	<g>
		<path style="fill:#0444f9;" d="M193.269,87.628c-0.428,0-0.854-0.18-1.153-0.533c-1.631-1.931-3.544-3.558-5.688-4.838
			c-4.109-2.453-8.262-3.143-11.387-3.217v7.497l-2.372-1.651c-0.031-0.023-3.526-2.403-7.085-1.866l-1.733,0.265v-8.398h-24.89
			c-0.831,0-1.506-0.674-1.506-1.506c0-0.831,0.675-1.505,1.506-1.505h27.901v8.055c1.995,0.036,3.814,0.614,5.168,1.204v-5.042
			l1.45-0.053c3.631-0.116,9.077,0.402,14.492,3.634c2.429,1.449,4.599,3.292,6.445,5.478c0.537,0.635,0.459,1.586-0.176,2.124
			C193.959,87.51,193.613,87.628,193.269,87.628z"/>
	</g>
	<g>
		<circle style="fill:#cedbff;" cx="224.838" cy="179.283" r="11.842"/>
		<path style="fill:#0444f9;" d="M224.84,192.63c-7.359,0-13.347-5.987-13.347-13.347s5.987-13.349,13.347-13.349
			s13.347,5.989,13.347,13.349S232.199,192.63,224.84,192.63z M224.84,168.945c-5.701,0-10.336,4.637-10.336,10.338
			c0,5.699,4.635,10.336,10.336,10.336s10.335-4.637,10.335-10.336C235.175,173.582,230.541,168.945,224.84,168.945z"/>
	</g>
	<g>
		<path style="fill:#0444f9;" d="M224.84,192.63c-0.831,0-1.506-0.675-1.506-1.506V167.44c0-0.832,0.675-1.506,1.506-1.506
			s1.506,0.674,1.506,1.506v23.684C226.346,191.955,225.671,192.63,224.84,192.63z"/>
	</g>
	<g>
		<path style="fill:#0444f9;" d="M236.681,180.789h-23.683c-0.831,0-1.505-0.675-1.505-1.506s0.674-1.506,1.505-1.506h23.683
			c0.831,0,1.506,0.675,1.506,1.506S237.512,180.789,236.681,180.789z"/>
	</g>
	<g>
		<circle style="fill:#cedbff;" cx="71.598" cy="179.283" r="11.842"/>
		<path style="fill:#0444f9;" d="M71.599,192.63c-7.359,0-13.351-5.987-13.351-13.347s5.991-13.349,13.351-13.349
			s13.347,5.989,13.347,13.349S78.958,192.63,71.599,192.63z M71.599,168.945c-5.701,0-10.34,4.637-10.34,10.338
			c0,5.699,4.639,10.336,10.34,10.336c5.699,0,10.335-4.637,10.335-10.336C81.934,173.582,77.298,168.945,71.599,168.945z"/>
	</g>
	<g>
		<path style="fill:#0444f9;" d="M71.599,192.63c-0.831,0-1.506-0.675-1.506-1.506V167.44c0-0.832,0.675-1.506,1.506-1.506
			c0.829,0,1.506,0.674,1.506,1.506v23.684C73.104,191.955,72.428,192.63,71.599,192.63z"/>
	</g>
	<g>
		<path style="fill:#0444f9;" d="M83.439,180.789H59.754c-0.832,0-1.506-0.675-1.506-1.506s0.674-1.506,1.506-1.506h23.686
			c0.831,0,1.506,0.675,1.506,1.506S84.271,180.789,83.439,180.789z"/>
	</g>
	<path style="fill:#FFFFFF;" d="M45.399,95.981l1.764,3.574c0.138,0.276,0.4,0.468,0.704,0.511l3.944,0.575
		c0.767,0.11,1.074,1.053,0.52,1.594l-2.854,2.782c-0.22,0.216-0.321,0.525-0.271,0.828l0.675,3.929
		c0.131,0.765-0.671,1.347-1.356,0.986l-3.529-1.854c-0.271-0.143-0.596-0.143-0.87,0l-3.529,1.854
		c-0.684,0.361-1.485-0.221-1.354-0.986l0.673-3.929c0.055-0.302-0.048-0.612-0.267-0.828l-2.854-2.782
		c-0.557-0.541-0.251-1.484,0.518-1.594l3.944-0.575c0.306-0.043,0.568-0.235,0.703-0.511l1.765-3.574
		C44.066,95.288,45.056,95.288,45.399,95.981z"/>
	<path style="fill:#FFFFFF;" d="M273.094,164.645l0.482,2.594c0.039,0.2,0.171,0.368,0.357,0.451l2.411,1.074
		c0.467,0.207,0.492,0.862,0.041,1.107l-2.315,1.259c-0.18,0.098-0.3,0.276-0.321,0.479l-0.276,2.623
		c-0.053,0.51-0.669,0.736-1.041,0.384l-1.913-1.813c-0.147-0.141-0.354-0.2-0.554-0.156l-2.579,0.547
		c-0.502,0.105-0.91-0.408-0.687-0.871l1.133-2.382c0.089-0.182,0.079-0.397-0.023-0.574l-1.317-2.284
		c-0.255-0.444,0.11-0.99,0.618-0.923l2.613,0.343c0.203,0.027,0.403-0.047,0.541-0.198l1.764-1.96
		C272.371,163.962,273.004,164.141,273.094,164.645z"/>
	<path style="fill:#FFFFFF;" d="M116.466,47.609l0.882,1.788c0.07,0.137,0.2,0.233,0.353,0.255l1.973,0.286
		c0.384,0.057,0.537,0.527,0.259,0.798l-1.428,1.392c-0.109,0.106-0.16,0.261-0.133,0.414l0.337,1.964
		c0.064,0.38-0.337,0.672-0.678,0.492l-1.765-0.927c-0.138-0.072-0.298-0.072-0.436,0l-1.765,0.927
		c-0.341,0.181-0.744-0.111-0.678-0.492l0.337-1.964c0.025-0.153-0.023-0.308-0.133-0.414l-1.428-1.392
		c-0.278-0.271-0.125-0.741,0.259-0.798l1.973-0.286c0.15-0.022,0.282-0.118,0.351-0.255l0.882-1.788
		C115.799,47.262,116.297,47.262,116.466,47.609z"/>
	<path style="fill:#FFFFFF;" d="M178.506,50.742c-1.294,0-1.294,2.007,0,2.007C179.796,52.75,179.8,50.742,178.506,50.742z"/>
	<path style="fill:#FFFFFF;" d="M33.966,127.529c-1.294,0-1.294,2.007,0,2.007C35.256,129.537,35.26,127.529,33.966,127.529z"/>
	<path style="fill:#FFFFFF;" d="M123.802,37.191c-1.294,0-1.294,2.007,0,2.007C125.092,39.199,125.096,37.191,123.802,37.191z"/>
	<path style="fill:#FFFFFF;" d="M105.734,43.214c-1.294,0-1.294,2.008,0,2.008C107.024,45.222,107.028,43.214,105.734,43.214z"/>
	<path style="fill:#FFFFFF;" d="M271.354,191.268c-1.294,0-1.294,2.008,0,2.008C272.644,193.275,272.647,191.268,271.354,191.268z"
		/>
	<path style="fill:#FFFFFF;" d="M269.346,202.811c-1.294,0-1.294,2.008,0,2.008C270.636,204.818,270.64,202.811,269.346,202.811z"/>
	<path style="fill:#FFFFFF;" d="M269.848,137.567c-1.294,0-1.294,2.007,0,2.007C271.138,139.574,271.142,137.567,269.848,137.567z"
		/>
	<path style="fill:#FFFFFF;" d="M39.486,207.327c-1.294,0-1.294,2.008,0,2.008C40.776,209.335,40.78,207.327,39.486,207.327z"/>
	<path style="fill:#FFFFFF;" d="M255.293,146.601c-1.294,0-1.294,2.007,0,2.007C256.583,148.608,256.587,146.601,255.293,146.601z"
		/>
	<path style="fill:#FFFFFF;" d="M131.831,41.708c-1.293,0-1.293,2.007,0,2.007C133.121,43.716,133.125,41.708,131.831,41.708z"/>
	<path style="fill:#224989;" d="M93.893,115.345H75.998V99.21c0-4.942,4.007-8.948,8.947-8.948l0,0c4.94,0,8.947,4.005,8.947,8.948
		V115.345z"/>
	<path style="fill:#0444f9;" d="M93.893,115.345H75.998v-13.172c0-4.57,3.705-8.273,8.272-8.273h1.35
		c4.567,0,8.272,3.704,8.272,8.273V115.345z"/>
	<g>
		<path style="fill:#0444f9;" d="M95.398,116.851H74.492V99.208c0-5.764,4.689-10.451,10.453-10.451s10.453,4.688,10.453,10.451
			V116.851z M77.504,113.839h14.883V99.208c0-4.103-3.336-7.44-7.441-7.44c-4.104,0-7.441,3.337-7.441,7.44V113.839z"/>
	</g>
	<g>
		<path style="fill:#FFFFFF;" d="M84.945,119.75c-0.831,0-1.506-0.812-1.506-1.813V87.734c0-1.002,0.675-1.813,1.506-1.813
			s1.506,0.812,1.506,1.813v30.203C86.451,118.938,85.776,119.75,84.945,119.75z"/>
	</g>
	<g>
		<path style="fill:#FFFFFF;" d="M67.458,109.681c0-0.421,0.812-0.765,1.812-0.765h30.203c1.003,0,1.815,0.343,1.815,0.765
			s-0.813,0.765-1.815,0.765H69.27C68.27,110.446,67.458,110.103,67.458,109.681z"/>
	</g>
	<g>
		<path style="fill:#FFFFFF;" d="M67.458,102.835c0-0.422,0.812-0.765,1.812-0.765h30.203c1.003,0,1.815,0.343,1.815,0.765
			c0,0.421-0.813,0.765-1.815,0.765H69.27C68.27,103.6,67.458,103.257,67.458,102.835z"/>
	</g>
	<g>
		<path style="fill:#FFFFFF;" d="M196.715,109.681c0-0.421,0.812-0.765,1.812-0.765h30.203c1.003,0,1.815,0.343,1.815,0.765
			s-0.813,0.765-1.815,0.765h-30.203C197.526,110.446,196.715,110.103,196.715,109.681z"/>
	</g>
	<g>
		<path style="fill:#FFFFFF;" d="M196.715,102.835c0-0.422,0.812-0.765,1.812-0.765h30.203c1.003,0,1.815,0.343,1.815,0.765
			c0,0.421-0.813,0.765-1.815,0.765h-30.203C197.526,103.6,196.715,103.257,196.715,102.835z"/>
	</g>
</g>
</svg>
