<?xml version="1.0" encoding="iso-8859-1"?>
<!-- Generator: Adobe Illustrator 16.0.0, SVG Export Plug-In . SVG Version: 6.00 Build 0)  -->
<!DOCTYPE svg PUBLIC "-//W3C//DTD SVG 1.1//EN" "http://www.w3.org/Graphics/SVG/1.1/DTD/svg11.dtd">
<svg version="1.1" id="Layer_1" xmlns="http://www.w3.org/2000/svg" xmlns:xlink="http://www.w3.org/1999/xlink" x="0px" y="0px"
	 width="300.9px" height="257.227px" viewBox="0 0 300.9 257.227" style="enable-background:new 0 0 300.9 257.227;"
	 xml:space="preserve">
<g>
	<path style="fill:#224989;" d="M134.223,95.943c0,11.768-9.543,21.312-21.308,21.312c-11.771,0-21.313-9.544-21.313-21.312
		c0-11.771,9.543-21.313,21.313-21.313C124.68,74.63,134.223,84.173,134.223,95.943z"/>
	<circle style="fill:#cedbff;" cx="110.232" cy="98.623" r="18.63"/>
	<g>
		<path style="fill:#0444f9;" d="M112.912,119.06c-12.747,0-23.118-10.372-23.118-23.116c0-12.746,10.371-23.115,23.118-23.115
			s23.118,10.369,23.118,23.115C136.03,108.688,125.659,119.06,112.912,119.06z M112.912,76.44
			c-10.756,0-19.503,8.747-19.503,19.503c0,10.754,8.747,19.504,19.503,19.504c10.754,0,19.504-8.75,19.504-19.504
			C132.416,85.188,123.666,76.44,112.912,76.44z"/>
	</g>
	<g>
		<path style="fill:#0444f9;" d="M134.223,97.751H91.602c-0.995,0-1.808-0.813-1.808-1.808c0-1,0.813-1.808,1.808-1.808h42.621
			c0.995,0,1.808,0.808,1.808,1.808C136.03,96.938,135.218,97.751,134.223,97.751z"/>
	</g>
	<g>
		<path style="fill:#0444f9;" d="M112.912,119.06c-0.998,0-1.805-0.808-1.805-1.805V74.63c0-0.995,0.807-1.802,1.805-1.802
			s1.805,0.807,1.805,1.802v42.625C114.717,118.252,113.91,119.06,112.912,119.06z"/>
	</g>
	<g>
		<path style="fill:#0444f9;" d="M155.015,238.527H70.81v-16.935h84.205V238.527z M74.425,234.912h76.978v-9.71H74.425V234.912z"/>
	</g>
	<g>
		<path style="fill:#0444f9;" d="M150.442,225.202H75.385v-15.944h75.058V225.202z M78.997,221.593h67.83v-8.726h-67.83V221.593z"/>
	</g>
	<path style="fill:#cedbff;" d="M184.102,37.536c0,3.528,2.862,6.391,6.392,6.391c3.528,0,6.391-2.862,6.391-6.391
		c0-3.532-2.862-6.394-6.391-6.394C186.964,31.143,184.102,34.004,184.102,37.536z"/>
	<path style="fill:#cedbff;" d="M165.774,31.153c0,6.875,5.573,12.447,12.448,12.447s12.453-5.572,12.453-12.447
		c0-6.881-5.578-12.454-12.453-12.454S165.774,24.272,165.774,31.153z"/>
	<circle style="fill:#cedbff;" cx="165.772" cy="37.536" r="9.577"/>
	<path style="fill:#cedbff;" d="M64.031,212.907H50.188c-0.972,0-1.762-0.793-1.762-1.762v-4.954c0-0.969,0.79-1.762,1.762-1.762
		h13.844c0.969,0,1.765,0.793,1.765,1.762v4.954C65.796,212.114,65,212.907,64.031,212.907z"/>
	<g>
		<path style="fill:#0444f9;" d="M176.651,231.085h-23.454c-0.996,0-1.806-0.81-1.806-1.805s0.81-1.805,1.806-1.805h19.845V80.997
			l-61.407-39.093L50.23,80.997v146.479h22.392c0.998,0,1.808,0.81,1.808,1.805s-0.81,1.805-1.808,1.805H46.618V79.009
			l65.017-41.385l65.017,41.385V231.085z"/>
	</g>
	<path style="fill:#0444f9;" d="M174.85,79.993c0,0,0,12.895,0,10.469s-63.688-41.014-63.688-41.014l0.474-9.678L174.85,79.993z"/>
	<path style="fill:#0444f9;" d="M48.426,79.993c0,0,0,12.895,0,10.469s63.685-41.014,63.685-41.014l-0.476-9.678L48.426,79.993z"/>
	<g>
		<path style="fill:#0444f9;" d="M287.813,231.085H173.042V130.189l114.771,0.75V231.085z M176.651,227.476h107.547v-92.944
			l-107.547-0.705V227.476z"/>
	</g>
	<g>
		<path style="fill:#0444f9;" d="M174.352,81.817l-0.474-0.302l-62.243-39.606L48.953,81.801H25.417l86.218-52.768l84.902,51.961
			L174.352,81.817z M38.236,78.188h9.662l63.736-40.559l63.704,40.54l9.107-0.342l-72.812-44.562L38.236,78.188z"/>
	</g>
	<polygon style="fill:#0444f9;" points="170.594,67.236 141.611,49.497 141.611,31.658 170.594,31.658 	"/>
	<g>
		<path style="fill:#0444f9;" d="M141.695,212.717H84.129v-56.805c0-15.873,12.911-28.783,28.783-28.783
			c15.869,0,28.783,12.91,28.783,28.783V212.717z M87.741,209.106h50.345v-53.194c0-13.88-11.292-25.174-25.174-25.174
			c-13.879,0-25.171,11.294-25.171,25.174V209.106z"/>
	</g>
	<path style="fill:#cedbff;" d="M107.105,167.79H96.268c-0.799,0-1.455-0.651-1.455-1.455v-15.806c0-3.87,3.137-7.009,7.005-7.009
		l0,0c3.873,0,7.009,3.139,7.009,7.009v15.536C108.826,167.018,108.058,167.79,107.105,167.79z"/>
	<path style="fill:#cedbff;" d="M128.712,167.79h-10.579c-0.949,0-1.719-0.77-1.719-1.714v-15.547c0-3.87,3.139-7.009,7.007-7.009
		l0,0c3.873,0,7.007,3.139,7.007,7.009v15.547C130.428,167.021,129.661,167.79,128.712,167.79z"/>
	<path style="fill:#cedbff;" d="M106.443,202.538h-9.247c-1.315,0-2.384-1.062-2.384-2.377v-19.507c0-1.314,1.068-2.377,2.384-2.377
		h9.247c1.318,0,2.383,1.063,2.383,2.377v19.507C108.826,201.477,107.762,202.538,106.443,202.538z"/>
	<path style="fill:#cedbff;" d="M128.045,202.538h-9.248c-1.314,0-2.383-1.062-2.383-2.377v-19.507c0-1.314,1.068-2.377,2.383-2.377
		h9.248c1.315,0,2.383,1.063,2.383,2.377v19.507C130.428,201.477,129.36,202.538,128.045,202.538z"/>
	<g>
		<path style="fill:#0444f9;" d="M107.105,169.595H96.268c-1.796,0-3.263-1.464-3.263-3.26v-15.806c0-4.857,3.954-8.812,8.813-8.812
			c4.862,0,8.816,3.954,8.816,8.812v15.536C110.634,168.013,109.053,169.595,107.105,169.595z M96.623,165.984h10.396v-15.455
			c0-2.867-2.329-5.202-5.201-5.202c-2.862,0-5.194,2.335-5.194,5.202V165.984z"/>
	</g>
	<g>
		<path style="fill:#0444f9;" d="M128.712,169.595h-10.579c-1.941,0-3.523-1.579-3.523-3.519v-15.547
			c0-4.857,3.954-8.812,8.812-8.812c4.86,0,8.817,3.954,8.817,8.812v15.547C132.238,168.016,130.656,169.595,128.712,169.595z
			 M123.421,145.327c-2.867,0-5.196,2.335-5.196,5.202v15.547l10.401-0.092v-15.455
			C128.626,147.662,126.291,145.327,123.421,145.327z M128.712,165.984L128.712,165.984L128.712,165.984z"/>
	</g>
	<g>
		<path style="fill:#0444f9;" d="M106.443,204.349h-9.247c-2.309,0-4.191-1.88-4.191-4.188v-19.507c0-2.308,1.883-4.188,4.191-4.188
			h9.247c2.313,0,4.19,1.88,4.19,4.188v19.507C110.634,202.469,108.757,204.349,106.443,204.349z M97.196,180.079
			c-0.317,0-0.573,0.258-0.573,0.575v19.507c0,0.317,0.256,0.575,0.573,0.575h9.247c0.317,0,0.575-0.258,0.575-0.575v-19.507
			c0-0.317-0.258-0.575-0.575-0.575H97.196z"/>
	</g>
	<g>
		<path style="fill:#0444f9;" d="M128.045,204.349h-9.248c-2.31,0-4.188-1.88-4.188-4.188v-19.507c0-2.308,1.878-4.188,4.188-4.188
			h9.248c2.311,0,4.193,1.88,4.193,4.188v19.507C132.238,202.469,130.355,204.349,128.045,204.349z M118.797,180.079
			c-0.314,0-0.572,0.258-0.572,0.575v19.507c0,0.317,0.258,0.575,0.572,0.575h9.248c0.322,0,0.581-0.258,0.581-0.575v-19.507
			c0-0.317-0.259-0.575-0.581-0.575H118.797z"/>
	</g>
	<g>
		<path style="fill:#0444f9;" d="M134.406,176.798h-2.685c-1.711,0-3.096-1.388-3.096-3.094c0-1.71,1.385-3.099,3.096-3.099h2.685
			c1.705,0,3.096,1.389,3.096,3.099C137.502,175.41,136.111,176.798,134.406,176.798z M134.406,174.216h0.021H134.406z"/>
	</g>
	<path style="fill:#cedbff;" d="M70.853,123.984H57.011c-0.974,0-1.764-0.794-1.764-1.762v-4.955c0-0.968,0.79-1.764,1.764-1.764
		h13.842c0.974,0,1.765,0.796,1.765,1.764v4.955C72.617,123.19,71.826,123.984,70.853,123.984z"/>
	<path style="fill:#cedbff;" d="M88.229,132.276H74.382c-0.972,0-1.765-0.796-1.765-1.767v-4.952c0-0.971,0.793-1.765,1.765-1.765
		h13.847c0.968,0,1.762,0.794,1.762,1.765v4.952C89.99,131.48,89.196,132.276,88.229,132.276z"/>
	<path style="fill:#cedbff;" d="M168.818,100.183h-13.847c-0.971,0-1.765-0.794-1.765-1.762v-4.957c0-0.969,0.794-1.762,1.765-1.762
		h13.847c0.966,0,1.76,0.793,1.76,1.762v4.957C170.578,99.389,169.784,100.183,168.818,100.183z"/>
	<path style="fill:#cedbff;" d="M155.556,111.99h-13.847c-0.966,0-1.762-0.79-1.762-1.762v-4.954c0-0.971,0.796-1.765,1.762-1.765
		h13.847c0.971,0,1.762,0.794,1.762,1.765v4.954C157.317,111.2,156.526,111.99,155.556,111.99z"/>
	<path style="fill:#cedbff;" d="M168.818,191.279h-13.847c-0.971,0-1.765-0.791-1.765-1.759v-4.955c0-0.971,0.794-1.765,1.765-1.765
		h13.847c0.966,0,1.76,0.794,1.76,1.765v4.955C170.578,190.488,169.784,191.279,168.818,191.279z"/>
	<g>
		<path style="fill:#0444f9;" d="M300.127,134.542H173.042v-18.227h110.564L300.127,134.542z M176.651,130.929h115.325
			l-9.968-10.998H176.651V130.929z"/>
	</g>
	<g>
		<path style="fill:#0444f9;" d="M276.586,231.085h-93.11V154.86c0-3.54,2.88-6.418,6.42-6.418h80.271
			c3.542,0,6.42,2.878,6.42,6.418V231.085z M187.088,227.476h85.889V154.86c0-1.547-1.264-2.809-2.811-2.809h-80.271
			c-1.547,0-2.808,1.262-2.808,2.809V227.476z"/>
	</g>
	<g>
		<path style="fill:#0444f9;" d="M273.202,162.485H185.28c-0.995,0-1.805-0.81-1.805-1.805s0.81-1.805,1.805-1.805h87.922
			c0.996,0,1.806,0.81,1.806,1.805S274.198,162.485,273.202,162.485z"/>
	</g>
	<g>
		<path style="fill:#0444f9;" d="M273.202,174.216H185.28c-0.995,0-1.805-0.808-1.805-1.806c0-0.997,0.81-1.805,1.805-1.805h87.922
			c0.996,0,1.806,0.808,1.806,1.805C275.008,173.408,274.198,174.216,273.202,174.216z"/>
	</g>
	<g>
		<path style="fill:#0444f9;" d="M273.202,185.945H185.28c-0.995,0-1.805-0.81-1.805-1.805c0-0.998,0.81-1.808,1.805-1.808h87.922
			c0.996,0,1.806,0.81,1.806,1.808C275.008,185.136,274.198,185.945,273.202,185.945z"/>
	</g>
	<g>
		<path style="fill:#0444f9;" d="M273.202,197.676H185.28c-0.995,0-1.805-0.81-1.805-1.808s0.81-1.808,1.805-1.808h87.922
			c0.996,0,1.806,0.81,1.806,1.808S274.198,197.676,273.202,197.676z"/>
	</g>
	<g>
		<path style="fill:#0444f9;" d="M273.202,209.402H185.28c-0.995,0-1.805-0.807-1.805-1.807c0-0.996,0.81-1.803,1.805-1.803h87.922
			c0.996,0,1.806,0.807,1.806,1.803C275.008,208.596,274.198,209.402,273.202,209.402z"/>
	</g>
	<g>
		<path style="fill:#0444f9;" d="M273.202,221.136H185.28c-0.995,0-1.805-0.81-1.805-1.808s0.81-1.808,1.805-1.808h87.922
			c0.996,0,1.806,0.81,1.806,1.808S274.198,221.136,273.202,221.136z"/>
	</g>
	<path style="fill:#cedbff;" d="M228.047,79.493c0,5.576-4.519,10.095-10.097,10.095c-5.573,0-10.093-4.519-10.093-10.095
		s4.52-10.095,10.093-10.095C223.528,69.398,228.047,73.917,228.047,79.493z"/>
	<path style="fill:#cedbff;" d="M259.227,74.63c0,10.864-8.807,19.668-19.667,19.668c-10.858,0-19.662-8.804-19.662-19.668
		c0-10.855,8.804-19.662,19.662-19.662C250.42,54.968,259.227,63.774,259.227,74.63z"/>
	<path style="fill:#cedbff;" d="M276.603,74.63c0,8.36-6.775,15.133-15.133,15.133c-8.354,0-15.127-6.772-15.127-15.133
		c0-8.354,6.772-15.127,15.127-15.127C269.827,59.503,276.603,66.275,276.603,74.63z"/>
	<path style="fill:#cedbff;" d="M10.624,119.646c0,2.717-2.206,4.923-4.928,4.923c-2.717,0-4.923-2.206-4.923-4.923
		c0-2.719,2.206-4.925,4.923-4.925C8.418,114.721,10.624,116.927,10.624,119.646z"/>
	<path style="fill:#cedbff;" d="M25.245,116.806c0,5.397-4.373,9.774-9.774,9.774c-5.396,0-9.774-4.377-9.774-9.774
		c0-5.396,4.379-9.775,9.774-9.775C20.872,107.03,25.245,111.409,25.245,116.806z"/>
	<circle style="fill:#cedbff;" cx="32.096" cy="115.504" r="13.199"/>
</g>
</svg>
